G04 #@! TF.GenerationSoftware,KiCad,Pcbnew,(5.1.5)-3*
G04 #@! TF.CreationDate,2020-04-16T17:00:03+04:00*
G04 #@! TF.ProjectId,drawing,64726177-696e-4672-9e6b-696361645f70,rev?*
G04 #@! TF.SameCoordinates,Original*
G04 #@! TF.FileFunction,Copper,L1,Top*
G04 #@! TF.FilePolarity,Positive*
%FSLAX46Y46*%
G04 Gerber Fmt 4.6, Leading zero omitted, Abs format (unit mm)*
G04 Created by KiCad (PCBNEW (5.1.5)-3) date 2020-04-16 17:00:03*
%MOMM*%
%LPD*%
G04 APERTURE LIST*
%ADD10C,0.010000*%
%ADD11C,0.254000*%
G04 APERTURE END LIST*
D10*
G36*
X108389521Y-75471494D02*
G01*
X108483400Y-75489850D01*
X108721925Y-75548861D01*
X108949325Y-75624312D01*
X109186479Y-75724887D01*
X109454262Y-75859274D01*
X109711067Y-76000636D01*
X109939846Y-76122041D01*
X110215790Y-76256244D01*
X110506190Y-76387959D01*
X110778338Y-76501901D01*
X110811734Y-76515024D01*
X111170078Y-76657373D01*
X111458023Y-76779385D01*
X111685625Y-76887091D01*
X111862941Y-76986518D01*
X112000027Y-77083698D01*
X112106941Y-77184660D01*
X112193738Y-77295433D01*
X112242581Y-77372908D01*
X112314280Y-77517466D01*
X112347613Y-77659285D01*
X112353920Y-77824046D01*
X112329203Y-78056200D01*
X112255291Y-78272493D01*
X112123997Y-78488814D01*
X111927132Y-78721053D01*
X111851765Y-78798507D01*
X111666568Y-78974557D01*
X111491252Y-79116306D01*
X111304061Y-79237530D01*
X111083237Y-79352003D01*
X110807023Y-79473499D01*
X110745436Y-79498944D01*
X110536949Y-79592946D01*
X110293343Y-79715798D01*
X110049829Y-79849210D01*
X109899150Y-79938549D01*
X109513159Y-80168876D01*
X109183773Y-80347113D01*
X108903807Y-80476835D01*
X108666070Y-80561618D01*
X108622649Y-80573578D01*
X108409425Y-80611939D01*
X108153733Y-80631996D01*
X107883234Y-80634031D01*
X107625586Y-80618321D01*
X107408448Y-80585148D01*
X107318681Y-80560386D01*
X107122999Y-80482191D01*
X106933845Y-80381735D01*
X106734032Y-80247885D01*
X106506374Y-80069508D01*
X106330782Y-79920476D01*
X106129728Y-79752425D01*
X105903737Y-79573566D01*
X105685464Y-79409323D01*
X105558955Y-79319540D01*
X105249680Y-79085830D01*
X104984440Y-78841283D01*
X104775330Y-78598338D01*
X104634450Y-78369438D01*
X104633864Y-78368194D01*
X104566163Y-78151693D01*
X104549176Y-77918730D01*
X104554578Y-77882249D01*
X104969734Y-77882249D01*
X104980003Y-77946048D01*
X105017606Y-78016143D01*
X105092729Y-78105008D01*
X105215562Y-78225119D01*
X105349263Y-78346921D01*
X105725343Y-78669421D01*
X106066249Y-78928832D01*
X106383786Y-79132507D01*
X106689758Y-79287794D01*
X106995969Y-79402043D01*
X107086400Y-79428521D01*
X107317559Y-79469766D01*
X107603312Y-79486596D01*
X107917564Y-79480240D01*
X108234222Y-79451929D01*
X108527188Y-79402892D01*
X108721191Y-79351464D01*
X108942084Y-79270415D01*
X109196793Y-79159419D01*
X109492677Y-79014741D01*
X109837094Y-78832644D01*
X110237404Y-78609391D01*
X110636452Y-78379018D01*
X110862163Y-78249401D01*
X111070522Y-78134036D01*
X111247623Y-78040290D01*
X111379555Y-77975532D01*
X111451369Y-77947349D01*
X111540926Y-77911734D01*
X111571913Y-77839599D01*
X111573734Y-77796837D01*
X111557605Y-77702808D01*
X111503251Y-77673285D01*
X111499650Y-77673234D01*
X111398731Y-77696907D01*
X111232855Y-77766274D01*
X111006754Y-77878949D01*
X110725160Y-78032544D01*
X110392806Y-78224672D01*
X110316212Y-78270165D01*
X109834710Y-78548130D01*
X109407657Y-78773771D01*
X109025846Y-78950585D01*
X108680068Y-79082069D01*
X108361115Y-79171723D01*
X108059781Y-79223045D01*
X107766856Y-79239533D01*
X107764655Y-79239534D01*
X107472723Y-79227077D01*
X107199908Y-79186242D01*
X106935901Y-79111830D01*
X106670393Y-78998640D01*
X106393074Y-78841475D01*
X106093636Y-78635135D01*
X105761767Y-78374420D01*
X105387161Y-78054133D01*
X105351272Y-78022450D01*
X105217207Y-77907483D01*
X105104720Y-77817749D01*
X105029949Y-77765795D01*
X105010980Y-77757867D01*
X104981786Y-77794597D01*
X104969734Y-77882249D01*
X104554578Y-77882249D01*
X104581864Y-77698005D01*
X104663192Y-77518215D01*
X104664640Y-77516170D01*
X104727746Y-77447937D01*
X104845457Y-77339267D01*
X105005109Y-77201138D01*
X105194039Y-77044527D01*
X105382859Y-76893533D01*
X105610529Y-76712893D01*
X105842994Y-76525419D01*
X106060888Y-76346935D01*
X106244846Y-76193267D01*
X106343716Y-76108359D01*
X106731074Y-75814638D01*
X107127203Y-75604707D01*
X107534233Y-75477950D01*
X107954296Y-75433751D01*
X108389521Y-75471494D01*
G37*
X108389521Y-75471494D02*
X108483400Y-75489850D01*
X108721925Y-75548861D01*
X108949325Y-75624312D01*
X109186479Y-75724887D01*
X109454262Y-75859274D01*
X109711067Y-76000636D01*
X109939846Y-76122041D01*
X110215790Y-76256244D01*
X110506190Y-76387959D01*
X110778338Y-76501901D01*
X110811734Y-76515024D01*
X111170078Y-76657373D01*
X111458023Y-76779385D01*
X111685625Y-76887091D01*
X111862941Y-76986518D01*
X112000027Y-77083698D01*
X112106941Y-77184660D01*
X112193738Y-77295433D01*
X112242581Y-77372908D01*
X112314280Y-77517466D01*
X112347613Y-77659285D01*
X112353920Y-77824046D01*
X112329203Y-78056200D01*
X112255291Y-78272493D01*
X112123997Y-78488814D01*
X111927132Y-78721053D01*
X111851765Y-78798507D01*
X111666568Y-78974557D01*
X111491252Y-79116306D01*
X111304061Y-79237530D01*
X111083237Y-79352003D01*
X110807023Y-79473499D01*
X110745436Y-79498944D01*
X110536949Y-79592946D01*
X110293343Y-79715798D01*
X110049829Y-79849210D01*
X109899150Y-79938549D01*
X109513159Y-80168876D01*
X109183773Y-80347113D01*
X108903807Y-80476835D01*
X108666070Y-80561618D01*
X108622649Y-80573578D01*
X108409425Y-80611939D01*
X108153733Y-80631996D01*
X107883234Y-80634031D01*
X107625586Y-80618321D01*
X107408448Y-80585148D01*
X107318681Y-80560386D01*
X107122999Y-80482191D01*
X106933845Y-80381735D01*
X106734032Y-80247885D01*
X106506374Y-80069508D01*
X106330782Y-79920476D01*
X106129728Y-79752425D01*
X105903737Y-79573566D01*
X105685464Y-79409323D01*
X105558955Y-79319540D01*
X105249680Y-79085830D01*
X104984440Y-78841283D01*
X104775330Y-78598338D01*
X104634450Y-78369438D01*
X104633864Y-78368194D01*
X104566163Y-78151693D01*
X104549176Y-77918730D01*
X104554578Y-77882249D01*
X104969734Y-77882249D01*
X104980003Y-77946048D01*
X105017606Y-78016143D01*
X105092729Y-78105008D01*
X105215562Y-78225119D01*
X105349263Y-78346921D01*
X105725343Y-78669421D01*
X106066249Y-78928832D01*
X106383786Y-79132507D01*
X106689758Y-79287794D01*
X106995969Y-79402043D01*
X107086400Y-79428521D01*
X107317559Y-79469766D01*
X107603312Y-79486596D01*
X107917564Y-79480240D01*
X108234222Y-79451929D01*
X108527188Y-79402892D01*
X108721191Y-79351464D01*
X108942084Y-79270415D01*
X109196793Y-79159419D01*
X109492677Y-79014741D01*
X109837094Y-78832644D01*
X110237404Y-78609391D01*
X110636452Y-78379018D01*
X110862163Y-78249401D01*
X111070522Y-78134036D01*
X111247623Y-78040290D01*
X111379555Y-77975532D01*
X111451369Y-77947349D01*
X111540926Y-77911734D01*
X111571913Y-77839599D01*
X111573734Y-77796837D01*
X111557605Y-77702808D01*
X111503251Y-77673285D01*
X111499650Y-77673234D01*
X111398731Y-77696907D01*
X111232855Y-77766274D01*
X111006754Y-77878949D01*
X110725160Y-78032544D01*
X110392806Y-78224672D01*
X110316212Y-78270165D01*
X109834710Y-78548130D01*
X109407657Y-78773771D01*
X109025846Y-78950585D01*
X108680068Y-79082069D01*
X108361115Y-79171723D01*
X108059781Y-79223045D01*
X107766856Y-79239533D01*
X107764655Y-79239534D01*
X107472723Y-79227077D01*
X107199908Y-79186242D01*
X106935901Y-79111830D01*
X106670393Y-78998640D01*
X106393074Y-78841475D01*
X106093636Y-78635135D01*
X105761767Y-78374420D01*
X105387161Y-78054133D01*
X105351272Y-78022450D01*
X105217207Y-77907483D01*
X105104720Y-77817749D01*
X105029949Y-77765795D01*
X105010980Y-77757867D01*
X104981786Y-77794597D01*
X104969734Y-77882249D01*
X104554578Y-77882249D01*
X104581864Y-77698005D01*
X104663192Y-77518215D01*
X104664640Y-77516170D01*
X104727746Y-77447937D01*
X104845457Y-77339267D01*
X105005109Y-77201138D01*
X105194039Y-77044527D01*
X105382859Y-76893533D01*
X105610529Y-76712893D01*
X105842994Y-76525419D01*
X106060888Y-76346935D01*
X106244846Y-76193267D01*
X106343716Y-76108359D01*
X106731074Y-75814638D01*
X107127203Y-75604707D01*
X107534233Y-75477950D01*
X107954296Y-75433751D01*
X108389521Y-75471494D01*
G36*
X99161637Y-93301426D02*
G01*
X99458790Y-93391987D01*
X99713591Y-93518028D01*
X99840460Y-93607957D01*
X99999495Y-93740236D01*
X100166499Y-93894037D01*
X100265002Y-93992700D01*
X100428734Y-94170925D01*
X100585471Y-94359473D01*
X100740263Y-94566572D01*
X100898158Y-94800451D01*
X101064204Y-95069337D01*
X101243450Y-95381457D01*
X101440945Y-95745040D01*
X101661737Y-96168313D01*
X101910874Y-96659505D01*
X101953413Y-96744367D01*
X102096557Y-97029080D01*
X102218404Y-97266292D01*
X102327485Y-97469349D01*
X102432334Y-97651599D01*
X102541484Y-97826387D01*
X102663469Y-98007062D01*
X102806821Y-98206969D01*
X102980075Y-98439455D01*
X103191762Y-98717868D01*
X103333764Y-98903367D01*
X103699360Y-99386028D01*
X104012514Y-99812351D01*
X104277285Y-100189053D01*
X104497732Y-100522851D01*
X104677917Y-100820461D01*
X104821898Y-101088602D01*
X104933735Y-101333989D01*
X105017487Y-101563340D01*
X105077215Y-101783372D01*
X105078866Y-101790740D01*
X105128262Y-102166603D01*
X105106038Y-102541479D01*
X105010326Y-102926868D01*
X104839260Y-103334271D01*
X104823002Y-103366700D01*
X104628416Y-103658720D01*
X104361943Y-103914060D01*
X104030127Y-104127936D01*
X103639513Y-104295562D01*
X103487766Y-104343092D01*
X103214668Y-104400959D01*
X102887924Y-104438744D01*
X102536384Y-104455409D01*
X102188900Y-104449916D01*
X101874321Y-104421224D01*
X101773567Y-104404808D01*
X101311124Y-104304668D01*
X100874519Y-104179805D01*
X100433554Y-104020427D01*
X99958026Y-103816740D01*
X99953234Y-103814556D01*
X99620081Y-103663606D01*
X99327620Y-103534623D01*
X99064793Y-103424715D01*
X98820539Y-103330994D01*
X98583801Y-103250567D01*
X98343519Y-103180546D01*
X98088635Y-103118040D01*
X97808089Y-103060159D01*
X97490823Y-103004013D01*
X97125778Y-102946711D01*
X96701894Y-102885363D01*
X96208114Y-102817079D01*
X96058567Y-102796696D01*
X95645222Y-102737889D01*
X95305829Y-102682950D01*
X95029953Y-102628870D01*
X94807159Y-102572640D01*
X94627011Y-102511250D01*
X94479075Y-102441691D01*
X94352916Y-102360954D01*
X94247245Y-102274336D01*
X94098467Y-102109685D01*
X93993932Y-101918959D01*
X93933228Y-101694403D01*
X93915942Y-101428262D01*
X93941663Y-101112779D01*
X94009978Y-100740201D01*
X94120477Y-100302771D01*
X94139018Y-100236867D01*
X94211386Y-99933534D01*
X94253833Y-99626872D01*
X94266936Y-99298545D01*
X94251270Y-98930218D01*
X94207412Y-98503555D01*
X94196223Y-98416534D01*
X94167061Y-98156323D01*
X94143414Y-97871228D01*
X94128214Y-97601076D01*
X94124144Y-97437484D01*
X94124605Y-97232931D01*
X94131592Y-97088343D01*
X94149869Y-96979037D01*
X94184196Y-96880330D01*
X94239337Y-96767539D01*
X94261456Y-96725751D01*
X94383181Y-96524989D01*
X94521814Y-96358490D01*
X94691895Y-96215105D01*
X94907962Y-96083689D01*
X95184554Y-95953092D01*
X95367564Y-95877648D01*
X95710951Y-95738574D01*
X95991092Y-95616217D01*
X96222630Y-95499563D01*
X96420211Y-95377598D01*
X96598478Y-95239306D01*
X96772076Y-95073674D01*
X96955649Y-94869687D01*
X97163842Y-94616331D01*
X97339007Y-94394867D01*
X97595916Y-94080464D01*
X97837009Y-93810909D01*
X98054976Y-93593604D01*
X98242507Y-93435947D01*
X98361143Y-93360074D01*
X98593811Y-93283250D01*
X98866976Y-93264441D01*
X99161637Y-93301426D01*
G37*
X99161637Y-93301426D02*
X99458790Y-93391987D01*
X99713591Y-93518028D01*
X99840460Y-93607957D01*
X99999495Y-93740236D01*
X100166499Y-93894037D01*
X100265002Y-93992700D01*
X100428734Y-94170925D01*
X100585471Y-94359473D01*
X100740263Y-94566572D01*
X100898158Y-94800451D01*
X101064204Y-95069337D01*
X101243450Y-95381457D01*
X101440945Y-95745040D01*
X101661737Y-96168313D01*
X101910874Y-96659505D01*
X101953413Y-96744367D01*
X102096557Y-97029080D01*
X102218404Y-97266292D01*
X102327485Y-97469349D01*
X102432334Y-97651599D01*
X102541484Y-97826387D01*
X102663469Y-98007062D01*
X102806821Y-98206969D01*
X102980075Y-98439455D01*
X103191762Y-98717868D01*
X103333764Y-98903367D01*
X103699360Y-99386028D01*
X104012514Y-99812351D01*
X104277285Y-100189053D01*
X104497732Y-100522851D01*
X104677917Y-100820461D01*
X104821898Y-101088602D01*
X104933735Y-101333989D01*
X105017487Y-101563340D01*
X105077215Y-101783372D01*
X105078866Y-101790740D01*
X105128262Y-102166603D01*
X105106038Y-102541479D01*
X105010326Y-102926868D01*
X104839260Y-103334271D01*
X104823002Y-103366700D01*
X104628416Y-103658720D01*
X104361943Y-103914060D01*
X104030127Y-104127936D01*
X103639513Y-104295562D01*
X103487766Y-104343092D01*
X103214668Y-104400959D01*
X102887924Y-104438744D01*
X102536384Y-104455409D01*
X102188900Y-104449916D01*
X101874321Y-104421224D01*
X101773567Y-104404808D01*
X101311124Y-104304668D01*
X100874519Y-104179805D01*
X100433554Y-104020427D01*
X99958026Y-103816740D01*
X99953234Y-103814556D01*
X99620081Y-103663606D01*
X99327620Y-103534623D01*
X99064793Y-103424715D01*
X98820539Y-103330994D01*
X98583801Y-103250567D01*
X98343519Y-103180546D01*
X98088635Y-103118040D01*
X97808089Y-103060159D01*
X97490823Y-103004013D01*
X97125778Y-102946711D01*
X96701894Y-102885363D01*
X96208114Y-102817079D01*
X96058567Y-102796696D01*
X95645222Y-102737889D01*
X95305829Y-102682950D01*
X95029953Y-102628870D01*
X94807159Y-102572640D01*
X94627011Y-102511250D01*
X94479075Y-102441691D01*
X94352916Y-102360954D01*
X94247245Y-102274336D01*
X94098467Y-102109685D01*
X93993932Y-101918959D01*
X93933228Y-101694403D01*
X93915942Y-101428262D01*
X93941663Y-101112779D01*
X94009978Y-100740201D01*
X94120477Y-100302771D01*
X94139018Y-100236867D01*
X94211386Y-99933534D01*
X94253833Y-99626872D01*
X94266936Y-99298545D01*
X94251270Y-98930218D01*
X94207412Y-98503555D01*
X94196223Y-98416534D01*
X94167061Y-98156323D01*
X94143414Y-97871228D01*
X94128214Y-97601076D01*
X94124144Y-97437484D01*
X94124605Y-97232931D01*
X94131592Y-97088343D01*
X94149869Y-96979037D01*
X94184196Y-96880330D01*
X94239337Y-96767539D01*
X94261456Y-96725751D01*
X94383181Y-96524989D01*
X94521814Y-96358490D01*
X94691895Y-96215105D01*
X94907962Y-96083689D01*
X95184554Y-95953092D01*
X95367564Y-95877648D01*
X95710951Y-95738574D01*
X95991092Y-95616217D01*
X96222630Y-95499563D01*
X96420211Y-95377598D01*
X96598478Y-95239306D01*
X96772076Y-95073674D01*
X96955649Y-94869687D01*
X97163842Y-94616331D01*
X97339007Y-94394867D01*
X97595916Y-94080464D01*
X97837009Y-93810909D01*
X98054976Y-93593604D01*
X98242507Y-93435947D01*
X98361143Y-93360074D01*
X98593811Y-93283250D01*
X98866976Y-93264441D01*
X99161637Y-93301426D01*
G36*
X115744641Y-93267588D02*
G01*
X115790483Y-93323303D01*
X115807067Y-93410139D01*
X115818304Y-93509256D01*
X115847867Y-93658319D01*
X115889533Y-93826245D01*
X115892649Y-93837570D01*
X116043464Y-94269278D01*
X116238420Y-94640536D01*
X116473889Y-94946229D01*
X116746244Y-95181243D01*
X116916755Y-95281692D01*
X117083694Y-95356556D01*
X117229491Y-95395774D01*
X117398492Y-95409549D01*
X117475412Y-95410241D01*
X117920040Y-95367697D01*
X118370211Y-95243408D01*
X118820934Y-95039642D01*
X119267219Y-94758664D01*
X119704075Y-94402738D01*
X119713139Y-94394451D01*
X119997303Y-94134066D01*
X120527324Y-94175063D01*
X120772186Y-94196863D01*
X120954068Y-94221316D01*
X121094641Y-94252806D01*
X121215574Y-94295719D01*
X121288201Y-94329007D01*
X121473632Y-94438037D01*
X121633948Y-94575889D01*
X121774450Y-94751898D01*
X121900441Y-94975401D01*
X122017222Y-95255734D01*
X122130095Y-95602234D01*
X122239126Y-96003534D01*
X122331868Y-96362267D01*
X122413348Y-96654387D01*
X122490817Y-96895898D01*
X122571527Y-97102804D01*
X122662728Y-97291108D01*
X122771673Y-97476816D01*
X122905612Y-97675931D01*
X123071797Y-97904458D01*
X123144494Y-98001784D01*
X123297573Y-98212585D01*
X123444151Y-98426447D01*
X123570687Y-98622789D01*
X123663645Y-98781032D01*
X123687537Y-98827284D01*
X123764303Y-98998726D01*
X123806947Y-99141152D01*
X123825039Y-99296196D01*
X123828238Y-99439306D01*
X123825375Y-99613139D01*
X123810503Y-99732328D01*
X123776140Y-99826775D01*
X123714803Y-99926381D01*
X123701622Y-99945313D01*
X123626422Y-100038106D01*
X123525905Y-100134582D01*
X123392820Y-100239408D01*
X123219914Y-100357250D01*
X122999937Y-100492776D01*
X122725639Y-100650651D01*
X122389767Y-100835543D01*
X121985070Y-101052118D01*
X121966785Y-101061804D01*
X121444559Y-101343035D01*
X121000020Y-101592526D01*
X120632522Y-101810665D01*
X120341417Y-101997836D01*
X120126057Y-102154425D01*
X120103900Y-102172302D01*
X120040421Y-102229286D01*
X119926202Y-102336949D01*
X119770566Y-102486294D01*
X119582836Y-102668326D01*
X119372332Y-102874049D01*
X119151400Y-103091481D01*
X118782384Y-103449132D01*
X118456759Y-103748517D01*
X118164329Y-103996922D01*
X117894899Y-104201636D01*
X117638276Y-104369943D01*
X117384265Y-104509131D01*
X117122669Y-104626486D01*
X116874856Y-104718594D01*
X116543215Y-104807991D01*
X116178715Y-104865467D01*
X115808921Y-104889145D01*
X115461396Y-104877152D01*
X115186794Y-104833428D01*
X114884505Y-104736204D01*
X114608048Y-104592627D01*
X114337269Y-104390578D01*
X114130938Y-104198531D01*
X113851695Y-103886431D01*
X113645042Y-103573808D01*
X113505238Y-103245111D01*
X113426540Y-102884788D01*
X113403209Y-102477286D01*
X113410697Y-102247700D01*
X113423487Y-102064273D01*
X113441736Y-101884729D01*
X113467632Y-101698575D01*
X113503365Y-101495316D01*
X113551124Y-101264461D01*
X113613098Y-100995515D01*
X113691475Y-100677984D01*
X113788446Y-100301376D01*
X113906199Y-99855196D01*
X113922926Y-99792367D01*
X114034138Y-99371015D01*
X114124882Y-99015106D01*
X114198021Y-98708695D01*
X114256418Y-98435837D01*
X114302933Y-98180585D01*
X114340430Y-97926994D01*
X114371769Y-97659118D01*
X114399815Y-97361012D01*
X114427427Y-97016730D01*
X114432016Y-96956034D01*
X114484455Y-96334058D01*
X114543215Y-95789651D01*
X114609970Y-95315841D01*
X114686400Y-94905659D01*
X114774180Y-94552131D01*
X114874988Y-94248289D01*
X114990501Y-93987161D01*
X115122395Y-93761775D01*
X115237940Y-93606040D01*
X115367870Y-93468509D01*
X115505069Y-93357386D01*
X115631105Y-93284981D01*
X115727547Y-93263605D01*
X115744641Y-93267588D01*
G37*
X115744641Y-93267588D02*
X115790483Y-93323303D01*
X115807067Y-93410139D01*
X115818304Y-93509256D01*
X115847867Y-93658319D01*
X115889533Y-93826245D01*
X115892649Y-93837570D01*
X116043464Y-94269278D01*
X116238420Y-94640536D01*
X116473889Y-94946229D01*
X116746244Y-95181243D01*
X116916755Y-95281692D01*
X117083694Y-95356556D01*
X117229491Y-95395774D01*
X117398492Y-95409549D01*
X117475412Y-95410241D01*
X117920040Y-95367697D01*
X118370211Y-95243408D01*
X118820934Y-95039642D01*
X119267219Y-94758664D01*
X119704075Y-94402738D01*
X119713139Y-94394451D01*
X119997303Y-94134066D01*
X120527324Y-94175063D01*
X120772186Y-94196863D01*
X120954068Y-94221316D01*
X121094641Y-94252806D01*
X121215574Y-94295719D01*
X121288201Y-94329007D01*
X121473632Y-94438037D01*
X121633948Y-94575889D01*
X121774450Y-94751898D01*
X121900441Y-94975401D01*
X122017222Y-95255734D01*
X122130095Y-95602234D01*
X122239126Y-96003534D01*
X122331868Y-96362267D01*
X122413348Y-96654387D01*
X122490817Y-96895898D01*
X122571527Y-97102804D01*
X122662728Y-97291108D01*
X122771673Y-97476816D01*
X122905612Y-97675931D01*
X123071797Y-97904458D01*
X123144494Y-98001784D01*
X123297573Y-98212585D01*
X123444151Y-98426447D01*
X123570687Y-98622789D01*
X123663645Y-98781032D01*
X123687537Y-98827284D01*
X123764303Y-98998726D01*
X123806947Y-99141152D01*
X123825039Y-99296196D01*
X123828238Y-99439306D01*
X123825375Y-99613139D01*
X123810503Y-99732328D01*
X123776140Y-99826775D01*
X123714803Y-99926381D01*
X123701622Y-99945313D01*
X123626422Y-100038106D01*
X123525905Y-100134582D01*
X123392820Y-100239408D01*
X123219914Y-100357250D01*
X122999937Y-100492776D01*
X122725639Y-100650651D01*
X122389767Y-100835543D01*
X121985070Y-101052118D01*
X121966785Y-101061804D01*
X121444559Y-101343035D01*
X121000020Y-101592526D01*
X120632522Y-101810665D01*
X120341417Y-101997836D01*
X120126057Y-102154425D01*
X120103900Y-102172302D01*
X120040421Y-102229286D01*
X119926202Y-102336949D01*
X119770566Y-102486294D01*
X119582836Y-102668326D01*
X119372332Y-102874049D01*
X119151400Y-103091481D01*
X118782384Y-103449132D01*
X118456759Y-103748517D01*
X118164329Y-103996922D01*
X117894899Y-104201636D01*
X117638276Y-104369943D01*
X117384265Y-104509131D01*
X117122669Y-104626486D01*
X116874856Y-104718594D01*
X116543215Y-104807991D01*
X116178715Y-104865467D01*
X115808921Y-104889145D01*
X115461396Y-104877152D01*
X115186794Y-104833428D01*
X114884505Y-104736204D01*
X114608048Y-104592627D01*
X114337269Y-104390578D01*
X114130938Y-104198531D01*
X113851695Y-103886431D01*
X113645042Y-103573808D01*
X113505238Y-103245111D01*
X113426540Y-102884788D01*
X113403209Y-102477286D01*
X113410697Y-102247700D01*
X113423487Y-102064273D01*
X113441736Y-101884729D01*
X113467632Y-101698575D01*
X113503365Y-101495316D01*
X113551124Y-101264461D01*
X113613098Y-100995515D01*
X113691475Y-100677984D01*
X113788446Y-100301376D01*
X113906199Y-99855196D01*
X113922926Y-99792367D01*
X114034138Y-99371015D01*
X114124882Y-99015106D01*
X114198021Y-98708695D01*
X114256418Y-98435837D01*
X114302933Y-98180585D01*
X114340430Y-97926994D01*
X114371769Y-97659118D01*
X114399815Y-97361012D01*
X114427427Y-97016730D01*
X114432016Y-96956034D01*
X114484455Y-96334058D01*
X114543215Y-95789651D01*
X114609970Y-95315841D01*
X114686400Y-94905659D01*
X114774180Y-94552131D01*
X114874988Y-94248289D01*
X114990501Y-93987161D01*
X115122395Y-93761775D01*
X115237940Y-93606040D01*
X115367870Y-93468509D01*
X115505069Y-93357386D01*
X115631105Y-93284981D01*
X115727547Y-93263605D01*
X115744641Y-93267588D01*
D11*
G36*
X110144695Y-67759982D02*
G01*
X110594522Y-67809175D01*
X111007040Y-67887564D01*
X111384417Y-67992752D01*
X111729142Y-68122604D01*
X112043972Y-68275387D01*
X112331704Y-68449834D01*
X112594965Y-68645109D01*
X112836114Y-68860765D01*
X113057027Y-69096495D01*
X113259102Y-69351947D01*
X113443381Y-69626628D01*
X113610608Y-69919769D01*
X113761377Y-70230322D01*
X113896220Y-70556988D01*
X114015680Y-70898248D01*
X114120367Y-71252444D01*
X114210968Y-71617845D01*
X114288233Y-71992595D01*
X114352202Y-72370149D01*
X114448658Y-73155621D01*
X114505879Y-73942950D01*
X114533048Y-74723610D01*
X114539013Y-75482881D01*
X114524315Y-76865639D01*
X114523440Y-76877340D01*
X114523957Y-76899280D01*
X114523724Y-76921203D01*
X114524749Y-76932880D01*
X114533773Y-77315815D01*
X114533646Y-77339548D01*
X114534564Y-77349413D01*
X114534798Y-77359323D01*
X114537682Y-77382897D01*
X114572971Y-77761912D01*
X114574476Y-77785526D01*
X114576090Y-77795413D01*
X114577017Y-77805368D01*
X114581502Y-77828564D01*
X114640914Y-78192479D01*
X114643940Y-78215420D01*
X114646334Y-78225674D01*
X114648028Y-78236053D01*
X114653971Y-78258394D01*
X114735503Y-78607676D01*
X114739825Y-78629450D01*
X114743140Y-78640394D01*
X114745743Y-78651545D01*
X114752891Y-78672584D01*
X114854419Y-79007760D01*
X114859740Y-79028006D01*
X114864165Y-79039937D01*
X114867854Y-79052114D01*
X114875856Y-79071455D01*
X114995237Y-79393300D01*
X115001203Y-79411704D01*
X115006919Y-79424797D01*
X115011897Y-79438216D01*
X115020384Y-79455635D01*
X115155444Y-79764970D01*
X115161705Y-79781369D01*
X115168892Y-79795771D01*
X115175338Y-79810534D01*
X115183911Y-79825866D01*
X115332558Y-80123731D01*
X115338782Y-80138041D01*
X115347570Y-80153810D01*
X115355632Y-80169966D01*
X115363937Y-80183182D01*
X115524160Y-80470701D01*
X115530056Y-80482913D01*
X115540521Y-80500061D01*
X115550308Y-80517623D01*
X115558044Y-80528772D01*
X115730366Y-80811129D01*
X115738091Y-80825371D01*
X115747896Y-80839852D01*
X115756991Y-80854755D01*
X115766731Y-80867671D01*
X116162274Y-81451866D01*
X116169812Y-81464449D01*
X116181131Y-81479717D01*
X116191779Y-81495444D01*
X116201148Y-81506719D01*
X116620769Y-82072753D01*
X116624270Y-82078350D01*
X116640789Y-82099759D01*
X116656908Y-82121502D01*
X116661345Y-82126399D01*
X117092995Y-82685822D01*
X117097398Y-82692508D01*
X117113539Y-82712447D01*
X117129211Y-82732758D01*
X117134700Y-82738587D01*
X117545257Y-83245748D01*
X117986906Y-83819154D01*
X118436498Y-84439868D01*
X118882858Y-85103620D01*
X119314888Y-85806073D01*
X119721506Y-86542665D01*
X120094294Y-87313892D01*
X120260552Y-87701991D01*
X120414193Y-88096375D01*
X120636636Y-88759102D01*
X120814228Y-89429353D01*
X120944266Y-90115173D01*
X120987908Y-90450799D01*
X121018287Y-90794167D01*
X121033964Y-91138706D01*
X121034324Y-91484251D01*
X121018745Y-91830651D01*
X120986593Y-92177805D01*
X120937202Y-92525689D01*
X120869889Y-92874206D01*
X120783927Y-93223359D01*
X120686513Y-93546704D01*
X120584079Y-93537584D01*
X120583983Y-93537585D01*
X120576680Y-93536969D01*
X120046659Y-93495972D01*
X120039250Y-93496124D01*
X120031917Y-93495002D01*
X119976837Y-93497407D01*
X119921780Y-93498538D01*
X119914542Y-93500126D01*
X119907130Y-93500450D01*
X119853564Y-93513508D01*
X119799777Y-93525311D01*
X119792986Y-93528275D01*
X119785777Y-93530032D01*
X119735804Y-93553229D01*
X119685297Y-93575270D01*
X119679201Y-93579503D01*
X119672482Y-93582622D01*
X119627977Y-93615075D01*
X119582702Y-93646515D01*
X119577550Y-93651845D01*
X119571558Y-93656215D01*
X119564928Y-93662206D01*
X119285599Y-93918161D01*
X118893216Y-94237853D01*
X118517187Y-94474599D01*
X118151916Y-94639733D01*
X117803514Y-94735924D01*
X117447736Y-94769966D01*
X117427411Y-94769783D01*
X117339509Y-94762619D01*
X117299115Y-94751753D01*
X117211019Y-94712246D01*
X117120735Y-94659059D01*
X116941233Y-94504168D01*
X116779272Y-94293906D01*
X116632069Y-94013584D01*
X116505594Y-93651551D01*
X116472687Y-93518927D01*
X116451240Y-93410785D01*
X116442993Y-93338043D01*
X116438847Y-93318652D01*
X116437321Y-93298870D01*
X116435705Y-93290081D01*
X116419121Y-93203245D01*
X116410538Y-93174106D01*
X116404923Y-93144240D01*
X116392931Y-93114331D01*
X116383829Y-93083429D01*
X116369748Y-93056508D01*
X116358440Y-93028305D01*
X116340869Y-93001296D01*
X116325937Y-92972749D01*
X116306898Y-92949079D01*
X116290326Y-92923606D01*
X116284696Y-92916667D01*
X116238855Y-92860952D01*
X116226824Y-92848941D01*
X116216621Y-92835344D01*
X116182704Y-92804895D01*
X116150459Y-92772703D01*
X116136330Y-92763261D01*
X116123676Y-92751901D01*
X116084492Y-92728621D01*
X116046607Y-92703304D01*
X116030905Y-92696783D01*
X116016292Y-92688101D01*
X115973348Y-92672880D01*
X115967687Y-92670529D01*
X115966287Y-92669800D01*
X115965086Y-92669449D01*
X115931253Y-92655398D01*
X115914583Y-92652051D01*
X115898563Y-92646373D01*
X115889874Y-92644284D01*
X115872780Y-92640301D01*
X115859378Y-92638533D01*
X115846403Y-92634738D01*
X115813891Y-92631835D01*
X115808790Y-92630811D01*
X115802225Y-92630794D01*
X115797566Y-92630378D01*
X115748947Y-92623963D01*
X115735453Y-92624832D01*
X115721992Y-92623630D01*
X115673231Y-92628838D01*
X115624299Y-92631989D01*
X115611240Y-92635460D01*
X115597793Y-92636896D01*
X115589055Y-92638769D01*
X115492613Y-92660145D01*
X115464022Y-92669489D01*
X115434647Y-92675881D01*
X115404815Y-92688837D01*
X115373886Y-92698945D01*
X115347661Y-92713660D01*
X115320080Y-92725639D01*
X115312301Y-92730036D01*
X115186265Y-92802441D01*
X115148413Y-92829417D01*
X115109240Y-92854474D01*
X115102257Y-92860050D01*
X114965058Y-92971174D01*
X114937930Y-92997931D01*
X114908830Y-93022546D01*
X114902649Y-93028999D01*
X114772718Y-93166530D01*
X114752184Y-93193029D01*
X114729331Y-93217559D01*
X114723957Y-93224698D01*
X114608412Y-93380434D01*
X114592775Y-93406486D01*
X114574590Y-93430851D01*
X114570024Y-93438532D01*
X114438130Y-93663918D01*
X114424862Y-93692716D01*
X114408882Y-93720104D01*
X114405210Y-93728251D01*
X114289697Y-93989379D01*
X114281448Y-94014375D01*
X114270420Y-94038292D01*
X114267548Y-94046754D01*
X114166740Y-94350596D01*
X114162281Y-94370296D01*
X114155254Y-94389246D01*
X114153041Y-94397904D01*
X114065261Y-94751432D01*
X114063157Y-94765777D01*
X114058927Y-94779651D01*
X114057229Y-94788424D01*
X113980799Y-95198606D01*
X113979959Y-95208294D01*
X113977537Y-95217714D01*
X113976229Y-95226554D01*
X113909474Y-95700363D01*
X113909223Y-95706293D01*
X113907931Y-95712094D01*
X113906911Y-95720972D01*
X113848151Y-96265379D01*
X113848121Y-96268410D01*
X113847530Y-96271391D01*
X113846718Y-96280290D01*
X113794279Y-96902266D01*
X113794281Y-96902412D01*
X113793837Y-96907784D01*
X113789358Y-96967020D01*
X113762211Y-97305508D01*
X113735265Y-97591925D01*
X113705891Y-97843004D01*
X113671385Y-98076365D01*
X113628542Y-98311466D01*
X113573766Y-98567406D01*
X113503500Y-98861779D01*
X113414635Y-99210319D01*
X113304289Y-99628389D01*
X113287742Y-99690544D01*
X113287729Y-99690621D01*
X113287387Y-99691883D01*
X113169634Y-100138063D01*
X113169610Y-100138212D01*
X113168662Y-100141791D01*
X113071691Y-100518399D01*
X113071673Y-100518517D01*
X113070123Y-100524614D01*
X112991746Y-100842145D01*
X112991674Y-100842641D01*
X112991509Y-100843110D01*
X112989442Y-100851804D01*
X112927468Y-101120750D01*
X112927117Y-101123460D01*
X112926266Y-101126066D01*
X112924395Y-101134804D01*
X112876636Y-101365659D01*
X112876090Y-101370776D01*
X112874640Y-101375713D01*
X112873031Y-101384503D01*
X112837298Y-101587762D01*
X112836763Y-101594756D01*
X112835029Y-101601551D01*
X112833736Y-101610393D01*
X112807840Y-101796547D01*
X112807541Y-101803918D01*
X112805982Y-101811128D01*
X112805016Y-101820012D01*
X112786767Y-101999556D01*
X112786747Y-102005250D01*
X112785721Y-102010845D01*
X112785037Y-102019756D01*
X112772247Y-102203182D01*
X112772455Y-102210579D01*
X112771390Y-102217908D01*
X112771037Y-102226837D01*
X112763549Y-102456423D01*
X112765131Y-102480672D01*
X112764471Y-102492758D01*
X112372494Y-102498641D01*
X111854914Y-102469178D01*
X111343773Y-102413319D01*
X110868455Y-102346804D01*
X110867043Y-102346469D01*
X110834943Y-102342115D01*
X110803232Y-102337677D01*
X110801798Y-102337618D01*
X109878272Y-102212339D01*
X109856567Y-102208641D01*
X109844953Y-102207820D01*
X109833419Y-102206255D01*
X109811422Y-102205448D01*
X109377063Y-102174730D01*
X109345895Y-102172327D01*
X109343735Y-102172373D01*
X109341559Y-102172219D01*
X109310083Y-102173087D01*
X108902161Y-102181749D01*
X108881555Y-102181403D01*
X108868556Y-102182463D01*
X108855513Y-102182740D01*
X108835047Y-102185196D01*
X108288079Y-102229800D01*
X108272180Y-102230270D01*
X108254562Y-102232533D01*
X108236866Y-102233976D01*
X108221222Y-102236815D01*
X107729057Y-102300031D01*
X107712693Y-102301301D01*
X107695702Y-102304316D01*
X107678595Y-102306513D01*
X107662607Y-102310188D01*
X106784254Y-102466034D01*
X106781350Y-102466284D01*
X106751058Y-102471924D01*
X106720854Y-102477283D01*
X106718060Y-102478068D01*
X105971433Y-102617078D01*
X105734171Y-102648019D01*
X105735066Y-102641918D01*
X105744326Y-102588271D01*
X105744916Y-102579354D01*
X105767140Y-102204478D01*
X105764976Y-102148324D01*
X105763909Y-102092079D01*
X105762806Y-102083211D01*
X105713410Y-101707348D01*
X105707910Y-101683687D01*
X105705273Y-101659534D01*
X105703380Y-101650801D01*
X105701728Y-101643433D01*
X105698650Y-101634088D01*
X105697145Y-101624351D01*
X105694864Y-101615711D01*
X105635135Y-101395678D01*
X105627048Y-101374374D01*
X105621665Y-101352225D01*
X105618658Y-101343810D01*
X105534906Y-101114460D01*
X105526085Y-101096099D01*
X105519753Y-101076727D01*
X105516103Y-101068570D01*
X105404266Y-100823183D01*
X105396032Y-100808979D01*
X105389925Y-100793737D01*
X105385753Y-100785835D01*
X105241772Y-100517694D01*
X105235039Y-100507649D01*
X105229969Y-100496673D01*
X105225394Y-100488997D01*
X105045209Y-100191386D01*
X105040344Y-100184881D01*
X105036651Y-100177646D01*
X105031779Y-100170155D01*
X104811332Y-99836358D01*
X104808293Y-99832611D01*
X104805975Y-99828377D01*
X104800887Y-99821030D01*
X104536116Y-99444329D01*
X104534668Y-99442646D01*
X104533555Y-99440710D01*
X104528315Y-99433471D01*
X104215161Y-99007149D01*
X104215000Y-99006969D01*
X104214874Y-99006757D01*
X104209527Y-98999597D01*
X103843932Y-98516936D01*
X103843834Y-98516830D01*
X103841955Y-98514340D01*
X103700586Y-98329668D01*
X103491358Y-98054489D01*
X103323522Y-97829273D01*
X103188817Y-97641424D01*
X103078294Y-97477725D01*
X102981305Y-97322411D01*
X102886876Y-97158272D01*
X102784984Y-96968597D01*
X102667110Y-96739120D01*
X102525555Y-96457568D01*
X102483016Y-96372706D01*
X102482942Y-96372588D01*
X102481652Y-96370001D01*
X102232515Y-95878809D01*
X102232460Y-95878722D01*
X102229176Y-95872319D01*
X102008385Y-95449046D01*
X102007886Y-95448281D01*
X102007543Y-95447438D01*
X102003332Y-95439556D01*
X101805837Y-95075973D01*
X101804085Y-95073386D01*
X101802838Y-95070514D01*
X101798441Y-95062734D01*
X101619195Y-94750614D01*
X101615852Y-94745921D01*
X101613385Y-94740702D01*
X101608743Y-94733067D01*
X101442696Y-94464180D01*
X101437513Y-94457376D01*
X101433542Y-94449787D01*
X101428593Y-94442347D01*
X101270698Y-94208468D01*
X101263725Y-94200047D01*
X101258195Y-94190611D01*
X101252895Y-94183416D01*
X101098103Y-93976317D01*
X101089946Y-93967376D01*
X101083293Y-93957262D01*
X101077628Y-93950350D01*
X100920891Y-93761802D01*
X100912775Y-93753781D01*
X100906039Y-93744568D01*
X100900039Y-93737945D01*
X100736307Y-93559721D01*
X100729712Y-93553819D01*
X100724187Y-93546886D01*
X100717917Y-93540519D01*
X100619414Y-93441856D01*
X100612478Y-93436149D01*
X100606586Y-93429361D01*
X100600055Y-93423262D01*
X100433051Y-93269461D01*
X100423701Y-93262404D01*
X100415586Y-93253956D01*
X100408756Y-93248194D01*
X100249721Y-93115915D01*
X100232949Y-93104537D01*
X100217820Y-93091043D01*
X100210565Y-93085825D01*
X100083696Y-92995896D01*
X100043908Y-92973174D01*
X100005339Y-92948393D01*
X99997357Y-92944376D01*
X99742555Y-92818335D01*
X99697819Y-92801413D01*
X99653895Y-92782451D01*
X99645365Y-92779786D01*
X99348213Y-92689225D01*
X99299004Y-92679348D01*
X99250201Y-92667583D01*
X99241342Y-92666409D01*
X98946682Y-92629424D01*
X98889304Y-92627867D01*
X98831932Y-92625401D01*
X98823013Y-92625953D01*
X98549847Y-92644762D01*
X98536954Y-92646928D01*
X98523885Y-92647082D01*
X98475469Y-92657260D01*
X98426668Y-92665461D01*
X98414443Y-92670090D01*
X98401652Y-92672779D01*
X98393147Y-92675522D01*
X98223183Y-92731642D01*
X98222839Y-92728494D01*
X98206550Y-92283290D01*
X98220517Y-91829994D01*
X98263434Y-91369648D01*
X98333925Y-90903446D01*
X98430505Y-90432754D01*
X98551603Y-89958939D01*
X98695444Y-89483793D01*
X98871095Y-88979332D01*
X99068191Y-88476607D01*
X99284703Y-87976867D01*
X99518398Y-87481786D01*
X99767050Y-86992906D01*
X100026476Y-86515311D01*
X100580169Y-85578883D01*
X101154384Y-84696020D01*
X101732799Y-83874597D01*
X102296645Y-83126290D01*
X102791521Y-82507150D01*
X102792755Y-82506100D01*
X102833501Y-82454629D01*
X102853633Y-82429441D01*
X102854518Y-82428079D01*
X102855520Y-82426813D01*
X102872866Y-82399837D01*
X102908723Y-82344642D01*
X102909325Y-82343134D01*
X103272005Y-81779083D01*
X103285239Y-81759793D01*
X103290173Y-81750829D01*
X103295715Y-81742209D01*
X103306394Y-81721355D01*
X103630709Y-81132077D01*
X103643643Y-81109805D01*
X103646920Y-81102621D01*
X103650723Y-81095711D01*
X103660861Y-81072059D01*
X103924219Y-80494715D01*
X103935857Y-80470465D01*
X103938143Y-80464189D01*
X103940925Y-80458090D01*
X103949663Y-80432561D01*
X104157732Y-79861313D01*
X104167333Y-79836548D01*
X104169222Y-79829766D01*
X104171636Y-79823139D01*
X104178249Y-79797360D01*
X104337160Y-79226890D01*
X104344380Y-79203392D01*
X104346179Y-79194513D01*
X104348611Y-79185783D01*
X104352857Y-79161558D01*
X104364829Y-79102473D01*
X104499376Y-79258791D01*
X104522836Y-79281194D01*
X104544091Y-79305711D01*
X104550619Y-79311813D01*
X104815859Y-79556361D01*
X104837264Y-79572535D01*
X104856737Y-79591000D01*
X104863829Y-79596437D01*
X105173105Y-79830147D01*
X105177472Y-79832821D01*
X105181299Y-79836238D01*
X105188550Y-79841460D01*
X105307772Y-79926071D01*
X105512669Y-80080248D01*
X105725850Y-80248969D01*
X105918496Y-80409992D01*
X106092236Y-80557452D01*
X106098879Y-80562055D01*
X106104653Y-80567726D01*
X106111649Y-80573286D01*
X106339307Y-80751663D01*
X106355657Y-80762071D01*
X106370454Y-80774583D01*
X106377843Y-80779608D01*
X106577656Y-80913458D01*
X106602509Y-80926793D01*
X106625797Y-80942723D01*
X106633660Y-80946969D01*
X106822814Y-81047425D01*
X106850681Y-81058895D01*
X106877238Y-81073124D01*
X106885513Y-81076498D01*
X107081195Y-81154692D01*
X107111034Y-81163351D01*
X107139897Y-81174908D01*
X107148495Y-81177344D01*
X107238262Y-81202106D01*
X107270943Y-81207763D01*
X107302970Y-81216397D01*
X107311794Y-81217807D01*
X107528932Y-81250980D01*
X107553484Y-81252304D01*
X107577719Y-81256529D01*
X107586635Y-81257135D01*
X107844283Y-81272845D01*
X107861740Y-81272202D01*
X107879112Y-81274018D01*
X107888049Y-81274013D01*
X108158548Y-81271978D01*
X108176661Y-81270064D01*
X108194869Y-81270673D01*
X108203782Y-81270036D01*
X108459474Y-81249979D01*
X108486520Y-81245168D01*
X108513942Y-81243348D01*
X108522748Y-81241826D01*
X108735971Y-81203465D01*
X108759652Y-81196764D01*
X108783971Y-81192913D01*
X108792603Y-81190600D01*
X108836024Y-81178640D01*
X108853933Y-81171765D01*
X108872611Y-81167375D01*
X108881049Y-81164432D01*
X109118786Y-81079648D01*
X109141210Y-81069083D01*
X109164737Y-81061229D01*
X109172871Y-81057528D01*
X109452837Y-80927806D01*
X109466148Y-80919978D01*
X109480467Y-80914187D01*
X109488356Y-80909989D01*
X109817742Y-80731752D01*
X109825203Y-80726716D01*
X109833403Y-80722992D01*
X109841108Y-80718466D01*
X110226216Y-80488666D01*
X110366885Y-80405262D01*
X110591257Y-80282337D01*
X110812711Y-80170657D01*
X110999219Y-80086564D01*
X111051406Y-80065003D01*
X111053852Y-80063700D01*
X111056503Y-80062872D01*
X111064708Y-80059330D01*
X111340922Y-79937834D01*
X111354873Y-79929991D01*
X111369821Y-79924253D01*
X111377783Y-79920196D01*
X111598606Y-79805723D01*
X111620764Y-79791333D01*
X111644411Y-79779529D01*
X111651945Y-79774723D01*
X111839136Y-79653499D01*
X111862005Y-79635291D01*
X111886653Y-79619554D01*
X111893641Y-79613983D01*
X112068958Y-79472234D01*
X112084080Y-79457344D01*
X112100997Y-79444527D01*
X112107516Y-79438415D01*
X112292713Y-79262366D01*
X112297964Y-79256294D01*
X112304175Y-79251195D01*
X112310451Y-79244833D01*
X112385818Y-79167379D01*
X112396754Y-79153688D01*
X112409505Y-79141667D01*
X112415331Y-79134891D01*
X112612196Y-78902652D01*
X112638346Y-78864868D01*
X112666421Y-78828486D01*
X112671110Y-78820879D01*
X112802404Y-78604558D01*
X112803349Y-78602591D01*
X112804645Y-78600837D01*
X112830386Y-78546300D01*
X112856483Y-78491966D01*
X112857027Y-78489856D01*
X112857959Y-78487881D01*
X112860907Y-78479445D01*
X112934819Y-78263152D01*
X112935836Y-78258840D01*
X112937611Y-78254791D01*
X112950153Y-78198115D01*
X112963482Y-78141579D01*
X112963642Y-78137158D01*
X112964598Y-78132836D01*
X112965606Y-78123957D01*
X112990323Y-77891803D01*
X112990670Y-77850098D01*
X112993731Y-77808497D01*
X112993452Y-77799565D01*
X112987145Y-77634804D01*
X112979408Y-77578266D01*
X112972620Y-77521564D01*
X112970635Y-77512851D01*
X112937302Y-77371031D01*
X112935214Y-77364907D01*
X112934226Y-77358511D01*
X112915068Y-77305819D01*
X112896994Y-77252808D01*
X112893759Y-77247211D01*
X112891546Y-77241124D01*
X112887631Y-77233091D01*
X112815932Y-77088533D01*
X112800983Y-77064591D01*
X112788686Y-77039187D01*
X112783973Y-77031595D01*
X112735130Y-76954120D01*
X112717809Y-76931813D01*
X112702972Y-76907772D01*
X112697509Y-76900699D01*
X112610712Y-76789926D01*
X112580792Y-76758596D01*
X112552806Y-76725525D01*
X112546352Y-76719345D01*
X112439438Y-76618383D01*
X112407524Y-76593664D01*
X112377408Y-76566800D01*
X112370154Y-76561581D01*
X112233068Y-76464401D01*
X112207572Y-76449839D01*
X112183723Y-76432714D01*
X112175959Y-76428289D01*
X111998643Y-76328862D01*
X111982466Y-76321767D01*
X111967432Y-76312473D01*
X111959381Y-76308595D01*
X111731779Y-76200889D01*
X111723547Y-76197938D01*
X111715925Y-76193649D01*
X111707721Y-76190105D01*
X111419776Y-76068093D01*
X111417106Y-76067258D01*
X111414634Y-76065940D01*
X111406353Y-76062584D01*
X111048009Y-75920235D01*
X111047895Y-75920202D01*
X111045800Y-75919362D01*
X111018983Y-75908824D01*
X110762012Y-75801237D01*
X110487963Y-75676938D01*
X110229888Y-75551425D01*
X110015404Y-75437606D01*
X109762890Y-75298606D01*
X109755778Y-75295553D01*
X109749284Y-75291328D01*
X109741325Y-75287264D01*
X109473542Y-75152878D01*
X109458555Y-75147110D01*
X109444558Y-75139229D01*
X109436355Y-75135683D01*
X109199202Y-75035108D01*
X109178775Y-75028714D01*
X109159334Y-75019749D01*
X109150872Y-75016876D01*
X108923472Y-74941425D01*
X108903498Y-74936903D01*
X108884286Y-74929798D01*
X108875627Y-74927591D01*
X108637102Y-74868581D01*
X108625837Y-74866938D01*
X108614971Y-74863520D01*
X108606213Y-74861744D01*
X108512333Y-74843388D01*
X108482799Y-74840563D01*
X108453711Y-74834721D01*
X108444814Y-74833887D01*
X108009590Y-74796144D01*
X107952924Y-74796781D01*
X107896218Y-74796391D01*
X107887325Y-74797265D01*
X107467262Y-74841464D01*
X107409996Y-74853226D01*
X107352489Y-74864297D01*
X107344970Y-74866582D01*
X107344910Y-74866594D01*
X107344859Y-74866615D01*
X107343939Y-74866895D01*
X106936909Y-74993652D01*
X106886421Y-75014977D01*
X106835439Y-75035081D01*
X106827514Y-75039210D01*
X106431385Y-75249141D01*
X106392066Y-75275188D01*
X106351539Y-75299319D01*
X106344381Y-75304669D01*
X105957023Y-75598390D01*
X105945993Y-75608594D01*
X105933570Y-75617054D01*
X105926750Y-75622829D01*
X105831226Y-75704864D01*
X105652956Y-75853781D01*
X105439296Y-76028797D01*
X105210783Y-76213084D01*
X104985066Y-76392174D01*
X104984979Y-76392258D01*
X104983154Y-76393697D01*
X104794334Y-76544691D01*
X104793500Y-76545503D01*
X104792520Y-76546146D01*
X104785601Y-76551801D01*
X104627950Y-76682485D01*
X104628021Y-76681038D01*
X104627169Y-76663650D01*
X104627142Y-76646224D01*
X104625524Y-76630055D01*
X104598603Y-76080442D01*
X104598742Y-76076863D01*
X104596957Y-76046827D01*
X104595486Y-76016804D01*
X104594962Y-76013265D01*
X104513372Y-74640708D01*
X104489370Y-73882149D01*
X104495821Y-73105118D01*
X104546557Y-72321060D01*
X104591356Y-71943765D01*
X104652295Y-71567789D01*
X104730037Y-71200870D01*
X104825793Y-70845140D01*
X104940665Y-70502618D01*
X105075686Y-70175087D01*
X105231904Y-69863993D01*
X105410462Y-69570480D01*
X105612807Y-69295260D01*
X105840820Y-69038779D01*
X106096960Y-68801352D01*
X106384273Y-68583435D01*
X106706250Y-68385885D01*
X107066631Y-68210109D01*
X107469103Y-68058114D01*
X107917024Y-67932425D01*
X108413402Y-67835882D01*
X108965250Y-67770961D01*
X109316880Y-67749212D01*
X109653290Y-67742417D01*
X110144695Y-67759982D01*
G37*
X110144695Y-67759982D02*
X110594522Y-67809175D01*
X111007040Y-67887564D01*
X111384417Y-67992752D01*
X111729142Y-68122604D01*
X112043972Y-68275387D01*
X112331704Y-68449834D01*
X112594965Y-68645109D01*
X112836114Y-68860765D01*
X113057027Y-69096495D01*
X113259102Y-69351947D01*
X113443381Y-69626628D01*
X113610608Y-69919769D01*
X113761377Y-70230322D01*
X113896220Y-70556988D01*
X114015680Y-70898248D01*
X114120367Y-71252444D01*
X114210968Y-71617845D01*
X114288233Y-71992595D01*
X114352202Y-72370149D01*
X114448658Y-73155621D01*
X114505879Y-73942950D01*
X114533048Y-74723610D01*
X114539013Y-75482881D01*
X114524315Y-76865639D01*
X114523440Y-76877340D01*
X114523957Y-76899280D01*
X114523724Y-76921203D01*
X114524749Y-76932880D01*
X114533773Y-77315815D01*
X114533646Y-77339548D01*
X114534564Y-77349413D01*
X114534798Y-77359323D01*
X114537682Y-77382897D01*
X114572971Y-77761912D01*
X114574476Y-77785526D01*
X114576090Y-77795413D01*
X114577017Y-77805368D01*
X114581502Y-77828564D01*
X114640914Y-78192479D01*
X114643940Y-78215420D01*
X114646334Y-78225674D01*
X114648028Y-78236053D01*
X114653971Y-78258394D01*
X114735503Y-78607676D01*
X114739825Y-78629450D01*
X114743140Y-78640394D01*
X114745743Y-78651545D01*
X114752891Y-78672584D01*
X114854419Y-79007760D01*
X114859740Y-79028006D01*
X114864165Y-79039937D01*
X114867854Y-79052114D01*
X114875856Y-79071455D01*
X114995237Y-79393300D01*
X115001203Y-79411704D01*
X115006919Y-79424797D01*
X115011897Y-79438216D01*
X115020384Y-79455635D01*
X115155444Y-79764970D01*
X115161705Y-79781369D01*
X115168892Y-79795771D01*
X115175338Y-79810534D01*
X115183911Y-79825866D01*
X115332558Y-80123731D01*
X115338782Y-80138041D01*
X115347570Y-80153810D01*
X115355632Y-80169966D01*
X115363937Y-80183182D01*
X115524160Y-80470701D01*
X115530056Y-80482913D01*
X115540521Y-80500061D01*
X115550308Y-80517623D01*
X115558044Y-80528772D01*
X115730366Y-80811129D01*
X115738091Y-80825371D01*
X115747896Y-80839852D01*
X115756991Y-80854755D01*
X115766731Y-80867671D01*
X116162274Y-81451866D01*
X116169812Y-81464449D01*
X116181131Y-81479717D01*
X116191779Y-81495444D01*
X116201148Y-81506719D01*
X116620769Y-82072753D01*
X116624270Y-82078350D01*
X116640789Y-82099759D01*
X116656908Y-82121502D01*
X116661345Y-82126399D01*
X117092995Y-82685822D01*
X117097398Y-82692508D01*
X117113539Y-82712447D01*
X117129211Y-82732758D01*
X117134700Y-82738587D01*
X117545257Y-83245748D01*
X117986906Y-83819154D01*
X118436498Y-84439868D01*
X118882858Y-85103620D01*
X119314888Y-85806073D01*
X119721506Y-86542665D01*
X120094294Y-87313892D01*
X120260552Y-87701991D01*
X120414193Y-88096375D01*
X120636636Y-88759102D01*
X120814228Y-89429353D01*
X120944266Y-90115173D01*
X120987908Y-90450799D01*
X121018287Y-90794167D01*
X121033964Y-91138706D01*
X121034324Y-91484251D01*
X121018745Y-91830651D01*
X120986593Y-92177805D01*
X120937202Y-92525689D01*
X120869889Y-92874206D01*
X120783927Y-93223359D01*
X120686513Y-93546704D01*
X120584079Y-93537584D01*
X120583983Y-93537585D01*
X120576680Y-93536969D01*
X120046659Y-93495972D01*
X120039250Y-93496124D01*
X120031917Y-93495002D01*
X119976837Y-93497407D01*
X119921780Y-93498538D01*
X119914542Y-93500126D01*
X119907130Y-93500450D01*
X119853564Y-93513508D01*
X119799777Y-93525311D01*
X119792986Y-93528275D01*
X119785777Y-93530032D01*
X119735804Y-93553229D01*
X119685297Y-93575270D01*
X119679201Y-93579503D01*
X119672482Y-93582622D01*
X119627977Y-93615075D01*
X119582702Y-93646515D01*
X119577550Y-93651845D01*
X119571558Y-93656215D01*
X119564928Y-93662206D01*
X119285599Y-93918161D01*
X118893216Y-94237853D01*
X118517187Y-94474599D01*
X118151916Y-94639733D01*
X117803514Y-94735924D01*
X117447736Y-94769966D01*
X117427411Y-94769783D01*
X117339509Y-94762619D01*
X117299115Y-94751753D01*
X117211019Y-94712246D01*
X117120735Y-94659059D01*
X116941233Y-94504168D01*
X116779272Y-94293906D01*
X116632069Y-94013584D01*
X116505594Y-93651551D01*
X116472687Y-93518927D01*
X116451240Y-93410785D01*
X116442993Y-93338043D01*
X116438847Y-93318652D01*
X116437321Y-93298870D01*
X116435705Y-93290081D01*
X116419121Y-93203245D01*
X116410538Y-93174106D01*
X116404923Y-93144240D01*
X116392931Y-93114331D01*
X116383829Y-93083429D01*
X116369748Y-93056508D01*
X116358440Y-93028305D01*
X116340869Y-93001296D01*
X116325937Y-92972749D01*
X116306898Y-92949079D01*
X116290326Y-92923606D01*
X116284696Y-92916667D01*
X116238855Y-92860952D01*
X116226824Y-92848941D01*
X116216621Y-92835344D01*
X116182704Y-92804895D01*
X116150459Y-92772703D01*
X116136330Y-92763261D01*
X116123676Y-92751901D01*
X116084492Y-92728621D01*
X116046607Y-92703304D01*
X116030905Y-92696783D01*
X116016292Y-92688101D01*
X115973348Y-92672880D01*
X115967687Y-92670529D01*
X115966287Y-92669800D01*
X115965086Y-92669449D01*
X115931253Y-92655398D01*
X115914583Y-92652051D01*
X115898563Y-92646373D01*
X115889874Y-92644284D01*
X115872780Y-92640301D01*
X115859378Y-92638533D01*
X115846403Y-92634738D01*
X115813891Y-92631835D01*
X115808790Y-92630811D01*
X115802225Y-92630794D01*
X115797566Y-92630378D01*
X115748947Y-92623963D01*
X115735453Y-92624832D01*
X115721992Y-92623630D01*
X115673231Y-92628838D01*
X115624299Y-92631989D01*
X115611240Y-92635460D01*
X115597793Y-92636896D01*
X115589055Y-92638769D01*
X115492613Y-92660145D01*
X115464022Y-92669489D01*
X115434647Y-92675881D01*
X115404815Y-92688837D01*
X115373886Y-92698945D01*
X115347661Y-92713660D01*
X115320080Y-92725639D01*
X115312301Y-92730036D01*
X115186265Y-92802441D01*
X115148413Y-92829417D01*
X115109240Y-92854474D01*
X115102257Y-92860050D01*
X114965058Y-92971174D01*
X114937930Y-92997931D01*
X114908830Y-93022546D01*
X114902649Y-93028999D01*
X114772718Y-93166530D01*
X114752184Y-93193029D01*
X114729331Y-93217559D01*
X114723957Y-93224698D01*
X114608412Y-93380434D01*
X114592775Y-93406486D01*
X114574590Y-93430851D01*
X114570024Y-93438532D01*
X114438130Y-93663918D01*
X114424862Y-93692716D01*
X114408882Y-93720104D01*
X114405210Y-93728251D01*
X114289697Y-93989379D01*
X114281448Y-94014375D01*
X114270420Y-94038292D01*
X114267548Y-94046754D01*
X114166740Y-94350596D01*
X114162281Y-94370296D01*
X114155254Y-94389246D01*
X114153041Y-94397904D01*
X114065261Y-94751432D01*
X114063157Y-94765777D01*
X114058927Y-94779651D01*
X114057229Y-94788424D01*
X113980799Y-95198606D01*
X113979959Y-95208294D01*
X113977537Y-95217714D01*
X113976229Y-95226554D01*
X113909474Y-95700363D01*
X113909223Y-95706293D01*
X113907931Y-95712094D01*
X113906911Y-95720972D01*
X113848151Y-96265379D01*
X113848121Y-96268410D01*
X113847530Y-96271391D01*
X113846718Y-96280290D01*
X113794279Y-96902266D01*
X113794281Y-96902412D01*
X113793837Y-96907784D01*
X113789358Y-96967020D01*
X113762211Y-97305508D01*
X113735265Y-97591925D01*
X113705891Y-97843004D01*
X113671385Y-98076365D01*
X113628542Y-98311466D01*
X113573766Y-98567406D01*
X113503500Y-98861779D01*
X113414635Y-99210319D01*
X113304289Y-99628389D01*
X113287742Y-99690544D01*
X113287729Y-99690621D01*
X113287387Y-99691883D01*
X113169634Y-100138063D01*
X113169610Y-100138212D01*
X113168662Y-100141791D01*
X113071691Y-100518399D01*
X113071673Y-100518517D01*
X113070123Y-100524614D01*
X112991746Y-100842145D01*
X112991674Y-100842641D01*
X112991509Y-100843110D01*
X112989442Y-100851804D01*
X112927468Y-101120750D01*
X112927117Y-101123460D01*
X112926266Y-101126066D01*
X112924395Y-101134804D01*
X112876636Y-101365659D01*
X112876090Y-101370776D01*
X112874640Y-101375713D01*
X112873031Y-101384503D01*
X112837298Y-101587762D01*
X112836763Y-101594756D01*
X112835029Y-101601551D01*
X112833736Y-101610393D01*
X112807840Y-101796547D01*
X112807541Y-101803918D01*
X112805982Y-101811128D01*
X112805016Y-101820012D01*
X112786767Y-101999556D01*
X112786747Y-102005250D01*
X112785721Y-102010845D01*
X112785037Y-102019756D01*
X112772247Y-102203182D01*
X112772455Y-102210579D01*
X112771390Y-102217908D01*
X112771037Y-102226837D01*
X112763549Y-102456423D01*
X112765131Y-102480672D01*
X112764471Y-102492758D01*
X112372494Y-102498641D01*
X111854914Y-102469178D01*
X111343773Y-102413319D01*
X110868455Y-102346804D01*
X110867043Y-102346469D01*
X110834943Y-102342115D01*
X110803232Y-102337677D01*
X110801798Y-102337618D01*
X109878272Y-102212339D01*
X109856567Y-102208641D01*
X109844953Y-102207820D01*
X109833419Y-102206255D01*
X109811422Y-102205448D01*
X109377063Y-102174730D01*
X109345895Y-102172327D01*
X109343735Y-102172373D01*
X109341559Y-102172219D01*
X109310083Y-102173087D01*
X108902161Y-102181749D01*
X108881555Y-102181403D01*
X108868556Y-102182463D01*
X108855513Y-102182740D01*
X108835047Y-102185196D01*
X108288079Y-102229800D01*
X108272180Y-102230270D01*
X108254562Y-102232533D01*
X108236866Y-102233976D01*
X108221222Y-102236815D01*
X107729057Y-102300031D01*
X107712693Y-102301301D01*
X107695702Y-102304316D01*
X107678595Y-102306513D01*
X107662607Y-102310188D01*
X106784254Y-102466034D01*
X106781350Y-102466284D01*
X106751058Y-102471924D01*
X106720854Y-102477283D01*
X106718060Y-102478068D01*
X105971433Y-102617078D01*
X105734171Y-102648019D01*
X105735066Y-102641918D01*
X105744326Y-102588271D01*
X105744916Y-102579354D01*
X105767140Y-102204478D01*
X105764976Y-102148324D01*
X105763909Y-102092079D01*
X105762806Y-102083211D01*
X105713410Y-101707348D01*
X105707910Y-101683687D01*
X105705273Y-101659534D01*
X105703380Y-101650801D01*
X105701728Y-101643433D01*
X105698650Y-101634088D01*
X105697145Y-101624351D01*
X105694864Y-101615711D01*
X105635135Y-101395678D01*
X105627048Y-101374374D01*
X105621665Y-101352225D01*
X105618658Y-101343810D01*
X105534906Y-101114460D01*
X105526085Y-101096099D01*
X105519753Y-101076727D01*
X105516103Y-101068570D01*
X105404266Y-100823183D01*
X105396032Y-100808979D01*
X105389925Y-100793737D01*
X105385753Y-100785835D01*
X105241772Y-100517694D01*
X105235039Y-100507649D01*
X105229969Y-100496673D01*
X105225394Y-100488997D01*
X105045209Y-100191386D01*
X105040344Y-100184881D01*
X105036651Y-100177646D01*
X105031779Y-100170155D01*
X104811332Y-99836358D01*
X104808293Y-99832611D01*
X104805975Y-99828377D01*
X104800887Y-99821030D01*
X104536116Y-99444329D01*
X104534668Y-99442646D01*
X104533555Y-99440710D01*
X104528315Y-99433471D01*
X104215161Y-99007149D01*
X104215000Y-99006969D01*
X104214874Y-99006757D01*
X104209527Y-98999597D01*
X103843932Y-98516936D01*
X103843834Y-98516830D01*
X103841955Y-98514340D01*
X103700586Y-98329668D01*
X103491358Y-98054489D01*
X103323522Y-97829273D01*
X103188817Y-97641424D01*
X103078294Y-97477725D01*
X102981305Y-97322411D01*
X102886876Y-97158272D01*
X102784984Y-96968597D01*
X102667110Y-96739120D01*
X102525555Y-96457568D01*
X102483016Y-96372706D01*
X102482942Y-96372588D01*
X102481652Y-96370001D01*
X102232515Y-95878809D01*
X102232460Y-95878722D01*
X102229176Y-95872319D01*
X102008385Y-95449046D01*
X102007886Y-95448281D01*
X102007543Y-95447438D01*
X102003332Y-95439556D01*
X101805837Y-95075973D01*
X101804085Y-95073386D01*
X101802838Y-95070514D01*
X101798441Y-95062734D01*
X101619195Y-94750614D01*
X101615852Y-94745921D01*
X101613385Y-94740702D01*
X101608743Y-94733067D01*
X101442696Y-94464180D01*
X101437513Y-94457376D01*
X101433542Y-94449787D01*
X101428593Y-94442347D01*
X101270698Y-94208468D01*
X101263725Y-94200047D01*
X101258195Y-94190611D01*
X101252895Y-94183416D01*
X101098103Y-93976317D01*
X101089946Y-93967376D01*
X101083293Y-93957262D01*
X101077628Y-93950350D01*
X100920891Y-93761802D01*
X100912775Y-93753781D01*
X100906039Y-93744568D01*
X100900039Y-93737945D01*
X100736307Y-93559721D01*
X100729712Y-93553819D01*
X100724187Y-93546886D01*
X100717917Y-93540519D01*
X100619414Y-93441856D01*
X100612478Y-93436149D01*
X100606586Y-93429361D01*
X100600055Y-93423262D01*
X100433051Y-93269461D01*
X100423701Y-93262404D01*
X100415586Y-93253956D01*
X100408756Y-93248194D01*
X100249721Y-93115915D01*
X100232949Y-93104537D01*
X100217820Y-93091043D01*
X100210565Y-93085825D01*
X100083696Y-92995896D01*
X100043908Y-92973174D01*
X100005339Y-92948393D01*
X99997357Y-92944376D01*
X99742555Y-92818335D01*
X99697819Y-92801413D01*
X99653895Y-92782451D01*
X99645365Y-92779786D01*
X99348213Y-92689225D01*
X99299004Y-92679348D01*
X99250201Y-92667583D01*
X99241342Y-92666409D01*
X98946682Y-92629424D01*
X98889304Y-92627867D01*
X98831932Y-92625401D01*
X98823013Y-92625953D01*
X98549847Y-92644762D01*
X98536954Y-92646928D01*
X98523885Y-92647082D01*
X98475469Y-92657260D01*
X98426668Y-92665461D01*
X98414443Y-92670090D01*
X98401652Y-92672779D01*
X98393147Y-92675522D01*
X98223183Y-92731642D01*
X98222839Y-92728494D01*
X98206550Y-92283290D01*
X98220517Y-91829994D01*
X98263434Y-91369648D01*
X98333925Y-90903446D01*
X98430505Y-90432754D01*
X98551603Y-89958939D01*
X98695444Y-89483793D01*
X98871095Y-88979332D01*
X99068191Y-88476607D01*
X99284703Y-87976867D01*
X99518398Y-87481786D01*
X99767050Y-86992906D01*
X100026476Y-86515311D01*
X100580169Y-85578883D01*
X101154384Y-84696020D01*
X101732799Y-83874597D01*
X102296645Y-83126290D01*
X102791521Y-82507150D01*
X102792755Y-82506100D01*
X102833501Y-82454629D01*
X102853633Y-82429441D01*
X102854518Y-82428079D01*
X102855520Y-82426813D01*
X102872866Y-82399837D01*
X102908723Y-82344642D01*
X102909325Y-82343134D01*
X103272005Y-81779083D01*
X103285239Y-81759793D01*
X103290173Y-81750829D01*
X103295715Y-81742209D01*
X103306394Y-81721355D01*
X103630709Y-81132077D01*
X103643643Y-81109805D01*
X103646920Y-81102621D01*
X103650723Y-81095711D01*
X103660861Y-81072059D01*
X103924219Y-80494715D01*
X103935857Y-80470465D01*
X103938143Y-80464189D01*
X103940925Y-80458090D01*
X103949663Y-80432561D01*
X104157732Y-79861313D01*
X104167333Y-79836548D01*
X104169222Y-79829766D01*
X104171636Y-79823139D01*
X104178249Y-79797360D01*
X104337160Y-79226890D01*
X104344380Y-79203392D01*
X104346179Y-79194513D01*
X104348611Y-79185783D01*
X104352857Y-79161558D01*
X104364829Y-79102473D01*
X104499376Y-79258791D01*
X104522836Y-79281194D01*
X104544091Y-79305711D01*
X104550619Y-79311813D01*
X104815859Y-79556361D01*
X104837264Y-79572535D01*
X104856737Y-79591000D01*
X104863829Y-79596437D01*
X105173105Y-79830147D01*
X105177472Y-79832821D01*
X105181299Y-79836238D01*
X105188550Y-79841460D01*
X105307772Y-79926071D01*
X105512669Y-80080248D01*
X105725850Y-80248969D01*
X105918496Y-80409992D01*
X106092236Y-80557452D01*
X106098879Y-80562055D01*
X106104653Y-80567726D01*
X106111649Y-80573286D01*
X106339307Y-80751663D01*
X106355657Y-80762071D01*
X106370454Y-80774583D01*
X106377843Y-80779608D01*
X106577656Y-80913458D01*
X106602509Y-80926793D01*
X106625797Y-80942723D01*
X106633660Y-80946969D01*
X106822814Y-81047425D01*
X106850681Y-81058895D01*
X106877238Y-81073124D01*
X106885513Y-81076498D01*
X107081195Y-81154692D01*
X107111034Y-81163351D01*
X107139897Y-81174908D01*
X107148495Y-81177344D01*
X107238262Y-81202106D01*
X107270943Y-81207763D01*
X107302970Y-81216397D01*
X107311794Y-81217807D01*
X107528932Y-81250980D01*
X107553484Y-81252304D01*
X107577719Y-81256529D01*
X107586635Y-81257135D01*
X107844283Y-81272845D01*
X107861740Y-81272202D01*
X107879112Y-81274018D01*
X107888049Y-81274013D01*
X108158548Y-81271978D01*
X108176661Y-81270064D01*
X108194869Y-81270673D01*
X108203782Y-81270036D01*
X108459474Y-81249979D01*
X108486520Y-81245168D01*
X108513942Y-81243348D01*
X108522748Y-81241826D01*
X108735971Y-81203465D01*
X108759652Y-81196764D01*
X108783971Y-81192913D01*
X108792603Y-81190600D01*
X108836024Y-81178640D01*
X108853933Y-81171765D01*
X108872611Y-81167375D01*
X108881049Y-81164432D01*
X109118786Y-81079648D01*
X109141210Y-81069083D01*
X109164737Y-81061229D01*
X109172871Y-81057528D01*
X109452837Y-80927806D01*
X109466148Y-80919978D01*
X109480467Y-80914187D01*
X109488356Y-80909989D01*
X109817742Y-80731752D01*
X109825203Y-80726716D01*
X109833403Y-80722992D01*
X109841108Y-80718466D01*
X110226216Y-80488666D01*
X110366885Y-80405262D01*
X110591257Y-80282337D01*
X110812711Y-80170657D01*
X110999219Y-80086564D01*
X111051406Y-80065003D01*
X111053852Y-80063700D01*
X111056503Y-80062872D01*
X111064708Y-80059330D01*
X111340922Y-79937834D01*
X111354873Y-79929991D01*
X111369821Y-79924253D01*
X111377783Y-79920196D01*
X111598606Y-79805723D01*
X111620764Y-79791333D01*
X111644411Y-79779529D01*
X111651945Y-79774723D01*
X111839136Y-79653499D01*
X111862005Y-79635291D01*
X111886653Y-79619554D01*
X111893641Y-79613983D01*
X112068958Y-79472234D01*
X112084080Y-79457344D01*
X112100997Y-79444527D01*
X112107516Y-79438415D01*
X112292713Y-79262366D01*
X112297964Y-79256294D01*
X112304175Y-79251195D01*
X112310451Y-79244833D01*
X112385818Y-79167379D01*
X112396754Y-79153688D01*
X112409505Y-79141667D01*
X112415331Y-79134891D01*
X112612196Y-78902652D01*
X112638346Y-78864868D01*
X112666421Y-78828486D01*
X112671110Y-78820879D01*
X112802404Y-78604558D01*
X112803349Y-78602591D01*
X112804645Y-78600837D01*
X112830386Y-78546300D01*
X112856483Y-78491966D01*
X112857027Y-78489856D01*
X112857959Y-78487881D01*
X112860907Y-78479445D01*
X112934819Y-78263152D01*
X112935836Y-78258840D01*
X112937611Y-78254791D01*
X112950153Y-78198115D01*
X112963482Y-78141579D01*
X112963642Y-78137158D01*
X112964598Y-78132836D01*
X112965606Y-78123957D01*
X112990323Y-77891803D01*
X112990670Y-77850098D01*
X112993731Y-77808497D01*
X112993452Y-77799565D01*
X112987145Y-77634804D01*
X112979408Y-77578266D01*
X112972620Y-77521564D01*
X112970635Y-77512851D01*
X112937302Y-77371031D01*
X112935214Y-77364907D01*
X112934226Y-77358511D01*
X112915068Y-77305819D01*
X112896994Y-77252808D01*
X112893759Y-77247211D01*
X112891546Y-77241124D01*
X112887631Y-77233091D01*
X112815932Y-77088533D01*
X112800983Y-77064591D01*
X112788686Y-77039187D01*
X112783973Y-77031595D01*
X112735130Y-76954120D01*
X112717809Y-76931813D01*
X112702972Y-76907772D01*
X112697509Y-76900699D01*
X112610712Y-76789926D01*
X112580792Y-76758596D01*
X112552806Y-76725525D01*
X112546352Y-76719345D01*
X112439438Y-76618383D01*
X112407524Y-76593664D01*
X112377408Y-76566800D01*
X112370154Y-76561581D01*
X112233068Y-76464401D01*
X112207572Y-76449839D01*
X112183723Y-76432714D01*
X112175959Y-76428289D01*
X111998643Y-76328862D01*
X111982466Y-76321767D01*
X111967432Y-76312473D01*
X111959381Y-76308595D01*
X111731779Y-76200889D01*
X111723547Y-76197938D01*
X111715925Y-76193649D01*
X111707721Y-76190105D01*
X111419776Y-76068093D01*
X111417106Y-76067258D01*
X111414634Y-76065940D01*
X111406353Y-76062584D01*
X111048009Y-75920235D01*
X111047895Y-75920202D01*
X111045800Y-75919362D01*
X111018983Y-75908824D01*
X110762012Y-75801237D01*
X110487963Y-75676938D01*
X110229888Y-75551425D01*
X110015404Y-75437606D01*
X109762890Y-75298606D01*
X109755778Y-75295553D01*
X109749284Y-75291328D01*
X109741325Y-75287264D01*
X109473542Y-75152878D01*
X109458555Y-75147110D01*
X109444558Y-75139229D01*
X109436355Y-75135683D01*
X109199202Y-75035108D01*
X109178775Y-75028714D01*
X109159334Y-75019749D01*
X109150872Y-75016876D01*
X108923472Y-74941425D01*
X108903498Y-74936903D01*
X108884286Y-74929798D01*
X108875627Y-74927591D01*
X108637102Y-74868581D01*
X108625837Y-74866938D01*
X108614971Y-74863520D01*
X108606213Y-74861744D01*
X108512333Y-74843388D01*
X108482799Y-74840563D01*
X108453711Y-74834721D01*
X108444814Y-74833887D01*
X108009590Y-74796144D01*
X107952924Y-74796781D01*
X107896218Y-74796391D01*
X107887325Y-74797265D01*
X107467262Y-74841464D01*
X107409996Y-74853226D01*
X107352489Y-74864297D01*
X107344970Y-74866582D01*
X107344910Y-74866594D01*
X107344859Y-74866615D01*
X107343939Y-74866895D01*
X106936909Y-74993652D01*
X106886421Y-75014977D01*
X106835439Y-75035081D01*
X106827514Y-75039210D01*
X106431385Y-75249141D01*
X106392066Y-75275188D01*
X106351539Y-75299319D01*
X106344381Y-75304669D01*
X105957023Y-75598390D01*
X105945993Y-75608594D01*
X105933570Y-75617054D01*
X105926750Y-75622829D01*
X105831226Y-75704864D01*
X105652956Y-75853781D01*
X105439296Y-76028797D01*
X105210783Y-76213084D01*
X104985066Y-76392174D01*
X104984979Y-76392258D01*
X104983154Y-76393697D01*
X104794334Y-76544691D01*
X104793500Y-76545503D01*
X104792520Y-76546146D01*
X104785601Y-76551801D01*
X104627950Y-76682485D01*
X104628021Y-76681038D01*
X104627169Y-76663650D01*
X104627142Y-76646224D01*
X104625524Y-76630055D01*
X104598603Y-76080442D01*
X104598742Y-76076863D01*
X104596957Y-76046827D01*
X104595486Y-76016804D01*
X104594962Y-76013265D01*
X104513372Y-74640708D01*
X104489370Y-73882149D01*
X104495821Y-73105118D01*
X104546557Y-72321060D01*
X104591356Y-71943765D01*
X104652295Y-71567789D01*
X104730037Y-71200870D01*
X104825793Y-70845140D01*
X104940665Y-70502618D01*
X105075686Y-70175087D01*
X105231904Y-69863993D01*
X105410462Y-69570480D01*
X105612807Y-69295260D01*
X105840820Y-69038779D01*
X106096960Y-68801352D01*
X106384273Y-68583435D01*
X106706250Y-68385885D01*
X107066631Y-68210109D01*
X107469103Y-68058114D01*
X107917024Y-67932425D01*
X108413402Y-67835882D01*
X108965250Y-67770961D01*
X109316880Y-67749212D01*
X109653290Y-67742417D01*
X110144695Y-67759982D01*
M02*
