G04 #@! TF.GenerationSoftware,KiCad,Pcbnew,(5.1.5)-3*
G04 #@! TF.CreationDate,2020-04-16T17:00:03+04:00*
G04 #@! TF.ProjectId,drawing,64726177-696e-4672-9e6b-696361645f70,rev?*
G04 #@! TF.SameCoordinates,Original*
G04 #@! TF.FileFunction,Profile,NP*
%FSLAX46Y46*%
G04 Gerber Fmt 4.6, Leading zero omitted, Abs format (unit mm)*
G04 Created by KiCad (PCBNEW (5.1.5)-3) date 2020-04-16 17:00:03*
%MOMM*%
%LPD*%
G04 APERTURE LIST*
%ADD10C,0.100000*%
G04 APERTURE END LIST*
D10*
X109657703Y-67057189D02*
X109288793Y-67064640D01*
X109288793Y-67064640D02*
X108904036Y-67088439D01*
X108904036Y-67088439D02*
X108307847Y-67158577D01*
X108307847Y-67158577D02*
X107758844Y-67265355D01*
X107758844Y-67265355D02*
X107255155Y-67406692D01*
X107255155Y-67406692D02*
X106794906Y-67580507D01*
X106794906Y-67580507D02*
X106376225Y-67784718D01*
X106376225Y-67784718D02*
X105997241Y-68017244D01*
X105997241Y-68017244D02*
X105656081Y-68276003D01*
X105656081Y-68276003D02*
X105350871Y-68558914D01*
X105350871Y-68558914D02*
X105079741Y-68863897D01*
X105079741Y-68863897D02*
X104840817Y-69188869D01*
X104840817Y-69188869D02*
X104632227Y-69531750D01*
X104632227Y-69531750D02*
X104452099Y-69890458D01*
X104452099Y-69890458D02*
X104298560Y-70262911D01*
X104298560Y-70262911D02*
X104169738Y-70647029D01*
X104169738Y-70647029D02*
X104063761Y-71040730D01*
X104063761Y-71040730D02*
X103978755Y-71441933D01*
X103978755Y-71441933D02*
X103912849Y-71848557D01*
X103912849Y-71848557D02*
X103864171Y-72258520D01*
X103864171Y-72258520D02*
X103811005Y-73080138D01*
X103811005Y-73080138D02*
X103804280Y-73890138D01*
X103804280Y-73890138D02*
X103829016Y-74671869D01*
X103829016Y-74671869D02*
X103912953Y-76083922D01*
X103912953Y-76083922D02*
X103942196Y-76680944D01*
X103942196Y-76680944D02*
X103942983Y-77183095D01*
X103942983Y-77183095D02*
X103885877Y-77824007D01*
X103885877Y-77824007D02*
X103800477Y-78438355D01*
X103800477Y-78438355D02*
X103679706Y-79034380D01*
X103679706Y-79034380D02*
X103516486Y-79620320D01*
X103516486Y-79620320D02*
X103303738Y-80204417D01*
X103303738Y-80204417D02*
X103034384Y-80794908D01*
X103034384Y-80794908D02*
X102701346Y-81400036D01*
X102701346Y-81400036D02*
X102297546Y-82028038D01*
X102297546Y-82028038D02*
X101755442Y-82706267D01*
X101755442Y-82706267D02*
X101179060Y-83471212D01*
X101179060Y-83471212D02*
X100587026Y-84311977D01*
X100587026Y-84311977D02*
X99997964Y-85217669D01*
X99997964Y-85217669D02*
X99430496Y-86177395D01*
X99430496Y-86177395D02*
X99160681Y-86674117D01*
X99160681Y-86674117D02*
X98903249Y-87180261D01*
X98903249Y-87180261D02*
X98660527Y-87694467D01*
X98660527Y-87694467D02*
X98434845Y-88215373D01*
X98434845Y-88215373D02*
X98228529Y-88741617D01*
X98228529Y-88741617D02*
X98043909Y-89271837D01*
X98043909Y-89271837D02*
X97891648Y-89774797D01*
X97891648Y-89774797D02*
X97762781Y-90279012D01*
X97762781Y-90279012D02*
X97659302Y-90783324D01*
X97659302Y-90783324D02*
X97583209Y-91286576D01*
X97583209Y-91286576D02*
X97536498Y-91787610D01*
X97536498Y-91787610D02*
X97521165Y-92285267D01*
X97521165Y-92285267D02*
X97539206Y-92778391D01*
X97539206Y-92778391D02*
X97592618Y-93265822D01*
X97592618Y-93265822D02*
X97421340Y-93437583D01*
X97421340Y-93437583D02*
X97134415Y-93783742D01*
X97134415Y-93783742D02*
X96874104Y-94139846D01*
X96874104Y-94139846D02*
X96627254Y-94480631D01*
X96627254Y-94480631D02*
X96380710Y-94780829D01*
X96380710Y-94780829D02*
X96257510Y-94891646D01*
X96257510Y-94891646D02*
X96122910Y-94986938D01*
X96122910Y-94986938D02*
X95823665Y-95142938D01*
X95823665Y-95142938D02*
X95491284Y-95272811D01*
X95491284Y-95272811D02*
X95134076Y-95400544D01*
X95134076Y-95400544D02*
X94762150Y-95555790D01*
X94762150Y-95555790D02*
X94577039Y-95653899D01*
X94577039Y-95653899D02*
X94396542Y-95770199D01*
X94396542Y-95770199D02*
X94223697Y-95908092D01*
X94223697Y-95908092D02*
X94061537Y-96070980D01*
X94061537Y-96070980D02*
X93913099Y-96262263D01*
X93913099Y-96262263D02*
X93781419Y-96485343D01*
X93781419Y-96485343D02*
X93781192Y-96485700D01*
X93781192Y-96485700D02*
X93779492Y-96488900D01*
X93779492Y-96488900D02*
X93685997Y-96704229D01*
X93685997Y-96704229D02*
X93623946Y-96926012D01*
X93623946Y-96926012D02*
X93588879Y-97152686D01*
X93588879Y-97152686D02*
X93576335Y-97382691D01*
X93576335Y-97382691D02*
X93581856Y-97614464D01*
X93581856Y-97614464D02*
X93600981Y-97846445D01*
X93600981Y-97846445D02*
X93662205Y-98304784D01*
X93662205Y-98304784D02*
X93726697Y-98747697D01*
X93726697Y-98747697D02*
X93771587Y-99164138D01*
X93771587Y-99164138D02*
X93776856Y-99540074D01*
X93776856Y-99540074D02*
X93758377Y-99708465D01*
X93758377Y-99708465D02*
X93722485Y-99861466D01*
X93722485Y-99861466D02*
X93593065Y-100252226D01*
X93593065Y-100252226D02*
X93495132Y-100613184D01*
X93495132Y-100613184D02*
X93428501Y-100945842D01*
X93428501Y-100945842D02*
X93392986Y-101251702D01*
X93392986Y-101251702D02*
X93388403Y-101532268D01*
X93388403Y-101532268D02*
X93414567Y-101789043D01*
X93414567Y-101789043D02*
X93471294Y-102023528D01*
X93471294Y-102023528D02*
X93558398Y-102237227D01*
X93558398Y-102237227D02*
X93673954Y-102427572D01*
X93673954Y-102427572D02*
X93814037Y-102591734D01*
X93814037Y-102591734D02*
X93976121Y-102732054D01*
X93976121Y-102732054D02*
X94157682Y-102850869D01*
X94157682Y-102850869D02*
X94356196Y-102950517D01*
X94356196Y-102950517D02*
X94569137Y-103033339D01*
X94569137Y-103033339D02*
X94793982Y-103101671D01*
X94793982Y-103101671D02*
X95028205Y-103157852D01*
X95028205Y-103157852D02*
X95523859Y-103245961D01*
X95523859Y-103245961D02*
X96052142Y-103315682D01*
X96052142Y-103315682D02*
X97168432Y-103453450D01*
X97168432Y-103453450D02*
X97737358Y-103548244D01*
X97737358Y-103548244D02*
X98300751Y-103678144D01*
X98300751Y-103678144D02*
X98577391Y-103760438D01*
X98577391Y-103760438D02*
X98849069Y-103856523D01*
X98849069Y-103856523D02*
X99114594Y-103968071D01*
X99114594Y-103968071D02*
X99372773Y-104096754D01*
X99373978Y-104097426D02*
X99918360Y-104364927D01*
X99918360Y-104364927D02*
X100460901Y-104584933D01*
X100460901Y-104584933D02*
X100997879Y-104756863D01*
X100997879Y-104756863D02*
X101525577Y-104880136D01*
X101525577Y-104880136D02*
X102040273Y-104954171D01*
X102040273Y-104954171D02*
X102538248Y-104978386D01*
X102538248Y-104978386D02*
X103015781Y-104952201D01*
X103015781Y-104952201D02*
X103469154Y-104875035D01*
X103469154Y-104875035D02*
X103780348Y-104785570D01*
X103780348Y-104785570D02*
X104074471Y-104666622D01*
X104074471Y-104666622D02*
X104349459Y-104518661D01*
X104349459Y-104518661D02*
X104603254Y-104342158D01*
X104603254Y-104342158D02*
X104833794Y-104137585D01*
X104833794Y-104137585D02*
X105039018Y-103905412D01*
X105039018Y-103905412D02*
X105216865Y-103646110D01*
X105216865Y-103646110D02*
X105365275Y-103360151D01*
X105365275Y-103360151D02*
X105714665Y-103341363D01*
X105714665Y-103341363D02*
X106078487Y-103293917D01*
X106078487Y-103293917D02*
X106873653Y-103145870D01*
X106873653Y-103145870D02*
X107799235Y-102981644D01*
X107799235Y-102981644D02*
X108326076Y-102913974D01*
X108326076Y-102913974D02*
X108903695Y-102866871D01*
X108903695Y-102866871D02*
X109326800Y-102857886D01*
X109326800Y-102857886D02*
X109774682Y-102889560D01*
X109774682Y-102889560D02*
X110741623Y-103020729D01*
X110741623Y-103020729D02*
X111259105Y-103093144D01*
X111259105Y-103093144D02*
X111798209Y-103152059D01*
X111798209Y-103152059D02*
X112358147Y-103183933D01*
X112358147Y-103183933D02*
X112938130Y-103175228D01*
X112938130Y-103175228D02*
X113014029Y-103431908D01*
X113014029Y-103431908D02*
X113120176Y-103677341D01*
X113120176Y-103677341D02*
X113122676Y-103682241D01*
X113122676Y-103682241D02*
X113243007Y-103908202D01*
X113243007Y-103908202D02*
X113374940Y-104118313D01*
X113374940Y-104118313D02*
X113517820Y-104312586D01*
X113517820Y-104312586D02*
X113670988Y-104491035D01*
X113670988Y-104491035D02*
X113833788Y-104653672D01*
X113833788Y-104653672D02*
X114005563Y-104800511D01*
X114005563Y-104800511D02*
X114185654Y-104931563D01*
X114185654Y-104931563D02*
X114373405Y-105046841D01*
X114373405Y-105046841D02*
X114568159Y-105146360D01*
X114568159Y-105146360D02*
X114769259Y-105230130D01*
X114769259Y-105230130D02*
X114976046Y-105298166D01*
X114976046Y-105298166D02*
X115187865Y-105350479D01*
X115187865Y-105350479D02*
X115404057Y-105387083D01*
X115404057Y-105387083D02*
X115623967Y-105407991D01*
X115623967Y-105407991D02*
X115846935Y-105413214D01*
X115846935Y-105413214D02*
X116072306Y-105402767D01*
X116072306Y-105402767D02*
X116528551Y-105336740D01*
X116528551Y-105336740D02*
X116988175Y-105212615D01*
X116988175Y-105212615D02*
X117447398Y-105031517D01*
X117447398Y-105031517D02*
X117902439Y-104794569D01*
X117902439Y-104794569D02*
X118349515Y-104502896D01*
X118349515Y-104502896D02*
X118784845Y-104157623D01*
X118784845Y-104157623D02*
X119204647Y-103759873D01*
X119204647Y-103759873D02*
X119605141Y-103310770D01*
X119606594Y-103308970D02*
X119799615Y-103086825D01*
X119799615Y-103086825D02*
X120006182Y-102880243D01*
X120006182Y-102880243D02*
X120224527Y-102687931D01*
X120224527Y-102687931D02*
X120452882Y-102508596D01*
X120452882Y-102508596D02*
X120932545Y-102183689D01*
X120932545Y-102183689D02*
X121431027Y-101895184D01*
X121431027Y-101895184D02*
X122427856Y-101386023D01*
X122427856Y-101386023D02*
X122897912Y-101144689D01*
X122897912Y-101144689D02*
X123330199Y-100898399D01*
X123330199Y-100898399D02*
X123529124Y-100768105D01*
X123529124Y-100768105D02*
X123714843Y-100628622D01*
X123714843Y-100628622D02*
X123883777Y-100478712D01*
X123883777Y-100478712D02*
X124032348Y-100317135D01*
X124032348Y-100317135D02*
X124156979Y-100142651D01*
X124156979Y-100142651D02*
X124254090Y-99954021D01*
X124254090Y-99954021D02*
X124320105Y-99750006D01*
X124320105Y-99750006D02*
X124351444Y-99529366D01*
X124351444Y-99529366D02*
X124346067Y-99296360D01*
X124346067Y-99296360D02*
X124303777Y-99054595D01*
X124303777Y-99054595D02*
X124223742Y-98802228D01*
X124223742Y-98802228D02*
X124105133Y-98537417D01*
X124105133Y-98537417D02*
X123947118Y-98258320D01*
X123947118Y-98258320D02*
X123748866Y-97963094D01*
X123748866Y-97963094D02*
X123509547Y-97649895D01*
X123509547Y-97649895D02*
X123228330Y-97316883D01*
X123228330Y-97316883D02*
X123228155Y-97316704D01*
X123228155Y-97316704D02*
X123227292Y-97315604D01*
X123227292Y-97315604D02*
X123134125Y-97188876D01*
X123134125Y-97188876D02*
X123052215Y-97040266D01*
X123052215Y-97040266D02*
X122915229Y-96687927D01*
X122915229Y-96687927D02*
X122802459Y-96279643D01*
X122802459Y-96279643D02*
X122700029Y-95836474D01*
X122700029Y-95836474D02*
X122590284Y-95378567D01*
X122590284Y-95378567D02*
X122523887Y-95151037D01*
X122523887Y-95151037D02*
X122444844Y-94928786D01*
X122444844Y-94928786D02*
X122349433Y-94715060D01*
X122349433Y-94715060D02*
X122233930Y-94513108D01*
X122233930Y-94513108D02*
X122094613Y-94326176D01*
X122094613Y-94326176D02*
X121927761Y-94157512D01*
X121927761Y-94157512D02*
X121924861Y-94155012D01*
X121924861Y-94155012D02*
X121778786Y-94036046D01*
X121778786Y-94036046D02*
X121630454Y-93936226D01*
X121630454Y-93936226D02*
X121480444Y-93853959D01*
X121480444Y-93853959D02*
X121329332Y-93787656D01*
X121329332Y-93787656D02*
X121444871Y-93404147D01*
X121444871Y-93404147D02*
X121539174Y-93021117D01*
X121539174Y-93021117D02*
X121613006Y-92638841D01*
X121613006Y-92638841D02*
X121667134Y-92257594D01*
X121667134Y-92257594D02*
X121702323Y-91877651D01*
X121702323Y-91877651D02*
X121719339Y-91499287D01*
X121719339Y-91499287D02*
X121718947Y-91122776D01*
X121718947Y-91122776D02*
X121701913Y-90748394D01*
X121701913Y-90748394D02*
X121669002Y-90376414D01*
X121669002Y-90376414D02*
X121620981Y-90007113D01*
X121620981Y-90007113D02*
X121482667Y-89277643D01*
X121482667Y-89277643D02*
X121293096Y-88562183D01*
X121293096Y-88562183D02*
X121058394Y-87862931D01*
X121058394Y-87862931D02*
X120894693Y-87442725D01*
X120894693Y-87442725D02*
X120717809Y-87029820D01*
X120717809Y-87029820D02*
X120330165Y-86227859D01*
X120330165Y-86227859D02*
X119906799Y-85460929D01*
X119906799Y-85460929D02*
X119459049Y-84732915D01*
X119459049Y-84732915D02*
X118998254Y-84047698D01*
X118998254Y-84047698D02*
X118535753Y-83409162D01*
X118535753Y-83409162D02*
X118082883Y-82821188D01*
X118082883Y-82821188D02*
X117650982Y-82287661D01*
X117650982Y-82287661D02*
X117187150Y-81686531D01*
X117187150Y-81686531D02*
X116740130Y-81083537D01*
X116740130Y-81083537D02*
X116324171Y-80469187D01*
X116324171Y-80469187D02*
X116132293Y-80154787D01*
X116132293Y-80154787D02*
X115953524Y-79833988D01*
X115953524Y-79833988D02*
X115789645Y-79505603D01*
X115789645Y-79505603D02*
X115642437Y-79168446D01*
X115642437Y-79168446D02*
X115513683Y-78821330D01*
X115513683Y-78821330D02*
X115405162Y-78463069D01*
X115405162Y-78463069D02*
X115318656Y-78092476D01*
X115318656Y-78092476D02*
X115255947Y-77708364D01*
X115255947Y-77708364D02*
X115218815Y-77309548D01*
X115218815Y-77309548D02*
X115209042Y-76894839D01*
X115209042Y-76894839D02*
X115224041Y-75483823D01*
X115224041Y-75483823D02*
X115217954Y-74709005D01*
X115217954Y-74709005D02*
X115190013Y-73906181D01*
X115190013Y-73906181D02*
X115130622Y-73089004D01*
X115130622Y-73089004D02*
X115030186Y-72271125D01*
X115030186Y-72271125D02*
X114961578Y-71866189D01*
X114961578Y-71866189D02*
X114879109Y-71466196D01*
X114879109Y-71466196D02*
X114781580Y-71072855D01*
X114781580Y-71072855D02*
X114667793Y-70687870D01*
X114667793Y-70687870D02*
X114536548Y-70312948D01*
X114536548Y-70312948D02*
X114386644Y-69949796D01*
X114386644Y-69949796D02*
X114216882Y-69600121D01*
X114216882Y-69600121D02*
X114026064Y-69265628D01*
X114026064Y-69265628D02*
X113812989Y-68948024D01*
X113812989Y-68948024D02*
X113576458Y-68649016D01*
X113576458Y-68649016D02*
X113315271Y-68370310D01*
X113315271Y-68370310D02*
X113028229Y-68113613D01*
X113028229Y-68113613D02*
X112714133Y-67880631D01*
X112714133Y-67880631D02*
X112371782Y-67673070D01*
X112371782Y-67673070D02*
X111999978Y-67492638D01*
X111999978Y-67492638D02*
X111597520Y-67341039D01*
X111597520Y-67341039D02*
X111163210Y-67219982D01*
X111163210Y-67219982D02*
X110695847Y-67131172D01*
X110695847Y-67131172D02*
X110194233Y-67076316D01*
X110194233Y-67076316D02*
X109657167Y-67057119D01*
X109657167Y-67057119D02*
X109657703Y-67057189D01*
M02*
