G04 #@! TF.GenerationSoftware,KiCad,Pcbnew,(5.1.5)-3*
G04 #@! TF.CreationDate,2020-04-16T17:00:03+04:00*
G04 #@! TF.ProjectId,drawing,64726177-696e-4672-9e6b-696361645f70,rev?*
G04 #@! TF.SameCoordinates,Original*
G04 #@! TF.FileFunction,Legend,Bot*
G04 #@! TF.FilePolarity,Positive*
%FSLAX46Y46*%
G04 Gerber Fmt 4.6, Leading zero omitted, Abs format (unit mm)*
G04 Created by KiCad (PCBNEW (5.1.5)-3) date 2020-04-16 17:00:03*
%MOMM*%
%LPD*%
G04 APERTURE LIST*
%ADD10C,0.300000*%
%ADD11C,0.010000*%
G04 APERTURE END LIST*
D10*
X118724000Y-95434571D02*
X118724000Y-95720285D01*
X118152571Y-95434571D02*
X118152571Y-95720285D01*
X117724000Y-95434571D02*
X116866857Y-95434571D01*
X117295428Y-96934571D02*
X117295428Y-95434571D01*
X116438285Y-96506000D02*
X115724000Y-96506000D01*
X116581142Y-96934571D02*
X116081142Y-95434571D01*
X115581142Y-96934571D01*
X114366857Y-96934571D02*
X115081142Y-96934571D01*
X115081142Y-95434571D01*
X113866857Y-96934571D02*
X113866857Y-95434571D01*
X113009714Y-96934571D02*
X113652571Y-96077428D01*
X113009714Y-95434571D02*
X113866857Y-96291714D01*
X111224000Y-96934571D02*
X111224000Y-95434571D01*
X110581142Y-96863142D02*
X110366857Y-96934571D01*
X110009714Y-96934571D01*
X109866857Y-96863142D01*
X109795428Y-96791714D01*
X109724000Y-96648857D01*
X109724000Y-96506000D01*
X109795428Y-96363142D01*
X109866857Y-96291714D01*
X110009714Y-96220285D01*
X110295428Y-96148857D01*
X110438285Y-96077428D01*
X110509714Y-96006000D01*
X110581142Y-95863142D01*
X110581142Y-95720285D01*
X110509714Y-95577428D01*
X110438285Y-95506000D01*
X110295428Y-95434571D01*
X109938285Y-95434571D01*
X109724000Y-95506000D01*
X107081142Y-96791714D02*
X107152571Y-96863142D01*
X107366857Y-96934571D01*
X107509714Y-96934571D01*
X107724000Y-96863142D01*
X107866857Y-96720285D01*
X107938285Y-96577428D01*
X108009714Y-96291714D01*
X108009714Y-96077428D01*
X107938285Y-95791714D01*
X107866857Y-95648857D01*
X107724000Y-95506000D01*
X107509714Y-95434571D01*
X107366857Y-95434571D01*
X107152571Y-95506000D01*
X107081142Y-95577428D01*
X106438285Y-96934571D02*
X106438285Y-95434571D01*
X106438285Y-96148857D02*
X105581142Y-96148857D01*
X105581142Y-96934571D02*
X105581142Y-95434571D01*
X104866857Y-96148857D02*
X104366857Y-96148857D01*
X104152571Y-96934571D02*
X104866857Y-96934571D01*
X104866857Y-95434571D01*
X104152571Y-95434571D01*
X103581142Y-96506000D02*
X102866857Y-96506000D01*
X103724000Y-96934571D02*
X103224000Y-95434571D01*
X102724000Y-96934571D01*
X102224000Y-96934571D02*
X102224000Y-95434571D01*
X101652571Y-95434571D01*
X101509714Y-95506000D01*
X101438285Y-95577428D01*
X101366857Y-95720285D01*
X101366857Y-95934571D01*
X101438285Y-96077428D01*
X101509714Y-96148857D01*
X101652571Y-96220285D01*
X102224000Y-96220285D01*
X114438285Y-99413142D02*
X114224000Y-99484571D01*
X113866857Y-99484571D01*
X113724000Y-99413142D01*
X113652571Y-99341714D01*
X113581142Y-99198857D01*
X113581142Y-99056000D01*
X113652571Y-98913142D01*
X113724000Y-98841714D01*
X113866857Y-98770285D01*
X114152571Y-98698857D01*
X114295428Y-98627428D01*
X114366857Y-98556000D01*
X114438285Y-98413142D01*
X114438285Y-98270285D01*
X114366857Y-98127428D01*
X114295428Y-98056000D01*
X114152571Y-97984571D01*
X113795428Y-97984571D01*
X113581142Y-98056000D01*
X112938285Y-99484571D02*
X112938285Y-97984571D01*
X112938285Y-98698857D02*
X112081142Y-98698857D01*
X112081142Y-99484571D02*
X112081142Y-97984571D01*
X111081142Y-97984571D02*
X110795428Y-97984571D01*
X110652571Y-98056000D01*
X110509714Y-98198857D01*
X110438285Y-98484571D01*
X110438285Y-98984571D01*
X110509714Y-99270285D01*
X110652571Y-99413142D01*
X110795428Y-99484571D01*
X111081142Y-99484571D01*
X111224000Y-99413142D01*
X111366857Y-99270285D01*
X111438285Y-98984571D01*
X111438285Y-98484571D01*
X111366857Y-98198857D01*
X111224000Y-98056000D01*
X111081142Y-97984571D01*
X109938285Y-97984571D02*
X109581142Y-99484571D01*
X109295428Y-98413142D01*
X109009714Y-99484571D01*
X108652571Y-97984571D01*
X106938285Y-99484571D02*
X106938285Y-97984571D01*
X106438285Y-99056000D01*
X105938285Y-97984571D01*
X105938285Y-99484571D01*
X105224000Y-98698857D02*
X104724000Y-98698857D01*
X104509714Y-99484571D02*
X105224000Y-99484571D01*
X105224000Y-97984571D01*
X104509714Y-97984571D01*
X115474000Y-100534571D02*
X114616857Y-100534571D01*
X115045428Y-102034571D02*
X115045428Y-100534571D01*
X114116857Y-102034571D02*
X114116857Y-100534571D01*
X114116857Y-101248857D02*
X113259714Y-101248857D01*
X113259714Y-102034571D02*
X113259714Y-100534571D01*
X112545428Y-101248857D02*
X112045428Y-101248857D01*
X111831142Y-102034571D02*
X112545428Y-102034571D01*
X112545428Y-100534571D01*
X111831142Y-100534571D01*
X109188285Y-101891714D02*
X109259714Y-101963142D01*
X109474000Y-102034571D01*
X109616857Y-102034571D01*
X109831142Y-101963142D01*
X109974000Y-101820285D01*
X110045428Y-101677428D01*
X110116857Y-101391714D01*
X110116857Y-101177428D01*
X110045428Y-100891714D01*
X109974000Y-100748857D01*
X109831142Y-100606000D01*
X109616857Y-100534571D01*
X109474000Y-100534571D01*
X109259714Y-100606000D01*
X109188285Y-100677428D01*
X108259714Y-100534571D02*
X107974000Y-100534571D01*
X107831142Y-100606000D01*
X107688285Y-100748857D01*
X107616857Y-101034571D01*
X107616857Y-101534571D01*
X107688285Y-101820285D01*
X107831142Y-101963142D01*
X107974000Y-102034571D01*
X108259714Y-102034571D01*
X108402571Y-101963142D01*
X108545428Y-101820285D01*
X108616857Y-101534571D01*
X108616857Y-101034571D01*
X108545428Y-100748857D01*
X108402571Y-100606000D01*
X108259714Y-100534571D01*
X106974000Y-102034571D02*
X106974000Y-100534571D01*
X106616857Y-100534571D01*
X106402571Y-100606000D01*
X106259714Y-100748857D01*
X106188285Y-100891714D01*
X106116857Y-101177428D01*
X106116857Y-101391714D01*
X106188285Y-101677428D01*
X106259714Y-101820285D01*
X106402571Y-101963142D01*
X106616857Y-102034571D01*
X106974000Y-102034571D01*
X105474000Y-101248857D02*
X104974000Y-101248857D01*
X104759714Y-102034571D02*
X105474000Y-102034571D01*
X105474000Y-100534571D01*
X104759714Y-100534571D01*
X104188285Y-100534571D02*
X104188285Y-100820285D01*
X103616857Y-100534571D02*
X103616857Y-100820285D01*
D11*
G36*
X103499177Y-93460533D02*
G01*
X103467798Y-93482776D01*
X103440089Y-93510485D01*
X103440089Y-93819920D01*
X103440162Y-93911799D01*
X103440505Y-93983840D01*
X103441308Y-94038780D01*
X103442759Y-94079360D01*
X103445048Y-94108317D01*
X103448364Y-94128391D01*
X103452895Y-94142321D01*
X103458831Y-94152845D01*
X103463486Y-94159100D01*
X103494217Y-94183673D01*
X103529504Y-94186341D01*
X103561755Y-94171271D01*
X103572412Y-94162374D01*
X103579536Y-94150557D01*
X103583833Y-94131526D01*
X103586009Y-94100992D01*
X103586772Y-94054662D01*
X103586845Y-94018871D01*
X103586845Y-93884045D01*
X104083556Y-93884045D01*
X104083556Y-94006700D01*
X104084069Y-94062787D01*
X104086124Y-94101333D01*
X104090492Y-94127361D01*
X104097944Y-94145897D01*
X104106953Y-94159100D01*
X104137856Y-94183604D01*
X104172804Y-94186506D01*
X104206262Y-94169089D01*
X104215396Y-94159959D01*
X104221848Y-94147855D01*
X104226103Y-94129001D01*
X104228648Y-94099620D01*
X104229971Y-94055937D01*
X104230557Y-93994175D01*
X104230625Y-93980000D01*
X104231109Y-93863631D01*
X104231359Y-93767727D01*
X104231277Y-93690177D01*
X104230769Y-93628869D01*
X104229738Y-93581690D01*
X104228087Y-93546530D01*
X104225721Y-93521276D01*
X104222543Y-93503817D01*
X104218456Y-93492041D01*
X104213366Y-93483835D01*
X104207734Y-93477645D01*
X104175872Y-93457844D01*
X104142643Y-93460533D01*
X104111265Y-93482776D01*
X104098567Y-93497126D01*
X104090474Y-93512978D01*
X104085958Y-93535554D01*
X104083994Y-93570078D01*
X104083556Y-93621776D01*
X104083556Y-93737289D01*
X103586845Y-93737289D01*
X103586845Y-93618756D01*
X103586338Y-93564148D01*
X103584302Y-93527275D01*
X103579965Y-93503307D01*
X103572553Y-93487415D01*
X103564267Y-93477645D01*
X103532406Y-93457844D01*
X103499177Y-93460533D01*
G37*
X103499177Y-93460533D02*
X103467798Y-93482776D01*
X103440089Y-93510485D01*
X103440089Y-93819920D01*
X103440162Y-93911799D01*
X103440505Y-93983840D01*
X103441308Y-94038780D01*
X103442759Y-94079360D01*
X103445048Y-94108317D01*
X103448364Y-94128391D01*
X103452895Y-94142321D01*
X103458831Y-94152845D01*
X103463486Y-94159100D01*
X103494217Y-94183673D01*
X103529504Y-94186341D01*
X103561755Y-94171271D01*
X103572412Y-94162374D01*
X103579536Y-94150557D01*
X103583833Y-94131526D01*
X103586009Y-94100992D01*
X103586772Y-94054662D01*
X103586845Y-94018871D01*
X103586845Y-93884045D01*
X104083556Y-93884045D01*
X104083556Y-94006700D01*
X104084069Y-94062787D01*
X104086124Y-94101333D01*
X104090492Y-94127361D01*
X104097944Y-94145897D01*
X104106953Y-94159100D01*
X104137856Y-94183604D01*
X104172804Y-94186506D01*
X104206262Y-94169089D01*
X104215396Y-94159959D01*
X104221848Y-94147855D01*
X104226103Y-94129001D01*
X104228648Y-94099620D01*
X104229971Y-94055937D01*
X104230557Y-93994175D01*
X104230625Y-93980000D01*
X104231109Y-93863631D01*
X104231359Y-93767727D01*
X104231277Y-93690177D01*
X104230769Y-93628869D01*
X104229738Y-93581690D01*
X104228087Y-93546530D01*
X104225721Y-93521276D01*
X104222543Y-93503817D01*
X104218456Y-93492041D01*
X104213366Y-93483835D01*
X104207734Y-93477645D01*
X104175872Y-93457844D01*
X104142643Y-93460533D01*
X104111265Y-93482776D01*
X104098567Y-93497126D01*
X104090474Y-93512978D01*
X104085958Y-93535554D01*
X104083994Y-93570078D01*
X104083556Y-93621776D01*
X104083556Y-93737289D01*
X103586845Y-93737289D01*
X103586845Y-93618756D01*
X103586338Y-93564148D01*
X103584302Y-93527275D01*
X103579965Y-93503307D01*
X103572553Y-93487415D01*
X103564267Y-93477645D01*
X103532406Y-93457844D01*
X103499177Y-93460533D01*
G36*
X104764935Y-93455163D02*
G01*
X104686228Y-93455542D01*
X104625137Y-93456333D01*
X104579183Y-93457670D01*
X104545886Y-93459683D01*
X104522764Y-93462506D01*
X104507338Y-93466269D01*
X104497129Y-93471105D01*
X104492187Y-93474822D01*
X104466543Y-93507358D01*
X104463441Y-93541138D01*
X104479289Y-93571826D01*
X104489652Y-93584089D01*
X104500804Y-93592450D01*
X104516965Y-93597657D01*
X104542358Y-93600457D01*
X104581202Y-93601596D01*
X104637720Y-93601821D01*
X104648820Y-93601822D01*
X104794756Y-93601822D01*
X104794756Y-93872756D01*
X104794852Y-93958154D01*
X104795289Y-94023864D01*
X104796288Y-94072774D01*
X104798072Y-94107773D01*
X104800863Y-94131749D01*
X104804883Y-94147593D01*
X104810355Y-94158191D01*
X104817334Y-94166267D01*
X104850266Y-94186112D01*
X104884646Y-94184548D01*
X104915824Y-94161906D01*
X104918114Y-94159100D01*
X104925571Y-94148492D01*
X104931253Y-94136081D01*
X104935399Y-94118850D01*
X104938250Y-94093784D01*
X104940046Y-94057867D01*
X104941028Y-94008083D01*
X104941436Y-93941417D01*
X104941511Y-93865589D01*
X104941511Y-93601822D01*
X105080873Y-93601822D01*
X105140678Y-93601418D01*
X105182082Y-93599840D01*
X105209252Y-93596547D01*
X105226354Y-93590992D01*
X105237557Y-93582631D01*
X105238917Y-93581178D01*
X105255275Y-93547939D01*
X105253828Y-93510362D01*
X105235022Y-93477645D01*
X105227750Y-93471298D01*
X105218373Y-93466266D01*
X105204391Y-93462396D01*
X105183304Y-93459537D01*
X105152611Y-93457535D01*
X105109811Y-93456239D01*
X105052405Y-93455498D01*
X104977890Y-93455158D01*
X104883767Y-93455068D01*
X104863740Y-93455067D01*
X104764935Y-93455163D01*
G37*
X104764935Y-93455163D02*
X104686228Y-93455542D01*
X104625137Y-93456333D01*
X104579183Y-93457670D01*
X104545886Y-93459683D01*
X104522764Y-93462506D01*
X104507338Y-93466269D01*
X104497129Y-93471105D01*
X104492187Y-93474822D01*
X104466543Y-93507358D01*
X104463441Y-93541138D01*
X104479289Y-93571826D01*
X104489652Y-93584089D01*
X104500804Y-93592450D01*
X104516965Y-93597657D01*
X104542358Y-93600457D01*
X104581202Y-93601596D01*
X104637720Y-93601821D01*
X104648820Y-93601822D01*
X104794756Y-93601822D01*
X104794756Y-93872756D01*
X104794852Y-93958154D01*
X104795289Y-94023864D01*
X104796288Y-94072774D01*
X104798072Y-94107773D01*
X104800863Y-94131749D01*
X104804883Y-94147593D01*
X104810355Y-94158191D01*
X104817334Y-94166267D01*
X104850266Y-94186112D01*
X104884646Y-94184548D01*
X104915824Y-94161906D01*
X104918114Y-94159100D01*
X104925571Y-94148492D01*
X104931253Y-94136081D01*
X104935399Y-94118850D01*
X104938250Y-94093784D01*
X104940046Y-94057867D01*
X104941028Y-94008083D01*
X104941436Y-93941417D01*
X104941511Y-93865589D01*
X104941511Y-93601822D01*
X105080873Y-93601822D01*
X105140678Y-93601418D01*
X105182082Y-93599840D01*
X105209252Y-93596547D01*
X105226354Y-93590992D01*
X105237557Y-93582631D01*
X105238917Y-93581178D01*
X105255275Y-93547939D01*
X105253828Y-93510362D01*
X105235022Y-93477645D01*
X105227750Y-93471298D01*
X105218373Y-93466266D01*
X105204391Y-93462396D01*
X105183304Y-93459537D01*
X105152611Y-93457535D01*
X105109811Y-93456239D01*
X105052405Y-93455498D01*
X104977890Y-93455158D01*
X104883767Y-93455068D01*
X104863740Y-93455067D01*
X104764935Y-93455163D01*
G36*
X105539386Y-93461877D02*
G01*
X105515673Y-93476647D01*
X105489022Y-93498227D01*
X105489022Y-93819773D01*
X105489107Y-93913830D01*
X105489471Y-93987932D01*
X105490276Y-94044704D01*
X105491687Y-94086768D01*
X105493867Y-94116748D01*
X105496979Y-94137267D01*
X105501186Y-94150949D01*
X105506652Y-94160416D01*
X105510528Y-94165082D01*
X105541966Y-94185575D01*
X105577767Y-94184739D01*
X105609127Y-94167264D01*
X105635778Y-94145684D01*
X105635778Y-93498227D01*
X105609127Y-93476647D01*
X105583406Y-93460949D01*
X105562400Y-93455067D01*
X105539386Y-93461877D01*
G37*
X105539386Y-93461877D02*
X105515673Y-93476647D01*
X105489022Y-93498227D01*
X105489022Y-93819773D01*
X105489107Y-93913830D01*
X105489471Y-93987932D01*
X105490276Y-94044704D01*
X105491687Y-94086768D01*
X105493867Y-94116748D01*
X105496979Y-94137267D01*
X105501186Y-94150949D01*
X105506652Y-94160416D01*
X105510528Y-94165082D01*
X105541966Y-94185575D01*
X105577767Y-94184739D01*
X105609127Y-94167264D01*
X105635778Y-94145684D01*
X105635778Y-93498227D01*
X105609127Y-93476647D01*
X105583406Y-93460949D01*
X105562400Y-93455067D01*
X105539386Y-93461877D01*
G36*
X105983335Y-93457034D02*
G01*
X105963745Y-93464035D01*
X105962990Y-93464377D01*
X105936387Y-93484678D01*
X105921730Y-93505561D01*
X105918862Y-93515352D01*
X105919004Y-93528361D01*
X105923039Y-93546895D01*
X105931854Y-93573257D01*
X105946331Y-93609752D01*
X105967355Y-93658687D01*
X105995812Y-93722365D01*
X106032585Y-93803093D01*
X106052825Y-93847216D01*
X106089375Y-93925985D01*
X106123685Y-93998423D01*
X106154448Y-94061880D01*
X106180352Y-94113708D01*
X106200090Y-94151259D01*
X106212350Y-94171884D01*
X106214776Y-94174733D01*
X106245817Y-94187302D01*
X106280879Y-94185619D01*
X106309000Y-94170332D01*
X106310146Y-94169089D01*
X106321332Y-94152154D01*
X106340096Y-94119170D01*
X106364125Y-94074380D01*
X106391103Y-94022032D01*
X106400799Y-94002742D01*
X106473986Y-93856150D01*
X106553760Y-94015393D01*
X106582233Y-94070415D01*
X106608650Y-94118132D01*
X106630852Y-94154893D01*
X106646681Y-94177044D01*
X106652046Y-94181741D01*
X106693743Y-94188102D01*
X106728151Y-94174733D01*
X106738272Y-94160446D01*
X106755786Y-94128692D01*
X106779265Y-94082597D01*
X106807280Y-94025285D01*
X106838401Y-93959880D01*
X106871201Y-93889507D01*
X106904250Y-93817291D01*
X106936119Y-93746355D01*
X106965381Y-93679825D01*
X106990605Y-93620826D01*
X107010364Y-93572481D01*
X107023228Y-93537915D01*
X107027769Y-93520253D01*
X107027723Y-93519613D01*
X107016674Y-93497388D01*
X106994590Y-93474753D01*
X106993290Y-93473768D01*
X106966147Y-93458425D01*
X106941042Y-93458574D01*
X106931632Y-93461466D01*
X106920166Y-93467718D01*
X106907990Y-93480014D01*
X106893643Y-93500908D01*
X106875664Y-93532949D01*
X106852593Y-93578688D01*
X106822970Y-93640677D01*
X106796255Y-93697898D01*
X106765520Y-93764226D01*
X106737979Y-93823874D01*
X106715062Y-93873725D01*
X106698202Y-93910664D01*
X106688827Y-93931573D01*
X106687460Y-93934845D01*
X106681311Y-93929497D01*
X106667178Y-93907109D01*
X106646943Y-93870946D01*
X106622485Y-93824277D01*
X106612752Y-93805022D01*
X106579783Y-93740004D01*
X106554357Y-93692654D01*
X106534388Y-93660219D01*
X106517790Y-93639946D01*
X106502476Y-93629082D01*
X106486360Y-93624875D01*
X106475857Y-93624400D01*
X106457330Y-93626042D01*
X106441096Y-93632831D01*
X106424965Y-93647566D01*
X106406749Y-93673044D01*
X106384261Y-93712061D01*
X106355311Y-93767414D01*
X106339338Y-93798903D01*
X106313430Y-93849087D01*
X106290833Y-93890704D01*
X106273542Y-93920242D01*
X106263550Y-93934189D01*
X106262191Y-93934770D01*
X106255739Y-93923793D01*
X106241292Y-93895290D01*
X106220297Y-93852244D01*
X106194203Y-93797638D01*
X106164454Y-93734454D01*
X106149820Y-93703071D01*
X106111750Y-93622078D01*
X106081095Y-93559756D01*
X106056263Y-93514071D01*
X106035663Y-93482989D01*
X106017702Y-93464478D01*
X106000790Y-93456504D01*
X105983335Y-93457034D01*
G37*
X105983335Y-93457034D02*
X105963745Y-93464035D01*
X105962990Y-93464377D01*
X105936387Y-93484678D01*
X105921730Y-93505561D01*
X105918862Y-93515352D01*
X105919004Y-93528361D01*
X105923039Y-93546895D01*
X105931854Y-93573257D01*
X105946331Y-93609752D01*
X105967355Y-93658687D01*
X105995812Y-93722365D01*
X106032585Y-93803093D01*
X106052825Y-93847216D01*
X106089375Y-93925985D01*
X106123685Y-93998423D01*
X106154448Y-94061880D01*
X106180352Y-94113708D01*
X106200090Y-94151259D01*
X106212350Y-94171884D01*
X106214776Y-94174733D01*
X106245817Y-94187302D01*
X106280879Y-94185619D01*
X106309000Y-94170332D01*
X106310146Y-94169089D01*
X106321332Y-94152154D01*
X106340096Y-94119170D01*
X106364125Y-94074380D01*
X106391103Y-94022032D01*
X106400799Y-94002742D01*
X106473986Y-93856150D01*
X106553760Y-94015393D01*
X106582233Y-94070415D01*
X106608650Y-94118132D01*
X106630852Y-94154893D01*
X106646681Y-94177044D01*
X106652046Y-94181741D01*
X106693743Y-94188102D01*
X106728151Y-94174733D01*
X106738272Y-94160446D01*
X106755786Y-94128692D01*
X106779265Y-94082597D01*
X106807280Y-94025285D01*
X106838401Y-93959880D01*
X106871201Y-93889507D01*
X106904250Y-93817291D01*
X106936119Y-93746355D01*
X106965381Y-93679825D01*
X106990605Y-93620826D01*
X107010364Y-93572481D01*
X107023228Y-93537915D01*
X107027769Y-93520253D01*
X107027723Y-93519613D01*
X107016674Y-93497388D01*
X106994590Y-93474753D01*
X106993290Y-93473768D01*
X106966147Y-93458425D01*
X106941042Y-93458574D01*
X106931632Y-93461466D01*
X106920166Y-93467718D01*
X106907990Y-93480014D01*
X106893643Y-93500908D01*
X106875664Y-93532949D01*
X106852593Y-93578688D01*
X106822970Y-93640677D01*
X106796255Y-93697898D01*
X106765520Y-93764226D01*
X106737979Y-93823874D01*
X106715062Y-93873725D01*
X106698202Y-93910664D01*
X106688827Y-93931573D01*
X106687460Y-93934845D01*
X106681311Y-93929497D01*
X106667178Y-93907109D01*
X106646943Y-93870946D01*
X106622485Y-93824277D01*
X106612752Y-93805022D01*
X106579783Y-93740004D01*
X106554357Y-93692654D01*
X106534388Y-93660219D01*
X106517790Y-93639946D01*
X106502476Y-93629082D01*
X106486360Y-93624875D01*
X106475857Y-93624400D01*
X106457330Y-93626042D01*
X106441096Y-93632831D01*
X106424965Y-93647566D01*
X106406749Y-93673044D01*
X106384261Y-93712061D01*
X106355311Y-93767414D01*
X106339338Y-93798903D01*
X106313430Y-93849087D01*
X106290833Y-93890704D01*
X106273542Y-93920242D01*
X106263550Y-93934189D01*
X106262191Y-93934770D01*
X106255739Y-93923793D01*
X106241292Y-93895290D01*
X106220297Y-93852244D01*
X106194203Y-93797638D01*
X106164454Y-93734454D01*
X106149820Y-93703071D01*
X106111750Y-93622078D01*
X106081095Y-93559756D01*
X106056263Y-93514071D01*
X106035663Y-93482989D01*
X106017702Y-93464478D01*
X106000790Y-93456504D01*
X105983335Y-93457034D01*
G36*
X108709691Y-93455275D02*
G01*
X108580712Y-93459636D01*
X108471009Y-93472861D01*
X108378774Y-93495741D01*
X108302198Y-93529070D01*
X108239473Y-93573638D01*
X108188788Y-93630236D01*
X108148337Y-93699658D01*
X108147541Y-93701351D01*
X108123399Y-93763483D01*
X108114797Y-93818509D01*
X108121769Y-93873887D01*
X108144346Y-93937073D01*
X108148628Y-93946689D01*
X108177828Y-94002966D01*
X108210644Y-94046451D01*
X108252998Y-94083417D01*
X108310810Y-94120135D01*
X108314169Y-94122052D01*
X108364496Y-94146227D01*
X108421379Y-94164282D01*
X108488473Y-94176839D01*
X108569435Y-94184522D01*
X108667918Y-94187953D01*
X108702714Y-94188251D01*
X108868406Y-94188845D01*
X108891803Y-94159100D01*
X108898743Y-94149319D01*
X108904158Y-94137897D01*
X108908235Y-94122095D01*
X108911163Y-94099175D01*
X108913133Y-94066396D01*
X108913775Y-94042089D01*
X108757156Y-94042089D01*
X108663274Y-94042089D01*
X108608336Y-94040483D01*
X108551940Y-94036255D01*
X108505655Y-94030292D01*
X108502861Y-94029790D01*
X108420652Y-94007736D01*
X108356886Y-93974600D01*
X108309548Y-93928847D01*
X108276618Y-93868939D01*
X108270892Y-93853061D01*
X108265279Y-93828333D01*
X108267709Y-93803902D01*
X108279533Y-93771400D01*
X108286660Y-93755434D01*
X108310000Y-93713006D01*
X108338120Y-93683240D01*
X108369060Y-93662511D01*
X108431034Y-93635537D01*
X108510349Y-93615998D01*
X108602747Y-93604746D01*
X108669667Y-93602270D01*
X108757156Y-93601822D01*
X108757156Y-94042089D01*
X108913775Y-94042089D01*
X108914332Y-94021021D01*
X108914950Y-93960311D01*
X108915175Y-93881526D01*
X108915200Y-93819920D01*
X108915200Y-93510485D01*
X108887491Y-93482776D01*
X108875194Y-93471544D01*
X108861897Y-93463853D01*
X108843328Y-93459040D01*
X108815214Y-93456446D01*
X108773283Y-93455410D01*
X108713263Y-93455270D01*
X108709691Y-93455275D01*
G37*
X108709691Y-93455275D02*
X108580712Y-93459636D01*
X108471009Y-93472861D01*
X108378774Y-93495741D01*
X108302198Y-93529070D01*
X108239473Y-93573638D01*
X108188788Y-93630236D01*
X108148337Y-93699658D01*
X108147541Y-93701351D01*
X108123399Y-93763483D01*
X108114797Y-93818509D01*
X108121769Y-93873887D01*
X108144346Y-93937073D01*
X108148628Y-93946689D01*
X108177828Y-94002966D01*
X108210644Y-94046451D01*
X108252998Y-94083417D01*
X108310810Y-94120135D01*
X108314169Y-94122052D01*
X108364496Y-94146227D01*
X108421379Y-94164282D01*
X108488473Y-94176839D01*
X108569435Y-94184522D01*
X108667918Y-94187953D01*
X108702714Y-94188251D01*
X108868406Y-94188845D01*
X108891803Y-94159100D01*
X108898743Y-94149319D01*
X108904158Y-94137897D01*
X108908235Y-94122095D01*
X108911163Y-94099175D01*
X108913133Y-94066396D01*
X108913775Y-94042089D01*
X108757156Y-94042089D01*
X108663274Y-94042089D01*
X108608336Y-94040483D01*
X108551940Y-94036255D01*
X108505655Y-94030292D01*
X108502861Y-94029790D01*
X108420652Y-94007736D01*
X108356886Y-93974600D01*
X108309548Y-93928847D01*
X108276618Y-93868939D01*
X108270892Y-93853061D01*
X108265279Y-93828333D01*
X108267709Y-93803902D01*
X108279533Y-93771400D01*
X108286660Y-93755434D01*
X108310000Y-93713006D01*
X108338120Y-93683240D01*
X108369060Y-93662511D01*
X108431034Y-93635537D01*
X108510349Y-93615998D01*
X108602747Y-93604746D01*
X108669667Y-93602270D01*
X108757156Y-93601822D01*
X108757156Y-94042089D01*
X108913775Y-94042089D01*
X108914332Y-94021021D01*
X108914950Y-93960311D01*
X108915175Y-93881526D01*
X108915200Y-93819920D01*
X108915200Y-93510485D01*
X108887491Y-93482776D01*
X108875194Y-93471544D01*
X108861897Y-93463853D01*
X108843328Y-93459040D01*
X108815214Y-93456446D01*
X108773283Y-93455410D01*
X108713263Y-93455270D01*
X108709691Y-93455275D01*
G36*
X109497657Y-93455260D02*
G01*
X109421299Y-93456174D01*
X109362783Y-93458311D01*
X109319745Y-93462175D01*
X109289817Y-93468267D01*
X109270632Y-93477090D01*
X109259824Y-93489146D01*
X109255027Y-93504939D01*
X109253873Y-93524970D01*
X109253867Y-93527335D01*
X109254869Y-93549992D01*
X109259604Y-93567503D01*
X109270667Y-93580574D01*
X109290652Y-93589913D01*
X109322154Y-93596227D01*
X109367768Y-93600222D01*
X109430087Y-93602606D01*
X109511707Y-93604086D01*
X109536723Y-93604414D01*
X109778800Y-93607467D01*
X109782186Y-93672378D01*
X109785571Y-93737289D01*
X109617424Y-93737289D01*
X109551734Y-93737531D01*
X109504828Y-93738556D01*
X109472917Y-93740811D01*
X109452209Y-93744742D01*
X109438916Y-93750798D01*
X109429245Y-93759424D01*
X109429183Y-93759493D01*
X109411644Y-93793112D01*
X109412278Y-93829448D01*
X109430686Y-93860423D01*
X109434329Y-93863607D01*
X109447259Y-93871812D01*
X109464976Y-93877521D01*
X109491430Y-93881162D01*
X109530568Y-93883167D01*
X109586338Y-93883964D01*
X109622006Y-93884045D01*
X109784445Y-93884045D01*
X109784445Y-94042089D01*
X109537839Y-94042089D01*
X109456420Y-94042231D01*
X109394590Y-94042814D01*
X109349363Y-94044068D01*
X109317752Y-94046227D01*
X109296769Y-94049523D01*
X109283427Y-94054189D01*
X109274739Y-94060457D01*
X109272550Y-94062733D01*
X109256386Y-94094280D01*
X109255203Y-94130168D01*
X109268464Y-94161285D01*
X109278957Y-94171271D01*
X109289871Y-94176769D01*
X109306783Y-94181022D01*
X109332367Y-94184180D01*
X109369299Y-94186392D01*
X109420254Y-94187806D01*
X109487906Y-94188572D01*
X109574931Y-94188838D01*
X109594606Y-94188845D01*
X109683089Y-94188787D01*
X109751773Y-94188467D01*
X109803436Y-94187667D01*
X109840855Y-94186167D01*
X109866810Y-94183749D01*
X109884078Y-94180194D01*
X109895438Y-94175282D01*
X109903668Y-94168795D01*
X109908183Y-94164138D01*
X109914979Y-94155889D01*
X109920288Y-94145669D01*
X109924294Y-94130800D01*
X109927179Y-94108602D01*
X109929126Y-94076393D01*
X109930319Y-94031496D01*
X109930939Y-93971228D01*
X109931171Y-93892911D01*
X109931200Y-93826994D01*
X109931129Y-93734628D01*
X109930792Y-93662117D01*
X109930002Y-93606737D01*
X109928574Y-93565765D01*
X109926321Y-93536478D01*
X109923057Y-93516153D01*
X109918596Y-93502066D01*
X109912752Y-93491495D01*
X109907803Y-93484811D01*
X109884406Y-93455067D01*
X109594226Y-93455067D01*
X109497657Y-93455260D01*
G37*
X109497657Y-93455260D02*
X109421299Y-93456174D01*
X109362783Y-93458311D01*
X109319745Y-93462175D01*
X109289817Y-93468267D01*
X109270632Y-93477090D01*
X109259824Y-93489146D01*
X109255027Y-93504939D01*
X109253873Y-93524970D01*
X109253867Y-93527335D01*
X109254869Y-93549992D01*
X109259604Y-93567503D01*
X109270667Y-93580574D01*
X109290652Y-93589913D01*
X109322154Y-93596227D01*
X109367768Y-93600222D01*
X109430087Y-93602606D01*
X109511707Y-93604086D01*
X109536723Y-93604414D01*
X109778800Y-93607467D01*
X109782186Y-93672378D01*
X109785571Y-93737289D01*
X109617424Y-93737289D01*
X109551734Y-93737531D01*
X109504828Y-93738556D01*
X109472917Y-93740811D01*
X109452209Y-93744742D01*
X109438916Y-93750798D01*
X109429245Y-93759424D01*
X109429183Y-93759493D01*
X109411644Y-93793112D01*
X109412278Y-93829448D01*
X109430686Y-93860423D01*
X109434329Y-93863607D01*
X109447259Y-93871812D01*
X109464976Y-93877521D01*
X109491430Y-93881162D01*
X109530568Y-93883167D01*
X109586338Y-93883964D01*
X109622006Y-93884045D01*
X109784445Y-93884045D01*
X109784445Y-94042089D01*
X109537839Y-94042089D01*
X109456420Y-94042231D01*
X109394590Y-94042814D01*
X109349363Y-94044068D01*
X109317752Y-94046227D01*
X109296769Y-94049523D01*
X109283427Y-94054189D01*
X109274739Y-94060457D01*
X109272550Y-94062733D01*
X109256386Y-94094280D01*
X109255203Y-94130168D01*
X109268464Y-94161285D01*
X109278957Y-94171271D01*
X109289871Y-94176769D01*
X109306783Y-94181022D01*
X109332367Y-94184180D01*
X109369299Y-94186392D01*
X109420254Y-94187806D01*
X109487906Y-94188572D01*
X109574931Y-94188838D01*
X109594606Y-94188845D01*
X109683089Y-94188787D01*
X109751773Y-94188467D01*
X109803436Y-94187667D01*
X109840855Y-94186167D01*
X109866810Y-94183749D01*
X109884078Y-94180194D01*
X109895438Y-94175282D01*
X109903668Y-94168795D01*
X109908183Y-94164138D01*
X109914979Y-94155889D01*
X109920288Y-94145669D01*
X109924294Y-94130800D01*
X109927179Y-94108602D01*
X109929126Y-94076393D01*
X109930319Y-94031496D01*
X109930939Y-93971228D01*
X109931171Y-93892911D01*
X109931200Y-93826994D01*
X109931129Y-93734628D01*
X109930792Y-93662117D01*
X109930002Y-93606737D01*
X109928574Y-93565765D01*
X109926321Y-93536478D01*
X109923057Y-93516153D01*
X109918596Y-93502066D01*
X109912752Y-93491495D01*
X109907803Y-93484811D01*
X109884406Y-93455067D01*
X109594226Y-93455067D01*
X109497657Y-93455260D01*
G36*
X111028114Y-93459448D02*
G01*
X111004548Y-93473273D01*
X110973735Y-93495881D01*
X110934078Y-93528338D01*
X110883980Y-93571708D01*
X110821843Y-93627058D01*
X110746072Y-93695451D01*
X110659334Y-93774084D01*
X110478711Y-93937878D01*
X110473067Y-93718029D01*
X110471029Y-93642351D01*
X110469063Y-93585994D01*
X110466734Y-93545706D01*
X110463606Y-93518235D01*
X110459245Y-93500329D01*
X110453216Y-93488737D01*
X110445084Y-93480208D01*
X110440772Y-93476623D01*
X110406241Y-93457670D01*
X110373383Y-93460441D01*
X110347318Y-93476633D01*
X110320667Y-93498199D01*
X110317352Y-93813151D01*
X110316435Y-93905779D01*
X110315968Y-93978544D01*
X110316113Y-94034161D01*
X110317032Y-94075342D01*
X110318887Y-94104803D01*
X110321839Y-94125255D01*
X110326050Y-94139413D01*
X110331682Y-94149991D01*
X110337927Y-94158474D01*
X110351439Y-94174207D01*
X110364883Y-94184636D01*
X110380124Y-94188639D01*
X110399026Y-94185094D01*
X110423455Y-94172879D01*
X110455273Y-94150871D01*
X110496348Y-94117949D01*
X110548542Y-94072991D01*
X110613722Y-94014875D01*
X110687556Y-93948099D01*
X110952845Y-93707458D01*
X110958489Y-93926589D01*
X110960531Y-94002128D01*
X110962502Y-94058354D01*
X110964839Y-94098524D01*
X110967981Y-94125896D01*
X110972364Y-94143728D01*
X110978424Y-94155279D01*
X110986600Y-94163807D01*
X110990784Y-94167282D01*
X111027765Y-94186372D01*
X111062708Y-94183493D01*
X111093136Y-94159100D01*
X111100097Y-94149286D01*
X111105523Y-94137826D01*
X111109603Y-94121968D01*
X111112529Y-94098963D01*
X111114492Y-94066062D01*
X111115683Y-94020516D01*
X111116292Y-93959573D01*
X111116511Y-93880486D01*
X111116534Y-93821956D01*
X111116460Y-93730407D01*
X111116113Y-93658687D01*
X111115301Y-93604045D01*
X111113833Y-93563732D01*
X111111519Y-93534998D01*
X111108167Y-93515093D01*
X111103588Y-93501268D01*
X111097589Y-93490772D01*
X111093136Y-93484811D01*
X111081850Y-93470691D01*
X111071301Y-93460029D01*
X111059893Y-93453892D01*
X111046030Y-93453343D01*
X111028114Y-93459448D01*
G37*
X111028114Y-93459448D02*
X111004548Y-93473273D01*
X110973735Y-93495881D01*
X110934078Y-93528338D01*
X110883980Y-93571708D01*
X110821843Y-93627058D01*
X110746072Y-93695451D01*
X110659334Y-93774084D01*
X110478711Y-93937878D01*
X110473067Y-93718029D01*
X110471029Y-93642351D01*
X110469063Y-93585994D01*
X110466734Y-93545706D01*
X110463606Y-93518235D01*
X110459245Y-93500329D01*
X110453216Y-93488737D01*
X110445084Y-93480208D01*
X110440772Y-93476623D01*
X110406241Y-93457670D01*
X110373383Y-93460441D01*
X110347318Y-93476633D01*
X110320667Y-93498199D01*
X110317352Y-93813151D01*
X110316435Y-93905779D01*
X110315968Y-93978544D01*
X110316113Y-94034161D01*
X110317032Y-94075342D01*
X110318887Y-94104803D01*
X110321839Y-94125255D01*
X110326050Y-94139413D01*
X110331682Y-94149991D01*
X110337927Y-94158474D01*
X110351439Y-94174207D01*
X110364883Y-94184636D01*
X110380124Y-94188639D01*
X110399026Y-94185094D01*
X110423455Y-94172879D01*
X110455273Y-94150871D01*
X110496348Y-94117949D01*
X110548542Y-94072991D01*
X110613722Y-94014875D01*
X110687556Y-93948099D01*
X110952845Y-93707458D01*
X110958489Y-93926589D01*
X110960531Y-94002128D01*
X110962502Y-94058354D01*
X110964839Y-94098524D01*
X110967981Y-94125896D01*
X110972364Y-94143728D01*
X110978424Y-94155279D01*
X110986600Y-94163807D01*
X110990784Y-94167282D01*
X111027765Y-94186372D01*
X111062708Y-94183493D01*
X111093136Y-94159100D01*
X111100097Y-94149286D01*
X111105523Y-94137826D01*
X111109603Y-94121968D01*
X111112529Y-94098963D01*
X111114492Y-94066062D01*
X111115683Y-94020516D01*
X111116292Y-93959573D01*
X111116511Y-93880486D01*
X111116534Y-93821956D01*
X111116460Y-93730407D01*
X111116113Y-93658687D01*
X111115301Y-93604045D01*
X111113833Y-93563732D01*
X111111519Y-93534998D01*
X111108167Y-93515093D01*
X111103588Y-93501268D01*
X111097589Y-93490772D01*
X111093136Y-93484811D01*
X111081850Y-93470691D01*
X111071301Y-93460029D01*
X111059893Y-93453892D01*
X111046030Y-93453343D01*
X111028114Y-93459448D01*
G36*
X111678081Y-93460599D02*
G01*
X111609565Y-93472095D01*
X111556943Y-93489967D01*
X111522708Y-93513499D01*
X111513379Y-93526924D01*
X111503893Y-93558148D01*
X111510277Y-93586395D01*
X111530430Y-93613182D01*
X111561745Y-93625713D01*
X111607183Y-93624696D01*
X111642326Y-93617906D01*
X111720419Y-93604971D01*
X111800226Y-93603742D01*
X111889555Y-93614241D01*
X111914229Y-93618690D01*
X111997291Y-93642108D01*
X112062273Y-93676945D01*
X112108461Y-93722604D01*
X112135145Y-93778494D01*
X112140663Y-93807388D01*
X112137051Y-93866012D01*
X112113729Y-93917879D01*
X112072824Y-93961978D01*
X112016459Y-93997299D01*
X111946760Y-94022829D01*
X111865852Y-94037559D01*
X111775860Y-94040478D01*
X111678910Y-94030575D01*
X111673436Y-94029641D01*
X111634875Y-94022459D01*
X111613494Y-94015521D01*
X111604227Y-94005227D01*
X111602006Y-93987976D01*
X111601956Y-93978841D01*
X111601956Y-93940489D01*
X111670431Y-93940489D01*
X111730900Y-93936347D01*
X111772165Y-93923147D01*
X111796175Y-93899730D01*
X111804877Y-93864936D01*
X111804983Y-93860394D01*
X111799892Y-93830654D01*
X111782433Y-93809419D01*
X111749939Y-93795366D01*
X111699743Y-93787173D01*
X111651123Y-93784161D01*
X111580456Y-93782433D01*
X111529198Y-93785070D01*
X111494239Y-93794800D01*
X111472470Y-93814353D01*
X111460780Y-93846456D01*
X111456060Y-93893838D01*
X111455200Y-93956071D01*
X111456609Y-94025535D01*
X111460848Y-94072786D01*
X111467936Y-94098012D01*
X111469311Y-94099988D01*
X111508228Y-94131508D01*
X111565286Y-94156470D01*
X111636869Y-94174340D01*
X111719358Y-94184586D01*
X111809139Y-94186673D01*
X111902592Y-94180068D01*
X111957556Y-94171956D01*
X112043766Y-94147554D01*
X112123892Y-94107662D01*
X112190977Y-94055887D01*
X112201173Y-94045539D01*
X112234302Y-94002035D01*
X112264194Y-93948118D01*
X112287357Y-93891592D01*
X112300298Y-93840259D01*
X112301858Y-93820544D01*
X112295218Y-93779419D01*
X112277568Y-93728252D01*
X112252297Y-93674394D01*
X112222789Y-93625195D01*
X112196719Y-93592334D01*
X112135765Y-93543452D01*
X112056969Y-93504545D01*
X111963157Y-93476494D01*
X111857150Y-93460179D01*
X111760000Y-93456192D01*
X111678081Y-93460599D01*
G37*
X111678081Y-93460599D02*
X111609565Y-93472095D01*
X111556943Y-93489967D01*
X111522708Y-93513499D01*
X111513379Y-93526924D01*
X111503893Y-93558148D01*
X111510277Y-93586395D01*
X111530430Y-93613182D01*
X111561745Y-93625713D01*
X111607183Y-93624696D01*
X111642326Y-93617906D01*
X111720419Y-93604971D01*
X111800226Y-93603742D01*
X111889555Y-93614241D01*
X111914229Y-93618690D01*
X111997291Y-93642108D01*
X112062273Y-93676945D01*
X112108461Y-93722604D01*
X112135145Y-93778494D01*
X112140663Y-93807388D01*
X112137051Y-93866012D01*
X112113729Y-93917879D01*
X112072824Y-93961978D01*
X112016459Y-93997299D01*
X111946760Y-94022829D01*
X111865852Y-94037559D01*
X111775860Y-94040478D01*
X111678910Y-94030575D01*
X111673436Y-94029641D01*
X111634875Y-94022459D01*
X111613494Y-94015521D01*
X111604227Y-94005227D01*
X111602006Y-93987976D01*
X111601956Y-93978841D01*
X111601956Y-93940489D01*
X111670431Y-93940489D01*
X111730900Y-93936347D01*
X111772165Y-93923147D01*
X111796175Y-93899730D01*
X111804877Y-93864936D01*
X111804983Y-93860394D01*
X111799892Y-93830654D01*
X111782433Y-93809419D01*
X111749939Y-93795366D01*
X111699743Y-93787173D01*
X111651123Y-93784161D01*
X111580456Y-93782433D01*
X111529198Y-93785070D01*
X111494239Y-93794800D01*
X111472470Y-93814353D01*
X111460780Y-93846456D01*
X111456060Y-93893838D01*
X111455200Y-93956071D01*
X111456609Y-94025535D01*
X111460848Y-94072786D01*
X111467936Y-94098012D01*
X111469311Y-94099988D01*
X111508228Y-94131508D01*
X111565286Y-94156470D01*
X111636869Y-94174340D01*
X111719358Y-94184586D01*
X111809139Y-94186673D01*
X111902592Y-94180068D01*
X111957556Y-94171956D01*
X112043766Y-94147554D01*
X112123892Y-94107662D01*
X112190977Y-94055887D01*
X112201173Y-94045539D01*
X112234302Y-94002035D01*
X112264194Y-93948118D01*
X112287357Y-93891592D01*
X112300298Y-93840259D01*
X112301858Y-93820544D01*
X112295218Y-93779419D01*
X112277568Y-93728252D01*
X112252297Y-93674394D01*
X112222789Y-93625195D01*
X112196719Y-93592334D01*
X112135765Y-93543452D01*
X112056969Y-93504545D01*
X111963157Y-93476494D01*
X111857150Y-93460179D01*
X111760000Y-93456192D01*
X111678081Y-93460599D01*
G36*
X112651822Y-93477645D02*
G01*
X112645242Y-93485218D01*
X112640079Y-93494987D01*
X112636164Y-93509571D01*
X112633324Y-93531585D01*
X112631387Y-93563648D01*
X112630183Y-93608375D01*
X112629539Y-93668385D01*
X112629284Y-93746294D01*
X112629245Y-93821956D01*
X112629314Y-93915802D01*
X112629638Y-93989689D01*
X112630386Y-94046232D01*
X112631732Y-94088049D01*
X112633846Y-94117757D01*
X112636900Y-94137973D01*
X112641066Y-94151314D01*
X112646516Y-94160398D01*
X112651822Y-94166267D01*
X112684826Y-94185947D01*
X112719991Y-94184181D01*
X112751455Y-94162717D01*
X112758684Y-94154337D01*
X112764334Y-94144614D01*
X112768599Y-94130861D01*
X112771673Y-94110389D01*
X112773752Y-94080512D01*
X112775030Y-94038541D01*
X112775701Y-93981789D01*
X112775959Y-93907567D01*
X112776000Y-93823537D01*
X112776000Y-93510485D01*
X112748291Y-93482776D01*
X112714137Y-93459463D01*
X112681006Y-93458623D01*
X112651822Y-93477645D01*
G37*
X112651822Y-93477645D02*
X112645242Y-93485218D01*
X112640079Y-93494987D01*
X112636164Y-93509571D01*
X112633324Y-93531585D01*
X112631387Y-93563648D01*
X112630183Y-93608375D01*
X112629539Y-93668385D01*
X112629284Y-93746294D01*
X112629245Y-93821956D01*
X112629314Y-93915802D01*
X112629638Y-93989689D01*
X112630386Y-94046232D01*
X112631732Y-94088049D01*
X112633846Y-94117757D01*
X112636900Y-94137973D01*
X112641066Y-94151314D01*
X112646516Y-94160398D01*
X112651822Y-94166267D01*
X112684826Y-94185947D01*
X112719991Y-94184181D01*
X112751455Y-94162717D01*
X112758684Y-94154337D01*
X112764334Y-94144614D01*
X112768599Y-94130861D01*
X112771673Y-94110389D01*
X112773752Y-94080512D01*
X112775030Y-94038541D01*
X112775701Y-93981789D01*
X112775959Y-93907567D01*
X112776000Y-93823537D01*
X112776000Y-93510485D01*
X112748291Y-93482776D01*
X112714137Y-93459463D01*
X112681006Y-93458623D01*
X112651822Y-93477645D01*
G36*
X113419703Y-93456351D02*
G01*
X113344888Y-93461581D01*
X113275306Y-93469750D01*
X113215002Y-93480550D01*
X113168020Y-93493673D01*
X113138406Y-93508813D01*
X113133860Y-93513269D01*
X113118054Y-93547850D01*
X113122847Y-93583351D01*
X113147364Y-93613725D01*
X113148534Y-93614596D01*
X113162954Y-93623954D01*
X113178008Y-93628876D01*
X113199005Y-93629473D01*
X113231257Y-93625861D01*
X113280073Y-93618154D01*
X113284000Y-93617505D01*
X113356739Y-93608569D01*
X113435217Y-93604161D01*
X113513927Y-93604119D01*
X113587361Y-93608279D01*
X113650011Y-93616479D01*
X113696370Y-93628557D01*
X113699416Y-93629771D01*
X113733048Y-93648615D01*
X113744864Y-93667685D01*
X113735614Y-93686439D01*
X113706047Y-93704337D01*
X113656911Y-93720837D01*
X113588957Y-93735396D01*
X113543645Y-93742406D01*
X113449456Y-93755889D01*
X113374544Y-93768214D01*
X113315717Y-93780449D01*
X113269785Y-93793661D01*
X113233555Y-93808917D01*
X113203838Y-93827285D01*
X113177442Y-93849831D01*
X113156230Y-93871971D01*
X113131065Y-93902819D01*
X113118681Y-93929345D01*
X113114808Y-93962026D01*
X113114667Y-93973995D01*
X113117576Y-94013712D01*
X113129202Y-94043259D01*
X113149323Y-94069486D01*
X113190216Y-94109576D01*
X113235817Y-94140149D01*
X113289513Y-94162203D01*
X113354692Y-94176735D01*
X113434744Y-94184741D01*
X113533057Y-94187218D01*
X113549289Y-94187177D01*
X113614849Y-94185818D01*
X113679866Y-94182730D01*
X113737252Y-94178356D01*
X113779922Y-94173140D01*
X113783372Y-94172541D01*
X113825796Y-94162491D01*
X113861780Y-94149796D01*
X113882150Y-94138190D01*
X113901107Y-94107572D01*
X113902427Y-94071918D01*
X113886085Y-94040144D01*
X113882429Y-94036551D01*
X113867315Y-94025876D01*
X113848415Y-94021276D01*
X113819162Y-94022059D01*
X113783651Y-94026127D01*
X113743970Y-94029762D01*
X113688345Y-94032828D01*
X113623406Y-94035053D01*
X113555785Y-94036164D01*
X113538000Y-94036237D01*
X113470128Y-94035964D01*
X113420454Y-94034646D01*
X113384610Y-94031827D01*
X113358224Y-94027050D01*
X113336926Y-94019857D01*
X113324126Y-94013867D01*
X113296000Y-93997233D01*
X113278068Y-93982168D01*
X113275447Y-93977897D01*
X113280976Y-93960263D01*
X113307260Y-93943192D01*
X113352478Y-93927458D01*
X113414808Y-93913838D01*
X113433171Y-93910804D01*
X113529090Y-93895738D01*
X113605641Y-93883146D01*
X113665780Y-93872111D01*
X113712460Y-93861720D01*
X113748637Y-93851056D01*
X113777265Y-93839205D01*
X113801298Y-93825251D01*
X113823692Y-93808281D01*
X113847402Y-93787378D01*
X113855380Y-93780049D01*
X113883353Y-93752699D01*
X113898160Y-93731029D01*
X113903952Y-93706232D01*
X113904889Y-93674983D01*
X113894575Y-93613705D01*
X113863752Y-93561640D01*
X113812595Y-93518958D01*
X113741283Y-93485825D01*
X113690400Y-93470964D01*
X113635100Y-93461366D01*
X113568853Y-93455936D01*
X113495706Y-93454367D01*
X113419703Y-93456351D01*
G37*
X113419703Y-93456351D02*
X113344888Y-93461581D01*
X113275306Y-93469750D01*
X113215002Y-93480550D01*
X113168020Y-93493673D01*
X113138406Y-93508813D01*
X113133860Y-93513269D01*
X113118054Y-93547850D01*
X113122847Y-93583351D01*
X113147364Y-93613725D01*
X113148534Y-93614596D01*
X113162954Y-93623954D01*
X113178008Y-93628876D01*
X113199005Y-93629473D01*
X113231257Y-93625861D01*
X113280073Y-93618154D01*
X113284000Y-93617505D01*
X113356739Y-93608569D01*
X113435217Y-93604161D01*
X113513927Y-93604119D01*
X113587361Y-93608279D01*
X113650011Y-93616479D01*
X113696370Y-93628557D01*
X113699416Y-93629771D01*
X113733048Y-93648615D01*
X113744864Y-93667685D01*
X113735614Y-93686439D01*
X113706047Y-93704337D01*
X113656911Y-93720837D01*
X113588957Y-93735396D01*
X113543645Y-93742406D01*
X113449456Y-93755889D01*
X113374544Y-93768214D01*
X113315717Y-93780449D01*
X113269785Y-93793661D01*
X113233555Y-93808917D01*
X113203838Y-93827285D01*
X113177442Y-93849831D01*
X113156230Y-93871971D01*
X113131065Y-93902819D01*
X113118681Y-93929345D01*
X113114808Y-93962026D01*
X113114667Y-93973995D01*
X113117576Y-94013712D01*
X113129202Y-94043259D01*
X113149323Y-94069486D01*
X113190216Y-94109576D01*
X113235817Y-94140149D01*
X113289513Y-94162203D01*
X113354692Y-94176735D01*
X113434744Y-94184741D01*
X113533057Y-94187218D01*
X113549289Y-94187177D01*
X113614849Y-94185818D01*
X113679866Y-94182730D01*
X113737252Y-94178356D01*
X113779922Y-94173140D01*
X113783372Y-94172541D01*
X113825796Y-94162491D01*
X113861780Y-94149796D01*
X113882150Y-94138190D01*
X113901107Y-94107572D01*
X113902427Y-94071918D01*
X113886085Y-94040144D01*
X113882429Y-94036551D01*
X113867315Y-94025876D01*
X113848415Y-94021276D01*
X113819162Y-94022059D01*
X113783651Y-94026127D01*
X113743970Y-94029762D01*
X113688345Y-94032828D01*
X113623406Y-94035053D01*
X113555785Y-94036164D01*
X113538000Y-94036237D01*
X113470128Y-94035964D01*
X113420454Y-94034646D01*
X113384610Y-94031827D01*
X113358224Y-94027050D01*
X113336926Y-94019857D01*
X113324126Y-94013867D01*
X113296000Y-93997233D01*
X113278068Y-93982168D01*
X113275447Y-93977897D01*
X113280976Y-93960263D01*
X113307260Y-93943192D01*
X113352478Y-93927458D01*
X113414808Y-93913838D01*
X113433171Y-93910804D01*
X113529090Y-93895738D01*
X113605641Y-93883146D01*
X113665780Y-93872111D01*
X113712460Y-93861720D01*
X113748637Y-93851056D01*
X113777265Y-93839205D01*
X113801298Y-93825251D01*
X113823692Y-93808281D01*
X113847402Y-93787378D01*
X113855380Y-93780049D01*
X113883353Y-93752699D01*
X113898160Y-93731029D01*
X113903952Y-93706232D01*
X113904889Y-93674983D01*
X113894575Y-93613705D01*
X113863752Y-93561640D01*
X113812595Y-93518958D01*
X113741283Y-93485825D01*
X113690400Y-93470964D01*
X113635100Y-93461366D01*
X113568853Y-93455936D01*
X113495706Y-93454367D01*
X113419703Y-93456351D01*
G36*
X114440794Y-93455146D02*
G01*
X114371386Y-93455518D01*
X114318997Y-93456385D01*
X114280847Y-93457946D01*
X114254159Y-93460403D01*
X114236153Y-93463957D01*
X114224049Y-93468810D01*
X114215069Y-93475161D01*
X114211818Y-93478084D01*
X114192043Y-93509142D01*
X114188482Y-93544828D01*
X114201491Y-93576510D01*
X114207506Y-93582913D01*
X114217235Y-93589121D01*
X114232901Y-93593910D01*
X114257408Y-93597514D01*
X114293661Y-93600164D01*
X114344565Y-93602095D01*
X114413026Y-93603539D01*
X114475617Y-93604418D01*
X114723334Y-93607467D01*
X114726719Y-93672378D01*
X114730105Y-93737289D01*
X114561958Y-93737289D01*
X114488959Y-93737919D01*
X114435517Y-93740553D01*
X114398628Y-93746309D01*
X114375288Y-93756304D01*
X114362494Y-93771656D01*
X114357242Y-93793482D01*
X114356445Y-93813738D01*
X114358923Y-93838592D01*
X114368277Y-93856906D01*
X114387383Y-93869637D01*
X114419118Y-93877741D01*
X114466359Y-93882176D01*
X114531983Y-93883899D01*
X114567801Y-93884045D01*
X114728978Y-93884045D01*
X114728978Y-94042089D01*
X114480622Y-94042089D01*
X114399213Y-94042202D01*
X114337342Y-94042712D01*
X114291968Y-94043870D01*
X114260054Y-94045930D01*
X114238559Y-94049146D01*
X114224443Y-94053772D01*
X114214668Y-94060059D01*
X114209689Y-94064667D01*
X114192610Y-94091560D01*
X114187111Y-94115467D01*
X114194963Y-94144667D01*
X114209689Y-94166267D01*
X114217546Y-94173066D01*
X114227688Y-94178346D01*
X114242844Y-94182298D01*
X114265741Y-94185113D01*
X114299109Y-94186982D01*
X114345675Y-94188098D01*
X114408167Y-94188651D01*
X114489314Y-94188833D01*
X114531422Y-94188845D01*
X114621598Y-94188765D01*
X114691924Y-94188398D01*
X114745129Y-94187552D01*
X114783940Y-94186036D01*
X114811087Y-94183659D01*
X114829298Y-94180229D01*
X114841300Y-94175554D01*
X114849822Y-94169444D01*
X114853156Y-94166267D01*
X114859755Y-94158670D01*
X114864927Y-94148870D01*
X114868846Y-94134239D01*
X114871684Y-94112152D01*
X114873615Y-94079982D01*
X114874812Y-94035103D01*
X114875448Y-93974889D01*
X114875697Y-93896713D01*
X114875734Y-93823923D01*
X114875700Y-93730707D01*
X114875465Y-93657431D01*
X114874830Y-93601458D01*
X114873594Y-93560151D01*
X114871556Y-93530872D01*
X114868517Y-93510984D01*
X114864277Y-93497850D01*
X114858635Y-93488832D01*
X114851391Y-93481293D01*
X114849606Y-93479612D01*
X114840945Y-93472172D01*
X114830882Y-93466409D01*
X114816625Y-93462112D01*
X114795383Y-93459064D01*
X114764364Y-93457051D01*
X114720777Y-93455860D01*
X114661831Y-93455275D01*
X114584734Y-93455083D01*
X114530001Y-93455067D01*
X114440794Y-93455146D01*
G37*
X114440794Y-93455146D02*
X114371386Y-93455518D01*
X114318997Y-93456385D01*
X114280847Y-93457946D01*
X114254159Y-93460403D01*
X114236153Y-93463957D01*
X114224049Y-93468810D01*
X114215069Y-93475161D01*
X114211818Y-93478084D01*
X114192043Y-93509142D01*
X114188482Y-93544828D01*
X114201491Y-93576510D01*
X114207506Y-93582913D01*
X114217235Y-93589121D01*
X114232901Y-93593910D01*
X114257408Y-93597514D01*
X114293661Y-93600164D01*
X114344565Y-93602095D01*
X114413026Y-93603539D01*
X114475617Y-93604418D01*
X114723334Y-93607467D01*
X114726719Y-93672378D01*
X114730105Y-93737289D01*
X114561958Y-93737289D01*
X114488959Y-93737919D01*
X114435517Y-93740553D01*
X114398628Y-93746309D01*
X114375288Y-93756304D01*
X114362494Y-93771656D01*
X114357242Y-93793482D01*
X114356445Y-93813738D01*
X114358923Y-93838592D01*
X114368277Y-93856906D01*
X114387383Y-93869637D01*
X114419118Y-93877741D01*
X114466359Y-93882176D01*
X114531983Y-93883899D01*
X114567801Y-93884045D01*
X114728978Y-93884045D01*
X114728978Y-94042089D01*
X114480622Y-94042089D01*
X114399213Y-94042202D01*
X114337342Y-94042712D01*
X114291968Y-94043870D01*
X114260054Y-94045930D01*
X114238559Y-94049146D01*
X114224443Y-94053772D01*
X114214668Y-94060059D01*
X114209689Y-94064667D01*
X114192610Y-94091560D01*
X114187111Y-94115467D01*
X114194963Y-94144667D01*
X114209689Y-94166267D01*
X114217546Y-94173066D01*
X114227688Y-94178346D01*
X114242844Y-94182298D01*
X114265741Y-94185113D01*
X114299109Y-94186982D01*
X114345675Y-94188098D01*
X114408167Y-94188651D01*
X114489314Y-94188833D01*
X114531422Y-94188845D01*
X114621598Y-94188765D01*
X114691924Y-94188398D01*
X114745129Y-94187552D01*
X114783940Y-94186036D01*
X114811087Y-94183659D01*
X114829298Y-94180229D01*
X114841300Y-94175554D01*
X114849822Y-94169444D01*
X114853156Y-94166267D01*
X114859755Y-94158670D01*
X114864927Y-94148870D01*
X114868846Y-94134239D01*
X114871684Y-94112152D01*
X114873615Y-94079982D01*
X114874812Y-94035103D01*
X114875448Y-93974889D01*
X114875697Y-93896713D01*
X114875734Y-93823923D01*
X114875700Y-93730707D01*
X114875465Y-93657431D01*
X114874830Y-93601458D01*
X114873594Y-93560151D01*
X114871556Y-93530872D01*
X114868517Y-93510984D01*
X114864277Y-93497850D01*
X114858635Y-93488832D01*
X114851391Y-93481293D01*
X114849606Y-93479612D01*
X114840945Y-93472172D01*
X114830882Y-93466409D01*
X114816625Y-93462112D01*
X114795383Y-93459064D01*
X114764364Y-93457051D01*
X114720777Y-93455860D01*
X114661831Y-93455275D01*
X114584734Y-93455083D01*
X114530001Y-93455067D01*
X114440794Y-93455146D01*
G36*
X115849371Y-93455066D02*
G01*
X115809889Y-93455467D01*
X115694200Y-93458259D01*
X115597311Y-93466550D01*
X115515919Y-93481232D01*
X115446723Y-93503193D01*
X115386420Y-93533322D01*
X115331708Y-93572510D01*
X115312167Y-93589532D01*
X115279750Y-93629363D01*
X115250520Y-93683413D01*
X115227991Y-93743323D01*
X115215679Y-93800739D01*
X115214400Y-93821956D01*
X115222417Y-93880769D01*
X115243899Y-93945013D01*
X115274999Y-94005821D01*
X115311866Y-94054330D01*
X115317854Y-94060182D01*
X115368579Y-94101321D01*
X115424125Y-94133435D01*
X115487696Y-94157365D01*
X115562494Y-94173953D01*
X115651722Y-94184041D01*
X115758582Y-94188469D01*
X115807528Y-94188845D01*
X115869762Y-94188545D01*
X115913528Y-94187292D01*
X115942931Y-94184554D01*
X115962079Y-94179801D01*
X115975077Y-94172501D01*
X115982045Y-94166267D01*
X115988626Y-94158694D01*
X115993788Y-94148924D01*
X115997703Y-94134340D01*
X116000543Y-94112326D01*
X116002480Y-94080264D01*
X116003684Y-94035536D01*
X116004328Y-93975526D01*
X116004583Y-93897617D01*
X116004622Y-93821956D01*
X116004870Y-93721041D01*
X116004817Y-93640427D01*
X116003857Y-93601822D01*
X115857867Y-93601822D01*
X115857867Y-94042089D01*
X115764734Y-94042004D01*
X115708693Y-94040396D01*
X115649999Y-94036256D01*
X115601028Y-94030464D01*
X115599538Y-94030226D01*
X115520392Y-94011090D01*
X115459002Y-93981287D01*
X115412305Y-93938878D01*
X115382635Y-93892961D01*
X115364353Y-93842026D01*
X115365771Y-93794200D01*
X115386988Y-93742933D01*
X115428489Y-93689899D01*
X115485998Y-93650600D01*
X115560750Y-93624331D01*
X115610708Y-93615035D01*
X115667416Y-93608507D01*
X115727519Y-93603782D01*
X115778639Y-93601817D01*
X115781667Y-93601808D01*
X115857867Y-93601822D01*
X116003857Y-93601822D01*
X116003260Y-93577851D01*
X115998998Y-93531055D01*
X115990830Y-93497778D01*
X115977556Y-93475759D01*
X115957974Y-93462739D01*
X115930883Y-93456457D01*
X115895082Y-93454653D01*
X115849371Y-93455066D01*
G37*
X115849371Y-93455066D02*
X115809889Y-93455467D01*
X115694200Y-93458259D01*
X115597311Y-93466550D01*
X115515919Y-93481232D01*
X115446723Y-93503193D01*
X115386420Y-93533322D01*
X115331708Y-93572510D01*
X115312167Y-93589532D01*
X115279750Y-93629363D01*
X115250520Y-93683413D01*
X115227991Y-93743323D01*
X115215679Y-93800739D01*
X115214400Y-93821956D01*
X115222417Y-93880769D01*
X115243899Y-93945013D01*
X115274999Y-94005821D01*
X115311866Y-94054330D01*
X115317854Y-94060182D01*
X115368579Y-94101321D01*
X115424125Y-94133435D01*
X115487696Y-94157365D01*
X115562494Y-94173953D01*
X115651722Y-94184041D01*
X115758582Y-94188469D01*
X115807528Y-94188845D01*
X115869762Y-94188545D01*
X115913528Y-94187292D01*
X115942931Y-94184554D01*
X115962079Y-94179801D01*
X115975077Y-94172501D01*
X115982045Y-94166267D01*
X115988626Y-94158694D01*
X115993788Y-94148924D01*
X115997703Y-94134340D01*
X116000543Y-94112326D01*
X116002480Y-94080264D01*
X116003684Y-94035536D01*
X116004328Y-93975526D01*
X116004583Y-93897617D01*
X116004622Y-93821956D01*
X116004870Y-93721041D01*
X116004817Y-93640427D01*
X116003857Y-93601822D01*
X115857867Y-93601822D01*
X115857867Y-94042089D01*
X115764734Y-94042004D01*
X115708693Y-94040396D01*
X115649999Y-94036256D01*
X115601028Y-94030464D01*
X115599538Y-94030226D01*
X115520392Y-94011090D01*
X115459002Y-93981287D01*
X115412305Y-93938878D01*
X115382635Y-93892961D01*
X115364353Y-93842026D01*
X115365771Y-93794200D01*
X115386988Y-93742933D01*
X115428489Y-93689899D01*
X115485998Y-93650600D01*
X115560750Y-93624331D01*
X115610708Y-93615035D01*
X115667416Y-93608507D01*
X115727519Y-93603782D01*
X115778639Y-93601817D01*
X115781667Y-93601808D01*
X115857867Y-93601822D01*
X116003857Y-93601822D01*
X116003260Y-93577851D01*
X115998998Y-93531055D01*
X115990830Y-93497778D01*
X115977556Y-93475759D01*
X115957974Y-93462739D01*
X115930883Y-93456457D01*
X115895082Y-93454653D01*
X115849371Y-93455066D01*
G36*
X112001043Y-88212571D02*
G01*
X111904768Y-88236809D01*
X111818184Y-88279641D01*
X111743373Y-88339419D01*
X111682418Y-88414494D01*
X111637399Y-88503220D01*
X111611136Y-88599530D01*
X111605286Y-88696795D01*
X111620140Y-88790654D01*
X111653840Y-88878511D01*
X111704528Y-88957770D01*
X111770345Y-89025836D01*
X111849434Y-89080112D01*
X111939934Y-89118002D01*
X111991200Y-89130426D01*
X112035698Y-89137947D01*
X112069999Y-89140919D01*
X112102960Y-89139094D01*
X112143434Y-89132225D01*
X112176531Y-89125250D01*
X112269947Y-89093741D01*
X112353619Y-89042617D01*
X112425665Y-88973429D01*
X112484200Y-88887728D01*
X112498148Y-88860489D01*
X112514586Y-88824122D01*
X112524894Y-88793582D01*
X112530460Y-88761450D01*
X112532669Y-88720307D01*
X112532948Y-88674222D01*
X112528861Y-88589865D01*
X112515446Y-88520586D01*
X112490256Y-88459961D01*
X112450846Y-88401567D01*
X112412298Y-88357302D01*
X112340406Y-88291484D01*
X112265313Y-88246053D01*
X112182562Y-88218850D01*
X112104928Y-88208576D01*
X112001043Y-88212571D01*
G37*
X112001043Y-88212571D02*
X111904768Y-88236809D01*
X111818184Y-88279641D01*
X111743373Y-88339419D01*
X111682418Y-88414494D01*
X111637399Y-88503220D01*
X111611136Y-88599530D01*
X111605286Y-88696795D01*
X111620140Y-88790654D01*
X111653840Y-88878511D01*
X111704528Y-88957770D01*
X111770345Y-89025836D01*
X111849434Y-89080112D01*
X111939934Y-89118002D01*
X111991200Y-89130426D01*
X112035698Y-89137947D01*
X112069999Y-89140919D01*
X112102960Y-89139094D01*
X112143434Y-89132225D01*
X112176531Y-89125250D01*
X112269947Y-89093741D01*
X112353619Y-89042617D01*
X112425665Y-88973429D01*
X112484200Y-88887728D01*
X112498148Y-88860489D01*
X112514586Y-88824122D01*
X112524894Y-88793582D01*
X112530460Y-88761450D01*
X112532669Y-88720307D01*
X112532948Y-88674222D01*
X112528861Y-88589865D01*
X112515446Y-88520586D01*
X112490256Y-88459961D01*
X112450846Y-88401567D01*
X112412298Y-88357302D01*
X112340406Y-88291484D01*
X112265313Y-88246053D01*
X112182562Y-88218850D01*
X112104928Y-88208576D01*
X112001043Y-88212571D01*
G36*
X103541493Y-90658245D02*
G01*
X103541474Y-90892662D01*
X103541448Y-91105603D01*
X103541375Y-91298168D01*
X103541218Y-91471459D01*
X103540936Y-91626576D01*
X103540491Y-91764620D01*
X103539844Y-91886692D01*
X103538955Y-91993894D01*
X103537787Y-92087326D01*
X103536299Y-92168090D01*
X103534454Y-92237286D01*
X103532211Y-92296015D01*
X103529531Y-92345379D01*
X103526377Y-92386478D01*
X103522708Y-92420413D01*
X103518487Y-92448286D01*
X103513673Y-92471198D01*
X103508227Y-92490249D01*
X103502112Y-92506540D01*
X103495288Y-92521173D01*
X103487715Y-92535249D01*
X103479355Y-92549868D01*
X103474161Y-92558974D01*
X103439896Y-92619689D01*
X104298045Y-92619689D01*
X104298045Y-92523733D01*
X104298776Y-92480370D01*
X104300728Y-92447205D01*
X104303537Y-92429424D01*
X104304779Y-92427778D01*
X104316201Y-92434662D01*
X104338916Y-92452505D01*
X104361615Y-92471879D01*
X104416200Y-92512614D01*
X104485679Y-92553617D01*
X104562730Y-92591123D01*
X104640035Y-92621364D01*
X104670887Y-92631012D01*
X104739384Y-92645578D01*
X104822236Y-92655539D01*
X104911629Y-92660583D01*
X104999752Y-92660396D01*
X105078793Y-92654666D01*
X105116489Y-92648858D01*
X105254586Y-92610797D01*
X105381887Y-92553073D01*
X105497708Y-92476211D01*
X105601363Y-92380739D01*
X105692167Y-92267179D01*
X105758969Y-92156381D01*
X105813836Y-92039625D01*
X105855837Y-91920276D01*
X105885833Y-91794283D01*
X105904689Y-91657594D01*
X105913268Y-91506158D01*
X105913994Y-91428711D01*
X105911900Y-91371934D01*
X105082783Y-91371934D01*
X105082576Y-91465002D01*
X105079663Y-91552692D01*
X105074000Y-91629772D01*
X105065545Y-91691009D01*
X105062962Y-91703350D01*
X105031160Y-91810633D01*
X104989502Y-91897658D01*
X104937637Y-91964642D01*
X104875219Y-92011805D01*
X104801900Y-92039365D01*
X104717331Y-92047541D01*
X104621165Y-92036551D01*
X104557689Y-92020829D01*
X104508546Y-92002639D01*
X104454417Y-91976791D01*
X104413756Y-91953089D01*
X104343200Y-91906721D01*
X104343200Y-90756530D01*
X104410608Y-90712962D01*
X104489133Y-90672040D01*
X104573319Y-90645389D01*
X104658443Y-90633465D01*
X104739784Y-90636722D01*
X104812620Y-90655615D01*
X104844574Y-90671184D01*
X104902499Y-90714181D01*
X104951456Y-90770953D01*
X104992610Y-90843575D01*
X105027126Y-90934121D01*
X105056167Y-91044666D01*
X105057448Y-91050533D01*
X105067619Y-91112788D01*
X105075261Y-91190594D01*
X105080330Y-91278720D01*
X105082783Y-91371934D01*
X105911900Y-91371934D01*
X105906143Y-91215895D01*
X105884198Y-91020059D01*
X105848214Y-90841332D01*
X105798241Y-90679845D01*
X105734332Y-90535726D01*
X105656538Y-90409106D01*
X105564911Y-90300115D01*
X105459503Y-90208883D01*
X105414338Y-90177932D01*
X105313389Y-90121785D01*
X105210099Y-90082174D01*
X105100011Y-90058014D01*
X104978670Y-90048219D01*
X104886164Y-90049265D01*
X104756510Y-90060231D01*
X104643916Y-90082046D01*
X104545125Y-90115714D01*
X104456879Y-90162236D01*
X104408014Y-90196448D01*
X104378647Y-90218362D01*
X104356957Y-90233333D01*
X104348747Y-90237733D01*
X104347132Y-90226904D01*
X104345841Y-90196251D01*
X104344862Y-90148526D01*
X104344183Y-90086479D01*
X104343790Y-90012862D01*
X104343670Y-89930427D01*
X104343812Y-89841925D01*
X104344203Y-89750107D01*
X104344829Y-89657724D01*
X104345680Y-89567528D01*
X104346740Y-89482271D01*
X104347999Y-89404703D01*
X104349444Y-89337576D01*
X104351062Y-89283641D01*
X104352839Y-89245650D01*
X104353331Y-89238667D01*
X104360908Y-89168251D01*
X104372469Y-89113102D01*
X104390208Y-89065981D01*
X104416318Y-89019647D01*
X104422585Y-89010067D01*
X104447017Y-88973378D01*
X103541689Y-88973378D01*
X103541493Y-90658245D01*
G37*
X103541493Y-90658245D02*
X103541474Y-90892662D01*
X103541448Y-91105603D01*
X103541375Y-91298168D01*
X103541218Y-91471459D01*
X103540936Y-91626576D01*
X103540491Y-91764620D01*
X103539844Y-91886692D01*
X103538955Y-91993894D01*
X103537787Y-92087326D01*
X103536299Y-92168090D01*
X103534454Y-92237286D01*
X103532211Y-92296015D01*
X103529531Y-92345379D01*
X103526377Y-92386478D01*
X103522708Y-92420413D01*
X103518487Y-92448286D01*
X103513673Y-92471198D01*
X103508227Y-92490249D01*
X103502112Y-92506540D01*
X103495288Y-92521173D01*
X103487715Y-92535249D01*
X103479355Y-92549868D01*
X103474161Y-92558974D01*
X103439896Y-92619689D01*
X104298045Y-92619689D01*
X104298045Y-92523733D01*
X104298776Y-92480370D01*
X104300728Y-92447205D01*
X104303537Y-92429424D01*
X104304779Y-92427778D01*
X104316201Y-92434662D01*
X104338916Y-92452505D01*
X104361615Y-92471879D01*
X104416200Y-92512614D01*
X104485679Y-92553617D01*
X104562730Y-92591123D01*
X104640035Y-92621364D01*
X104670887Y-92631012D01*
X104739384Y-92645578D01*
X104822236Y-92655539D01*
X104911629Y-92660583D01*
X104999752Y-92660396D01*
X105078793Y-92654666D01*
X105116489Y-92648858D01*
X105254586Y-92610797D01*
X105381887Y-92553073D01*
X105497708Y-92476211D01*
X105601363Y-92380739D01*
X105692167Y-92267179D01*
X105758969Y-92156381D01*
X105813836Y-92039625D01*
X105855837Y-91920276D01*
X105885833Y-91794283D01*
X105904689Y-91657594D01*
X105913268Y-91506158D01*
X105913994Y-91428711D01*
X105911900Y-91371934D01*
X105082783Y-91371934D01*
X105082576Y-91465002D01*
X105079663Y-91552692D01*
X105074000Y-91629772D01*
X105065545Y-91691009D01*
X105062962Y-91703350D01*
X105031160Y-91810633D01*
X104989502Y-91897658D01*
X104937637Y-91964642D01*
X104875219Y-92011805D01*
X104801900Y-92039365D01*
X104717331Y-92047541D01*
X104621165Y-92036551D01*
X104557689Y-92020829D01*
X104508546Y-92002639D01*
X104454417Y-91976791D01*
X104413756Y-91953089D01*
X104343200Y-91906721D01*
X104343200Y-90756530D01*
X104410608Y-90712962D01*
X104489133Y-90672040D01*
X104573319Y-90645389D01*
X104658443Y-90633465D01*
X104739784Y-90636722D01*
X104812620Y-90655615D01*
X104844574Y-90671184D01*
X104902499Y-90714181D01*
X104951456Y-90770953D01*
X104992610Y-90843575D01*
X105027126Y-90934121D01*
X105056167Y-91044666D01*
X105057448Y-91050533D01*
X105067619Y-91112788D01*
X105075261Y-91190594D01*
X105080330Y-91278720D01*
X105082783Y-91371934D01*
X105911900Y-91371934D01*
X105906143Y-91215895D01*
X105884198Y-91020059D01*
X105848214Y-90841332D01*
X105798241Y-90679845D01*
X105734332Y-90535726D01*
X105656538Y-90409106D01*
X105564911Y-90300115D01*
X105459503Y-90208883D01*
X105414338Y-90177932D01*
X105313389Y-90121785D01*
X105210099Y-90082174D01*
X105100011Y-90058014D01*
X104978670Y-90048219D01*
X104886164Y-90049265D01*
X104756510Y-90060231D01*
X104643916Y-90082046D01*
X104545125Y-90115714D01*
X104456879Y-90162236D01*
X104408014Y-90196448D01*
X104378647Y-90218362D01*
X104356957Y-90233333D01*
X104348747Y-90237733D01*
X104347132Y-90226904D01*
X104345841Y-90196251D01*
X104344862Y-90148526D01*
X104344183Y-90086479D01*
X104343790Y-90012862D01*
X104343670Y-89930427D01*
X104343812Y-89841925D01*
X104344203Y-89750107D01*
X104344829Y-89657724D01*
X104345680Y-89567528D01*
X104346740Y-89482271D01*
X104347999Y-89404703D01*
X104349444Y-89337576D01*
X104351062Y-89283641D01*
X104352839Y-89245650D01*
X104353331Y-89238667D01*
X104360908Y-89168251D01*
X104372469Y-89113102D01*
X104390208Y-89065981D01*
X104416318Y-89019647D01*
X104422585Y-89010067D01*
X104447017Y-88973378D01*
X103541689Y-88973378D01*
X103541493Y-90658245D01*
G36*
X107054426Y-90052552D02*
G01*
X106902508Y-90072567D01*
X106767244Y-90106202D01*
X106647761Y-90153725D01*
X106543185Y-90215405D01*
X106465576Y-90278965D01*
X106396735Y-90353099D01*
X106342994Y-90432871D01*
X106300090Y-90525091D01*
X106284616Y-90568161D01*
X106271756Y-90607142D01*
X106260554Y-90643289D01*
X106250880Y-90678434D01*
X106242604Y-90714410D01*
X106235597Y-90753050D01*
X106229728Y-90796185D01*
X106224869Y-90845649D01*
X106220890Y-90903273D01*
X106217660Y-90970891D01*
X106215051Y-91050334D01*
X106212933Y-91143436D01*
X106211176Y-91252027D01*
X106209651Y-91377942D01*
X106208228Y-91523012D01*
X106206975Y-91665778D01*
X106205649Y-91821968D01*
X106204444Y-91957239D01*
X106203234Y-92073246D01*
X106201894Y-92171645D01*
X106200300Y-92254093D01*
X106198325Y-92322246D01*
X106195844Y-92377760D01*
X106192731Y-92422292D01*
X106188862Y-92457498D01*
X106184111Y-92485034D01*
X106178352Y-92506556D01*
X106171461Y-92523722D01*
X106163311Y-92538186D01*
X106153777Y-92551606D01*
X106142734Y-92565638D01*
X106138434Y-92571071D01*
X106122614Y-92593910D01*
X106115578Y-92609463D01*
X106115556Y-92609922D01*
X106126433Y-92612121D01*
X106157418Y-92614147D01*
X106206043Y-92615942D01*
X106269837Y-92617451D01*
X106346331Y-92618616D01*
X106433056Y-92619380D01*
X106527543Y-92619686D01*
X106538450Y-92619689D01*
X106961343Y-92619689D01*
X106964605Y-92523622D01*
X106967867Y-92427556D01*
X107029956Y-92478543D01*
X107127286Y-92546057D01*
X107237187Y-92600749D01*
X107323651Y-92630978D01*
X107392722Y-92645666D01*
X107476075Y-92655659D01*
X107565841Y-92660646D01*
X107654155Y-92660313D01*
X107733149Y-92654351D01*
X107769378Y-92648638D01*
X107909397Y-92610776D01*
X108035822Y-92555932D01*
X108147740Y-92484924D01*
X108244238Y-92398568D01*
X108324400Y-92297679D01*
X108387313Y-92183076D01*
X108431688Y-92056984D01*
X108444022Y-92000401D01*
X108451632Y-91938202D01*
X108455261Y-91863363D01*
X108455755Y-91829467D01*
X108455690Y-91826282D01*
X107695752Y-91826282D01*
X107686459Y-91901333D01*
X107658272Y-91965160D01*
X107609803Y-92020798D01*
X107604746Y-92025211D01*
X107556452Y-92060037D01*
X107504743Y-92082620D01*
X107444011Y-92094540D01*
X107368648Y-92097383D01*
X107350541Y-92096978D01*
X107296722Y-92094325D01*
X107256692Y-92088909D01*
X107221676Y-92078745D01*
X107182897Y-92061850D01*
X107172255Y-92056672D01*
X107111604Y-92020844D01*
X107064785Y-91978212D01*
X107052048Y-91962973D01*
X107007378Y-91906462D01*
X107007378Y-91710586D01*
X107007914Y-91631939D01*
X107009604Y-91573988D01*
X107012572Y-91534875D01*
X107016943Y-91512741D01*
X107021028Y-91506274D01*
X107036953Y-91503111D01*
X107070736Y-91500488D01*
X107117660Y-91498655D01*
X107173007Y-91497857D01*
X107181894Y-91497842D01*
X107302670Y-91503096D01*
X107405340Y-91519263D01*
X107491894Y-91546961D01*
X107564319Y-91586808D01*
X107619249Y-91633758D01*
X107663796Y-91691645D01*
X107688520Y-91754693D01*
X107695752Y-91826282D01*
X108455690Y-91826282D01*
X108453822Y-91735712D01*
X108445478Y-91656812D01*
X108429232Y-91585590D01*
X108403595Y-91514864D01*
X108379599Y-91462493D01*
X108320980Y-91367196D01*
X108242883Y-91279170D01*
X108147685Y-91200017D01*
X108037762Y-91131340D01*
X107915490Y-91074741D01*
X107783245Y-91031821D01*
X107718578Y-91016882D01*
X107582396Y-90994777D01*
X107433951Y-90980194D01*
X107282495Y-90973813D01*
X107155936Y-90975445D01*
X106994050Y-90982224D01*
X107001470Y-90923245D01*
X107020762Y-90824092D01*
X107051896Y-90743372D01*
X107095731Y-90680466D01*
X107153129Y-90634756D01*
X107224952Y-90605622D01*
X107312059Y-90592447D01*
X107415314Y-90594611D01*
X107453289Y-90598612D01*
X107594480Y-90623780D01*
X107731293Y-90664814D01*
X107825822Y-90702815D01*
X107870982Y-90722190D01*
X107909415Y-90737760D01*
X107935766Y-90747405D01*
X107943454Y-90749452D01*
X107953198Y-90740374D01*
X107969917Y-90711405D01*
X107993768Y-90662217D01*
X108024907Y-90592484D01*
X108063493Y-90501879D01*
X108070090Y-90486089D01*
X108100147Y-90413772D01*
X108127126Y-90348425D01*
X108149864Y-90292906D01*
X108167194Y-90250072D01*
X108177952Y-90222781D01*
X108181059Y-90213942D01*
X108171060Y-90209187D01*
X108144783Y-90203910D01*
X108116511Y-90200231D01*
X108086354Y-90195474D01*
X108038567Y-90186028D01*
X107977388Y-90172820D01*
X107907054Y-90156776D01*
X107831806Y-90138820D01*
X107803245Y-90131797D01*
X107698184Y-90106209D01*
X107610520Y-90086147D01*
X107535932Y-90070969D01*
X107470097Y-90060035D01*
X107408693Y-90052704D01*
X107347398Y-90048335D01*
X107281890Y-90046287D01*
X107223872Y-90045889D01*
X107054426Y-90052552D01*
G37*
X107054426Y-90052552D02*
X106902508Y-90072567D01*
X106767244Y-90106202D01*
X106647761Y-90153725D01*
X106543185Y-90215405D01*
X106465576Y-90278965D01*
X106396735Y-90353099D01*
X106342994Y-90432871D01*
X106300090Y-90525091D01*
X106284616Y-90568161D01*
X106271756Y-90607142D01*
X106260554Y-90643289D01*
X106250880Y-90678434D01*
X106242604Y-90714410D01*
X106235597Y-90753050D01*
X106229728Y-90796185D01*
X106224869Y-90845649D01*
X106220890Y-90903273D01*
X106217660Y-90970891D01*
X106215051Y-91050334D01*
X106212933Y-91143436D01*
X106211176Y-91252027D01*
X106209651Y-91377942D01*
X106208228Y-91523012D01*
X106206975Y-91665778D01*
X106205649Y-91821968D01*
X106204444Y-91957239D01*
X106203234Y-92073246D01*
X106201894Y-92171645D01*
X106200300Y-92254093D01*
X106198325Y-92322246D01*
X106195844Y-92377760D01*
X106192731Y-92422292D01*
X106188862Y-92457498D01*
X106184111Y-92485034D01*
X106178352Y-92506556D01*
X106171461Y-92523722D01*
X106163311Y-92538186D01*
X106153777Y-92551606D01*
X106142734Y-92565638D01*
X106138434Y-92571071D01*
X106122614Y-92593910D01*
X106115578Y-92609463D01*
X106115556Y-92609922D01*
X106126433Y-92612121D01*
X106157418Y-92614147D01*
X106206043Y-92615942D01*
X106269837Y-92617451D01*
X106346331Y-92618616D01*
X106433056Y-92619380D01*
X106527543Y-92619686D01*
X106538450Y-92619689D01*
X106961343Y-92619689D01*
X106964605Y-92523622D01*
X106967867Y-92427556D01*
X107029956Y-92478543D01*
X107127286Y-92546057D01*
X107237187Y-92600749D01*
X107323651Y-92630978D01*
X107392722Y-92645666D01*
X107476075Y-92655659D01*
X107565841Y-92660646D01*
X107654155Y-92660313D01*
X107733149Y-92654351D01*
X107769378Y-92648638D01*
X107909397Y-92610776D01*
X108035822Y-92555932D01*
X108147740Y-92484924D01*
X108244238Y-92398568D01*
X108324400Y-92297679D01*
X108387313Y-92183076D01*
X108431688Y-92056984D01*
X108444022Y-92000401D01*
X108451632Y-91938202D01*
X108455261Y-91863363D01*
X108455755Y-91829467D01*
X108455690Y-91826282D01*
X107695752Y-91826282D01*
X107686459Y-91901333D01*
X107658272Y-91965160D01*
X107609803Y-92020798D01*
X107604746Y-92025211D01*
X107556452Y-92060037D01*
X107504743Y-92082620D01*
X107444011Y-92094540D01*
X107368648Y-92097383D01*
X107350541Y-92096978D01*
X107296722Y-92094325D01*
X107256692Y-92088909D01*
X107221676Y-92078745D01*
X107182897Y-92061850D01*
X107172255Y-92056672D01*
X107111604Y-92020844D01*
X107064785Y-91978212D01*
X107052048Y-91962973D01*
X107007378Y-91906462D01*
X107007378Y-91710586D01*
X107007914Y-91631939D01*
X107009604Y-91573988D01*
X107012572Y-91534875D01*
X107016943Y-91512741D01*
X107021028Y-91506274D01*
X107036953Y-91503111D01*
X107070736Y-91500488D01*
X107117660Y-91498655D01*
X107173007Y-91497857D01*
X107181894Y-91497842D01*
X107302670Y-91503096D01*
X107405340Y-91519263D01*
X107491894Y-91546961D01*
X107564319Y-91586808D01*
X107619249Y-91633758D01*
X107663796Y-91691645D01*
X107688520Y-91754693D01*
X107695752Y-91826282D01*
X108455690Y-91826282D01*
X108453822Y-91735712D01*
X108445478Y-91656812D01*
X108429232Y-91585590D01*
X108403595Y-91514864D01*
X108379599Y-91462493D01*
X108320980Y-91367196D01*
X108242883Y-91279170D01*
X108147685Y-91200017D01*
X108037762Y-91131340D01*
X107915490Y-91074741D01*
X107783245Y-91031821D01*
X107718578Y-91016882D01*
X107582396Y-90994777D01*
X107433951Y-90980194D01*
X107282495Y-90973813D01*
X107155936Y-90975445D01*
X106994050Y-90982224D01*
X107001470Y-90923245D01*
X107020762Y-90824092D01*
X107051896Y-90743372D01*
X107095731Y-90680466D01*
X107153129Y-90634756D01*
X107224952Y-90605622D01*
X107312059Y-90592447D01*
X107415314Y-90594611D01*
X107453289Y-90598612D01*
X107594480Y-90623780D01*
X107731293Y-90664814D01*
X107825822Y-90702815D01*
X107870982Y-90722190D01*
X107909415Y-90737760D01*
X107935766Y-90747405D01*
X107943454Y-90749452D01*
X107953198Y-90740374D01*
X107969917Y-90711405D01*
X107993768Y-90662217D01*
X108024907Y-90592484D01*
X108063493Y-90501879D01*
X108070090Y-90486089D01*
X108100147Y-90413772D01*
X108127126Y-90348425D01*
X108149864Y-90292906D01*
X108167194Y-90250072D01*
X108177952Y-90222781D01*
X108181059Y-90213942D01*
X108171060Y-90209187D01*
X108144783Y-90203910D01*
X108116511Y-90200231D01*
X108086354Y-90195474D01*
X108038567Y-90186028D01*
X107977388Y-90172820D01*
X107907054Y-90156776D01*
X107831806Y-90138820D01*
X107803245Y-90131797D01*
X107698184Y-90106209D01*
X107610520Y-90086147D01*
X107535932Y-90070969D01*
X107470097Y-90060035D01*
X107408693Y-90052704D01*
X107347398Y-90048335D01*
X107281890Y-90046287D01*
X107223872Y-90045889D01*
X107054426Y-90052552D01*
G36*
X109399571Y-89135071D02*
G01*
X109239430Y-89156245D01*
X109075490Y-89196385D01*
X108905687Y-89255889D01*
X108727957Y-89335154D01*
X108716690Y-89340699D01*
X108658995Y-89368725D01*
X108607448Y-89392802D01*
X108565809Y-89411249D01*
X108537838Y-89422386D01*
X108528267Y-89424933D01*
X108509050Y-89429941D01*
X108504439Y-89434147D01*
X108509542Y-89444580D01*
X108525582Y-89470868D01*
X108550712Y-89510257D01*
X108583086Y-89559991D01*
X108620857Y-89617315D01*
X108662178Y-89679476D01*
X108705202Y-89743718D01*
X108748083Y-89807285D01*
X108788974Y-89867425D01*
X108826029Y-89921380D01*
X108857400Y-89966397D01*
X108881241Y-89999721D01*
X108895706Y-90018597D01*
X108897691Y-90020787D01*
X108907809Y-90016138D01*
X108930150Y-89998962D01*
X108960720Y-89972440D01*
X108976464Y-89957964D01*
X109072953Y-89882682D01*
X109179664Y-89827241D01*
X109295168Y-89792141D01*
X109418038Y-89777880D01*
X109487439Y-89779051D01*
X109608577Y-89796212D01*
X109717795Y-89832094D01*
X109815418Y-89886959D01*
X109901772Y-89961070D01*
X109977185Y-90054688D01*
X110041982Y-90168076D01*
X110079399Y-90254667D01*
X110123252Y-90390366D01*
X110155572Y-90537850D01*
X110176443Y-90693314D01*
X110185949Y-90852956D01*
X110184173Y-91012973D01*
X110171197Y-91169561D01*
X110147106Y-91318918D01*
X110111982Y-91457240D01*
X110065908Y-91580724D01*
X110049627Y-91614978D01*
X109981380Y-91729064D01*
X109900921Y-91825557D01*
X109809430Y-91903670D01*
X109708089Y-91962617D01*
X109598080Y-92001612D01*
X109480585Y-92019868D01*
X109439117Y-92021211D01*
X109317559Y-92010290D01*
X109197122Y-91977474D01*
X109079334Y-91923439D01*
X108965723Y-91848865D01*
X108874315Y-91770539D01*
X108827785Y-91726008D01*
X108646517Y-92023271D01*
X108601420Y-92097433D01*
X108560181Y-92165646D01*
X108524265Y-92225459D01*
X108495134Y-92274420D01*
X108474250Y-92310079D01*
X108463076Y-92329984D01*
X108461625Y-92333079D01*
X108469854Y-92342718D01*
X108495433Y-92359999D01*
X108535127Y-92383283D01*
X108585703Y-92410934D01*
X108643926Y-92441315D01*
X108706563Y-92472790D01*
X108770379Y-92503722D01*
X108832140Y-92532473D01*
X108888612Y-92557408D01*
X108936562Y-92576889D01*
X108960014Y-92585318D01*
X109093779Y-92623133D01*
X109231673Y-92648136D01*
X109379378Y-92661140D01*
X109506167Y-92663468D01*
X109574122Y-92662373D01*
X109639723Y-92660275D01*
X109697153Y-92657434D01*
X109740597Y-92654106D01*
X109754702Y-92652422D01*
X109893716Y-92623587D01*
X110035243Y-92578468D01*
X110172725Y-92519750D01*
X110299606Y-92450120D01*
X110377111Y-92397441D01*
X110504519Y-92289239D01*
X110622822Y-92162671D01*
X110729828Y-92020866D01*
X110823348Y-91866951D01*
X110901190Y-91704053D01*
X110945044Y-91586756D01*
X110995292Y-91403128D01*
X111028791Y-91208581D01*
X111045551Y-91007325D01*
X111045584Y-90803568D01*
X111028899Y-90601521D01*
X110995507Y-90405392D01*
X110945420Y-90219391D01*
X110941603Y-90207803D01*
X110878719Y-90045750D01*
X110801972Y-89897832D01*
X110708758Y-89759865D01*
X110596473Y-89627661D01*
X110552608Y-89582399D01*
X110416466Y-89458457D01*
X110276509Y-89355915D01*
X110130589Y-89273656D01*
X109976558Y-89210564D01*
X109812268Y-89165523D01*
X109716711Y-89148033D01*
X109557977Y-89132466D01*
X109399571Y-89135071D01*
G37*
X109399571Y-89135071D02*
X109239430Y-89156245D01*
X109075490Y-89196385D01*
X108905687Y-89255889D01*
X108727957Y-89335154D01*
X108716690Y-89340699D01*
X108658995Y-89368725D01*
X108607448Y-89392802D01*
X108565809Y-89411249D01*
X108537838Y-89422386D01*
X108528267Y-89424933D01*
X108509050Y-89429941D01*
X108504439Y-89434147D01*
X108509542Y-89444580D01*
X108525582Y-89470868D01*
X108550712Y-89510257D01*
X108583086Y-89559991D01*
X108620857Y-89617315D01*
X108662178Y-89679476D01*
X108705202Y-89743718D01*
X108748083Y-89807285D01*
X108788974Y-89867425D01*
X108826029Y-89921380D01*
X108857400Y-89966397D01*
X108881241Y-89999721D01*
X108895706Y-90018597D01*
X108897691Y-90020787D01*
X108907809Y-90016138D01*
X108930150Y-89998962D01*
X108960720Y-89972440D01*
X108976464Y-89957964D01*
X109072953Y-89882682D01*
X109179664Y-89827241D01*
X109295168Y-89792141D01*
X109418038Y-89777880D01*
X109487439Y-89779051D01*
X109608577Y-89796212D01*
X109717795Y-89832094D01*
X109815418Y-89886959D01*
X109901772Y-89961070D01*
X109977185Y-90054688D01*
X110041982Y-90168076D01*
X110079399Y-90254667D01*
X110123252Y-90390366D01*
X110155572Y-90537850D01*
X110176443Y-90693314D01*
X110185949Y-90852956D01*
X110184173Y-91012973D01*
X110171197Y-91169561D01*
X110147106Y-91318918D01*
X110111982Y-91457240D01*
X110065908Y-91580724D01*
X110049627Y-91614978D01*
X109981380Y-91729064D01*
X109900921Y-91825557D01*
X109809430Y-91903670D01*
X109708089Y-91962617D01*
X109598080Y-92001612D01*
X109480585Y-92019868D01*
X109439117Y-92021211D01*
X109317559Y-92010290D01*
X109197122Y-91977474D01*
X109079334Y-91923439D01*
X108965723Y-91848865D01*
X108874315Y-91770539D01*
X108827785Y-91726008D01*
X108646517Y-92023271D01*
X108601420Y-92097433D01*
X108560181Y-92165646D01*
X108524265Y-92225459D01*
X108495134Y-92274420D01*
X108474250Y-92310079D01*
X108463076Y-92329984D01*
X108461625Y-92333079D01*
X108469854Y-92342718D01*
X108495433Y-92359999D01*
X108535127Y-92383283D01*
X108585703Y-92410934D01*
X108643926Y-92441315D01*
X108706563Y-92472790D01*
X108770379Y-92503722D01*
X108832140Y-92532473D01*
X108888612Y-92557408D01*
X108936562Y-92576889D01*
X108960014Y-92585318D01*
X109093779Y-92623133D01*
X109231673Y-92648136D01*
X109379378Y-92661140D01*
X109506167Y-92663468D01*
X109574122Y-92662373D01*
X109639723Y-92660275D01*
X109697153Y-92657434D01*
X109740597Y-92654106D01*
X109754702Y-92652422D01*
X109893716Y-92623587D01*
X110035243Y-92578468D01*
X110172725Y-92519750D01*
X110299606Y-92450120D01*
X110377111Y-92397441D01*
X110504519Y-92289239D01*
X110622822Y-92162671D01*
X110729828Y-92020866D01*
X110823348Y-91866951D01*
X110901190Y-91704053D01*
X110945044Y-91586756D01*
X110995292Y-91403128D01*
X111028791Y-91208581D01*
X111045551Y-91007325D01*
X111045584Y-90803568D01*
X111028899Y-90601521D01*
X110995507Y-90405392D01*
X110945420Y-90219391D01*
X110941603Y-90207803D01*
X110878719Y-90045750D01*
X110801972Y-89897832D01*
X110708758Y-89759865D01*
X110596473Y-89627661D01*
X110552608Y-89582399D01*
X110416466Y-89458457D01*
X110276509Y-89355915D01*
X110130589Y-89273656D01*
X109976558Y-89210564D01*
X109812268Y-89165523D01*
X109716711Y-89148033D01*
X109557977Y-89132466D01*
X109399571Y-89135071D01*
G36*
X112674400Y-88675054D02*
G01*
X112663535Y-88788993D01*
X112631918Y-88896616D01*
X112581015Y-88995615D01*
X112512293Y-89083684D01*
X112427219Y-89158516D01*
X112330232Y-89216384D01*
X112223964Y-89256005D01*
X112116950Y-89274573D01*
X112011300Y-89273434D01*
X111909125Y-89253930D01*
X111812534Y-89217406D01*
X111723638Y-89165205D01*
X111644546Y-89098673D01*
X111577369Y-89019152D01*
X111524217Y-88927987D01*
X111487199Y-88826523D01*
X111468427Y-88716102D01*
X111466489Y-88666206D01*
X111466489Y-88578267D01*
X111414560Y-88578267D01*
X111378253Y-88581111D01*
X111351355Y-88592911D01*
X111324249Y-88616649D01*
X111285867Y-88655031D01*
X111285867Y-90846602D01*
X111285876Y-91108739D01*
X111285908Y-91349241D01*
X111285972Y-91569048D01*
X111286076Y-91769101D01*
X111286227Y-91950344D01*
X111286434Y-92113716D01*
X111286706Y-92260160D01*
X111287050Y-92390617D01*
X111287474Y-92506029D01*
X111287987Y-92607338D01*
X111288597Y-92695484D01*
X111289312Y-92771410D01*
X111290140Y-92836057D01*
X111291089Y-92890367D01*
X111292167Y-92935280D01*
X111293383Y-92971740D01*
X111294745Y-93000687D01*
X111296261Y-93023063D01*
X111297938Y-93039809D01*
X111299786Y-93051868D01*
X111301813Y-93060180D01*
X111304025Y-93065687D01*
X111305108Y-93067537D01*
X111309271Y-93074549D01*
X111312805Y-93080996D01*
X111316635Y-93086900D01*
X111321682Y-93092286D01*
X111328871Y-93097178D01*
X111339123Y-93101598D01*
X111353364Y-93105572D01*
X111372514Y-93109121D01*
X111397499Y-93112270D01*
X111429240Y-93115042D01*
X111468662Y-93117461D01*
X111516686Y-93119551D01*
X111574237Y-93121335D01*
X111642237Y-93122837D01*
X111721610Y-93124080D01*
X111813279Y-93125089D01*
X111918166Y-93125885D01*
X112037196Y-93126494D01*
X112171290Y-93126939D01*
X112321373Y-93127243D01*
X112488367Y-93127430D01*
X112673196Y-93127524D01*
X112876783Y-93127548D01*
X113100050Y-93127525D01*
X113343922Y-93127480D01*
X113609321Y-93127437D01*
X113647704Y-93127432D01*
X113914682Y-93127389D01*
X114160002Y-93127318D01*
X114384583Y-93127213D01*
X114589345Y-93127066D01*
X114775206Y-93126869D01*
X114943088Y-93126616D01*
X115093908Y-93126300D01*
X115228587Y-93125913D01*
X115348044Y-93125447D01*
X115453199Y-93124897D01*
X115544971Y-93124253D01*
X115624279Y-93123511D01*
X115692043Y-93122661D01*
X115749182Y-93121697D01*
X115796617Y-93120611D01*
X115835266Y-93119397D01*
X115866049Y-93118047D01*
X115889885Y-93116555D01*
X115907694Y-93114911D01*
X115920395Y-93113111D01*
X115928908Y-93111145D01*
X115933266Y-93109477D01*
X115941728Y-93105906D01*
X115949497Y-93103270D01*
X115956602Y-93100634D01*
X115963073Y-93097062D01*
X115968939Y-93091621D01*
X115974229Y-93083375D01*
X115978974Y-93071390D01*
X115983202Y-93054731D01*
X115986943Y-93032463D01*
X115990227Y-93003652D01*
X115993083Y-92967363D01*
X115995540Y-92922661D01*
X115997629Y-92868611D01*
X115999378Y-92804279D01*
X116000817Y-92728730D01*
X116001976Y-92641030D01*
X116002883Y-92540243D01*
X116003569Y-92425434D01*
X116004063Y-92295670D01*
X116004395Y-92150015D01*
X116004593Y-91987535D01*
X116004687Y-91807295D01*
X116004708Y-91608360D01*
X116004685Y-91389796D01*
X116004646Y-91150668D01*
X116004622Y-90890040D01*
X116004622Y-90847889D01*
X116004636Y-90584992D01*
X116004661Y-90343732D01*
X116004671Y-90123165D01*
X116004642Y-89922352D01*
X116004548Y-89740349D01*
X116004362Y-89576216D01*
X116004059Y-89429011D01*
X116003614Y-89297792D01*
X116003034Y-89187867D01*
X115700197Y-89187867D01*
X115660407Y-89245711D01*
X115649236Y-89261479D01*
X115639166Y-89275441D01*
X115630138Y-89288784D01*
X115622097Y-89302693D01*
X115614986Y-89318356D01*
X115608747Y-89336958D01*
X115603325Y-89359686D01*
X115598662Y-89387727D01*
X115594701Y-89422267D01*
X115591385Y-89464492D01*
X115588659Y-89515589D01*
X115586464Y-89576744D01*
X115584745Y-89649144D01*
X115583444Y-89733975D01*
X115582505Y-89832422D01*
X115581870Y-89945674D01*
X115581484Y-90074916D01*
X115581288Y-90221334D01*
X115581227Y-90386116D01*
X115581243Y-90570447D01*
X115581280Y-90775513D01*
X115581289Y-90898133D01*
X115581265Y-91115082D01*
X115581231Y-91310642D01*
X115581243Y-91485999D01*
X115581358Y-91642341D01*
X115581630Y-91780857D01*
X115582118Y-91902734D01*
X115582876Y-92009160D01*
X115583962Y-92101322D01*
X115585431Y-92180409D01*
X115587340Y-92247608D01*
X115589744Y-92304107D01*
X115592701Y-92351093D01*
X115596266Y-92389755D01*
X115600495Y-92421280D01*
X115605446Y-92446855D01*
X115611173Y-92467670D01*
X115617733Y-92484911D01*
X115625183Y-92499765D01*
X115633579Y-92513422D01*
X115642976Y-92527069D01*
X115653432Y-92541893D01*
X115659523Y-92550783D01*
X115698296Y-92608400D01*
X115166732Y-92608400D01*
X115043483Y-92608365D01*
X114940987Y-92608215D01*
X114857420Y-92607878D01*
X114790956Y-92607286D01*
X114739771Y-92606367D01*
X114702041Y-92605051D01*
X114675940Y-92603269D01*
X114659644Y-92600951D01*
X114651328Y-92598026D01*
X114649168Y-92594424D01*
X114651339Y-92590075D01*
X114652535Y-92588645D01*
X114677685Y-92551573D01*
X114703583Y-92498772D01*
X114727192Y-92436770D01*
X114735461Y-92410357D01*
X114740078Y-92392416D01*
X114743979Y-92371355D01*
X114747248Y-92345089D01*
X114749966Y-92311532D01*
X114752215Y-92268599D01*
X114754077Y-92214204D01*
X114755636Y-92146262D01*
X114756972Y-92062688D01*
X114758169Y-91961395D01*
X114759308Y-91840300D01*
X114759685Y-91795600D01*
X114760702Y-91670449D01*
X114761460Y-91566082D01*
X114761903Y-91480707D01*
X114761970Y-91412533D01*
X114761605Y-91359765D01*
X114760748Y-91320614D01*
X114759341Y-91293285D01*
X114757325Y-91275986D01*
X114754643Y-91266926D01*
X114751236Y-91264312D01*
X114747044Y-91266351D01*
X114742571Y-91270667D01*
X114732216Y-91283602D01*
X114710158Y-91312676D01*
X114677957Y-91355759D01*
X114637174Y-91410718D01*
X114589370Y-91475423D01*
X114536105Y-91547742D01*
X114478940Y-91625544D01*
X114419437Y-91706698D01*
X114359155Y-91789072D01*
X114299655Y-91870536D01*
X114242498Y-91948957D01*
X114189245Y-92022204D01*
X114141457Y-92088147D01*
X114100693Y-92144654D01*
X114068516Y-92189593D01*
X114046485Y-92220834D01*
X114041917Y-92227466D01*
X114018996Y-92264369D01*
X113992188Y-92312359D01*
X113966789Y-92361897D01*
X113963568Y-92368577D01*
X113941890Y-92416772D01*
X113929304Y-92454334D01*
X113923574Y-92490160D01*
X113922456Y-92532200D01*
X113923090Y-92608400D01*
X112768651Y-92608400D01*
X112859815Y-92514669D01*
X112906612Y-92464775D01*
X112956899Y-92408295D01*
X113002944Y-92354026D01*
X113023369Y-92328673D01*
X113053807Y-92289128D01*
X113093862Y-92235916D01*
X113142361Y-92170667D01*
X113198135Y-92095011D01*
X113260011Y-92010577D01*
X113326819Y-91918994D01*
X113397387Y-91821892D01*
X113470545Y-91720901D01*
X113545121Y-91617650D01*
X113619944Y-91513768D01*
X113693843Y-91410885D01*
X113765646Y-91310631D01*
X113834184Y-91214636D01*
X113898284Y-91124527D01*
X113956775Y-91041936D01*
X114008486Y-90968492D01*
X114052247Y-90905824D01*
X114086885Y-90855561D01*
X114111230Y-90819334D01*
X114124111Y-90798771D01*
X114125869Y-90794668D01*
X114117910Y-90783342D01*
X114097115Y-90756162D01*
X114064847Y-90714829D01*
X114022470Y-90661044D01*
X113971347Y-90596506D01*
X113912841Y-90522918D01*
X113848314Y-90441978D01*
X113779131Y-90355388D01*
X113706653Y-90264848D01*
X113632246Y-90172060D01*
X113572517Y-90097702D01*
X112561511Y-90097702D01*
X112555602Y-90110659D01*
X112541272Y-90132908D01*
X112540225Y-90134391D01*
X112521438Y-90164544D01*
X112501791Y-90201375D01*
X112497892Y-90209511D01*
X112494356Y-90217940D01*
X112491230Y-90228059D01*
X112488486Y-90241260D01*
X112486092Y-90258938D01*
X112484019Y-90282484D01*
X112482235Y-90313293D01*
X112480712Y-90352757D01*
X112479419Y-90402269D01*
X112478326Y-90463223D01*
X112477403Y-90537011D01*
X112476619Y-90625028D01*
X112475945Y-90728665D01*
X112475350Y-90849316D01*
X112474805Y-90988374D01*
X112474279Y-91147232D01*
X112473745Y-91326089D01*
X112473206Y-91511207D01*
X112472772Y-91675145D01*
X112472509Y-91819303D01*
X112472484Y-91945079D01*
X112472765Y-92053871D01*
X112473419Y-92147077D01*
X112474514Y-92226097D01*
X112476118Y-92292328D01*
X112478297Y-92347170D01*
X112481119Y-92392021D01*
X112484651Y-92428278D01*
X112488961Y-92457341D01*
X112494117Y-92480609D01*
X112500185Y-92499479D01*
X112507233Y-92515351D01*
X112515329Y-92529622D01*
X112524540Y-92543691D01*
X112533040Y-92556158D01*
X112550176Y-92582452D01*
X112560322Y-92600037D01*
X112561511Y-92603257D01*
X112550604Y-92604334D01*
X112519411Y-92605335D01*
X112470223Y-92606235D01*
X112405333Y-92607010D01*
X112327030Y-92607637D01*
X112237607Y-92608091D01*
X112139356Y-92608349D01*
X112070445Y-92608400D01*
X111965452Y-92608180D01*
X111868610Y-92607548D01*
X111782107Y-92606549D01*
X111708132Y-92605227D01*
X111648874Y-92603626D01*
X111606520Y-92601791D01*
X111583260Y-92599765D01*
X111579378Y-92598493D01*
X111587076Y-92583591D01*
X111595074Y-92575560D01*
X111608246Y-92558434D01*
X111625485Y-92528183D01*
X111637407Y-92503622D01*
X111664045Y-92444711D01*
X111667120Y-91267845D01*
X111670195Y-90090978D01*
X112115853Y-90090978D01*
X112213670Y-90091142D01*
X112304064Y-90091611D01*
X112384630Y-90092347D01*
X112452962Y-90093316D01*
X112506656Y-90094480D01*
X112543305Y-90095803D01*
X112560504Y-90097249D01*
X112561511Y-90097702D01*
X113572517Y-90097702D01*
X113557270Y-90078722D01*
X113483090Y-89986537D01*
X113411069Y-89897204D01*
X113342569Y-89812424D01*
X113278955Y-89733898D01*
X113221588Y-89663326D01*
X113171833Y-89602409D01*
X113131052Y-89552847D01*
X113113888Y-89532178D01*
X113027596Y-89431516D01*
X112950997Y-89348259D01*
X112882183Y-89280438D01*
X112819248Y-89226089D01*
X112809867Y-89218722D01*
X112770356Y-89188117D01*
X113902116Y-89187867D01*
X113896827Y-89235844D01*
X113900130Y-89293188D01*
X113921661Y-89361463D01*
X113961635Y-89441212D01*
X114006943Y-89513495D01*
X114023161Y-89536140D01*
X114051214Y-89573696D01*
X114089430Y-89624021D01*
X114136137Y-89684973D01*
X114189661Y-89754411D01*
X114248331Y-89830194D01*
X114310475Y-89910180D01*
X114374421Y-89992228D01*
X114438495Y-90074196D01*
X114501027Y-90153943D01*
X114560343Y-90229327D01*
X114614771Y-90298207D01*
X114662639Y-90358442D01*
X114702275Y-90407889D01*
X114732006Y-90444408D01*
X114750161Y-90465858D01*
X114753220Y-90469156D01*
X114756079Y-90461149D01*
X114758293Y-90430855D01*
X114759857Y-90378556D01*
X114760767Y-90304531D01*
X114761020Y-90209063D01*
X114760613Y-90092434D01*
X114759704Y-89972445D01*
X114758382Y-89840333D01*
X114756857Y-89728594D01*
X114754881Y-89635025D01*
X114752206Y-89557419D01*
X114748582Y-89493574D01*
X114743761Y-89441283D01*
X114737494Y-89398344D01*
X114729532Y-89362551D01*
X114719627Y-89331700D01*
X114707531Y-89303586D01*
X114692993Y-89276005D01*
X114678311Y-89250966D01*
X114640314Y-89187867D01*
X115700197Y-89187867D01*
X116003034Y-89187867D01*
X116003001Y-89181617D01*
X116002195Y-89079544D01*
X116001170Y-88990633D01*
X115999900Y-88913941D01*
X115998360Y-88848527D01*
X115996524Y-88793449D01*
X115994367Y-88747765D01*
X115991863Y-88710534D01*
X115988987Y-88680813D01*
X115985713Y-88657662D01*
X115982015Y-88640139D01*
X115977869Y-88627301D01*
X115973247Y-88618208D01*
X115968126Y-88611918D01*
X115962478Y-88607488D01*
X115956279Y-88603978D01*
X115949504Y-88600445D01*
X115943508Y-88596876D01*
X115938275Y-88594300D01*
X115930099Y-88591972D01*
X115917886Y-88589878D01*
X115900541Y-88588007D01*
X115876969Y-88586347D01*
X115846077Y-88584884D01*
X115806768Y-88583608D01*
X115757950Y-88582504D01*
X115698527Y-88581561D01*
X115627404Y-88580767D01*
X115543488Y-88580109D01*
X115445683Y-88579575D01*
X115332894Y-88579153D01*
X115204029Y-88578829D01*
X115057991Y-88578592D01*
X114893686Y-88578430D01*
X114710020Y-88578330D01*
X114505897Y-88578280D01*
X114294753Y-88578267D01*
X112674400Y-88578267D01*
X112674400Y-88675054D01*
G37*
X112674400Y-88675054D02*
X112663535Y-88788993D01*
X112631918Y-88896616D01*
X112581015Y-88995615D01*
X112512293Y-89083684D01*
X112427219Y-89158516D01*
X112330232Y-89216384D01*
X112223964Y-89256005D01*
X112116950Y-89274573D01*
X112011300Y-89273434D01*
X111909125Y-89253930D01*
X111812534Y-89217406D01*
X111723638Y-89165205D01*
X111644546Y-89098673D01*
X111577369Y-89019152D01*
X111524217Y-88927987D01*
X111487199Y-88826523D01*
X111468427Y-88716102D01*
X111466489Y-88666206D01*
X111466489Y-88578267D01*
X111414560Y-88578267D01*
X111378253Y-88581111D01*
X111351355Y-88592911D01*
X111324249Y-88616649D01*
X111285867Y-88655031D01*
X111285867Y-90846602D01*
X111285876Y-91108739D01*
X111285908Y-91349241D01*
X111285972Y-91569048D01*
X111286076Y-91769101D01*
X111286227Y-91950344D01*
X111286434Y-92113716D01*
X111286706Y-92260160D01*
X111287050Y-92390617D01*
X111287474Y-92506029D01*
X111287987Y-92607338D01*
X111288597Y-92695484D01*
X111289312Y-92771410D01*
X111290140Y-92836057D01*
X111291089Y-92890367D01*
X111292167Y-92935280D01*
X111293383Y-92971740D01*
X111294745Y-93000687D01*
X111296261Y-93023063D01*
X111297938Y-93039809D01*
X111299786Y-93051868D01*
X111301813Y-93060180D01*
X111304025Y-93065687D01*
X111305108Y-93067537D01*
X111309271Y-93074549D01*
X111312805Y-93080996D01*
X111316635Y-93086900D01*
X111321682Y-93092286D01*
X111328871Y-93097178D01*
X111339123Y-93101598D01*
X111353364Y-93105572D01*
X111372514Y-93109121D01*
X111397499Y-93112270D01*
X111429240Y-93115042D01*
X111468662Y-93117461D01*
X111516686Y-93119551D01*
X111574237Y-93121335D01*
X111642237Y-93122837D01*
X111721610Y-93124080D01*
X111813279Y-93125089D01*
X111918166Y-93125885D01*
X112037196Y-93126494D01*
X112171290Y-93126939D01*
X112321373Y-93127243D01*
X112488367Y-93127430D01*
X112673196Y-93127524D01*
X112876783Y-93127548D01*
X113100050Y-93127525D01*
X113343922Y-93127480D01*
X113609321Y-93127437D01*
X113647704Y-93127432D01*
X113914682Y-93127389D01*
X114160002Y-93127318D01*
X114384583Y-93127213D01*
X114589345Y-93127066D01*
X114775206Y-93126869D01*
X114943088Y-93126616D01*
X115093908Y-93126300D01*
X115228587Y-93125913D01*
X115348044Y-93125447D01*
X115453199Y-93124897D01*
X115544971Y-93124253D01*
X115624279Y-93123511D01*
X115692043Y-93122661D01*
X115749182Y-93121697D01*
X115796617Y-93120611D01*
X115835266Y-93119397D01*
X115866049Y-93118047D01*
X115889885Y-93116555D01*
X115907694Y-93114911D01*
X115920395Y-93113111D01*
X115928908Y-93111145D01*
X115933266Y-93109477D01*
X115941728Y-93105906D01*
X115949497Y-93103270D01*
X115956602Y-93100634D01*
X115963073Y-93097062D01*
X115968939Y-93091621D01*
X115974229Y-93083375D01*
X115978974Y-93071390D01*
X115983202Y-93054731D01*
X115986943Y-93032463D01*
X115990227Y-93003652D01*
X115993083Y-92967363D01*
X115995540Y-92922661D01*
X115997629Y-92868611D01*
X115999378Y-92804279D01*
X116000817Y-92728730D01*
X116001976Y-92641030D01*
X116002883Y-92540243D01*
X116003569Y-92425434D01*
X116004063Y-92295670D01*
X116004395Y-92150015D01*
X116004593Y-91987535D01*
X116004687Y-91807295D01*
X116004708Y-91608360D01*
X116004685Y-91389796D01*
X116004646Y-91150668D01*
X116004622Y-90890040D01*
X116004622Y-90847889D01*
X116004636Y-90584992D01*
X116004661Y-90343732D01*
X116004671Y-90123165D01*
X116004642Y-89922352D01*
X116004548Y-89740349D01*
X116004362Y-89576216D01*
X116004059Y-89429011D01*
X116003614Y-89297792D01*
X116003034Y-89187867D01*
X115700197Y-89187867D01*
X115660407Y-89245711D01*
X115649236Y-89261479D01*
X115639166Y-89275441D01*
X115630138Y-89288784D01*
X115622097Y-89302693D01*
X115614986Y-89318356D01*
X115608747Y-89336958D01*
X115603325Y-89359686D01*
X115598662Y-89387727D01*
X115594701Y-89422267D01*
X115591385Y-89464492D01*
X115588659Y-89515589D01*
X115586464Y-89576744D01*
X115584745Y-89649144D01*
X115583444Y-89733975D01*
X115582505Y-89832422D01*
X115581870Y-89945674D01*
X115581484Y-90074916D01*
X115581288Y-90221334D01*
X115581227Y-90386116D01*
X115581243Y-90570447D01*
X115581280Y-90775513D01*
X115581289Y-90898133D01*
X115581265Y-91115082D01*
X115581231Y-91310642D01*
X115581243Y-91485999D01*
X115581358Y-91642341D01*
X115581630Y-91780857D01*
X115582118Y-91902734D01*
X115582876Y-92009160D01*
X115583962Y-92101322D01*
X115585431Y-92180409D01*
X115587340Y-92247608D01*
X115589744Y-92304107D01*
X115592701Y-92351093D01*
X115596266Y-92389755D01*
X115600495Y-92421280D01*
X115605446Y-92446855D01*
X115611173Y-92467670D01*
X115617733Y-92484911D01*
X115625183Y-92499765D01*
X115633579Y-92513422D01*
X115642976Y-92527069D01*
X115653432Y-92541893D01*
X115659523Y-92550783D01*
X115698296Y-92608400D01*
X115166732Y-92608400D01*
X115043483Y-92608365D01*
X114940987Y-92608215D01*
X114857420Y-92607878D01*
X114790956Y-92607286D01*
X114739771Y-92606367D01*
X114702041Y-92605051D01*
X114675940Y-92603269D01*
X114659644Y-92600951D01*
X114651328Y-92598026D01*
X114649168Y-92594424D01*
X114651339Y-92590075D01*
X114652535Y-92588645D01*
X114677685Y-92551573D01*
X114703583Y-92498772D01*
X114727192Y-92436770D01*
X114735461Y-92410357D01*
X114740078Y-92392416D01*
X114743979Y-92371355D01*
X114747248Y-92345089D01*
X114749966Y-92311532D01*
X114752215Y-92268599D01*
X114754077Y-92214204D01*
X114755636Y-92146262D01*
X114756972Y-92062688D01*
X114758169Y-91961395D01*
X114759308Y-91840300D01*
X114759685Y-91795600D01*
X114760702Y-91670449D01*
X114761460Y-91566082D01*
X114761903Y-91480707D01*
X114761970Y-91412533D01*
X114761605Y-91359765D01*
X114760748Y-91320614D01*
X114759341Y-91293285D01*
X114757325Y-91275986D01*
X114754643Y-91266926D01*
X114751236Y-91264312D01*
X114747044Y-91266351D01*
X114742571Y-91270667D01*
X114732216Y-91283602D01*
X114710158Y-91312676D01*
X114677957Y-91355759D01*
X114637174Y-91410718D01*
X114589370Y-91475423D01*
X114536105Y-91547742D01*
X114478940Y-91625544D01*
X114419437Y-91706698D01*
X114359155Y-91789072D01*
X114299655Y-91870536D01*
X114242498Y-91948957D01*
X114189245Y-92022204D01*
X114141457Y-92088147D01*
X114100693Y-92144654D01*
X114068516Y-92189593D01*
X114046485Y-92220834D01*
X114041917Y-92227466D01*
X114018996Y-92264369D01*
X113992188Y-92312359D01*
X113966789Y-92361897D01*
X113963568Y-92368577D01*
X113941890Y-92416772D01*
X113929304Y-92454334D01*
X113923574Y-92490160D01*
X113922456Y-92532200D01*
X113923090Y-92608400D01*
X112768651Y-92608400D01*
X112859815Y-92514669D01*
X112906612Y-92464775D01*
X112956899Y-92408295D01*
X113002944Y-92354026D01*
X113023369Y-92328673D01*
X113053807Y-92289128D01*
X113093862Y-92235916D01*
X113142361Y-92170667D01*
X113198135Y-92095011D01*
X113260011Y-92010577D01*
X113326819Y-91918994D01*
X113397387Y-91821892D01*
X113470545Y-91720901D01*
X113545121Y-91617650D01*
X113619944Y-91513768D01*
X113693843Y-91410885D01*
X113765646Y-91310631D01*
X113834184Y-91214636D01*
X113898284Y-91124527D01*
X113956775Y-91041936D01*
X114008486Y-90968492D01*
X114052247Y-90905824D01*
X114086885Y-90855561D01*
X114111230Y-90819334D01*
X114124111Y-90798771D01*
X114125869Y-90794668D01*
X114117910Y-90783342D01*
X114097115Y-90756162D01*
X114064847Y-90714829D01*
X114022470Y-90661044D01*
X113971347Y-90596506D01*
X113912841Y-90522918D01*
X113848314Y-90441978D01*
X113779131Y-90355388D01*
X113706653Y-90264848D01*
X113632246Y-90172060D01*
X113572517Y-90097702D01*
X112561511Y-90097702D01*
X112555602Y-90110659D01*
X112541272Y-90132908D01*
X112540225Y-90134391D01*
X112521438Y-90164544D01*
X112501791Y-90201375D01*
X112497892Y-90209511D01*
X112494356Y-90217940D01*
X112491230Y-90228059D01*
X112488486Y-90241260D01*
X112486092Y-90258938D01*
X112484019Y-90282484D01*
X112482235Y-90313293D01*
X112480712Y-90352757D01*
X112479419Y-90402269D01*
X112478326Y-90463223D01*
X112477403Y-90537011D01*
X112476619Y-90625028D01*
X112475945Y-90728665D01*
X112475350Y-90849316D01*
X112474805Y-90988374D01*
X112474279Y-91147232D01*
X112473745Y-91326089D01*
X112473206Y-91511207D01*
X112472772Y-91675145D01*
X112472509Y-91819303D01*
X112472484Y-91945079D01*
X112472765Y-92053871D01*
X112473419Y-92147077D01*
X112474514Y-92226097D01*
X112476118Y-92292328D01*
X112478297Y-92347170D01*
X112481119Y-92392021D01*
X112484651Y-92428278D01*
X112488961Y-92457341D01*
X112494117Y-92480609D01*
X112500185Y-92499479D01*
X112507233Y-92515351D01*
X112515329Y-92529622D01*
X112524540Y-92543691D01*
X112533040Y-92556158D01*
X112550176Y-92582452D01*
X112560322Y-92600037D01*
X112561511Y-92603257D01*
X112550604Y-92604334D01*
X112519411Y-92605335D01*
X112470223Y-92606235D01*
X112405333Y-92607010D01*
X112327030Y-92607637D01*
X112237607Y-92608091D01*
X112139356Y-92608349D01*
X112070445Y-92608400D01*
X111965452Y-92608180D01*
X111868610Y-92607548D01*
X111782107Y-92606549D01*
X111708132Y-92605227D01*
X111648874Y-92603626D01*
X111606520Y-92601791D01*
X111583260Y-92599765D01*
X111579378Y-92598493D01*
X111587076Y-92583591D01*
X111595074Y-92575560D01*
X111608246Y-92558434D01*
X111625485Y-92528183D01*
X111637407Y-92503622D01*
X111664045Y-92444711D01*
X111667120Y-91267845D01*
X111670195Y-90090978D01*
X112115853Y-90090978D01*
X112213670Y-90091142D01*
X112304064Y-90091611D01*
X112384630Y-90092347D01*
X112452962Y-90093316D01*
X112506656Y-90094480D01*
X112543305Y-90095803D01*
X112560504Y-90097249D01*
X112561511Y-90097702D01*
X113572517Y-90097702D01*
X113557270Y-90078722D01*
X113483090Y-89986537D01*
X113411069Y-89897204D01*
X113342569Y-89812424D01*
X113278955Y-89733898D01*
X113221588Y-89663326D01*
X113171833Y-89602409D01*
X113131052Y-89552847D01*
X113113888Y-89532178D01*
X113027596Y-89431516D01*
X112950997Y-89348259D01*
X112882183Y-89280438D01*
X112819248Y-89226089D01*
X112809867Y-89218722D01*
X112770356Y-89188117D01*
X113902116Y-89187867D01*
X113896827Y-89235844D01*
X113900130Y-89293188D01*
X113921661Y-89361463D01*
X113961635Y-89441212D01*
X114006943Y-89513495D01*
X114023161Y-89536140D01*
X114051214Y-89573696D01*
X114089430Y-89624021D01*
X114136137Y-89684973D01*
X114189661Y-89754411D01*
X114248331Y-89830194D01*
X114310475Y-89910180D01*
X114374421Y-89992228D01*
X114438495Y-90074196D01*
X114501027Y-90153943D01*
X114560343Y-90229327D01*
X114614771Y-90298207D01*
X114662639Y-90358442D01*
X114702275Y-90407889D01*
X114732006Y-90444408D01*
X114750161Y-90465858D01*
X114753220Y-90469156D01*
X114756079Y-90461149D01*
X114758293Y-90430855D01*
X114759857Y-90378556D01*
X114760767Y-90304531D01*
X114761020Y-90209063D01*
X114760613Y-90092434D01*
X114759704Y-89972445D01*
X114758382Y-89840333D01*
X114756857Y-89728594D01*
X114754881Y-89635025D01*
X114752206Y-89557419D01*
X114748582Y-89493574D01*
X114743761Y-89441283D01*
X114737494Y-89398344D01*
X114729532Y-89362551D01*
X114719627Y-89331700D01*
X114707531Y-89303586D01*
X114692993Y-89276005D01*
X114678311Y-89250966D01*
X114640314Y-89187867D01*
X115700197Y-89187867D01*
X116003034Y-89187867D01*
X116003001Y-89181617D01*
X116002195Y-89079544D01*
X116001170Y-88990633D01*
X115999900Y-88913941D01*
X115998360Y-88848527D01*
X115996524Y-88793449D01*
X115994367Y-88747765D01*
X115991863Y-88710534D01*
X115988987Y-88680813D01*
X115985713Y-88657662D01*
X115982015Y-88640139D01*
X115977869Y-88627301D01*
X115973247Y-88618208D01*
X115968126Y-88611918D01*
X115962478Y-88607488D01*
X115956279Y-88603978D01*
X115949504Y-88600445D01*
X115943508Y-88596876D01*
X115938275Y-88594300D01*
X115930099Y-88591972D01*
X115917886Y-88589878D01*
X115900541Y-88588007D01*
X115876969Y-88586347D01*
X115846077Y-88584884D01*
X115806768Y-88583608D01*
X115757950Y-88582504D01*
X115698527Y-88581561D01*
X115627404Y-88580767D01*
X115543488Y-88580109D01*
X115445683Y-88579575D01*
X115332894Y-88579153D01*
X115204029Y-88578829D01*
X115057991Y-88578592D01*
X114893686Y-88578430D01*
X114710020Y-88578330D01*
X114505897Y-88578280D01*
X114294753Y-88578267D01*
X112674400Y-88578267D01*
X112674400Y-88675054D01*
G36*
X108918186Y-69808131D02*
G01*
X108834365Y-70252755D01*
X108525080Y-70380253D01*
X108215794Y-70507751D01*
X107844754Y-70255446D01*
X107740843Y-70185196D01*
X107646913Y-70122472D01*
X107567348Y-70070138D01*
X107506530Y-70031057D01*
X107468843Y-70008093D01*
X107458579Y-70003142D01*
X107440090Y-70015876D01*
X107400580Y-70051082D01*
X107344478Y-70104262D01*
X107276213Y-70170918D01*
X107200214Y-70246554D01*
X107120908Y-70326672D01*
X107042725Y-70406774D01*
X106970093Y-70482364D01*
X106907441Y-70548945D01*
X106859197Y-70602018D01*
X106829790Y-70637087D01*
X106822759Y-70648823D01*
X106832877Y-70670460D01*
X106861241Y-70717862D01*
X106904871Y-70786393D01*
X106960782Y-70871415D01*
X107025994Y-70968293D01*
X107063781Y-71023550D01*
X107132657Y-71124448D01*
X107193860Y-71215499D01*
X107244422Y-71292170D01*
X107281372Y-71349928D01*
X107301742Y-71384243D01*
X107304803Y-71391454D01*
X107297864Y-71411948D01*
X107278949Y-71459713D01*
X107250913Y-71528032D01*
X107216609Y-71610189D01*
X107178891Y-71699470D01*
X107140613Y-71789158D01*
X107104630Y-71872538D01*
X107073794Y-71942894D01*
X107050961Y-71993510D01*
X107038983Y-72017671D01*
X107038276Y-72018622D01*
X107019469Y-72023236D01*
X106969382Y-72033528D01*
X106893207Y-72048487D01*
X106796135Y-72067101D01*
X106683357Y-72088359D01*
X106617558Y-72100618D01*
X106497050Y-72123562D01*
X106388203Y-72145395D01*
X106296524Y-72164922D01*
X106227519Y-72180948D01*
X106186696Y-72192279D01*
X106178489Y-72195874D01*
X106170452Y-72220206D01*
X106163967Y-72275159D01*
X106159030Y-72354308D01*
X106155636Y-72451226D01*
X106153782Y-72559487D01*
X106153462Y-72672665D01*
X106154673Y-72784335D01*
X106157410Y-72888068D01*
X106161669Y-72977441D01*
X106167445Y-73046026D01*
X106174733Y-73087397D01*
X106179105Y-73096010D01*
X106205236Y-73106333D01*
X106260607Y-73121092D01*
X106337893Y-73138552D01*
X106429770Y-73156980D01*
X106461842Y-73162941D01*
X106616476Y-73191266D01*
X106738625Y-73214076D01*
X106832327Y-73232280D01*
X106901616Y-73246783D01*
X106950529Y-73258492D01*
X106983103Y-73268315D01*
X107003372Y-73277156D01*
X107015374Y-73285924D01*
X107017053Y-73287657D01*
X107033816Y-73315571D01*
X107059386Y-73369895D01*
X107091212Y-73443977D01*
X107126740Y-73531165D01*
X107163417Y-73624808D01*
X107198689Y-73718252D01*
X107230004Y-73804847D01*
X107254807Y-73877940D01*
X107270546Y-73930878D01*
X107274668Y-73957011D01*
X107274324Y-73957926D01*
X107260359Y-73979286D01*
X107228678Y-74026284D01*
X107182609Y-74094027D01*
X107125482Y-74177623D01*
X107060627Y-74272182D01*
X107042157Y-74299054D01*
X106976301Y-74396475D01*
X106918350Y-74485363D01*
X106871462Y-74560612D01*
X106838793Y-74617120D01*
X106823500Y-74649781D01*
X106822759Y-74653793D01*
X106835608Y-74674884D01*
X106871112Y-74716664D01*
X106924707Y-74774645D01*
X106991829Y-74844335D01*
X107067913Y-74921245D01*
X107148396Y-75000883D01*
X107228713Y-75078761D01*
X107304301Y-75150386D01*
X107370595Y-75211270D01*
X107423031Y-75256921D01*
X107457045Y-75282850D01*
X107466455Y-75287083D01*
X107488357Y-75277112D01*
X107533200Y-75250220D01*
X107593679Y-75210936D01*
X107640211Y-75179317D01*
X107724525Y-75121298D01*
X107824374Y-75052984D01*
X107924527Y-74984779D01*
X107978373Y-74948275D01*
X108160629Y-74825000D01*
X108313619Y-74907720D01*
X108383318Y-74943959D01*
X108442586Y-74972126D01*
X108482689Y-74988191D01*
X108492897Y-74990426D01*
X108505171Y-74973922D01*
X108529387Y-74927282D01*
X108563737Y-74854809D01*
X108606412Y-74760806D01*
X108655606Y-74649574D01*
X108709510Y-74525415D01*
X108766316Y-74392632D01*
X108824218Y-74255527D01*
X108881407Y-74118402D01*
X108936076Y-73985558D01*
X108986416Y-73861298D01*
X109030620Y-73749925D01*
X109066881Y-73655739D01*
X109093391Y-73583044D01*
X109108342Y-73536141D01*
X109110746Y-73520033D01*
X109091689Y-73499486D01*
X109049964Y-73466133D01*
X108994294Y-73426902D01*
X108989622Y-73423799D01*
X108845736Y-73308623D01*
X108729717Y-73174253D01*
X108642570Y-73024984D01*
X108585301Y-72865113D01*
X108558914Y-72698937D01*
X108564415Y-72530752D01*
X108602810Y-72364855D01*
X108675105Y-72205542D01*
X108696374Y-72170687D01*
X108807004Y-72029937D01*
X108937698Y-71916914D01*
X109083936Y-71832203D01*
X109241192Y-71776394D01*
X109404943Y-71750074D01*
X109570667Y-71753830D01*
X109733838Y-71788250D01*
X109889935Y-71853923D01*
X110034433Y-71951435D01*
X110079131Y-71991013D01*
X110192888Y-72114903D01*
X110275782Y-72245324D01*
X110332644Y-72391515D01*
X110364313Y-72536288D01*
X110372131Y-72699060D01*
X110346062Y-72862640D01*
X110288755Y-73021498D01*
X110202856Y-73170106D01*
X110091014Y-73302935D01*
X109955877Y-73414456D01*
X109938117Y-73426211D01*
X109881850Y-73464708D01*
X109839077Y-73498063D01*
X109818628Y-73519360D01*
X109818331Y-73520033D01*
X109822721Y-73543071D01*
X109840124Y-73595357D01*
X109868732Y-73672590D01*
X109906735Y-73770468D01*
X109952326Y-73884691D01*
X110003697Y-74010958D01*
X110059038Y-74144967D01*
X110116542Y-74282418D01*
X110174399Y-74419008D01*
X110230802Y-74550437D01*
X110283942Y-74672405D01*
X110332010Y-74780609D01*
X110373199Y-74870749D01*
X110405699Y-74938523D01*
X110427703Y-74979630D01*
X110436564Y-74990426D01*
X110463640Y-74982019D01*
X110514303Y-74959472D01*
X110579817Y-74926813D01*
X110615841Y-74907720D01*
X110768832Y-74825000D01*
X110951088Y-74948275D01*
X111044125Y-75011428D01*
X111145985Y-75080927D01*
X111241438Y-75146365D01*
X111289250Y-75179317D01*
X111356495Y-75224473D01*
X111413436Y-75260257D01*
X111452646Y-75282138D01*
X111465381Y-75286763D01*
X111483917Y-75274285D01*
X111524941Y-75239452D01*
X111584475Y-75185878D01*
X111658542Y-75117183D01*
X111743165Y-75036981D01*
X111796685Y-74985486D01*
X111890319Y-74893486D01*
X111971241Y-74811199D01*
X112036177Y-74742145D01*
X112081858Y-74689844D01*
X112105011Y-74657816D01*
X112107232Y-74651316D01*
X112096924Y-74626594D01*
X112068439Y-74576605D01*
X112024937Y-74506412D01*
X111969577Y-74421075D01*
X111905520Y-74325656D01*
X111887303Y-74299054D01*
X111820927Y-74202367D01*
X111761378Y-74115317D01*
X111711984Y-74042795D01*
X111676075Y-73989693D01*
X111656981Y-73960903D01*
X111655136Y-73957926D01*
X111657895Y-73934982D01*
X111672538Y-73884536D01*
X111696513Y-73813241D01*
X111727266Y-73727747D01*
X111762244Y-73634707D01*
X111798893Y-73540774D01*
X111834661Y-73452599D01*
X111866994Y-73376834D01*
X111893338Y-73320131D01*
X111911142Y-73289143D01*
X111912407Y-73287657D01*
X111923294Y-73278801D01*
X111941682Y-73270043D01*
X111971606Y-73260477D01*
X112017103Y-73249196D01*
X112082209Y-73235293D01*
X112170961Y-73217863D01*
X112287393Y-73195998D01*
X112435542Y-73168791D01*
X112467618Y-73162941D01*
X112562686Y-73144574D01*
X112645565Y-73126605D01*
X112708930Y-73110769D01*
X112745458Y-73098800D01*
X112750356Y-73096010D01*
X112758427Y-73071272D01*
X112764987Y-73015990D01*
X112770033Y-72936589D01*
X112773559Y-72839496D01*
X112775561Y-72731138D01*
X112776036Y-72617940D01*
X112774977Y-72506328D01*
X112772382Y-72402729D01*
X112768246Y-72313568D01*
X112762563Y-72245272D01*
X112755331Y-72204266D01*
X112750971Y-72195874D01*
X112726698Y-72187408D01*
X112671426Y-72173635D01*
X112590662Y-72155750D01*
X112489912Y-72134948D01*
X112374683Y-72112423D01*
X112311902Y-72100618D01*
X112192787Y-72078351D01*
X112086565Y-72058179D01*
X111998427Y-72041115D01*
X111933566Y-72028169D01*
X111897174Y-72020355D01*
X111891184Y-72018622D01*
X111881061Y-71999090D01*
X111859662Y-71952043D01*
X111829839Y-71884203D01*
X111794445Y-71802291D01*
X111756332Y-71713028D01*
X111718353Y-71623135D01*
X111683360Y-71539335D01*
X111654206Y-71468347D01*
X111633743Y-71416894D01*
X111624823Y-71391697D01*
X111624657Y-71390596D01*
X111634769Y-71370719D01*
X111663117Y-71324977D01*
X111706723Y-71257917D01*
X111762606Y-71174084D01*
X111827787Y-71078026D01*
X111865679Y-71022850D01*
X111934725Y-70921681D01*
X111996050Y-70829830D01*
X112046663Y-70751944D01*
X112083571Y-70692669D01*
X112103782Y-70656651D01*
X112106701Y-70648577D01*
X112094153Y-70629784D01*
X112059463Y-70589657D01*
X112007063Y-70532693D01*
X111941384Y-70463385D01*
X111866856Y-70386231D01*
X111787913Y-70305725D01*
X111708983Y-70226363D01*
X111634500Y-70152640D01*
X111568894Y-70089052D01*
X111516596Y-70040094D01*
X111482039Y-70010261D01*
X111470478Y-70003142D01*
X111451654Y-70013153D01*
X111406631Y-70041278D01*
X111339787Y-70084654D01*
X111255499Y-70140418D01*
X111158144Y-70205706D01*
X111084707Y-70255446D01*
X110713667Y-70507751D01*
X110095095Y-70252755D01*
X110011275Y-69808131D01*
X109927454Y-69363507D01*
X109002006Y-69363507D01*
X108918186Y-69808131D01*
G37*
X108918186Y-69808131D02*
X108834365Y-70252755D01*
X108525080Y-70380253D01*
X108215794Y-70507751D01*
X107844754Y-70255446D01*
X107740843Y-70185196D01*
X107646913Y-70122472D01*
X107567348Y-70070138D01*
X107506530Y-70031057D01*
X107468843Y-70008093D01*
X107458579Y-70003142D01*
X107440090Y-70015876D01*
X107400580Y-70051082D01*
X107344478Y-70104262D01*
X107276213Y-70170918D01*
X107200214Y-70246554D01*
X107120908Y-70326672D01*
X107042725Y-70406774D01*
X106970093Y-70482364D01*
X106907441Y-70548945D01*
X106859197Y-70602018D01*
X106829790Y-70637087D01*
X106822759Y-70648823D01*
X106832877Y-70670460D01*
X106861241Y-70717862D01*
X106904871Y-70786393D01*
X106960782Y-70871415D01*
X107025994Y-70968293D01*
X107063781Y-71023550D01*
X107132657Y-71124448D01*
X107193860Y-71215499D01*
X107244422Y-71292170D01*
X107281372Y-71349928D01*
X107301742Y-71384243D01*
X107304803Y-71391454D01*
X107297864Y-71411948D01*
X107278949Y-71459713D01*
X107250913Y-71528032D01*
X107216609Y-71610189D01*
X107178891Y-71699470D01*
X107140613Y-71789158D01*
X107104630Y-71872538D01*
X107073794Y-71942894D01*
X107050961Y-71993510D01*
X107038983Y-72017671D01*
X107038276Y-72018622D01*
X107019469Y-72023236D01*
X106969382Y-72033528D01*
X106893207Y-72048487D01*
X106796135Y-72067101D01*
X106683357Y-72088359D01*
X106617558Y-72100618D01*
X106497050Y-72123562D01*
X106388203Y-72145395D01*
X106296524Y-72164922D01*
X106227519Y-72180948D01*
X106186696Y-72192279D01*
X106178489Y-72195874D01*
X106170452Y-72220206D01*
X106163967Y-72275159D01*
X106159030Y-72354308D01*
X106155636Y-72451226D01*
X106153782Y-72559487D01*
X106153462Y-72672665D01*
X106154673Y-72784335D01*
X106157410Y-72888068D01*
X106161669Y-72977441D01*
X106167445Y-73046026D01*
X106174733Y-73087397D01*
X106179105Y-73096010D01*
X106205236Y-73106333D01*
X106260607Y-73121092D01*
X106337893Y-73138552D01*
X106429770Y-73156980D01*
X106461842Y-73162941D01*
X106616476Y-73191266D01*
X106738625Y-73214076D01*
X106832327Y-73232280D01*
X106901616Y-73246783D01*
X106950529Y-73258492D01*
X106983103Y-73268315D01*
X107003372Y-73277156D01*
X107015374Y-73285924D01*
X107017053Y-73287657D01*
X107033816Y-73315571D01*
X107059386Y-73369895D01*
X107091212Y-73443977D01*
X107126740Y-73531165D01*
X107163417Y-73624808D01*
X107198689Y-73718252D01*
X107230004Y-73804847D01*
X107254807Y-73877940D01*
X107270546Y-73930878D01*
X107274668Y-73957011D01*
X107274324Y-73957926D01*
X107260359Y-73979286D01*
X107228678Y-74026284D01*
X107182609Y-74094027D01*
X107125482Y-74177623D01*
X107060627Y-74272182D01*
X107042157Y-74299054D01*
X106976301Y-74396475D01*
X106918350Y-74485363D01*
X106871462Y-74560612D01*
X106838793Y-74617120D01*
X106823500Y-74649781D01*
X106822759Y-74653793D01*
X106835608Y-74674884D01*
X106871112Y-74716664D01*
X106924707Y-74774645D01*
X106991829Y-74844335D01*
X107067913Y-74921245D01*
X107148396Y-75000883D01*
X107228713Y-75078761D01*
X107304301Y-75150386D01*
X107370595Y-75211270D01*
X107423031Y-75256921D01*
X107457045Y-75282850D01*
X107466455Y-75287083D01*
X107488357Y-75277112D01*
X107533200Y-75250220D01*
X107593679Y-75210936D01*
X107640211Y-75179317D01*
X107724525Y-75121298D01*
X107824374Y-75052984D01*
X107924527Y-74984779D01*
X107978373Y-74948275D01*
X108160629Y-74825000D01*
X108313619Y-74907720D01*
X108383318Y-74943959D01*
X108442586Y-74972126D01*
X108482689Y-74988191D01*
X108492897Y-74990426D01*
X108505171Y-74973922D01*
X108529387Y-74927282D01*
X108563737Y-74854809D01*
X108606412Y-74760806D01*
X108655606Y-74649574D01*
X108709510Y-74525415D01*
X108766316Y-74392632D01*
X108824218Y-74255527D01*
X108881407Y-74118402D01*
X108936076Y-73985558D01*
X108986416Y-73861298D01*
X109030620Y-73749925D01*
X109066881Y-73655739D01*
X109093391Y-73583044D01*
X109108342Y-73536141D01*
X109110746Y-73520033D01*
X109091689Y-73499486D01*
X109049964Y-73466133D01*
X108994294Y-73426902D01*
X108989622Y-73423799D01*
X108845736Y-73308623D01*
X108729717Y-73174253D01*
X108642570Y-73024984D01*
X108585301Y-72865113D01*
X108558914Y-72698937D01*
X108564415Y-72530752D01*
X108602810Y-72364855D01*
X108675105Y-72205542D01*
X108696374Y-72170687D01*
X108807004Y-72029937D01*
X108937698Y-71916914D01*
X109083936Y-71832203D01*
X109241192Y-71776394D01*
X109404943Y-71750074D01*
X109570667Y-71753830D01*
X109733838Y-71788250D01*
X109889935Y-71853923D01*
X110034433Y-71951435D01*
X110079131Y-71991013D01*
X110192888Y-72114903D01*
X110275782Y-72245324D01*
X110332644Y-72391515D01*
X110364313Y-72536288D01*
X110372131Y-72699060D01*
X110346062Y-72862640D01*
X110288755Y-73021498D01*
X110202856Y-73170106D01*
X110091014Y-73302935D01*
X109955877Y-73414456D01*
X109938117Y-73426211D01*
X109881850Y-73464708D01*
X109839077Y-73498063D01*
X109818628Y-73519360D01*
X109818331Y-73520033D01*
X109822721Y-73543071D01*
X109840124Y-73595357D01*
X109868732Y-73672590D01*
X109906735Y-73770468D01*
X109952326Y-73884691D01*
X110003697Y-74010958D01*
X110059038Y-74144967D01*
X110116542Y-74282418D01*
X110174399Y-74419008D01*
X110230802Y-74550437D01*
X110283942Y-74672405D01*
X110332010Y-74780609D01*
X110373199Y-74870749D01*
X110405699Y-74938523D01*
X110427703Y-74979630D01*
X110436564Y-74990426D01*
X110463640Y-74982019D01*
X110514303Y-74959472D01*
X110579817Y-74926813D01*
X110615841Y-74907720D01*
X110768832Y-74825000D01*
X110951088Y-74948275D01*
X111044125Y-75011428D01*
X111145985Y-75080927D01*
X111241438Y-75146365D01*
X111289250Y-75179317D01*
X111356495Y-75224473D01*
X111413436Y-75260257D01*
X111452646Y-75282138D01*
X111465381Y-75286763D01*
X111483917Y-75274285D01*
X111524941Y-75239452D01*
X111584475Y-75185878D01*
X111658542Y-75117183D01*
X111743165Y-75036981D01*
X111796685Y-74985486D01*
X111890319Y-74893486D01*
X111971241Y-74811199D01*
X112036177Y-74742145D01*
X112081858Y-74689844D01*
X112105011Y-74657816D01*
X112107232Y-74651316D01*
X112096924Y-74626594D01*
X112068439Y-74576605D01*
X112024937Y-74506412D01*
X111969577Y-74421075D01*
X111905520Y-74325656D01*
X111887303Y-74299054D01*
X111820927Y-74202367D01*
X111761378Y-74115317D01*
X111711984Y-74042795D01*
X111676075Y-73989693D01*
X111656981Y-73960903D01*
X111655136Y-73957926D01*
X111657895Y-73934982D01*
X111672538Y-73884536D01*
X111696513Y-73813241D01*
X111727266Y-73727747D01*
X111762244Y-73634707D01*
X111798893Y-73540774D01*
X111834661Y-73452599D01*
X111866994Y-73376834D01*
X111893338Y-73320131D01*
X111911142Y-73289143D01*
X111912407Y-73287657D01*
X111923294Y-73278801D01*
X111941682Y-73270043D01*
X111971606Y-73260477D01*
X112017103Y-73249196D01*
X112082209Y-73235293D01*
X112170961Y-73217863D01*
X112287393Y-73195998D01*
X112435542Y-73168791D01*
X112467618Y-73162941D01*
X112562686Y-73144574D01*
X112645565Y-73126605D01*
X112708930Y-73110769D01*
X112745458Y-73098800D01*
X112750356Y-73096010D01*
X112758427Y-73071272D01*
X112764987Y-73015990D01*
X112770033Y-72936589D01*
X112773559Y-72839496D01*
X112775561Y-72731138D01*
X112776036Y-72617940D01*
X112774977Y-72506328D01*
X112772382Y-72402729D01*
X112768246Y-72313568D01*
X112762563Y-72245272D01*
X112755331Y-72204266D01*
X112750971Y-72195874D01*
X112726698Y-72187408D01*
X112671426Y-72173635D01*
X112590662Y-72155750D01*
X112489912Y-72134948D01*
X112374683Y-72112423D01*
X112311902Y-72100618D01*
X112192787Y-72078351D01*
X112086565Y-72058179D01*
X111998427Y-72041115D01*
X111933566Y-72028169D01*
X111897174Y-72020355D01*
X111891184Y-72018622D01*
X111881061Y-71999090D01*
X111859662Y-71952043D01*
X111829839Y-71884203D01*
X111794445Y-71802291D01*
X111756332Y-71713028D01*
X111718353Y-71623135D01*
X111683360Y-71539335D01*
X111654206Y-71468347D01*
X111633743Y-71416894D01*
X111624823Y-71391697D01*
X111624657Y-71390596D01*
X111634769Y-71370719D01*
X111663117Y-71324977D01*
X111706723Y-71257917D01*
X111762606Y-71174084D01*
X111827787Y-71078026D01*
X111865679Y-71022850D01*
X111934725Y-70921681D01*
X111996050Y-70829830D01*
X112046663Y-70751944D01*
X112083571Y-70692669D01*
X112103782Y-70656651D01*
X112106701Y-70648577D01*
X112094153Y-70629784D01*
X112059463Y-70589657D01*
X112007063Y-70532693D01*
X111941384Y-70463385D01*
X111866856Y-70386231D01*
X111787913Y-70305725D01*
X111708983Y-70226363D01*
X111634500Y-70152640D01*
X111568894Y-70089052D01*
X111516596Y-70040094D01*
X111482039Y-70010261D01*
X111470478Y-70003142D01*
X111451654Y-70013153D01*
X111406631Y-70041278D01*
X111339787Y-70084654D01*
X111255499Y-70140418D01*
X111158144Y-70205706D01*
X111084707Y-70255446D01*
X110713667Y-70507751D01*
X110095095Y-70252755D01*
X110011275Y-69808131D01*
X109927454Y-69363507D01*
X109002006Y-69363507D01*
X108918186Y-69808131D01*
M02*
