G04 #@! TF.GenerationSoftware,KiCad,Pcbnew,(5.1.5)-3*
G04 #@! TF.CreationDate,2020-04-16T17:00:03+04:00*
G04 #@! TF.ProjectId,drawing,64726177-696e-4672-9e6b-696361645f70,rev?*
G04 #@! TF.SameCoordinates,Original*
G04 #@! TF.FileFunction,Soldermask,Top*
G04 #@! TF.FilePolarity,Negative*
%FSLAX46Y46*%
G04 Gerber Fmt 4.6, Leading zero omitted, Abs format (unit mm)*
G04 Created by KiCad (PCBNEW (5.1.5)-3) date 2020-04-16 17:00:03*
%MOMM*%
%LPD*%
G04 APERTURE LIST*
%ADD10C,0.010000*%
G04 APERTURE END LIST*
D10*
G36*
X115789032Y-93281852D02*
G01*
X115815435Y-93403328D01*
X115817425Y-93462038D01*
X115844436Y-93674051D01*
X115917033Y-93928088D01*
X116025244Y-94202282D01*
X116159098Y-94474767D01*
X116308625Y-94723676D01*
X116463853Y-94927143D01*
X116505942Y-94971948D01*
X116778419Y-95191805D01*
X117081796Y-95333573D01*
X117416516Y-95397286D01*
X117783025Y-95382976D01*
X118181766Y-95290676D01*
X118599014Y-95127008D01*
X118998417Y-94920527D01*
X119351099Y-94687285D01*
X119693440Y-94403618D01*
X119968428Y-94154414D01*
X120346500Y-94154414D01*
X120683270Y-94165170D01*
X120956102Y-94201393D01*
X121183442Y-94269015D01*
X121383734Y-94373966D01*
X121575423Y-94522179D01*
X121621875Y-94564544D01*
X121738643Y-94690989D01*
X121842666Y-94844428D01*
X121938923Y-95036231D01*
X122032397Y-95277770D01*
X122128070Y-95580414D01*
X122230413Y-95953580D01*
X122327380Y-96320132D01*
X122411962Y-96619747D01*
X122491323Y-96867867D01*
X122572626Y-97079935D01*
X122663034Y-97271392D01*
X122769712Y-97457681D01*
X122899822Y-97654243D01*
X123060528Y-97876521D01*
X123222136Y-98091414D01*
X123363746Y-98288579D01*
X123503374Y-98500902D01*
X123621886Y-98698418D01*
X123681674Y-98811080D01*
X123763333Y-98990098D01*
X123810609Y-99132422D01*
X123832574Y-99274023D01*
X123838206Y-99431795D01*
X123835242Y-99600964D01*
X123817972Y-99718042D01*
X123777979Y-99815401D01*
X123711611Y-99918629D01*
X123612359Y-100037461D01*
X123474091Y-100162548D01*
X123289403Y-100298838D01*
X123050893Y-100451279D01*
X122751156Y-100624822D01*
X122382791Y-100824415D01*
X122260768Y-100888557D01*
X121753970Y-101156419D01*
X121320235Y-101392183D01*
X120955317Y-101598267D01*
X120654966Y-101777089D01*
X120414935Y-101931066D01*
X120347740Y-101977187D01*
X120245422Y-102057521D01*
X120094045Y-102188060D01*
X119904290Y-102359014D01*
X119686842Y-102560594D01*
X119452382Y-102783011D01*
X119211594Y-103016475D01*
X119183574Y-103043990D01*
X118864237Y-103355252D01*
X118592958Y-103612613D01*
X118359924Y-103823975D01*
X118155321Y-103997238D01*
X117969336Y-104140304D01*
X117792158Y-104261073D01*
X117613971Y-104367447D01*
X117424965Y-104467328D01*
X117400915Y-104479339D01*
X117095043Y-104621820D01*
X116825125Y-104722556D01*
X116561931Y-104788722D01*
X116276232Y-104827492D01*
X115938800Y-104846037D01*
X115902740Y-104847014D01*
X115675281Y-104849399D01*
X115463847Y-104845572D01*
X115290324Y-104836326D01*
X115176597Y-104822457D01*
X115167172Y-104820312D01*
X114821159Y-104693354D01*
X114484207Y-104493844D01*
X114170242Y-104233754D01*
X113893191Y-103925060D01*
X113666979Y-103579734D01*
X113620812Y-103490731D01*
X113520774Y-103263143D01*
X113455861Y-103046873D01*
X113419865Y-102812320D01*
X113406582Y-102529882D01*
X113406108Y-102466537D01*
X113412973Y-102230330D01*
X113436029Y-101973924D01*
X113477133Y-101687482D01*
X113538138Y-101361170D01*
X113620901Y-100985153D01*
X113727277Y-100549594D01*
X113859121Y-100044658D01*
X113872047Y-99996414D01*
X113986155Y-99568968D01*
X114080104Y-99209164D01*
X114156513Y-98903097D01*
X114217997Y-98636862D01*
X114267174Y-98396554D01*
X114306661Y-98168269D01*
X114339075Y-97938102D01*
X114367033Y-97692149D01*
X114393153Y-97416505D01*
X114420051Y-97097265D01*
X114421829Y-97075414D01*
X114473135Y-96486603D01*
X114525681Y-95974656D01*
X114580913Y-95531771D01*
X114640277Y-95150143D01*
X114705218Y-94821970D01*
X114777183Y-94539451D01*
X114857617Y-94294781D01*
X114947966Y-94080158D01*
X114993915Y-93988113D01*
X115126845Y-93771972D01*
X115288029Y-93565786D01*
X115458105Y-93391511D01*
X115617710Y-93271098D01*
X115634614Y-93261646D01*
X115729718Y-93235677D01*
X115789032Y-93281852D01*
G37*
X115789032Y-93281852D02*
X115815435Y-93403328D01*
X115817425Y-93462038D01*
X115844436Y-93674051D01*
X115917033Y-93928088D01*
X116025244Y-94202282D01*
X116159098Y-94474767D01*
X116308625Y-94723676D01*
X116463853Y-94927143D01*
X116505942Y-94971948D01*
X116778419Y-95191805D01*
X117081796Y-95333573D01*
X117416516Y-95397286D01*
X117783025Y-95382976D01*
X118181766Y-95290676D01*
X118599014Y-95127008D01*
X118998417Y-94920527D01*
X119351099Y-94687285D01*
X119693440Y-94403618D01*
X119968428Y-94154414D01*
X120346500Y-94154414D01*
X120683270Y-94165170D01*
X120956102Y-94201393D01*
X121183442Y-94269015D01*
X121383734Y-94373966D01*
X121575423Y-94522179D01*
X121621875Y-94564544D01*
X121738643Y-94690989D01*
X121842666Y-94844428D01*
X121938923Y-95036231D01*
X122032397Y-95277770D01*
X122128070Y-95580414D01*
X122230413Y-95953580D01*
X122327380Y-96320132D01*
X122411962Y-96619747D01*
X122491323Y-96867867D01*
X122572626Y-97079935D01*
X122663034Y-97271392D01*
X122769712Y-97457681D01*
X122899822Y-97654243D01*
X123060528Y-97876521D01*
X123222136Y-98091414D01*
X123363746Y-98288579D01*
X123503374Y-98500902D01*
X123621886Y-98698418D01*
X123681674Y-98811080D01*
X123763333Y-98990098D01*
X123810609Y-99132422D01*
X123832574Y-99274023D01*
X123838206Y-99431795D01*
X123835242Y-99600964D01*
X123817972Y-99718042D01*
X123777979Y-99815401D01*
X123711611Y-99918629D01*
X123612359Y-100037461D01*
X123474091Y-100162548D01*
X123289403Y-100298838D01*
X123050893Y-100451279D01*
X122751156Y-100624822D01*
X122382791Y-100824415D01*
X122260768Y-100888557D01*
X121753970Y-101156419D01*
X121320235Y-101392183D01*
X120955317Y-101598267D01*
X120654966Y-101777089D01*
X120414935Y-101931066D01*
X120347740Y-101977187D01*
X120245422Y-102057521D01*
X120094045Y-102188060D01*
X119904290Y-102359014D01*
X119686842Y-102560594D01*
X119452382Y-102783011D01*
X119211594Y-103016475D01*
X119183574Y-103043990D01*
X118864237Y-103355252D01*
X118592958Y-103612613D01*
X118359924Y-103823975D01*
X118155321Y-103997238D01*
X117969336Y-104140304D01*
X117792158Y-104261073D01*
X117613971Y-104367447D01*
X117424965Y-104467328D01*
X117400915Y-104479339D01*
X117095043Y-104621820D01*
X116825125Y-104722556D01*
X116561931Y-104788722D01*
X116276232Y-104827492D01*
X115938800Y-104846037D01*
X115902740Y-104847014D01*
X115675281Y-104849399D01*
X115463847Y-104845572D01*
X115290324Y-104836326D01*
X115176597Y-104822457D01*
X115167172Y-104820312D01*
X114821159Y-104693354D01*
X114484207Y-104493844D01*
X114170242Y-104233754D01*
X113893191Y-103925060D01*
X113666979Y-103579734D01*
X113620812Y-103490731D01*
X113520774Y-103263143D01*
X113455861Y-103046873D01*
X113419865Y-102812320D01*
X113406582Y-102529882D01*
X113406108Y-102466537D01*
X113412973Y-102230330D01*
X113436029Y-101973924D01*
X113477133Y-101687482D01*
X113538138Y-101361170D01*
X113620901Y-100985153D01*
X113727277Y-100549594D01*
X113859121Y-100044658D01*
X113872047Y-99996414D01*
X113986155Y-99568968D01*
X114080104Y-99209164D01*
X114156513Y-98903097D01*
X114217997Y-98636862D01*
X114267174Y-98396554D01*
X114306661Y-98168269D01*
X114339075Y-97938102D01*
X114367033Y-97692149D01*
X114393153Y-97416505D01*
X114420051Y-97097265D01*
X114421829Y-97075414D01*
X114473135Y-96486603D01*
X114525681Y-95974656D01*
X114580913Y-95531771D01*
X114640277Y-95150143D01*
X114705218Y-94821970D01*
X114777183Y-94539451D01*
X114857617Y-94294781D01*
X114947966Y-94080158D01*
X114993915Y-93988113D01*
X115126845Y-93771972D01*
X115288029Y-93565786D01*
X115458105Y-93391511D01*
X115617710Y-93271098D01*
X115634614Y-93261646D01*
X115729718Y-93235677D01*
X115789032Y-93281852D01*
G36*
X98906885Y-93248092D02*
G01*
X99114019Y-93278708D01*
X99139946Y-93283989D01*
X99480466Y-93391493D01*
X99807144Y-93570923D01*
X100125348Y-93826104D01*
X100440446Y-94160864D01*
X100537115Y-94279845D01*
X100689387Y-94481077D01*
X100838735Y-94696159D01*
X100991103Y-94935250D01*
X101152437Y-95208510D01*
X101328681Y-95526097D01*
X101525781Y-95898171D01*
X101749682Y-96334889D01*
X101812365Y-96458979D01*
X101997122Y-96823630D01*
X102154448Y-97127367D01*
X102293856Y-97385458D01*
X102424860Y-97613170D01*
X102556973Y-97825770D01*
X102699708Y-98038524D01*
X102862579Y-98266702D01*
X103055098Y-98525569D01*
X103286780Y-98830394D01*
X103304379Y-98853414D01*
X103651373Y-99310691D01*
X103948370Y-99710451D01*
X104199918Y-100059931D01*
X104410563Y-100366369D01*
X104584852Y-100637004D01*
X104727334Y-100879073D01*
X104842555Y-101099816D01*
X104935062Y-101306469D01*
X105009404Y-101506271D01*
X105048114Y-101629026D01*
X105116221Y-101998436D01*
X105114626Y-102387796D01*
X105047883Y-102778908D01*
X104920546Y-103153576D01*
X104737170Y-103493604D01*
X104511913Y-103771272D01*
X104244277Y-103985781D01*
X103912736Y-104165075D01*
X103532149Y-104304996D01*
X103117375Y-104401387D01*
X102683274Y-104450090D01*
X102244705Y-104446946D01*
X102132191Y-104437166D01*
X101604844Y-104353668D01*
X101048686Y-104213242D01*
X100489927Y-104023319D01*
X100107853Y-103863341D01*
X99686905Y-103673724D01*
X99324262Y-103515830D01*
X99004474Y-103385257D01*
X98712092Y-103277604D01*
X98431666Y-103188470D01*
X98147746Y-103113453D01*
X97844881Y-103048152D01*
X97507622Y-102988165D01*
X97120520Y-102929092D01*
X96668123Y-102866530D01*
X96556407Y-102851610D01*
X96050562Y-102781894D01*
X95621596Y-102716474D01*
X95262000Y-102652782D01*
X94964263Y-102588248D01*
X94720877Y-102520304D01*
X94524333Y-102446381D01*
X94367121Y-102363910D01*
X94241732Y-102270323D01*
X94140656Y-102163049D01*
X94056385Y-102039522D01*
X94026288Y-101986080D01*
X93982053Y-101897759D01*
X93953927Y-101816585D01*
X93939457Y-101721848D01*
X93936190Y-101592841D01*
X93941674Y-101408857D01*
X93946063Y-101308747D01*
X93963873Y-101044734D01*
X93994933Y-100810764D01*
X94045485Y-100570340D01*
X94119323Y-100295473D01*
X94198282Y-99986168D01*
X94248531Y-99696434D01*
X94271037Y-99404732D01*
X94266768Y-99089522D01*
X94236692Y-98729266D01*
X94202251Y-98449488D01*
X94172533Y-98184945D01*
X94148282Y-97887040D01*
X94132821Y-97600927D01*
X94129172Y-97456414D01*
X94128466Y-97241040D01*
X94133765Y-97088354D01*
X94148495Y-96976416D01*
X94176078Y-96883287D01*
X94219938Y-96787028D01*
X94239583Y-96748893D01*
X94342790Y-96566589D01*
X94450421Y-96416090D01*
X94575141Y-96288034D01*
X94729613Y-96173058D01*
X94926499Y-96061800D01*
X95178464Y-95944897D01*
X95498170Y-95812985D01*
X95513907Y-95806723D01*
X95823079Y-95682448D01*
X96070865Y-95576318D01*
X96271901Y-95477314D01*
X96440823Y-95374418D01*
X96592266Y-95256613D01*
X96740868Y-95112880D01*
X96901264Y-94932202D01*
X97088090Y-94703559D01*
X97249409Y-94500241D01*
X97532262Y-94149518D01*
X97777290Y-93864708D01*
X97992594Y-93640598D01*
X98186279Y-93471976D01*
X98366447Y-93353627D01*
X98541202Y-93280338D01*
X98718647Y-93246898D01*
X98906885Y-93248092D01*
G37*
X98906885Y-93248092D02*
X99114019Y-93278708D01*
X99139946Y-93283989D01*
X99480466Y-93391493D01*
X99807144Y-93570923D01*
X100125348Y-93826104D01*
X100440446Y-94160864D01*
X100537115Y-94279845D01*
X100689387Y-94481077D01*
X100838735Y-94696159D01*
X100991103Y-94935250D01*
X101152437Y-95208510D01*
X101328681Y-95526097D01*
X101525781Y-95898171D01*
X101749682Y-96334889D01*
X101812365Y-96458979D01*
X101997122Y-96823630D01*
X102154448Y-97127367D01*
X102293856Y-97385458D01*
X102424860Y-97613170D01*
X102556973Y-97825770D01*
X102699708Y-98038524D01*
X102862579Y-98266702D01*
X103055098Y-98525569D01*
X103286780Y-98830394D01*
X103304379Y-98853414D01*
X103651373Y-99310691D01*
X103948370Y-99710451D01*
X104199918Y-100059931D01*
X104410563Y-100366369D01*
X104584852Y-100637004D01*
X104727334Y-100879073D01*
X104842555Y-101099816D01*
X104935062Y-101306469D01*
X105009404Y-101506271D01*
X105048114Y-101629026D01*
X105116221Y-101998436D01*
X105114626Y-102387796D01*
X105047883Y-102778908D01*
X104920546Y-103153576D01*
X104737170Y-103493604D01*
X104511913Y-103771272D01*
X104244277Y-103985781D01*
X103912736Y-104165075D01*
X103532149Y-104304996D01*
X103117375Y-104401387D01*
X102683274Y-104450090D01*
X102244705Y-104446946D01*
X102132191Y-104437166D01*
X101604844Y-104353668D01*
X101048686Y-104213242D01*
X100489927Y-104023319D01*
X100107853Y-103863341D01*
X99686905Y-103673724D01*
X99324262Y-103515830D01*
X99004474Y-103385257D01*
X98712092Y-103277604D01*
X98431666Y-103188470D01*
X98147746Y-103113453D01*
X97844881Y-103048152D01*
X97507622Y-102988165D01*
X97120520Y-102929092D01*
X96668123Y-102866530D01*
X96556407Y-102851610D01*
X96050562Y-102781894D01*
X95621596Y-102716474D01*
X95262000Y-102652782D01*
X94964263Y-102588248D01*
X94720877Y-102520304D01*
X94524333Y-102446381D01*
X94367121Y-102363910D01*
X94241732Y-102270323D01*
X94140656Y-102163049D01*
X94056385Y-102039522D01*
X94026288Y-101986080D01*
X93982053Y-101897759D01*
X93953927Y-101816585D01*
X93939457Y-101721848D01*
X93936190Y-101592841D01*
X93941674Y-101408857D01*
X93946063Y-101308747D01*
X93963873Y-101044734D01*
X93994933Y-100810764D01*
X94045485Y-100570340D01*
X94119323Y-100295473D01*
X94198282Y-99986168D01*
X94248531Y-99696434D01*
X94271037Y-99404732D01*
X94266768Y-99089522D01*
X94236692Y-98729266D01*
X94202251Y-98449488D01*
X94172533Y-98184945D01*
X94148282Y-97887040D01*
X94132821Y-97600927D01*
X94129172Y-97456414D01*
X94128466Y-97241040D01*
X94133765Y-97088354D01*
X94148495Y-96976416D01*
X94176078Y-96883287D01*
X94219938Y-96787028D01*
X94239583Y-96748893D01*
X94342790Y-96566589D01*
X94450421Y-96416090D01*
X94575141Y-96288034D01*
X94729613Y-96173058D01*
X94926499Y-96061800D01*
X95178464Y-95944897D01*
X95498170Y-95812985D01*
X95513907Y-95806723D01*
X95823079Y-95682448D01*
X96070865Y-95576318D01*
X96271901Y-95477314D01*
X96440823Y-95374418D01*
X96592266Y-95256613D01*
X96740868Y-95112880D01*
X96901264Y-94932202D01*
X97088090Y-94703559D01*
X97249409Y-94500241D01*
X97532262Y-94149518D01*
X97777290Y-93864708D01*
X97992594Y-93640598D01*
X98186279Y-93471976D01*
X98366447Y-93353627D01*
X98541202Y-93280338D01*
X98718647Y-93246898D01*
X98906885Y-93248092D01*
G36*
X108273390Y-75449452D02*
G01*
X108508684Y-75481343D01*
X108741887Y-75538994D01*
X108988778Y-75627642D01*
X109265135Y-75752525D01*
X109586735Y-75918883D01*
X109767456Y-76018150D01*
X110002442Y-76141083D01*
X110282763Y-76275512D01*
X110573696Y-76405387D01*
X110840515Y-76514655D01*
X110846956Y-76517130D01*
X111181906Y-76648529D01*
X111448002Y-76760353D01*
X111657144Y-76858470D01*
X111821233Y-76948747D01*
X111952168Y-77037054D01*
X112030171Y-77100577D01*
X112207855Y-77299535D01*
X112310985Y-77525395D01*
X112346594Y-77794024D01*
X112346740Y-77814725D01*
X112311249Y-78093758D01*
X112202076Y-78362202D01*
X112015176Y-78628355D01*
X111877536Y-78777018D01*
X111693576Y-78946209D01*
X111497205Y-79094245D01*
X111270067Y-79232565D01*
X110993803Y-79372608D01*
X110733550Y-79489901D01*
X110524693Y-79587857D01*
X110275663Y-79715846D01*
X110017137Y-79857545D01*
X109779794Y-79996635D01*
X109771563Y-80001676D01*
X109419803Y-80209140D01*
X109118389Y-80367393D01*
X108853496Y-80482455D01*
X108611298Y-80560347D01*
X108383173Y-80606346D01*
X108088997Y-80639030D01*
X107841213Y-80641366D01*
X107606738Y-80612200D01*
X107436074Y-80573275D01*
X107243510Y-80513514D01*
X107062112Y-80434141D01*
X106876152Y-80325539D01*
X106669902Y-80178087D01*
X106427634Y-79982166D01*
X106320544Y-79891018D01*
X106121692Y-79725330D01*
X105906869Y-79555028D01*
X105703285Y-79401241D01*
X105552240Y-79294469D01*
X105188963Y-79022460D01*
X104906237Y-78748052D01*
X104705105Y-78472644D01*
X104586608Y-78197634D01*
X104551482Y-77952840D01*
X104553728Y-77866664D01*
X104981151Y-77866664D01*
X104990527Y-77940761D01*
X105026014Y-78014050D01*
X105099365Y-78102499D01*
X105222331Y-78222073D01*
X105284976Y-78279414D01*
X105631464Y-78583748D01*
X105938813Y-78829972D01*
X106220647Y-79026193D01*
X106490585Y-79180519D01*
X106762249Y-79301059D01*
X107049260Y-79395921D01*
X107245574Y-79446497D01*
X107534276Y-79486361D01*
X107870341Y-79486790D01*
X108227102Y-79449437D01*
X108577892Y-79375953D01*
X108632936Y-79360589D01*
X108853378Y-79288357D01*
X109093635Y-79192469D01*
X109363352Y-79068189D01*
X109672175Y-78910782D01*
X110029750Y-78715514D01*
X110445722Y-78477648D01*
X110521790Y-78433305D01*
X110753408Y-78299938D01*
X110972954Y-78177125D01*
X111164981Y-78073239D01*
X111314039Y-77996647D01*
X111400207Y-77957385D01*
X111515516Y-77905717D01*
X111569928Y-77852762D01*
X111584636Y-77776500D01*
X111584740Y-77765662D01*
X111572081Y-77679007D01*
X111542861Y-77644414D01*
X111442922Y-77666135D01*
X111281127Y-77731909D01*
X111055654Y-77842646D01*
X110764683Y-77999258D01*
X110406393Y-78202658D01*
X110272407Y-78280592D01*
X109841624Y-78527568D01*
X109468961Y-78729293D01*
X109143673Y-78889768D01*
X108855012Y-79012991D01*
X108592229Y-79102963D01*
X108344579Y-79163683D01*
X108101313Y-79199150D01*
X107851684Y-79213364D01*
X107764051Y-79214068D01*
X107432685Y-79199895D01*
X107148558Y-79154121D01*
X106877679Y-79069029D01*
X106621791Y-78954765D01*
X106457260Y-78868893D01*
X106304086Y-78777322D01*
X106147573Y-78669300D01*
X105973025Y-78534076D01*
X105765746Y-78360895D01*
X105531692Y-78157206D01*
X105361395Y-78009025D01*
X105212815Y-77883077D01*
X105097695Y-77789057D01*
X105027779Y-77736660D01*
X105013109Y-77729080D01*
X104991181Y-77766121D01*
X104981211Y-77856333D01*
X104981151Y-77866664D01*
X104553728Y-77866664D01*
X104555002Y-77817817D01*
X104572519Y-77703159D01*
X104612049Y-77598540D01*
X104681603Y-77493635D01*
X104789198Y-77378116D01*
X104942847Y-77241659D01*
X105150563Y-77073938D01*
X105359966Y-76911149D01*
X105581324Y-76736240D01*
X105829363Y-76533611D01*
X106069614Y-76331716D01*
X106223374Y-76198407D01*
X106573025Y-75914825D01*
X106903734Y-75703083D01*
X107229775Y-75557143D01*
X107565420Y-75470965D01*
X107924942Y-75438510D01*
X108020226Y-75438082D01*
X108273390Y-75449452D01*
G37*
X108273390Y-75449452D02*
X108508684Y-75481343D01*
X108741887Y-75538994D01*
X108988778Y-75627642D01*
X109265135Y-75752525D01*
X109586735Y-75918883D01*
X109767456Y-76018150D01*
X110002442Y-76141083D01*
X110282763Y-76275512D01*
X110573696Y-76405387D01*
X110840515Y-76514655D01*
X110846956Y-76517130D01*
X111181906Y-76648529D01*
X111448002Y-76760353D01*
X111657144Y-76858470D01*
X111821233Y-76948747D01*
X111952168Y-77037054D01*
X112030171Y-77100577D01*
X112207855Y-77299535D01*
X112310985Y-77525395D01*
X112346594Y-77794024D01*
X112346740Y-77814725D01*
X112311249Y-78093758D01*
X112202076Y-78362202D01*
X112015176Y-78628355D01*
X111877536Y-78777018D01*
X111693576Y-78946209D01*
X111497205Y-79094245D01*
X111270067Y-79232565D01*
X110993803Y-79372608D01*
X110733550Y-79489901D01*
X110524693Y-79587857D01*
X110275663Y-79715846D01*
X110017137Y-79857545D01*
X109779794Y-79996635D01*
X109771563Y-80001676D01*
X109419803Y-80209140D01*
X109118389Y-80367393D01*
X108853496Y-80482455D01*
X108611298Y-80560347D01*
X108383173Y-80606346D01*
X108088997Y-80639030D01*
X107841213Y-80641366D01*
X107606738Y-80612200D01*
X107436074Y-80573275D01*
X107243510Y-80513514D01*
X107062112Y-80434141D01*
X106876152Y-80325539D01*
X106669902Y-80178087D01*
X106427634Y-79982166D01*
X106320544Y-79891018D01*
X106121692Y-79725330D01*
X105906869Y-79555028D01*
X105703285Y-79401241D01*
X105552240Y-79294469D01*
X105188963Y-79022460D01*
X104906237Y-78748052D01*
X104705105Y-78472644D01*
X104586608Y-78197634D01*
X104551482Y-77952840D01*
X104553728Y-77866664D01*
X104981151Y-77866664D01*
X104990527Y-77940761D01*
X105026014Y-78014050D01*
X105099365Y-78102499D01*
X105222331Y-78222073D01*
X105284976Y-78279414D01*
X105631464Y-78583748D01*
X105938813Y-78829972D01*
X106220647Y-79026193D01*
X106490585Y-79180519D01*
X106762249Y-79301059D01*
X107049260Y-79395921D01*
X107245574Y-79446497D01*
X107534276Y-79486361D01*
X107870341Y-79486790D01*
X108227102Y-79449437D01*
X108577892Y-79375953D01*
X108632936Y-79360589D01*
X108853378Y-79288357D01*
X109093635Y-79192469D01*
X109363352Y-79068189D01*
X109672175Y-78910782D01*
X110029750Y-78715514D01*
X110445722Y-78477648D01*
X110521790Y-78433305D01*
X110753408Y-78299938D01*
X110972954Y-78177125D01*
X111164981Y-78073239D01*
X111314039Y-77996647D01*
X111400207Y-77957385D01*
X111515516Y-77905717D01*
X111569928Y-77852762D01*
X111584636Y-77776500D01*
X111584740Y-77765662D01*
X111572081Y-77679007D01*
X111542861Y-77644414D01*
X111442922Y-77666135D01*
X111281127Y-77731909D01*
X111055654Y-77842646D01*
X110764683Y-77999258D01*
X110406393Y-78202658D01*
X110272407Y-78280592D01*
X109841624Y-78527568D01*
X109468961Y-78729293D01*
X109143673Y-78889768D01*
X108855012Y-79012991D01*
X108592229Y-79102963D01*
X108344579Y-79163683D01*
X108101313Y-79199150D01*
X107851684Y-79213364D01*
X107764051Y-79214068D01*
X107432685Y-79199895D01*
X107148558Y-79154121D01*
X106877679Y-79069029D01*
X106621791Y-78954765D01*
X106457260Y-78868893D01*
X106304086Y-78777322D01*
X106147573Y-78669300D01*
X105973025Y-78534076D01*
X105765746Y-78360895D01*
X105531692Y-78157206D01*
X105361395Y-78009025D01*
X105212815Y-77883077D01*
X105097695Y-77789057D01*
X105027779Y-77736660D01*
X105013109Y-77729080D01*
X104991181Y-77766121D01*
X104981211Y-77856333D01*
X104981151Y-77866664D01*
X104553728Y-77866664D01*
X104555002Y-77817817D01*
X104572519Y-77703159D01*
X104612049Y-77598540D01*
X104681603Y-77493635D01*
X104789198Y-77378116D01*
X104942847Y-77241659D01*
X105150563Y-77073938D01*
X105359966Y-76911149D01*
X105581324Y-76736240D01*
X105829363Y-76533611D01*
X106069614Y-76331716D01*
X106223374Y-76198407D01*
X106573025Y-75914825D01*
X106903734Y-75703083D01*
X107229775Y-75557143D01*
X107565420Y-75470965D01*
X107924942Y-75438510D01*
X108020226Y-75438082D01*
X108273390Y-75449452D01*
M02*
