G04 #@! TF.GenerationSoftware,KiCad,Pcbnew,(5.1.5)-3*
G04 #@! TF.CreationDate,2020-04-16T17:00:03+04:00*
G04 #@! TF.ProjectId,drawing,64726177-696e-4672-9e6b-696361645f70,rev?*
G04 #@! TF.SameCoordinates,Original*
G04 #@! TF.FileFunction,Legend,Top*
G04 #@! TF.FilePolarity,Positive*
%FSLAX46Y46*%
G04 Gerber Fmt 4.6, Leading zero omitted, Abs format (unit mm)*
G04 Created by KiCad (PCBNEW (5.1.5)-3) date 2020-04-16 17:00:03*
%MOMM*%
%LPD*%
G04 APERTURE LIST*
%ADD10C,0.010000*%
G04 APERTURE END LIST*
D10*
G36*
X110323467Y-67074493D02*
G01*
X110908213Y-67150641D01*
X111444008Y-67271753D01*
X111642401Y-67332940D01*
X112213394Y-67565667D01*
X112733303Y-67863688D01*
X113202697Y-68227708D01*
X113622142Y-68658430D01*
X113992207Y-69156559D01*
X114313458Y-69722798D01*
X114586462Y-70357850D01*
X114811788Y-71062420D01*
X114887274Y-71357914D01*
X114956094Y-71661155D01*
X115015787Y-71960313D01*
X115067117Y-72264404D01*
X115110844Y-72582445D01*
X115147730Y-72923452D01*
X115178537Y-73296441D01*
X115204025Y-73710429D01*
X115224957Y-74174432D01*
X115242094Y-74697466D01*
X115256197Y-75288548D01*
X115266273Y-75845247D01*
X115273911Y-76313556D01*
X115280772Y-76705796D01*
X115287351Y-77030554D01*
X115294143Y-77296418D01*
X115301644Y-77511975D01*
X115310347Y-77685814D01*
X115320748Y-77826521D01*
X115333342Y-77942685D01*
X115348624Y-78042893D01*
X115367089Y-78135733D01*
X115389231Y-78229792D01*
X115407995Y-78304131D01*
X115494515Y-78616895D01*
X115593171Y-78919190D01*
X115707968Y-79217651D01*
X115842910Y-79518918D01*
X116002003Y-79829628D01*
X116189252Y-80156417D01*
X116408662Y-80505924D01*
X116664238Y-80884785D01*
X116959986Y-81299639D01*
X117299910Y-81757122D01*
X117688016Y-82263873D01*
X118128309Y-82826528D01*
X118164663Y-82872580D01*
X118880991Y-83822824D01*
X119515944Y-84757367D01*
X120070813Y-85678813D01*
X120546887Y-86589770D01*
X120945457Y-87492842D01*
X121267811Y-88390637D01*
X121515239Y-89285760D01*
X121642366Y-89899914D01*
X121677831Y-90156677D01*
X121705656Y-90474757D01*
X121725217Y-90831093D01*
X121735888Y-91202626D01*
X121737046Y-91566295D01*
X121728066Y-91899043D01*
X121708323Y-92177808D01*
X121704919Y-92209004D01*
X121652005Y-92586537D01*
X121580605Y-92974973D01*
X121497717Y-93339116D01*
X121435260Y-93565162D01*
X121376341Y-93759077D01*
X121567751Y-93860620D01*
X121701304Y-93944319D01*
X121857829Y-94060812D01*
X121984883Y-94168460D01*
X122128949Y-94317712D01*
X122255966Y-94490800D01*
X122370741Y-94698494D01*
X122478076Y-94951559D01*
X122582777Y-95260763D01*
X122689649Y-95636874D01*
X122756373Y-95897359D01*
X122826018Y-96168025D01*
X122896811Y-96425834D01*
X122963709Y-96653661D01*
X123021675Y-96834386D01*
X123065668Y-96950884D01*
X123067862Y-96955692D01*
X123137716Y-97080611D01*
X123246939Y-97246572D01*
X123379655Y-97430458D01*
X123498937Y-97583414D01*
X123797117Y-97972794D01*
X124028105Y-98325879D01*
X124196175Y-98651773D01*
X124305601Y-98959580D01*
X124360659Y-99258403D01*
X124369373Y-99437423D01*
X124363151Y-99632387D01*
X124339023Y-99782608D01*
X124288730Y-99927458D01*
X124247651Y-100017580D01*
X124084677Y-100279369D01*
X123854321Y-100536131D01*
X123572940Y-100770357D01*
X123491774Y-100826513D01*
X123391762Y-100887465D01*
X123229892Y-100979629D01*
X123019660Y-101095614D01*
X122774564Y-101228031D01*
X122508098Y-101369489D01*
X122327607Y-101463941D01*
X121878583Y-101699531D01*
X121496903Y-101905000D01*
X121173385Y-102086442D01*
X120898842Y-102249950D01*
X120664090Y-102401619D01*
X120459945Y-102547542D01*
X120277221Y-102693815D01*
X120106734Y-102846531D01*
X119939299Y-103011785D01*
X119843140Y-103112398D01*
X119515130Y-103458225D01*
X119232558Y-103748189D01*
X118985785Y-103990730D01*
X118765172Y-104194289D01*
X118561079Y-104367304D01*
X118363866Y-104518217D01*
X118163896Y-104655468D01*
X117951527Y-104787496D01*
X117885660Y-104826354D01*
X117447517Y-105057077D01*
X117026569Y-105222384D01*
X116597001Y-105329791D01*
X116133002Y-105386812D01*
X115923907Y-105397469D01*
X115668564Y-105403216D01*
X115473483Y-105399776D01*
X115314580Y-105385353D01*
X115167775Y-105358154D01*
X115071850Y-105333973D01*
X114620072Y-105170938D01*
X114200063Y-104938957D01*
X113825689Y-104647279D01*
X113510818Y-104305151D01*
X113491912Y-104280282D01*
X113363225Y-104093190D01*
X113234210Y-103878914D01*
X113117350Y-103660846D01*
X113025129Y-103462378D01*
X112970030Y-103306902D01*
X112967929Y-103298414D01*
X112955178Y-103254948D01*
X112931796Y-103225151D01*
X112883480Y-103206144D01*
X112795923Y-103195049D01*
X112654818Y-103188986D01*
X112445862Y-103185079D01*
X112401318Y-103184403D01*
X112209882Y-103180533D01*
X112033668Y-103174212D01*
X111859656Y-103164153D01*
X111674825Y-103149071D01*
X111466154Y-103127680D01*
X111220624Y-103098693D01*
X110925214Y-103060825D01*
X110566904Y-103012790D01*
X110314740Y-102978339D01*
X109984320Y-102936105D01*
X109682573Y-102905603D01*
X109397398Y-102887549D01*
X109116696Y-102882659D01*
X108828363Y-102891649D01*
X108520301Y-102915234D01*
X108180408Y-102954129D01*
X107796583Y-103009050D01*
X107356724Y-103080713D01*
X106848732Y-103169834D01*
X106737574Y-103189873D01*
X106466123Y-103237932D01*
X106204013Y-103282439D01*
X105970100Y-103320333D01*
X105783239Y-103348551D01*
X105669238Y-103363320D01*
X105405236Y-103391258D01*
X105258280Y-103633173D01*
X104978634Y-104018035D01*
X104646133Y-104338027D01*
X104259407Y-104594035D01*
X103817088Y-104786946D01*
X103317809Y-104917647D01*
X103259967Y-104928157D01*
X102706883Y-104985823D01*
X102125768Y-104970279D01*
X101514503Y-104881100D01*
X100870972Y-104717857D01*
X100193054Y-104480126D01*
X99478632Y-104167480D01*
X99477407Y-104166894D01*
X99180861Y-104028167D01*
X98914146Y-103911476D01*
X98663998Y-103813360D01*
X98417155Y-103730355D01*
X98160356Y-103659001D01*
X97880338Y-103595835D01*
X97563839Y-103537395D01*
X97197596Y-103480220D01*
X96768347Y-103420847D01*
X96471740Y-103382307D01*
X95996956Y-103319639D01*
X95596775Y-103261801D01*
X95261440Y-103206401D01*
X94981196Y-103151043D01*
X94746289Y-103093333D01*
X94546961Y-103030876D01*
X94373459Y-102961278D01*
X94216026Y-102882144D01*
X94066068Y-102791831D01*
X93799799Y-102573074D01*
X93600569Y-102304138D01*
X93468324Y-101984710D01*
X93403016Y-101614473D01*
X93403166Y-101574270D01*
X93941404Y-101574270D01*
X93981091Y-101819412D01*
X94068714Y-102021696D01*
X94209419Y-102197612D01*
X94244416Y-102231114D01*
X94354344Y-102322242D01*
X94477788Y-102401608D01*
X94623419Y-102471471D01*
X94799907Y-102534091D01*
X95015922Y-102591728D01*
X95280135Y-102646641D01*
X95601217Y-102701090D01*
X95987837Y-102757334D01*
X96448666Y-102817634D01*
X96537796Y-102828797D01*
X97032356Y-102892882D01*
X97455951Y-102954228D01*
X97822061Y-103016255D01*
X98144162Y-103082386D01*
X98435733Y-103156042D01*
X98710252Y-103240643D01*
X98981198Y-103339611D01*
X99262047Y-103456367D01*
X99566278Y-103594333D01*
X99581219Y-103601322D01*
X100010733Y-103798349D01*
X100382057Y-103958698D01*
X100710489Y-104087736D01*
X101011328Y-104190829D01*
X101299873Y-104273344D01*
X101591423Y-104340648D01*
X101805740Y-104381627D01*
X102037328Y-104409462D01*
X102316639Y-104422660D01*
X102618281Y-104421944D01*
X102916863Y-104408039D01*
X103186993Y-104381666D01*
X103403281Y-104343550D01*
X103435574Y-104335211D01*
X103866450Y-104178897D01*
X104236845Y-103965878D01*
X104544525Y-103698401D01*
X104787258Y-103378715D01*
X104962812Y-103009068D01*
X105046392Y-102713099D01*
X105075750Y-102537551D01*
X113413028Y-102537551D01*
X113433495Y-102812742D01*
X113481909Y-103063840D01*
X113557696Y-103298604D01*
X113645949Y-103496597D01*
X113888948Y-103900718D01*
X114179485Y-104235310D01*
X114520374Y-104502735D01*
X114914427Y-104705353D01*
X115204240Y-104804513D01*
X115418836Y-104842813D01*
X115688655Y-104857259D01*
X115988110Y-104849253D01*
X116291612Y-104820200D01*
X116573574Y-104771502D01*
X116768230Y-104718745D01*
X117337139Y-104484477D01*
X117883444Y-104171310D01*
X118400970Y-103783403D01*
X118883540Y-103324915D01*
X118958154Y-103244117D01*
X119260820Y-102915799D01*
X119534638Y-102633154D01*
X119791989Y-102387060D01*
X120045255Y-102168394D01*
X120306816Y-101968035D01*
X120589055Y-101776861D01*
X120904352Y-101585750D01*
X121265088Y-101385579D01*
X121683646Y-101167227D01*
X121980974Y-101017038D01*
X122420300Y-100792245D01*
X122786950Y-100593205D01*
X123087242Y-100415198D01*
X123327491Y-100253504D01*
X123514015Y-100103403D01*
X123653131Y-99960176D01*
X123751155Y-99819103D01*
X123814404Y-99675462D01*
X123825460Y-99638827D01*
X123845706Y-99414337D01*
X123794968Y-99148619D01*
X123674532Y-98844553D01*
X123485683Y-98505018D01*
X123229709Y-98132892D01*
X123049092Y-97900914D01*
X122816570Y-97593032D01*
X122637392Y-97302174D01*
X122498083Y-97000650D01*
X122385166Y-96660772D01*
X122317630Y-96398080D01*
X122213468Y-95968704D01*
X122119493Y-95613501D01*
X122031774Y-95323162D01*
X121946379Y-95088378D01*
X121859376Y-94899843D01*
X121766835Y-94748246D01*
X121664824Y-94624279D01*
X121549410Y-94518634D01*
X121511237Y-94488860D01*
X121324457Y-94363013D01*
X121137694Y-94274333D01*
X120928072Y-94215756D01*
X120672712Y-94180216D01*
X120465032Y-94165795D01*
X120010824Y-94142506D01*
X119717964Y-94418776D01*
X119378112Y-94700664D01*
X118987015Y-94960455D01*
X118578086Y-95177103D01*
X118379609Y-95261802D01*
X118032316Y-95366873D01*
X117679369Y-95418604D01*
X117341970Y-95415852D01*
X117041318Y-95357471D01*
X116982552Y-95337177D01*
X116718754Y-95195189D01*
X116471434Y-94980263D01*
X116249035Y-94703742D01*
X116060005Y-94376975D01*
X115912787Y-94011306D01*
X115860596Y-93829845D01*
X115820279Y-93653053D01*
X115790445Y-93490282D01*
X115776715Y-93372870D01*
X115776390Y-93360664D01*
X115764981Y-93267001D01*
X115738065Y-93223470D01*
X115734993Y-93223080D01*
X115660081Y-93254235D01*
X115550265Y-93337160D01*
X115421643Y-93456044D01*
X115290314Y-93595079D01*
X115172379Y-93738455D01*
X115094778Y-93851781D01*
X114975878Y-94071022D01*
X114872150Y-94311513D01*
X114781965Y-94581427D01*
X114703697Y-94888934D01*
X114635718Y-95242206D01*
X114576401Y-95649416D01*
X114524119Y-96118734D01*
X114477244Y-96658333D01*
X114444414Y-97117747D01*
X114420118Y-97454681D01*
X114393204Y-97752305D01*
X114360774Y-98025927D01*
X114319934Y-98290855D01*
X114267787Y-98562397D01*
X114201437Y-98855860D01*
X114117989Y-99186553D01*
X114014547Y-99569784D01*
X113909366Y-99946044D01*
X113750059Y-100528699D01*
X113622152Y-101040715D01*
X113525071Y-101489851D01*
X113458241Y-101883864D01*
X113421085Y-102230511D01*
X113413028Y-102537551D01*
X105075750Y-102537551D01*
X105090074Y-102451907D01*
X105105823Y-102198386D01*
X105090639Y-101945789D01*
X105041518Y-101687366D01*
X104955461Y-101416371D01*
X104829465Y-101126054D01*
X104660528Y-100809667D01*
X104445650Y-100460462D01*
X104181828Y-100071691D01*
X103866062Y-99636605D01*
X103495349Y-99148456D01*
X103414386Y-99043914D01*
X103153223Y-98706188D01*
X102935895Y-98420232D01*
X102753369Y-98171687D01*
X102596612Y-97946192D01*
X102456588Y-97729387D01*
X102324266Y-97506913D01*
X102190611Y-97264408D01*
X102046588Y-96987513D01*
X101883165Y-96661867D01*
X101763240Y-96419247D01*
X101504491Y-95904244D01*
X101270145Y-95460348D01*
X101055150Y-95079288D01*
X100854456Y-94752794D01*
X100663009Y-94472596D01*
X100475758Y-94230422D01*
X100312894Y-94044828D01*
X100011343Y-93752734D01*
X99718682Y-93535737D01*
X99424126Y-93386584D01*
X99246760Y-93327923D01*
X98980424Y-93276128D01*
X98733413Y-93274351D01*
X98498355Y-93326886D01*
X98267875Y-93438025D01*
X98034601Y-93612059D01*
X97791160Y-93853281D01*
X97530178Y-94165983D01*
X97317959Y-94450747D01*
X97045892Y-94811243D01*
X96800796Y-95096661D01*
X96579061Y-95310874D01*
X96381723Y-95454988D01*
X96255193Y-95521670D01*
X96071993Y-95606502D01*
X95855234Y-95699283D01*
X95628024Y-95789809D01*
X95594001Y-95802740D01*
X95378776Y-95885286D01*
X95181112Y-95963504D01*
X95020070Y-96029684D01*
X94914710Y-96076117D01*
X94899546Y-96083611D01*
X94687661Y-96228187D01*
X94485419Y-96428139D01*
X94318509Y-96655713D01*
X94249609Y-96785850D01*
X94193013Y-96922775D01*
X94158572Y-97044092D01*
X94141325Y-97179059D01*
X94136309Y-97356932D01*
X94136661Y-97451936D01*
X94144993Y-97658029D01*
X94165041Y-97914095D01*
X94193748Y-98186740D01*
X94226165Y-98430080D01*
X94259631Y-98681081D01*
X94286977Y-98940777D01*
X94305366Y-99178360D01*
X94311961Y-99361414D01*
X94310118Y-99506187D01*
X94302542Y-99633108D01*
X94285860Y-99759257D01*
X94256699Y-99901712D01*
X94211686Y-100077555D01*
X94147449Y-100303863D01*
X94082074Y-100525580D01*
X94024731Y-100753154D01*
X93976762Y-101006132D01*
X93947107Y-101236148D01*
X93944510Y-101269781D01*
X93941404Y-101574270D01*
X93403166Y-101574270D01*
X93404594Y-101193113D01*
X93473007Y-100720316D01*
X93608204Y-100195766D01*
X93635210Y-100109571D01*
X93698363Y-99886621D01*
X93739608Y-99670158D01*
X93759319Y-99443564D01*
X93757873Y-99190220D01*
X93735643Y-98893507D01*
X93693003Y-98536807D01*
X93673794Y-98398002D01*
X93623821Y-97981485D01*
X93600937Y-97616660D01*
X93602091Y-97306668D01*
X93612427Y-97087990D01*
X93628384Y-96927597D01*
X93655239Y-96799107D01*
X93698271Y-96676140D01*
X93752791Y-96553515D01*
X93912712Y-96261171D01*
X94102023Y-96015615D01*
X94333182Y-95806412D01*
X94618647Y-95623129D01*
X94970876Y-95455329D01*
X95148864Y-95384231D01*
X95525553Y-95235597D01*
X95827294Y-95105318D01*
X96061030Y-94990242D01*
X96210788Y-94902443D01*
X96283634Y-94837857D01*
X96394155Y-94718423D01*
X96530481Y-94557947D01*
X96680743Y-94370238D01*
X96781077Y-94239080D01*
X96938022Y-94032536D01*
X97091405Y-93835134D01*
X97228199Y-93663325D01*
X97335380Y-93533559D01*
X97379194Y-93483660D01*
X97548237Y-93299740D01*
X97552506Y-92298327D01*
X97554756Y-91965244D01*
X97559186Y-91699529D01*
X97567074Y-91483885D01*
X97579702Y-91301018D01*
X97598351Y-91133632D01*
X97624300Y-90964432D01*
X97658830Y-90776123D01*
X97669122Y-90723174D01*
X97739892Y-90425290D01*
X99895384Y-90425290D01*
X99895392Y-90429080D01*
X99899181Y-90699702D01*
X99911354Y-90915041D01*
X99935121Y-91104323D01*
X99973694Y-91296774D01*
X100004675Y-91423553D01*
X100133380Y-91848822D01*
X100295485Y-92234247D01*
X100498580Y-92589440D01*
X100750257Y-92924014D01*
X101058106Y-93247581D01*
X101429718Y-93569752D01*
X101872683Y-93900139D01*
X102064717Y-94032146D01*
X102729350Y-94500708D01*
X103312956Y-94956219D01*
X103817786Y-95400924D01*
X104246087Y-95837064D01*
X104600107Y-96266884D01*
X104882095Y-96692625D01*
X105045521Y-97005949D01*
X105181564Y-97368772D01*
X105245510Y-97705513D01*
X105239609Y-98010854D01*
X105166110Y-98279478D01*
X105027263Y-98506067D01*
X104825317Y-98685305D01*
X104562521Y-98811873D01*
X104253123Y-98879117D01*
X104012339Y-98906785D01*
X104320265Y-99314016D01*
X104467363Y-99511991D01*
X104619828Y-99722905D01*
X104756462Y-99917168D01*
X104831264Y-100027292D01*
X104960095Y-100206736D01*
X105084780Y-100339519D01*
X105236385Y-100455977D01*
X105335621Y-100519814D01*
X105982962Y-100872584D01*
X106653230Y-101144608D01*
X107343129Y-101335124D01*
X108049360Y-101443368D01*
X108768625Y-101468577D01*
X109291749Y-101434987D01*
X110024347Y-101321982D01*
X110740787Y-101137354D01*
X111453679Y-100877295D01*
X112050407Y-100602092D01*
X112295426Y-100474567D01*
X112547469Y-100336163D01*
X112781579Y-100201041D01*
X112972803Y-100083363D01*
X113024074Y-100049532D01*
X113186119Y-99938497D01*
X113293332Y-99856689D01*
X113361003Y-99785883D01*
X113404421Y-99707858D01*
X113438875Y-99604389D01*
X113459349Y-99530747D01*
X113573599Y-99106618D01*
X113665561Y-98743903D01*
X113738454Y-98423282D01*
X113795496Y-98125436D01*
X113839906Y-97831045D01*
X113874904Y-97520789D01*
X113903706Y-97175350D01*
X113929533Y-96775406D01*
X113935415Y-96673247D01*
X113962248Y-96307154D01*
X114001373Y-95919477D01*
X114049927Y-95530887D01*
X114105043Y-95162058D01*
X114163859Y-94833660D01*
X114223508Y-94566367D01*
X114231651Y-94535414D01*
X114396950Y-94038810D01*
X114606962Y-93607912D01*
X114859922Y-93245271D01*
X115154065Y-92953438D01*
X115471500Y-92743337D01*
X115760129Y-92591667D01*
X115808645Y-92330788D01*
X115906739Y-91989267D01*
X116062316Y-91708850D01*
X116274714Y-91490538D01*
X116431907Y-91388286D01*
X116516437Y-91348333D01*
X116606651Y-91321976D01*
X116722268Y-91306598D01*
X116883008Y-91299578D01*
X117108589Y-91298296D01*
X117109240Y-91298298D01*
X117338830Y-91301030D01*
X117512231Y-91310688D01*
X117657884Y-91331648D01*
X117804230Y-91368289D01*
X117979708Y-91424985D01*
X118018026Y-91438157D01*
X118465472Y-91608966D01*
X118883249Y-91800143D01*
X119262723Y-92005998D01*
X119595256Y-92220842D01*
X119872212Y-92438983D01*
X120084954Y-92654731D01*
X120224847Y-92862395D01*
X120244441Y-92905116D01*
X120277142Y-93026817D01*
X120299269Y-93192301D01*
X120305407Y-93327554D01*
X120305407Y-93604080D01*
X120429813Y-93604080D01*
X120507062Y-93596725D01*
X120549071Y-93559691D01*
X120573622Y-93470519D01*
X120583281Y-93410279D01*
X120593579Y-93107684D01*
X120530826Y-92815243D01*
X120393276Y-92530926D01*
X120179184Y-92252700D01*
X119886801Y-91978534D01*
X119514382Y-91706397D01*
X119060179Y-91434257D01*
X118739894Y-91266221D01*
X118565476Y-91178993D01*
X118421652Y-91107511D01*
X118323544Y-91059259D01*
X118286329Y-91041725D01*
X118289689Y-91004334D01*
X118308039Y-90912166D01*
X118317003Y-90872392D01*
X118396719Y-90377359D01*
X118421110Y-89834780D01*
X118391751Y-89259803D01*
X118310218Y-88667574D01*
X118178086Y-88073244D01*
X117996933Y-87491959D01*
X117952971Y-87373388D01*
X117748214Y-86891886D01*
X117493450Y-86381273D01*
X117203178Y-85867276D01*
X116891897Y-85375623D01*
X116585518Y-84946914D01*
X116468928Y-84802286D01*
X116329463Y-84641166D01*
X116178378Y-84475144D01*
X116026927Y-84315812D01*
X115886365Y-84174759D01*
X115767947Y-84063577D01*
X115682926Y-83993857D01*
X115643334Y-83976588D01*
X115627508Y-84017167D01*
X115660598Y-84094326D01*
X115746379Y-84213556D01*
X115888624Y-84380347D01*
X116019388Y-84523580D01*
X116418730Y-85004175D01*
X116788479Y-85549972D01*
X117119873Y-86144108D01*
X117404152Y-86769724D01*
X117632558Y-87409956D01*
X117756887Y-87867914D01*
X117819917Y-88213766D01*
X117859371Y-88598925D01*
X117875862Y-89005283D01*
X117870005Y-89414733D01*
X117842414Y-89809168D01*
X117793702Y-90170480D01*
X117724483Y-90480563D01*
X117662144Y-90662292D01*
X117607288Y-90793581D01*
X117188931Y-90724789D01*
X116770574Y-90655996D01*
X116681707Y-90235621D01*
X116554902Y-89685139D01*
X116408216Y-89145500D01*
X116237124Y-88604562D01*
X116037101Y-88050178D01*
X115803621Y-87470204D01*
X115532158Y-86852495D01*
X115218187Y-86184906D01*
X115026493Y-85793580D01*
X114294662Y-84228788D01*
X113626723Y-82616976D01*
X113028157Y-80972418D01*
X112504446Y-79309386D01*
X112411980Y-78985829D01*
X112342824Y-78739744D01*
X112115379Y-78970851D01*
X111882198Y-79187395D01*
X111635512Y-79371631D01*
X111355600Y-79535738D01*
X111022736Y-79691895D01*
X110801574Y-79782085D01*
X110659239Y-79846288D01*
X110466986Y-79944938D01*
X110246026Y-80066560D01*
X110017575Y-80199681D01*
X109921722Y-80257970D01*
X109494193Y-80506357D01*
X109109981Y-80694873D01*
X108756722Y-80827432D01*
X108422058Y-80907946D01*
X108093625Y-80940331D01*
X107793870Y-80931621D01*
X107473503Y-80887318D01*
X107179110Y-80806087D01*
X106895247Y-80680297D01*
X106606471Y-80502321D01*
X106297341Y-80264529D01*
X106102574Y-80096144D01*
X105943713Y-79960122D01*
X105766842Y-79818146D01*
X105586210Y-79680559D01*
X105416065Y-79557702D01*
X105270659Y-79459917D01*
X105164240Y-79397546D01*
X105115926Y-79380080D01*
X105095284Y-79419020D01*
X105074024Y-79522495D01*
X105055939Y-79670488D01*
X105051891Y-79718089D01*
X105004114Y-80124202D01*
X104920212Y-80592334D01*
X104803540Y-81109602D01*
X104657453Y-81663128D01*
X104485308Y-82240030D01*
X104290460Y-82827429D01*
X104117730Y-83303574D01*
X104008481Y-83591026D01*
X103903660Y-83861850D01*
X103799191Y-84125643D01*
X103690998Y-84392000D01*
X103575005Y-84670516D01*
X103447136Y-84970788D01*
X103303316Y-85302411D01*
X103139468Y-85674981D01*
X102951518Y-86098093D01*
X102735388Y-86581344D01*
X102551885Y-86990046D01*
X102157012Y-87928365D01*
X101833202Y-88830185D01*
X101578663Y-89702141D01*
X101391600Y-90550864D01*
X101270222Y-91382988D01*
X101227466Y-91888559D01*
X101213390Y-92071182D01*
X101196583Y-92217564D01*
X101179398Y-92310262D01*
X101167372Y-92334080D01*
X101130500Y-92300571D01*
X101065504Y-92212757D01*
X100987087Y-92090664D01*
X100731669Y-91603872D01*
X100547909Y-91099967D01*
X100431413Y-90563999D01*
X100379556Y-90022967D01*
X100375589Y-89519866D01*
X100412090Y-89024035D01*
X100491859Y-88524871D01*
X100617694Y-88011768D01*
X100792396Y-87474121D01*
X101018763Y-86901326D01*
X101299597Y-86282777D01*
X101445784Y-85984080D01*
X101626660Y-85617790D01*
X101778019Y-85303014D01*
X101897863Y-85044213D01*
X101984190Y-84845849D01*
X102035000Y-84712384D01*
X102048294Y-84648280D01*
X102046395Y-84644291D01*
X102015585Y-84667750D01*
X101952291Y-84757340D01*
X101861717Y-84903372D01*
X101749065Y-85096162D01*
X101619537Y-85326021D01*
X101478336Y-85583263D01*
X101330663Y-85858200D01*
X101181722Y-86141146D01*
X101036715Y-86422414D01*
X100900843Y-86692317D01*
X100779310Y-86941168D01*
X100677318Y-87159279D01*
X100600069Y-87336965D01*
X100599340Y-87338747D01*
X100406844Y-87842700D01*
X100235807Y-88355835D01*
X100092912Y-88855589D01*
X99984843Y-89319397D01*
X99941037Y-89561247D01*
X99922997Y-89720627D01*
X99908388Y-89936516D01*
X99898690Y-90180782D01*
X99895384Y-90425290D01*
X97739892Y-90425290D01*
X97886240Y-89809287D01*
X98183693Y-88875402D01*
X98561752Y-87920860D01*
X99020688Y-86944999D01*
X99560772Y-85947160D01*
X99779045Y-85575887D01*
X100250152Y-84820523D01*
X100759783Y-84057312D01*
X101289601Y-83312532D01*
X101821267Y-82612462D01*
X102026191Y-82355952D01*
X102333294Y-81942958D01*
X102636717Y-81470848D01*
X102922790Y-80964583D01*
X103177844Y-80449122D01*
X103388208Y-79949425D01*
X103470546Y-79718747D01*
X103598224Y-79287488D01*
X103713878Y-78804705D01*
X103810416Y-78303400D01*
X103854797Y-77996193D01*
X104574056Y-77996193D01*
X104630848Y-78249881D01*
X104767831Y-78510307D01*
X104983215Y-78774707D01*
X105275209Y-79040315D01*
X105576522Y-79261090D01*
X105752258Y-79386320D01*
X105963421Y-79547712D01*
X106183076Y-79724158D01*
X106378655Y-79889624D01*
X106649141Y-80116233D01*
X106881242Y-80286982D01*
X107090448Y-80411327D01*
X107292249Y-80498724D01*
X107457240Y-80548013D01*
X107730814Y-80591030D01*
X108042246Y-80600352D01*
X108351782Y-80576122D01*
X108525839Y-80544187D01*
X108753240Y-80479242D01*
X108989477Y-80387177D01*
X109249335Y-80260931D01*
X109547602Y-80093443D01*
X109827907Y-79922446D01*
X110042395Y-79793289D01*
X110261879Y-79669938D01*
X110462049Y-79565533D01*
X110618596Y-79493212D01*
X110632240Y-79487728D01*
X111059950Y-79295527D01*
X111433565Y-79078939D01*
X111748698Y-78842949D01*
X112000965Y-78592538D01*
X112185980Y-78332689D01*
X112299359Y-78068385D01*
X112336714Y-77804608D01*
X112305873Y-77586149D01*
X112249447Y-77431284D01*
X112167065Y-77293021D01*
X112050402Y-77165605D01*
X111891136Y-77043280D01*
X111680945Y-76920290D01*
X111411506Y-76790880D01*
X111074497Y-76649293D01*
X110791771Y-76539032D01*
X110541555Y-76439230D01*
X110293744Y-76332664D01*
X110070363Y-76229333D01*
X109893440Y-76139236D01*
X109827907Y-76101428D01*
X109417409Y-75864289D01*
X109046985Y-75687227D01*
X108702474Y-75565303D01*
X108369712Y-75493580D01*
X108034537Y-75467120D01*
X108007574Y-75466814D01*
X107611046Y-75495543D01*
X107237967Y-75590256D01*
X106878279Y-75755425D01*
X106521928Y-75995520D01*
X106209430Y-76266322D01*
X106074262Y-76387975D01*
X105891716Y-76542821D01*
X105682510Y-76713744D01*
X105467365Y-76883626D01*
X105392885Y-76940900D01*
X105149775Y-77128043D01*
X104965734Y-77275164D01*
X104831289Y-77391945D01*
X104736967Y-77488068D01*
X104673295Y-77573213D01*
X104630799Y-77657064D01*
X104600008Y-77749300D01*
X104599247Y-77752009D01*
X104574056Y-77996193D01*
X103854797Y-77996193D01*
X103880747Y-77816570D01*
X103882462Y-77801807D01*
X103901742Y-77556576D01*
X103912519Y-77236364D01*
X103914936Y-76850417D01*
X103909134Y-76407976D01*
X103895255Y-75918287D01*
X103873441Y-75390593D01*
X103845279Y-74861283D01*
X104629972Y-74861283D01*
X104647814Y-75165544D01*
X104686745Y-75427953D01*
X104700304Y-75485414D01*
X104762882Y-75688249D01*
X104844977Y-75900947D01*
X104938758Y-76108469D01*
X105036398Y-76295780D01*
X105130065Y-76447841D01*
X105211932Y-76549617D01*
X105273407Y-76586080D01*
X105323965Y-76561744D01*
X105414451Y-76499745D01*
X105472336Y-76455411D01*
X105570694Y-76376696D01*
X105638098Y-76321599D01*
X105653779Y-76308011D01*
X105642153Y-76266750D01*
X105593386Y-76181383D01*
X105560488Y-76131764D01*
X105429926Y-75911243D01*
X105346135Y-75684588D01*
X105299486Y-75421468D01*
X105287348Y-75271411D01*
X105293609Y-74905315D01*
X105358105Y-74597924D01*
X105480452Y-74350769D01*
X105536587Y-74279102D01*
X105679511Y-74164441D01*
X105831097Y-74126369D01*
X105984253Y-74158291D01*
X106131885Y-74253607D01*
X106266901Y-74405722D01*
X106382208Y-74608037D01*
X106470712Y-74853954D01*
X106525321Y-75136876D01*
X106532233Y-75205212D01*
X106546435Y-75358117D01*
X106559427Y-75471822D01*
X106568810Y-75525884D01*
X106570108Y-75527747D01*
X106610449Y-75510578D01*
X106705620Y-75465675D01*
X106828479Y-75405955D01*
X106974863Y-75336836D01*
X107104728Y-75280374D01*
X107177593Y-75252999D01*
X107224060Y-75235545D01*
X107252368Y-75206664D01*
X107265427Y-75149444D01*
X107266145Y-75046972D01*
X107257432Y-74882334D01*
X107253135Y-74813874D01*
X107250536Y-74788184D01*
X108663740Y-74788184D01*
X108663740Y-75220410D01*
X108864824Y-75274900D01*
X109025235Y-75326201D01*
X109182088Y-75388281D01*
X109222970Y-75407401D01*
X109331953Y-75456603D01*
X109411105Y-75483629D01*
X109424054Y-75485414D01*
X109447901Y-75445811D01*
X109463347Y-75337498D01*
X109468074Y-75197974D01*
X109492537Y-74868176D01*
X109561534Y-74571520D01*
X109668478Y-74314342D01*
X109806779Y-74102979D01*
X109969849Y-73943767D01*
X110151099Y-73843042D01*
X110343942Y-73807141D01*
X110541788Y-73842401D01*
X110738050Y-73955158D01*
X110750137Y-73964942D01*
X110913863Y-74150448D01*
X111039771Y-74395828D01*
X111125531Y-74684084D01*
X111168813Y-74998221D01*
X111167288Y-75321242D01*
X111118626Y-75636151D01*
X111020496Y-75925951D01*
X111019287Y-75928600D01*
X110965531Y-76053967D01*
X110931048Y-76149736D01*
X110923898Y-76183914D01*
X110961441Y-76216340D01*
X111058597Y-76268439D01*
X111195119Y-76331756D01*
X111350763Y-76397837D01*
X111505283Y-76458227D01*
X111638434Y-76504472D01*
X111729970Y-76528115D01*
X111750933Y-76529295D01*
X111798320Y-76491102D01*
X111869818Y-76395855D01*
X111951777Y-76262279D01*
X111971126Y-76227266D01*
X112155205Y-75812654D01*
X112266453Y-75377670D01*
X112308818Y-74906108D01*
X112309475Y-74839005D01*
X112305332Y-74631355D01*
X112293830Y-74433045D01*
X112277012Y-74273829D01*
X112266631Y-74215414D01*
X112127151Y-73751456D01*
X111933944Y-73344764D01*
X111689811Y-72999417D01*
X111397552Y-72719494D01*
X111114112Y-72536429D01*
X110995417Y-72478758D01*
X110889206Y-72443183D01*
X110768263Y-72424552D01*
X110605375Y-72417709D01*
X110484074Y-72417107D01*
X110217358Y-72429281D01*
X109998750Y-72471894D01*
X109803833Y-72555090D01*
X109608195Y-72689015D01*
X109408253Y-72864187D01*
X109128841Y-73183601D01*
X108913255Y-73556056D01*
X108763253Y-73977011D01*
X108680593Y-74441921D01*
X108663740Y-74788184D01*
X107250536Y-74788184D01*
X107215152Y-74438437D01*
X107148121Y-74114552D01*
X107044344Y-73811838D01*
X106943429Y-73591696D01*
X106789694Y-73338436D01*
X106601790Y-73113320D01*
X106397785Y-72935272D01*
X106218347Y-72832161D01*
X105962996Y-72766956D01*
X105711942Y-72781582D01*
X105471398Y-72871224D01*
X105247573Y-73031069D01*
X105046678Y-73256302D01*
X104874924Y-73542109D01*
X104738523Y-73883676D01*
X104702508Y-74007132D01*
X104657364Y-74251102D01*
X104633170Y-74546144D01*
X104629972Y-74861283D01*
X103845279Y-74861283D01*
X103843834Y-74834137D01*
X103834580Y-74681080D01*
X103803349Y-73840058D01*
X103815458Y-73037044D01*
X103869989Y-72277597D01*
X103966024Y-71567281D01*
X104102645Y-70911654D01*
X104278933Y-70316278D01*
X104493971Y-69786713D01*
X104708099Y-69389943D01*
X105059724Y-68888192D01*
X105457997Y-68449873D01*
X105905615Y-68073553D01*
X106405272Y-67757794D01*
X106959665Y-67501162D01*
X107571490Y-67302223D01*
X108243442Y-67159540D01*
X108978217Y-67071679D01*
X109076444Y-67064351D01*
X109707101Y-67045126D01*
X110323467Y-67074493D01*
G37*
X110323467Y-67074493D02*
X110908213Y-67150641D01*
X111444008Y-67271753D01*
X111642401Y-67332940D01*
X112213394Y-67565667D01*
X112733303Y-67863688D01*
X113202697Y-68227708D01*
X113622142Y-68658430D01*
X113992207Y-69156559D01*
X114313458Y-69722798D01*
X114586462Y-70357850D01*
X114811788Y-71062420D01*
X114887274Y-71357914D01*
X114956094Y-71661155D01*
X115015787Y-71960313D01*
X115067117Y-72264404D01*
X115110844Y-72582445D01*
X115147730Y-72923452D01*
X115178537Y-73296441D01*
X115204025Y-73710429D01*
X115224957Y-74174432D01*
X115242094Y-74697466D01*
X115256197Y-75288548D01*
X115266273Y-75845247D01*
X115273911Y-76313556D01*
X115280772Y-76705796D01*
X115287351Y-77030554D01*
X115294143Y-77296418D01*
X115301644Y-77511975D01*
X115310347Y-77685814D01*
X115320748Y-77826521D01*
X115333342Y-77942685D01*
X115348624Y-78042893D01*
X115367089Y-78135733D01*
X115389231Y-78229792D01*
X115407995Y-78304131D01*
X115494515Y-78616895D01*
X115593171Y-78919190D01*
X115707968Y-79217651D01*
X115842910Y-79518918D01*
X116002003Y-79829628D01*
X116189252Y-80156417D01*
X116408662Y-80505924D01*
X116664238Y-80884785D01*
X116959986Y-81299639D01*
X117299910Y-81757122D01*
X117688016Y-82263873D01*
X118128309Y-82826528D01*
X118164663Y-82872580D01*
X118880991Y-83822824D01*
X119515944Y-84757367D01*
X120070813Y-85678813D01*
X120546887Y-86589770D01*
X120945457Y-87492842D01*
X121267811Y-88390637D01*
X121515239Y-89285760D01*
X121642366Y-89899914D01*
X121677831Y-90156677D01*
X121705656Y-90474757D01*
X121725217Y-90831093D01*
X121735888Y-91202626D01*
X121737046Y-91566295D01*
X121728066Y-91899043D01*
X121708323Y-92177808D01*
X121704919Y-92209004D01*
X121652005Y-92586537D01*
X121580605Y-92974973D01*
X121497717Y-93339116D01*
X121435260Y-93565162D01*
X121376341Y-93759077D01*
X121567751Y-93860620D01*
X121701304Y-93944319D01*
X121857829Y-94060812D01*
X121984883Y-94168460D01*
X122128949Y-94317712D01*
X122255966Y-94490800D01*
X122370741Y-94698494D01*
X122478076Y-94951559D01*
X122582777Y-95260763D01*
X122689649Y-95636874D01*
X122756373Y-95897359D01*
X122826018Y-96168025D01*
X122896811Y-96425834D01*
X122963709Y-96653661D01*
X123021675Y-96834386D01*
X123065668Y-96950884D01*
X123067862Y-96955692D01*
X123137716Y-97080611D01*
X123246939Y-97246572D01*
X123379655Y-97430458D01*
X123498937Y-97583414D01*
X123797117Y-97972794D01*
X124028105Y-98325879D01*
X124196175Y-98651773D01*
X124305601Y-98959580D01*
X124360659Y-99258403D01*
X124369373Y-99437423D01*
X124363151Y-99632387D01*
X124339023Y-99782608D01*
X124288730Y-99927458D01*
X124247651Y-100017580D01*
X124084677Y-100279369D01*
X123854321Y-100536131D01*
X123572940Y-100770357D01*
X123491774Y-100826513D01*
X123391762Y-100887465D01*
X123229892Y-100979629D01*
X123019660Y-101095614D01*
X122774564Y-101228031D01*
X122508098Y-101369489D01*
X122327607Y-101463941D01*
X121878583Y-101699531D01*
X121496903Y-101905000D01*
X121173385Y-102086442D01*
X120898842Y-102249950D01*
X120664090Y-102401619D01*
X120459945Y-102547542D01*
X120277221Y-102693815D01*
X120106734Y-102846531D01*
X119939299Y-103011785D01*
X119843140Y-103112398D01*
X119515130Y-103458225D01*
X119232558Y-103748189D01*
X118985785Y-103990730D01*
X118765172Y-104194289D01*
X118561079Y-104367304D01*
X118363866Y-104518217D01*
X118163896Y-104655468D01*
X117951527Y-104787496D01*
X117885660Y-104826354D01*
X117447517Y-105057077D01*
X117026569Y-105222384D01*
X116597001Y-105329791D01*
X116133002Y-105386812D01*
X115923907Y-105397469D01*
X115668564Y-105403216D01*
X115473483Y-105399776D01*
X115314580Y-105385353D01*
X115167775Y-105358154D01*
X115071850Y-105333973D01*
X114620072Y-105170938D01*
X114200063Y-104938957D01*
X113825689Y-104647279D01*
X113510818Y-104305151D01*
X113491912Y-104280282D01*
X113363225Y-104093190D01*
X113234210Y-103878914D01*
X113117350Y-103660846D01*
X113025129Y-103462378D01*
X112970030Y-103306902D01*
X112967929Y-103298414D01*
X112955178Y-103254948D01*
X112931796Y-103225151D01*
X112883480Y-103206144D01*
X112795923Y-103195049D01*
X112654818Y-103188986D01*
X112445862Y-103185079D01*
X112401318Y-103184403D01*
X112209882Y-103180533D01*
X112033668Y-103174212D01*
X111859656Y-103164153D01*
X111674825Y-103149071D01*
X111466154Y-103127680D01*
X111220624Y-103098693D01*
X110925214Y-103060825D01*
X110566904Y-103012790D01*
X110314740Y-102978339D01*
X109984320Y-102936105D01*
X109682573Y-102905603D01*
X109397398Y-102887549D01*
X109116696Y-102882659D01*
X108828363Y-102891649D01*
X108520301Y-102915234D01*
X108180408Y-102954129D01*
X107796583Y-103009050D01*
X107356724Y-103080713D01*
X106848732Y-103169834D01*
X106737574Y-103189873D01*
X106466123Y-103237932D01*
X106204013Y-103282439D01*
X105970100Y-103320333D01*
X105783239Y-103348551D01*
X105669238Y-103363320D01*
X105405236Y-103391258D01*
X105258280Y-103633173D01*
X104978634Y-104018035D01*
X104646133Y-104338027D01*
X104259407Y-104594035D01*
X103817088Y-104786946D01*
X103317809Y-104917647D01*
X103259967Y-104928157D01*
X102706883Y-104985823D01*
X102125768Y-104970279D01*
X101514503Y-104881100D01*
X100870972Y-104717857D01*
X100193054Y-104480126D01*
X99478632Y-104167480D01*
X99477407Y-104166894D01*
X99180861Y-104028167D01*
X98914146Y-103911476D01*
X98663998Y-103813360D01*
X98417155Y-103730355D01*
X98160356Y-103659001D01*
X97880338Y-103595835D01*
X97563839Y-103537395D01*
X97197596Y-103480220D01*
X96768347Y-103420847D01*
X96471740Y-103382307D01*
X95996956Y-103319639D01*
X95596775Y-103261801D01*
X95261440Y-103206401D01*
X94981196Y-103151043D01*
X94746289Y-103093333D01*
X94546961Y-103030876D01*
X94373459Y-102961278D01*
X94216026Y-102882144D01*
X94066068Y-102791831D01*
X93799799Y-102573074D01*
X93600569Y-102304138D01*
X93468324Y-101984710D01*
X93403016Y-101614473D01*
X93403166Y-101574270D01*
X93941404Y-101574270D01*
X93981091Y-101819412D01*
X94068714Y-102021696D01*
X94209419Y-102197612D01*
X94244416Y-102231114D01*
X94354344Y-102322242D01*
X94477788Y-102401608D01*
X94623419Y-102471471D01*
X94799907Y-102534091D01*
X95015922Y-102591728D01*
X95280135Y-102646641D01*
X95601217Y-102701090D01*
X95987837Y-102757334D01*
X96448666Y-102817634D01*
X96537796Y-102828797D01*
X97032356Y-102892882D01*
X97455951Y-102954228D01*
X97822061Y-103016255D01*
X98144162Y-103082386D01*
X98435733Y-103156042D01*
X98710252Y-103240643D01*
X98981198Y-103339611D01*
X99262047Y-103456367D01*
X99566278Y-103594333D01*
X99581219Y-103601322D01*
X100010733Y-103798349D01*
X100382057Y-103958698D01*
X100710489Y-104087736D01*
X101011328Y-104190829D01*
X101299873Y-104273344D01*
X101591423Y-104340648D01*
X101805740Y-104381627D01*
X102037328Y-104409462D01*
X102316639Y-104422660D01*
X102618281Y-104421944D01*
X102916863Y-104408039D01*
X103186993Y-104381666D01*
X103403281Y-104343550D01*
X103435574Y-104335211D01*
X103866450Y-104178897D01*
X104236845Y-103965878D01*
X104544525Y-103698401D01*
X104787258Y-103378715D01*
X104962812Y-103009068D01*
X105046392Y-102713099D01*
X105075750Y-102537551D01*
X113413028Y-102537551D01*
X113433495Y-102812742D01*
X113481909Y-103063840D01*
X113557696Y-103298604D01*
X113645949Y-103496597D01*
X113888948Y-103900718D01*
X114179485Y-104235310D01*
X114520374Y-104502735D01*
X114914427Y-104705353D01*
X115204240Y-104804513D01*
X115418836Y-104842813D01*
X115688655Y-104857259D01*
X115988110Y-104849253D01*
X116291612Y-104820200D01*
X116573574Y-104771502D01*
X116768230Y-104718745D01*
X117337139Y-104484477D01*
X117883444Y-104171310D01*
X118400970Y-103783403D01*
X118883540Y-103324915D01*
X118958154Y-103244117D01*
X119260820Y-102915799D01*
X119534638Y-102633154D01*
X119791989Y-102387060D01*
X120045255Y-102168394D01*
X120306816Y-101968035D01*
X120589055Y-101776861D01*
X120904352Y-101585750D01*
X121265088Y-101385579D01*
X121683646Y-101167227D01*
X121980974Y-101017038D01*
X122420300Y-100792245D01*
X122786950Y-100593205D01*
X123087242Y-100415198D01*
X123327491Y-100253504D01*
X123514015Y-100103403D01*
X123653131Y-99960176D01*
X123751155Y-99819103D01*
X123814404Y-99675462D01*
X123825460Y-99638827D01*
X123845706Y-99414337D01*
X123794968Y-99148619D01*
X123674532Y-98844553D01*
X123485683Y-98505018D01*
X123229709Y-98132892D01*
X123049092Y-97900914D01*
X122816570Y-97593032D01*
X122637392Y-97302174D01*
X122498083Y-97000650D01*
X122385166Y-96660772D01*
X122317630Y-96398080D01*
X122213468Y-95968704D01*
X122119493Y-95613501D01*
X122031774Y-95323162D01*
X121946379Y-95088378D01*
X121859376Y-94899843D01*
X121766835Y-94748246D01*
X121664824Y-94624279D01*
X121549410Y-94518634D01*
X121511237Y-94488860D01*
X121324457Y-94363013D01*
X121137694Y-94274333D01*
X120928072Y-94215756D01*
X120672712Y-94180216D01*
X120465032Y-94165795D01*
X120010824Y-94142506D01*
X119717964Y-94418776D01*
X119378112Y-94700664D01*
X118987015Y-94960455D01*
X118578086Y-95177103D01*
X118379609Y-95261802D01*
X118032316Y-95366873D01*
X117679369Y-95418604D01*
X117341970Y-95415852D01*
X117041318Y-95357471D01*
X116982552Y-95337177D01*
X116718754Y-95195189D01*
X116471434Y-94980263D01*
X116249035Y-94703742D01*
X116060005Y-94376975D01*
X115912787Y-94011306D01*
X115860596Y-93829845D01*
X115820279Y-93653053D01*
X115790445Y-93490282D01*
X115776715Y-93372870D01*
X115776390Y-93360664D01*
X115764981Y-93267001D01*
X115738065Y-93223470D01*
X115734993Y-93223080D01*
X115660081Y-93254235D01*
X115550265Y-93337160D01*
X115421643Y-93456044D01*
X115290314Y-93595079D01*
X115172379Y-93738455D01*
X115094778Y-93851781D01*
X114975878Y-94071022D01*
X114872150Y-94311513D01*
X114781965Y-94581427D01*
X114703697Y-94888934D01*
X114635718Y-95242206D01*
X114576401Y-95649416D01*
X114524119Y-96118734D01*
X114477244Y-96658333D01*
X114444414Y-97117747D01*
X114420118Y-97454681D01*
X114393204Y-97752305D01*
X114360774Y-98025927D01*
X114319934Y-98290855D01*
X114267787Y-98562397D01*
X114201437Y-98855860D01*
X114117989Y-99186553D01*
X114014547Y-99569784D01*
X113909366Y-99946044D01*
X113750059Y-100528699D01*
X113622152Y-101040715D01*
X113525071Y-101489851D01*
X113458241Y-101883864D01*
X113421085Y-102230511D01*
X113413028Y-102537551D01*
X105075750Y-102537551D01*
X105090074Y-102451907D01*
X105105823Y-102198386D01*
X105090639Y-101945789D01*
X105041518Y-101687366D01*
X104955461Y-101416371D01*
X104829465Y-101126054D01*
X104660528Y-100809667D01*
X104445650Y-100460462D01*
X104181828Y-100071691D01*
X103866062Y-99636605D01*
X103495349Y-99148456D01*
X103414386Y-99043914D01*
X103153223Y-98706188D01*
X102935895Y-98420232D01*
X102753369Y-98171687D01*
X102596612Y-97946192D01*
X102456588Y-97729387D01*
X102324266Y-97506913D01*
X102190611Y-97264408D01*
X102046588Y-96987513D01*
X101883165Y-96661867D01*
X101763240Y-96419247D01*
X101504491Y-95904244D01*
X101270145Y-95460348D01*
X101055150Y-95079288D01*
X100854456Y-94752794D01*
X100663009Y-94472596D01*
X100475758Y-94230422D01*
X100312894Y-94044828D01*
X100011343Y-93752734D01*
X99718682Y-93535737D01*
X99424126Y-93386584D01*
X99246760Y-93327923D01*
X98980424Y-93276128D01*
X98733413Y-93274351D01*
X98498355Y-93326886D01*
X98267875Y-93438025D01*
X98034601Y-93612059D01*
X97791160Y-93853281D01*
X97530178Y-94165983D01*
X97317959Y-94450747D01*
X97045892Y-94811243D01*
X96800796Y-95096661D01*
X96579061Y-95310874D01*
X96381723Y-95454988D01*
X96255193Y-95521670D01*
X96071993Y-95606502D01*
X95855234Y-95699283D01*
X95628024Y-95789809D01*
X95594001Y-95802740D01*
X95378776Y-95885286D01*
X95181112Y-95963504D01*
X95020070Y-96029684D01*
X94914710Y-96076117D01*
X94899546Y-96083611D01*
X94687661Y-96228187D01*
X94485419Y-96428139D01*
X94318509Y-96655713D01*
X94249609Y-96785850D01*
X94193013Y-96922775D01*
X94158572Y-97044092D01*
X94141325Y-97179059D01*
X94136309Y-97356932D01*
X94136661Y-97451936D01*
X94144993Y-97658029D01*
X94165041Y-97914095D01*
X94193748Y-98186740D01*
X94226165Y-98430080D01*
X94259631Y-98681081D01*
X94286977Y-98940777D01*
X94305366Y-99178360D01*
X94311961Y-99361414D01*
X94310118Y-99506187D01*
X94302542Y-99633108D01*
X94285860Y-99759257D01*
X94256699Y-99901712D01*
X94211686Y-100077555D01*
X94147449Y-100303863D01*
X94082074Y-100525580D01*
X94024731Y-100753154D01*
X93976762Y-101006132D01*
X93947107Y-101236148D01*
X93944510Y-101269781D01*
X93941404Y-101574270D01*
X93403166Y-101574270D01*
X93404594Y-101193113D01*
X93473007Y-100720316D01*
X93608204Y-100195766D01*
X93635210Y-100109571D01*
X93698363Y-99886621D01*
X93739608Y-99670158D01*
X93759319Y-99443564D01*
X93757873Y-99190220D01*
X93735643Y-98893507D01*
X93693003Y-98536807D01*
X93673794Y-98398002D01*
X93623821Y-97981485D01*
X93600937Y-97616660D01*
X93602091Y-97306668D01*
X93612427Y-97087990D01*
X93628384Y-96927597D01*
X93655239Y-96799107D01*
X93698271Y-96676140D01*
X93752791Y-96553515D01*
X93912712Y-96261171D01*
X94102023Y-96015615D01*
X94333182Y-95806412D01*
X94618647Y-95623129D01*
X94970876Y-95455329D01*
X95148864Y-95384231D01*
X95525553Y-95235597D01*
X95827294Y-95105318D01*
X96061030Y-94990242D01*
X96210788Y-94902443D01*
X96283634Y-94837857D01*
X96394155Y-94718423D01*
X96530481Y-94557947D01*
X96680743Y-94370238D01*
X96781077Y-94239080D01*
X96938022Y-94032536D01*
X97091405Y-93835134D01*
X97228199Y-93663325D01*
X97335380Y-93533559D01*
X97379194Y-93483660D01*
X97548237Y-93299740D01*
X97552506Y-92298327D01*
X97554756Y-91965244D01*
X97559186Y-91699529D01*
X97567074Y-91483885D01*
X97579702Y-91301018D01*
X97598351Y-91133632D01*
X97624300Y-90964432D01*
X97658830Y-90776123D01*
X97669122Y-90723174D01*
X97739892Y-90425290D01*
X99895384Y-90425290D01*
X99895392Y-90429080D01*
X99899181Y-90699702D01*
X99911354Y-90915041D01*
X99935121Y-91104323D01*
X99973694Y-91296774D01*
X100004675Y-91423553D01*
X100133380Y-91848822D01*
X100295485Y-92234247D01*
X100498580Y-92589440D01*
X100750257Y-92924014D01*
X101058106Y-93247581D01*
X101429718Y-93569752D01*
X101872683Y-93900139D01*
X102064717Y-94032146D01*
X102729350Y-94500708D01*
X103312956Y-94956219D01*
X103817786Y-95400924D01*
X104246087Y-95837064D01*
X104600107Y-96266884D01*
X104882095Y-96692625D01*
X105045521Y-97005949D01*
X105181564Y-97368772D01*
X105245510Y-97705513D01*
X105239609Y-98010854D01*
X105166110Y-98279478D01*
X105027263Y-98506067D01*
X104825317Y-98685305D01*
X104562521Y-98811873D01*
X104253123Y-98879117D01*
X104012339Y-98906785D01*
X104320265Y-99314016D01*
X104467363Y-99511991D01*
X104619828Y-99722905D01*
X104756462Y-99917168D01*
X104831264Y-100027292D01*
X104960095Y-100206736D01*
X105084780Y-100339519D01*
X105236385Y-100455977D01*
X105335621Y-100519814D01*
X105982962Y-100872584D01*
X106653230Y-101144608D01*
X107343129Y-101335124D01*
X108049360Y-101443368D01*
X108768625Y-101468577D01*
X109291749Y-101434987D01*
X110024347Y-101321982D01*
X110740787Y-101137354D01*
X111453679Y-100877295D01*
X112050407Y-100602092D01*
X112295426Y-100474567D01*
X112547469Y-100336163D01*
X112781579Y-100201041D01*
X112972803Y-100083363D01*
X113024074Y-100049532D01*
X113186119Y-99938497D01*
X113293332Y-99856689D01*
X113361003Y-99785883D01*
X113404421Y-99707858D01*
X113438875Y-99604389D01*
X113459349Y-99530747D01*
X113573599Y-99106618D01*
X113665561Y-98743903D01*
X113738454Y-98423282D01*
X113795496Y-98125436D01*
X113839906Y-97831045D01*
X113874904Y-97520789D01*
X113903706Y-97175350D01*
X113929533Y-96775406D01*
X113935415Y-96673247D01*
X113962248Y-96307154D01*
X114001373Y-95919477D01*
X114049927Y-95530887D01*
X114105043Y-95162058D01*
X114163859Y-94833660D01*
X114223508Y-94566367D01*
X114231651Y-94535414D01*
X114396950Y-94038810D01*
X114606962Y-93607912D01*
X114859922Y-93245271D01*
X115154065Y-92953438D01*
X115471500Y-92743337D01*
X115760129Y-92591667D01*
X115808645Y-92330788D01*
X115906739Y-91989267D01*
X116062316Y-91708850D01*
X116274714Y-91490538D01*
X116431907Y-91388286D01*
X116516437Y-91348333D01*
X116606651Y-91321976D01*
X116722268Y-91306598D01*
X116883008Y-91299578D01*
X117108589Y-91298296D01*
X117109240Y-91298298D01*
X117338830Y-91301030D01*
X117512231Y-91310688D01*
X117657884Y-91331648D01*
X117804230Y-91368289D01*
X117979708Y-91424985D01*
X118018026Y-91438157D01*
X118465472Y-91608966D01*
X118883249Y-91800143D01*
X119262723Y-92005998D01*
X119595256Y-92220842D01*
X119872212Y-92438983D01*
X120084954Y-92654731D01*
X120224847Y-92862395D01*
X120244441Y-92905116D01*
X120277142Y-93026817D01*
X120299269Y-93192301D01*
X120305407Y-93327554D01*
X120305407Y-93604080D01*
X120429813Y-93604080D01*
X120507062Y-93596725D01*
X120549071Y-93559691D01*
X120573622Y-93470519D01*
X120583281Y-93410279D01*
X120593579Y-93107684D01*
X120530826Y-92815243D01*
X120393276Y-92530926D01*
X120179184Y-92252700D01*
X119886801Y-91978534D01*
X119514382Y-91706397D01*
X119060179Y-91434257D01*
X118739894Y-91266221D01*
X118565476Y-91178993D01*
X118421652Y-91107511D01*
X118323544Y-91059259D01*
X118286329Y-91041725D01*
X118289689Y-91004334D01*
X118308039Y-90912166D01*
X118317003Y-90872392D01*
X118396719Y-90377359D01*
X118421110Y-89834780D01*
X118391751Y-89259803D01*
X118310218Y-88667574D01*
X118178086Y-88073244D01*
X117996933Y-87491959D01*
X117952971Y-87373388D01*
X117748214Y-86891886D01*
X117493450Y-86381273D01*
X117203178Y-85867276D01*
X116891897Y-85375623D01*
X116585518Y-84946914D01*
X116468928Y-84802286D01*
X116329463Y-84641166D01*
X116178378Y-84475144D01*
X116026927Y-84315812D01*
X115886365Y-84174759D01*
X115767947Y-84063577D01*
X115682926Y-83993857D01*
X115643334Y-83976588D01*
X115627508Y-84017167D01*
X115660598Y-84094326D01*
X115746379Y-84213556D01*
X115888624Y-84380347D01*
X116019388Y-84523580D01*
X116418730Y-85004175D01*
X116788479Y-85549972D01*
X117119873Y-86144108D01*
X117404152Y-86769724D01*
X117632558Y-87409956D01*
X117756887Y-87867914D01*
X117819917Y-88213766D01*
X117859371Y-88598925D01*
X117875862Y-89005283D01*
X117870005Y-89414733D01*
X117842414Y-89809168D01*
X117793702Y-90170480D01*
X117724483Y-90480563D01*
X117662144Y-90662292D01*
X117607288Y-90793581D01*
X117188931Y-90724789D01*
X116770574Y-90655996D01*
X116681707Y-90235621D01*
X116554902Y-89685139D01*
X116408216Y-89145500D01*
X116237124Y-88604562D01*
X116037101Y-88050178D01*
X115803621Y-87470204D01*
X115532158Y-86852495D01*
X115218187Y-86184906D01*
X115026493Y-85793580D01*
X114294662Y-84228788D01*
X113626723Y-82616976D01*
X113028157Y-80972418D01*
X112504446Y-79309386D01*
X112411980Y-78985829D01*
X112342824Y-78739744D01*
X112115379Y-78970851D01*
X111882198Y-79187395D01*
X111635512Y-79371631D01*
X111355600Y-79535738D01*
X111022736Y-79691895D01*
X110801574Y-79782085D01*
X110659239Y-79846288D01*
X110466986Y-79944938D01*
X110246026Y-80066560D01*
X110017575Y-80199681D01*
X109921722Y-80257970D01*
X109494193Y-80506357D01*
X109109981Y-80694873D01*
X108756722Y-80827432D01*
X108422058Y-80907946D01*
X108093625Y-80940331D01*
X107793870Y-80931621D01*
X107473503Y-80887318D01*
X107179110Y-80806087D01*
X106895247Y-80680297D01*
X106606471Y-80502321D01*
X106297341Y-80264529D01*
X106102574Y-80096144D01*
X105943713Y-79960122D01*
X105766842Y-79818146D01*
X105586210Y-79680559D01*
X105416065Y-79557702D01*
X105270659Y-79459917D01*
X105164240Y-79397546D01*
X105115926Y-79380080D01*
X105095284Y-79419020D01*
X105074024Y-79522495D01*
X105055939Y-79670488D01*
X105051891Y-79718089D01*
X105004114Y-80124202D01*
X104920212Y-80592334D01*
X104803540Y-81109602D01*
X104657453Y-81663128D01*
X104485308Y-82240030D01*
X104290460Y-82827429D01*
X104117730Y-83303574D01*
X104008481Y-83591026D01*
X103903660Y-83861850D01*
X103799191Y-84125643D01*
X103690998Y-84392000D01*
X103575005Y-84670516D01*
X103447136Y-84970788D01*
X103303316Y-85302411D01*
X103139468Y-85674981D01*
X102951518Y-86098093D01*
X102735388Y-86581344D01*
X102551885Y-86990046D01*
X102157012Y-87928365D01*
X101833202Y-88830185D01*
X101578663Y-89702141D01*
X101391600Y-90550864D01*
X101270222Y-91382988D01*
X101227466Y-91888559D01*
X101213390Y-92071182D01*
X101196583Y-92217564D01*
X101179398Y-92310262D01*
X101167372Y-92334080D01*
X101130500Y-92300571D01*
X101065504Y-92212757D01*
X100987087Y-92090664D01*
X100731669Y-91603872D01*
X100547909Y-91099967D01*
X100431413Y-90563999D01*
X100379556Y-90022967D01*
X100375589Y-89519866D01*
X100412090Y-89024035D01*
X100491859Y-88524871D01*
X100617694Y-88011768D01*
X100792396Y-87474121D01*
X101018763Y-86901326D01*
X101299597Y-86282777D01*
X101445784Y-85984080D01*
X101626660Y-85617790D01*
X101778019Y-85303014D01*
X101897863Y-85044213D01*
X101984190Y-84845849D01*
X102035000Y-84712384D01*
X102048294Y-84648280D01*
X102046395Y-84644291D01*
X102015585Y-84667750D01*
X101952291Y-84757340D01*
X101861717Y-84903372D01*
X101749065Y-85096162D01*
X101619537Y-85326021D01*
X101478336Y-85583263D01*
X101330663Y-85858200D01*
X101181722Y-86141146D01*
X101036715Y-86422414D01*
X100900843Y-86692317D01*
X100779310Y-86941168D01*
X100677318Y-87159279D01*
X100600069Y-87336965D01*
X100599340Y-87338747D01*
X100406844Y-87842700D01*
X100235807Y-88355835D01*
X100092912Y-88855589D01*
X99984843Y-89319397D01*
X99941037Y-89561247D01*
X99922997Y-89720627D01*
X99908388Y-89936516D01*
X99898690Y-90180782D01*
X99895384Y-90425290D01*
X97739892Y-90425290D01*
X97886240Y-89809287D01*
X98183693Y-88875402D01*
X98561752Y-87920860D01*
X99020688Y-86944999D01*
X99560772Y-85947160D01*
X99779045Y-85575887D01*
X100250152Y-84820523D01*
X100759783Y-84057312D01*
X101289601Y-83312532D01*
X101821267Y-82612462D01*
X102026191Y-82355952D01*
X102333294Y-81942958D01*
X102636717Y-81470848D01*
X102922790Y-80964583D01*
X103177844Y-80449122D01*
X103388208Y-79949425D01*
X103470546Y-79718747D01*
X103598224Y-79287488D01*
X103713878Y-78804705D01*
X103810416Y-78303400D01*
X103854797Y-77996193D01*
X104574056Y-77996193D01*
X104630848Y-78249881D01*
X104767831Y-78510307D01*
X104983215Y-78774707D01*
X105275209Y-79040315D01*
X105576522Y-79261090D01*
X105752258Y-79386320D01*
X105963421Y-79547712D01*
X106183076Y-79724158D01*
X106378655Y-79889624D01*
X106649141Y-80116233D01*
X106881242Y-80286982D01*
X107090448Y-80411327D01*
X107292249Y-80498724D01*
X107457240Y-80548013D01*
X107730814Y-80591030D01*
X108042246Y-80600352D01*
X108351782Y-80576122D01*
X108525839Y-80544187D01*
X108753240Y-80479242D01*
X108989477Y-80387177D01*
X109249335Y-80260931D01*
X109547602Y-80093443D01*
X109827907Y-79922446D01*
X110042395Y-79793289D01*
X110261879Y-79669938D01*
X110462049Y-79565533D01*
X110618596Y-79493212D01*
X110632240Y-79487728D01*
X111059950Y-79295527D01*
X111433565Y-79078939D01*
X111748698Y-78842949D01*
X112000965Y-78592538D01*
X112185980Y-78332689D01*
X112299359Y-78068385D01*
X112336714Y-77804608D01*
X112305873Y-77586149D01*
X112249447Y-77431284D01*
X112167065Y-77293021D01*
X112050402Y-77165605D01*
X111891136Y-77043280D01*
X111680945Y-76920290D01*
X111411506Y-76790880D01*
X111074497Y-76649293D01*
X110791771Y-76539032D01*
X110541555Y-76439230D01*
X110293744Y-76332664D01*
X110070363Y-76229333D01*
X109893440Y-76139236D01*
X109827907Y-76101428D01*
X109417409Y-75864289D01*
X109046985Y-75687227D01*
X108702474Y-75565303D01*
X108369712Y-75493580D01*
X108034537Y-75467120D01*
X108007574Y-75466814D01*
X107611046Y-75495543D01*
X107237967Y-75590256D01*
X106878279Y-75755425D01*
X106521928Y-75995520D01*
X106209430Y-76266322D01*
X106074262Y-76387975D01*
X105891716Y-76542821D01*
X105682510Y-76713744D01*
X105467365Y-76883626D01*
X105392885Y-76940900D01*
X105149775Y-77128043D01*
X104965734Y-77275164D01*
X104831289Y-77391945D01*
X104736967Y-77488068D01*
X104673295Y-77573213D01*
X104630799Y-77657064D01*
X104600008Y-77749300D01*
X104599247Y-77752009D01*
X104574056Y-77996193D01*
X103854797Y-77996193D01*
X103880747Y-77816570D01*
X103882462Y-77801807D01*
X103901742Y-77556576D01*
X103912519Y-77236364D01*
X103914936Y-76850417D01*
X103909134Y-76407976D01*
X103895255Y-75918287D01*
X103873441Y-75390593D01*
X103845279Y-74861283D01*
X104629972Y-74861283D01*
X104647814Y-75165544D01*
X104686745Y-75427953D01*
X104700304Y-75485414D01*
X104762882Y-75688249D01*
X104844977Y-75900947D01*
X104938758Y-76108469D01*
X105036398Y-76295780D01*
X105130065Y-76447841D01*
X105211932Y-76549617D01*
X105273407Y-76586080D01*
X105323965Y-76561744D01*
X105414451Y-76499745D01*
X105472336Y-76455411D01*
X105570694Y-76376696D01*
X105638098Y-76321599D01*
X105653779Y-76308011D01*
X105642153Y-76266750D01*
X105593386Y-76181383D01*
X105560488Y-76131764D01*
X105429926Y-75911243D01*
X105346135Y-75684588D01*
X105299486Y-75421468D01*
X105287348Y-75271411D01*
X105293609Y-74905315D01*
X105358105Y-74597924D01*
X105480452Y-74350769D01*
X105536587Y-74279102D01*
X105679511Y-74164441D01*
X105831097Y-74126369D01*
X105984253Y-74158291D01*
X106131885Y-74253607D01*
X106266901Y-74405722D01*
X106382208Y-74608037D01*
X106470712Y-74853954D01*
X106525321Y-75136876D01*
X106532233Y-75205212D01*
X106546435Y-75358117D01*
X106559427Y-75471822D01*
X106568810Y-75525884D01*
X106570108Y-75527747D01*
X106610449Y-75510578D01*
X106705620Y-75465675D01*
X106828479Y-75405955D01*
X106974863Y-75336836D01*
X107104728Y-75280374D01*
X107177593Y-75252999D01*
X107224060Y-75235545D01*
X107252368Y-75206664D01*
X107265427Y-75149444D01*
X107266145Y-75046972D01*
X107257432Y-74882334D01*
X107253135Y-74813874D01*
X107250536Y-74788184D01*
X108663740Y-74788184D01*
X108663740Y-75220410D01*
X108864824Y-75274900D01*
X109025235Y-75326201D01*
X109182088Y-75388281D01*
X109222970Y-75407401D01*
X109331953Y-75456603D01*
X109411105Y-75483629D01*
X109424054Y-75485414D01*
X109447901Y-75445811D01*
X109463347Y-75337498D01*
X109468074Y-75197974D01*
X109492537Y-74868176D01*
X109561534Y-74571520D01*
X109668478Y-74314342D01*
X109806779Y-74102979D01*
X109969849Y-73943767D01*
X110151099Y-73843042D01*
X110343942Y-73807141D01*
X110541788Y-73842401D01*
X110738050Y-73955158D01*
X110750137Y-73964942D01*
X110913863Y-74150448D01*
X111039771Y-74395828D01*
X111125531Y-74684084D01*
X111168813Y-74998221D01*
X111167288Y-75321242D01*
X111118626Y-75636151D01*
X111020496Y-75925951D01*
X111019287Y-75928600D01*
X110965531Y-76053967D01*
X110931048Y-76149736D01*
X110923898Y-76183914D01*
X110961441Y-76216340D01*
X111058597Y-76268439D01*
X111195119Y-76331756D01*
X111350763Y-76397837D01*
X111505283Y-76458227D01*
X111638434Y-76504472D01*
X111729970Y-76528115D01*
X111750933Y-76529295D01*
X111798320Y-76491102D01*
X111869818Y-76395855D01*
X111951777Y-76262279D01*
X111971126Y-76227266D01*
X112155205Y-75812654D01*
X112266453Y-75377670D01*
X112308818Y-74906108D01*
X112309475Y-74839005D01*
X112305332Y-74631355D01*
X112293830Y-74433045D01*
X112277012Y-74273829D01*
X112266631Y-74215414D01*
X112127151Y-73751456D01*
X111933944Y-73344764D01*
X111689811Y-72999417D01*
X111397552Y-72719494D01*
X111114112Y-72536429D01*
X110995417Y-72478758D01*
X110889206Y-72443183D01*
X110768263Y-72424552D01*
X110605375Y-72417709D01*
X110484074Y-72417107D01*
X110217358Y-72429281D01*
X109998750Y-72471894D01*
X109803833Y-72555090D01*
X109608195Y-72689015D01*
X109408253Y-72864187D01*
X109128841Y-73183601D01*
X108913255Y-73556056D01*
X108763253Y-73977011D01*
X108680593Y-74441921D01*
X108663740Y-74788184D01*
X107250536Y-74788184D01*
X107215152Y-74438437D01*
X107148121Y-74114552D01*
X107044344Y-73811838D01*
X106943429Y-73591696D01*
X106789694Y-73338436D01*
X106601790Y-73113320D01*
X106397785Y-72935272D01*
X106218347Y-72832161D01*
X105962996Y-72766956D01*
X105711942Y-72781582D01*
X105471398Y-72871224D01*
X105247573Y-73031069D01*
X105046678Y-73256302D01*
X104874924Y-73542109D01*
X104738523Y-73883676D01*
X104702508Y-74007132D01*
X104657364Y-74251102D01*
X104633170Y-74546144D01*
X104629972Y-74861283D01*
X103845279Y-74861283D01*
X103843834Y-74834137D01*
X103834580Y-74681080D01*
X103803349Y-73840058D01*
X103815458Y-73037044D01*
X103869989Y-72277597D01*
X103966024Y-71567281D01*
X104102645Y-70911654D01*
X104278933Y-70316278D01*
X104493971Y-69786713D01*
X104708099Y-69389943D01*
X105059724Y-68888192D01*
X105457997Y-68449873D01*
X105905615Y-68073553D01*
X106405272Y-67757794D01*
X106959665Y-67501162D01*
X107571490Y-67302223D01*
X108243442Y-67159540D01*
X108978217Y-67071679D01*
X109076444Y-67064351D01*
X109707101Y-67045126D01*
X110323467Y-67074493D01*
G36*
X111609896Y-77634039D02*
G01*
X111626724Y-77736224D01*
X111627074Y-77761477D01*
X111621549Y-77857896D01*
X111591130Y-77915812D01*
X111515047Y-77958991D01*
X111425112Y-77992604D01*
X111319800Y-78038949D01*
X111159883Y-78120440D01*
X110962773Y-78227702D01*
X110745879Y-78351357D01*
X110610195Y-78431491D01*
X110159748Y-78696117D01*
X109766733Y-78914807D01*
X109420629Y-79092128D01*
X109110914Y-79232647D01*
X108827065Y-79340932D01*
X108558561Y-79421550D01*
X108294879Y-79479069D01*
X108140348Y-79503598D01*
X107931113Y-79530064D01*
X107770245Y-79541401D01*
X107622837Y-79537767D01*
X107453980Y-79519323D01*
X107367798Y-79507130D01*
X106993312Y-79425204D01*
X106624122Y-79287465D01*
X106250954Y-79088799D01*
X105864536Y-78824091D01*
X105455597Y-78488227D01*
X105351460Y-78395002D01*
X105182789Y-78240222D01*
X105067519Y-78128194D01*
X104995549Y-78045669D01*
X104956780Y-77979399D01*
X104941110Y-77916137D01*
X104938407Y-77853227D01*
X104949340Y-77736372D01*
X104985312Y-77689189D01*
X105001638Y-77686747D01*
X105057472Y-77713743D01*
X105159319Y-77786782D01*
X105291484Y-77893938D01*
X105405663Y-77993664D01*
X105770326Y-78312756D01*
X106092291Y-78572110D01*
X106382427Y-78777552D01*
X106651605Y-78934907D01*
X106910693Y-79050003D01*
X107170563Y-79128666D01*
X107442085Y-79176723D01*
X107647740Y-79195449D01*
X107919292Y-79196618D01*
X108198648Y-79164488D01*
X108494248Y-79095908D01*
X108814531Y-78987728D01*
X109167936Y-78836800D01*
X109562902Y-78639972D01*
X110007869Y-78394097D01*
X110378240Y-78176353D01*
X110742022Y-77964198D01*
X111046458Y-77799805D01*
X111289489Y-77684169D01*
X111469053Y-77618290D01*
X111565162Y-77602080D01*
X111609896Y-77634039D01*
G37*
X111609896Y-77634039D02*
X111626724Y-77736224D01*
X111627074Y-77761477D01*
X111621549Y-77857896D01*
X111591130Y-77915812D01*
X111515047Y-77958991D01*
X111425112Y-77992604D01*
X111319800Y-78038949D01*
X111159883Y-78120440D01*
X110962773Y-78227702D01*
X110745879Y-78351357D01*
X110610195Y-78431491D01*
X110159748Y-78696117D01*
X109766733Y-78914807D01*
X109420629Y-79092128D01*
X109110914Y-79232647D01*
X108827065Y-79340932D01*
X108558561Y-79421550D01*
X108294879Y-79479069D01*
X108140348Y-79503598D01*
X107931113Y-79530064D01*
X107770245Y-79541401D01*
X107622837Y-79537767D01*
X107453980Y-79519323D01*
X107367798Y-79507130D01*
X106993312Y-79425204D01*
X106624122Y-79287465D01*
X106250954Y-79088799D01*
X105864536Y-78824091D01*
X105455597Y-78488227D01*
X105351460Y-78395002D01*
X105182789Y-78240222D01*
X105067519Y-78128194D01*
X104995549Y-78045669D01*
X104956780Y-77979399D01*
X104941110Y-77916137D01*
X104938407Y-77853227D01*
X104949340Y-77736372D01*
X104985312Y-77689189D01*
X105001638Y-77686747D01*
X105057472Y-77713743D01*
X105159319Y-77786782D01*
X105291484Y-77893938D01*
X105405663Y-77993664D01*
X105770326Y-78312756D01*
X106092291Y-78572110D01*
X106382427Y-78777552D01*
X106651605Y-78934907D01*
X106910693Y-79050003D01*
X107170563Y-79128666D01*
X107442085Y-79176723D01*
X107647740Y-79195449D01*
X107919292Y-79196618D01*
X108198648Y-79164488D01*
X108494248Y-79095908D01*
X108814531Y-78987728D01*
X109167936Y-78836800D01*
X109562902Y-78639972D01*
X110007869Y-78394097D01*
X110378240Y-78176353D01*
X110742022Y-77964198D01*
X111046458Y-77799805D01*
X111289489Y-77684169D01*
X111469053Y-77618290D01*
X111565162Y-77602080D01*
X111609896Y-77634039D01*
M02*
