G04 #@! TF.GenerationSoftware,KiCad,Pcbnew,(5.1.5)-3*
G04 #@! TF.CreationDate,2020-04-16T17:00:03+04:00*
G04 #@! TF.ProjectId,drawing,64726177-696e-4672-9e6b-696361645f70,rev?*
G04 #@! TF.SameCoordinates,Original*
G04 #@! TF.FileFunction,Copper,L2,Bot*
G04 #@! TF.FilePolarity,Positive*
%FSLAX46Y46*%
G04 Gerber Fmt 4.6, Leading zero omitted, Abs format (unit mm)*
G04 Created by KiCad (PCBNEW (5.1.5)-3) date 2020-04-16 17:00:03*
%MOMM*%
%LPD*%
G04 APERTURE LIST*
%ADD10C,0.254000*%
G04 APERTURE END LIST*
D10*
G36*
X110144695Y-67759982D02*
G01*
X110594522Y-67809175D01*
X111007040Y-67887564D01*
X111384417Y-67992752D01*
X111729142Y-68122604D01*
X112043972Y-68275387D01*
X112331704Y-68449834D01*
X112594965Y-68645109D01*
X112836114Y-68860765D01*
X113057027Y-69096495D01*
X113259102Y-69351947D01*
X113443381Y-69626628D01*
X113610608Y-69919769D01*
X113761377Y-70230322D01*
X113896220Y-70556988D01*
X114015680Y-70898248D01*
X114120367Y-71252444D01*
X114210968Y-71617845D01*
X114288233Y-71992595D01*
X114352202Y-72370149D01*
X114448658Y-73155621D01*
X114505879Y-73942950D01*
X114533048Y-74723610D01*
X114539013Y-75482881D01*
X114524315Y-76865639D01*
X114523440Y-76877340D01*
X114523957Y-76899280D01*
X114523724Y-76921203D01*
X114524749Y-76932880D01*
X114533773Y-77315815D01*
X114533646Y-77339548D01*
X114534564Y-77349413D01*
X114534798Y-77359323D01*
X114537682Y-77382897D01*
X114572971Y-77761912D01*
X114574476Y-77785526D01*
X114576090Y-77795413D01*
X114577017Y-77805368D01*
X114581502Y-77828564D01*
X114640914Y-78192479D01*
X114643940Y-78215420D01*
X114646334Y-78225674D01*
X114648028Y-78236053D01*
X114653971Y-78258394D01*
X114735503Y-78607676D01*
X114739825Y-78629450D01*
X114743140Y-78640394D01*
X114745743Y-78651545D01*
X114752891Y-78672584D01*
X114854419Y-79007760D01*
X114859740Y-79028006D01*
X114864165Y-79039937D01*
X114867854Y-79052114D01*
X114875856Y-79071455D01*
X114995237Y-79393302D01*
X115001203Y-79411704D01*
X115006919Y-79424797D01*
X115011897Y-79438216D01*
X115020384Y-79455635D01*
X115155444Y-79764970D01*
X115161705Y-79781369D01*
X115168892Y-79795771D01*
X115175338Y-79810534D01*
X115183911Y-79825866D01*
X115332558Y-80123731D01*
X115338782Y-80138041D01*
X115347570Y-80153810D01*
X115355632Y-80169966D01*
X115363937Y-80183182D01*
X115524160Y-80470701D01*
X115530056Y-80482913D01*
X115540521Y-80500061D01*
X115550308Y-80517623D01*
X115558044Y-80528772D01*
X115730366Y-80811129D01*
X115738091Y-80825371D01*
X115747896Y-80839852D01*
X115756991Y-80854755D01*
X115766731Y-80867671D01*
X116162274Y-81451866D01*
X116169812Y-81464449D01*
X116181131Y-81479717D01*
X116191779Y-81495444D01*
X116201148Y-81506719D01*
X116620769Y-82072753D01*
X116624270Y-82078350D01*
X116640789Y-82099759D01*
X116656908Y-82121502D01*
X116661345Y-82126399D01*
X117092995Y-82685822D01*
X117097398Y-82692508D01*
X117113539Y-82712447D01*
X117129211Y-82732758D01*
X117134700Y-82738587D01*
X117545257Y-83245748D01*
X117986906Y-83819154D01*
X118436498Y-84439868D01*
X118882858Y-85103620D01*
X119314888Y-85806073D01*
X119721506Y-86542665D01*
X120094294Y-87313892D01*
X120260552Y-87701991D01*
X120414193Y-88096375D01*
X120636636Y-88759102D01*
X120814228Y-89429353D01*
X120944266Y-90115173D01*
X120987908Y-90450799D01*
X121018287Y-90794167D01*
X121033964Y-91138706D01*
X121034324Y-91484251D01*
X121018745Y-91830651D01*
X120986593Y-92177805D01*
X120937202Y-92525689D01*
X120869889Y-92874206D01*
X120783927Y-93223359D01*
X120675685Y-93582644D01*
X120657180Y-93639378D01*
X120652244Y-93680679D01*
X120644206Y-93721494D01*
X120644256Y-93747516D01*
X120641167Y-93773358D01*
X120644384Y-93814833D01*
X120644463Y-93856426D01*
X120649589Y-93881940D01*
X120651601Y-93907887D01*
X120662846Y-93947933D01*
X120671039Y-93988717D01*
X120681044Y-94012742D01*
X120688079Y-94037795D01*
X120706921Y-94074879D01*
X120722913Y-94113280D01*
X120737412Y-94134890D01*
X120749200Y-94158091D01*
X120774913Y-94190784D01*
X120798091Y-94225330D01*
X120816532Y-94243701D01*
X120832616Y-94264151D01*
X120864210Y-94291197D01*
X120893685Y-94320560D01*
X120915353Y-94334978D01*
X120935120Y-94351900D01*
X120971391Y-94372267D01*
X121006021Y-94395311D01*
X121061188Y-94418039D01*
X121177553Y-94469096D01*
X121273815Y-94521887D01*
X121370435Y-94586908D01*
X121465953Y-94664699D01*
X121573975Y-94773893D01*
X121659904Y-94889191D01*
X121737859Y-95025491D01*
X121808423Y-95183558D01*
X121871855Y-95361917D01*
X121928036Y-95554437D01*
X122033229Y-95993349D01*
X122130752Y-96415288D01*
X122133225Y-96429582D01*
X122138316Y-96448014D01*
X122142631Y-96466683D01*
X122147277Y-96480456D01*
X122237281Y-96806319D01*
X122237364Y-96807399D01*
X122255176Y-96871105D01*
X122263911Y-96902731D01*
X122264302Y-96903746D01*
X122264593Y-96904787D01*
X122276415Y-96935193D01*
X122300258Y-96997096D01*
X122300839Y-96998014D01*
X122393675Y-97236797D01*
X122396167Y-97248533D01*
X122418079Y-97299565D01*
X122425964Y-97319847D01*
X122431358Y-97330493D01*
X122436064Y-97341453D01*
X122446560Y-97360497D01*
X122471669Y-97410052D01*
X122479078Y-97419494D01*
X122506988Y-97470131D01*
X122510669Y-97480557D01*
X122539500Y-97529119D01*
X122550457Y-97548998D01*
X122556685Y-97558063D01*
X122562293Y-97567510D01*
X122575727Y-97585783D01*
X122607715Y-97632348D01*
X122615634Y-97640065D01*
X122645007Y-97680020D01*
X122651560Y-97692620D01*
X122678522Y-97726241D01*
X122683267Y-97733131D01*
X122689338Y-97740321D01*
X122695320Y-97748457D01*
X122702494Y-97756440D01*
X122709990Y-97765994D01*
X122712529Y-97768647D01*
X122714824Y-97771509D01*
X122721077Y-97777904D01*
X122975415Y-98079088D01*
X123191864Y-98362357D01*
X123363889Y-98618528D01*
X123493157Y-98846850D01*
X123582608Y-99046562D01*
X123636938Y-99217877D01*
X123662438Y-99363658D01*
X123665327Y-99488831D01*
X123650210Y-99595258D01*
X123619531Y-99690070D01*
X123570693Y-99784933D01*
X123499505Y-99884597D01*
X123403091Y-99989452D01*
X123281106Y-100097700D01*
X123135368Y-100207155D01*
X122972660Y-100313727D01*
X122571780Y-100542124D01*
X122115805Y-100776229D01*
X121133382Y-101278032D01*
X121117018Y-101285467D01*
X121103441Y-101293325D01*
X121089472Y-101300460D01*
X121074347Y-101310164D01*
X120597568Y-101586108D01*
X120576242Y-101597681D01*
X120568435Y-101602969D01*
X120560294Y-101607681D01*
X120540639Y-101621797D01*
X120076603Y-101936121D01*
X120056264Y-101949087D01*
X120048760Y-101954980D01*
X120040865Y-101960328D01*
X120022329Y-101975738D01*
X119812714Y-102140355D01*
X119797023Y-102151650D01*
X119786252Y-102161137D01*
X119774984Y-102169986D01*
X119761046Y-102183337D01*
X119562369Y-102358328D01*
X119545588Y-102372100D01*
X119537142Y-102380547D01*
X119528179Y-102388441D01*
X119513373Y-102404318D01*
X119322044Y-102595661D01*
X119304608Y-102612142D01*
X119298269Y-102619438D01*
X119291439Y-102626268D01*
X119276224Y-102644809D01*
X119086629Y-102863011D01*
X118712593Y-103282445D01*
X118335583Y-103639651D01*
X117948692Y-103946506D01*
X117556289Y-104202511D01*
X117162790Y-104407414D01*
X116772552Y-104561307D01*
X116389704Y-104664698D01*
X116007240Y-104720048D01*
X115839088Y-104727842D01*
X115664454Y-104723752D01*
X115493763Y-104707523D01*
X115327357Y-104679349D01*
X115165481Y-104639370D01*
X115008360Y-104587675D01*
X114856145Y-104524268D01*
X114708973Y-104449064D01*
X114566971Y-104361876D01*
X114430292Y-104262414D01*
X114299100Y-104150268D01*
X114173681Y-104024974D01*
X114054384Y-103885987D01*
X113941670Y-103732731D01*
X113836128Y-103564648D01*
X113738330Y-103380999D01*
X113659177Y-103197982D01*
X113611985Y-103038385D01*
X113611126Y-103030829D01*
X113592887Y-102973799D01*
X113585473Y-102948725D01*
X113582625Y-102941711D01*
X113570024Y-102902309D01*
X113557305Y-102879349D01*
X113547431Y-102855030D01*
X113524688Y-102820471D01*
X113504638Y-102784276D01*
X113487684Y-102764238D01*
X113473256Y-102742314D01*
X113444204Y-102712851D01*
X113417481Y-102681268D01*
X113396946Y-102664925D01*
X113378516Y-102646234D01*
X113344278Y-102623007D01*
X113311904Y-102597242D01*
X113288570Y-102585217D01*
X113266853Y-102570484D01*
X113228741Y-102554383D01*
X113191962Y-102535428D01*
X113166738Y-102528188D01*
X113142557Y-102517972D01*
X113102032Y-102509615D01*
X113062266Y-102498201D01*
X113036108Y-102496021D01*
X113010404Y-102490720D01*
X112969030Y-102490429D01*
X112961492Y-102489801D01*
X112935382Y-102490193D01*
X112875475Y-102489772D01*
X112868001Y-102491204D01*
X112372494Y-102498641D01*
X111854914Y-102469178D01*
X111343773Y-102413319D01*
X110868455Y-102346804D01*
X110867043Y-102346469D01*
X110834943Y-102342115D01*
X110803232Y-102337677D01*
X110801798Y-102337618D01*
X109878272Y-102212339D01*
X109856567Y-102208641D01*
X109844953Y-102207820D01*
X109833419Y-102206255D01*
X109811422Y-102205448D01*
X109377063Y-102174730D01*
X109345895Y-102172327D01*
X109343735Y-102172373D01*
X109341559Y-102172219D01*
X109310083Y-102173087D01*
X108902161Y-102181749D01*
X108881555Y-102181403D01*
X108868556Y-102182463D01*
X108855513Y-102182740D01*
X108835047Y-102185196D01*
X108288079Y-102229800D01*
X108272180Y-102230270D01*
X108254562Y-102232533D01*
X108236866Y-102233976D01*
X108221222Y-102236815D01*
X107729057Y-102300031D01*
X107712693Y-102301301D01*
X107695702Y-102304316D01*
X107678595Y-102306513D01*
X107662607Y-102310188D01*
X106784254Y-102466034D01*
X106781350Y-102466284D01*
X106751058Y-102471924D01*
X106720854Y-102477283D01*
X106718060Y-102478068D01*
X105971433Y-102617078D01*
X105651894Y-102658749D01*
X105342694Y-102675376D01*
X105289490Y-102676022D01*
X105242457Y-102685973D01*
X105194937Y-102693248D01*
X105176583Y-102699911D01*
X105157481Y-102703953D01*
X105113296Y-102722887D01*
X105068103Y-102739294D01*
X105051401Y-102749410D01*
X105033456Y-102757100D01*
X104993815Y-102784289D01*
X104952689Y-102809199D01*
X104938281Y-102822380D01*
X104922182Y-102833422D01*
X104888605Y-102867825D01*
X104853132Y-102900277D01*
X104841572Y-102916015D01*
X104827936Y-102929987D01*
X104801719Y-102970275D01*
X104773255Y-103009027D01*
X104750725Y-103057240D01*
X104628216Y-103293293D01*
X104497917Y-103483270D01*
X104348071Y-103652794D01*
X104178899Y-103802911D01*
X103990455Y-103933965D01*
X103782904Y-104045641D01*
X103556695Y-104137123D01*
X103316587Y-104206151D01*
X102939314Y-104270366D01*
X102536124Y-104292474D01*
X102105823Y-104271550D01*
X101652491Y-104206342D01*
X101180521Y-104096087D01*
X100694381Y-103940434D01*
X100198472Y-103739338D01*
X99687914Y-103488458D01*
X99430420Y-103360116D01*
X99410924Y-103349569D01*
X99400331Y-103345119D01*
X99390049Y-103339994D01*
X99369341Y-103332100D01*
X99127113Y-103230339D01*
X99109192Y-103221943D01*
X99096141Y-103217327D01*
X99083358Y-103211957D01*
X99064425Y-103206110D01*
X98821074Y-103120043D01*
X98804954Y-103113467D01*
X98789393Y-103108838D01*
X98774071Y-103103419D01*
X98757152Y-103099247D01*
X98507773Y-103025063D01*
X98487438Y-103018216D01*
X98475513Y-103015467D01*
X98463813Y-103011986D01*
X98442794Y-103007923D01*
X97903481Y-102883575D01*
X97883129Y-102878089D01*
X97870723Y-102876022D01*
X97858471Y-102873197D01*
X97837568Y-102870498D01*
X97299870Y-102780907D01*
X97285728Y-102777730D01*
X97266735Y-102775386D01*
X97247824Y-102772235D01*
X97233337Y-102771264D01*
X96138867Y-102636189D01*
X95628676Y-102568855D01*
X95168170Y-102486995D01*
X94973616Y-102440329D01*
X94793202Y-102385500D01*
X94634619Y-102323820D01*
X94499995Y-102256243D01*
X94389698Y-102184064D01*
X94301512Y-102107719D01*
X94230856Y-102024918D01*
X94172184Y-101928273D01*
X94125011Y-101812538D01*
X94091315Y-101673256D01*
X94073972Y-101503046D01*
X94077339Y-101296908D01*
X94105685Y-101052785D01*
X94162266Y-100770307D01*
X94249242Y-100449737D01*
X94371829Y-100079608D01*
X94381696Y-100050668D01*
X94382382Y-100047746D01*
X94383326Y-100044894D01*
X94390051Y-100015054D01*
X94411676Y-99922871D01*
X94414788Y-99915587D01*
X94427057Y-99857304D01*
X94432957Y-99832152D01*
X94433997Y-99824334D01*
X94435618Y-99816633D01*
X94438431Y-99791004D01*
X94446291Y-99731912D01*
X94445783Y-99724003D01*
X94451356Y-99673223D01*
X94453759Y-99664882D01*
X94458705Y-99606254D01*
X94461438Y-99581351D01*
X94461534Y-99572723D01*
X94462260Y-99564117D01*
X94461909Y-99539048D01*
X94462563Y-99480234D01*
X94460965Y-99471704D01*
X94456540Y-99155997D01*
X94456247Y-99124176D01*
X94456071Y-99122544D01*
X94456048Y-99120895D01*
X94452475Y-99089179D01*
X94409990Y-98695050D01*
X94409397Y-98682292D01*
X94406383Y-98661596D01*
X94404145Y-98640830D01*
X94401541Y-98628343D01*
X94340643Y-98210114D01*
X94282242Y-97772909D01*
X94266185Y-97578141D01*
X94261779Y-97393203D01*
X94271014Y-97223879D01*
X94294638Y-97071168D01*
X94333019Y-96933988D01*
X94391415Y-96799497D01*
X94480909Y-96647884D01*
X94576795Y-96524322D01*
X94681518Y-96419129D01*
X94796662Y-96327269D01*
X94923567Y-96245500D01*
X95055091Y-96175792D01*
X95381490Y-96039549D01*
X95699646Y-95925781D01*
X95709243Y-95923080D01*
X95731293Y-95914464D01*
X95753610Y-95906484D01*
X95762633Y-95902219D01*
X96013307Y-95804271D01*
X96016662Y-95803640D01*
X96076069Y-95779748D01*
X96104303Y-95768716D01*
X96107332Y-95767175D01*
X96110482Y-95765908D01*
X96137342Y-95751906D01*
X96194430Y-95722859D01*
X96197113Y-95720746D01*
X96391168Y-95619584D01*
X96403389Y-95615513D01*
X96450877Y-95588457D01*
X96469399Y-95578801D01*
X96480132Y-95571789D01*
X96491252Y-95565453D01*
X96508275Y-95553401D01*
X96554055Y-95523491D01*
X96563260Y-95514474D01*
X96603415Y-95486046D01*
X96609141Y-95483364D01*
X96658403Y-95447116D01*
X96680775Y-95431278D01*
X96685528Y-95427158D01*
X96690590Y-95423433D01*
X96710958Y-95405112D01*
X96757184Y-95365039D01*
X96761062Y-95360045D01*
X96802122Y-95323112D01*
X96817183Y-95313056D01*
X96852163Y-95278101D01*
X96863823Y-95267613D01*
X96875980Y-95254301D01*
X96888713Y-95241577D01*
X96898653Y-95229473D01*
X96932015Y-95192942D01*
X96941385Y-95177442D01*
X97148458Y-94925305D01*
X97162268Y-94909719D01*
X97169816Y-94899298D01*
X97177966Y-94889375D01*
X97189521Y-94872095D01*
X97427969Y-94542909D01*
X97675109Y-94204823D01*
X97928625Y-93898970D01*
X98032363Y-93794939D01*
X98035089Y-93793074D01*
X98079939Y-93747228D01*
X98101425Y-93725682D01*
X98103508Y-93723137D01*
X98129448Y-93696621D01*
X98146128Y-93671055D01*
X98165467Y-93647423D01*
X98182910Y-93614678D01*
X98203178Y-93583613D01*
X98214552Y-93555278D01*
X98228906Y-93528333D01*
X98239623Y-93492823D01*
X98253445Y-93458392D01*
X98259073Y-93428381D01*
X98267894Y-93399155D01*
X98271478Y-93362236D01*
X98278316Y-93325771D01*
X98277981Y-93295235D01*
X98280930Y-93264854D01*
X98277243Y-93227951D01*
X98277207Y-93224654D01*
X98273884Y-93194333D01*
X98267516Y-93130589D01*
X98266554Y-93127433D01*
X98222839Y-92728494D01*
X98206550Y-92283290D01*
X98220517Y-91829994D01*
X98263434Y-91369648D01*
X98333925Y-90903446D01*
X98430505Y-90432754D01*
X98551603Y-89958939D01*
X98695444Y-89483793D01*
X98871095Y-88979332D01*
X99068191Y-88476607D01*
X99284703Y-87976867D01*
X99518398Y-87481786D01*
X99767050Y-86992906D01*
X100026476Y-86515311D01*
X100580169Y-85578883D01*
X101154384Y-84696020D01*
X101732799Y-83874597D01*
X102296645Y-83126290D01*
X102791521Y-82507150D01*
X102792755Y-82506100D01*
X102833501Y-82454629D01*
X102853633Y-82429441D01*
X102854518Y-82428079D01*
X102855520Y-82426813D01*
X102872866Y-82399837D01*
X102908723Y-82344642D01*
X102909325Y-82343134D01*
X103272005Y-81779083D01*
X103285239Y-81759793D01*
X103290173Y-81750829D01*
X103295715Y-81742209D01*
X103306394Y-81721355D01*
X103630709Y-81132077D01*
X103643643Y-81109805D01*
X103646920Y-81102621D01*
X103650723Y-81095711D01*
X103660861Y-81072059D01*
X103924219Y-80494715D01*
X103935857Y-80470465D01*
X103938143Y-80464189D01*
X103940925Y-80458090D01*
X103949663Y-80432561D01*
X104157732Y-79861313D01*
X104167333Y-79836548D01*
X104169222Y-79829766D01*
X104171636Y-79823139D01*
X104178249Y-79797360D01*
X104337160Y-79226890D01*
X104344380Y-79203392D01*
X104346179Y-79194513D01*
X104348611Y-79185783D01*
X104352857Y-79161558D01*
X104469363Y-78586579D01*
X104474320Y-78565995D01*
X104476037Y-78553643D01*
X104478515Y-78541414D01*
X104480667Y-78520336D01*
X104562047Y-77934903D01*
X104565187Y-77918314D01*
X104566675Y-77901613D01*
X104568985Y-77884996D01*
X104569660Y-77868116D01*
X104625059Y-77246365D01*
X104628034Y-77215668D01*
X104628030Y-77213025D01*
X104628266Y-77210375D01*
X104627977Y-77179367D01*
X104627222Y-76697257D01*
X104628021Y-76681038D01*
X104627169Y-76663650D01*
X104627142Y-76646224D01*
X104625524Y-76630055D01*
X104598603Y-76080442D01*
X104598742Y-76076863D01*
X104596957Y-76046827D01*
X104595486Y-76016804D01*
X104594962Y-76013265D01*
X104513372Y-74640708D01*
X104489370Y-73882149D01*
X104495821Y-73105118D01*
X104546557Y-72321060D01*
X104591356Y-71943765D01*
X104652295Y-71567789D01*
X104730037Y-71200870D01*
X104825793Y-70845140D01*
X104940665Y-70502618D01*
X105075686Y-70175087D01*
X105231904Y-69863993D01*
X105410462Y-69570480D01*
X105612807Y-69295260D01*
X105840820Y-69038779D01*
X106096960Y-68801352D01*
X106384273Y-68583435D01*
X106706250Y-68385885D01*
X107066631Y-68210109D01*
X107469103Y-68058114D01*
X107917024Y-67932425D01*
X108413402Y-67835882D01*
X108965250Y-67770961D01*
X109316880Y-67749212D01*
X109653290Y-67742417D01*
X110144695Y-67759982D01*
G37*
X110144695Y-67759982D02*
X110594522Y-67809175D01*
X111007040Y-67887564D01*
X111384417Y-67992752D01*
X111729142Y-68122604D01*
X112043972Y-68275387D01*
X112331704Y-68449834D01*
X112594965Y-68645109D01*
X112836114Y-68860765D01*
X113057027Y-69096495D01*
X113259102Y-69351947D01*
X113443381Y-69626628D01*
X113610608Y-69919769D01*
X113761377Y-70230322D01*
X113896220Y-70556988D01*
X114015680Y-70898248D01*
X114120367Y-71252444D01*
X114210968Y-71617845D01*
X114288233Y-71992595D01*
X114352202Y-72370149D01*
X114448658Y-73155621D01*
X114505879Y-73942950D01*
X114533048Y-74723610D01*
X114539013Y-75482881D01*
X114524315Y-76865639D01*
X114523440Y-76877340D01*
X114523957Y-76899280D01*
X114523724Y-76921203D01*
X114524749Y-76932880D01*
X114533773Y-77315815D01*
X114533646Y-77339548D01*
X114534564Y-77349413D01*
X114534798Y-77359323D01*
X114537682Y-77382897D01*
X114572971Y-77761912D01*
X114574476Y-77785526D01*
X114576090Y-77795413D01*
X114577017Y-77805368D01*
X114581502Y-77828564D01*
X114640914Y-78192479D01*
X114643940Y-78215420D01*
X114646334Y-78225674D01*
X114648028Y-78236053D01*
X114653971Y-78258394D01*
X114735503Y-78607676D01*
X114739825Y-78629450D01*
X114743140Y-78640394D01*
X114745743Y-78651545D01*
X114752891Y-78672584D01*
X114854419Y-79007760D01*
X114859740Y-79028006D01*
X114864165Y-79039937D01*
X114867854Y-79052114D01*
X114875856Y-79071455D01*
X114995237Y-79393302D01*
X115001203Y-79411704D01*
X115006919Y-79424797D01*
X115011897Y-79438216D01*
X115020384Y-79455635D01*
X115155444Y-79764970D01*
X115161705Y-79781369D01*
X115168892Y-79795771D01*
X115175338Y-79810534D01*
X115183911Y-79825866D01*
X115332558Y-80123731D01*
X115338782Y-80138041D01*
X115347570Y-80153810D01*
X115355632Y-80169966D01*
X115363937Y-80183182D01*
X115524160Y-80470701D01*
X115530056Y-80482913D01*
X115540521Y-80500061D01*
X115550308Y-80517623D01*
X115558044Y-80528772D01*
X115730366Y-80811129D01*
X115738091Y-80825371D01*
X115747896Y-80839852D01*
X115756991Y-80854755D01*
X115766731Y-80867671D01*
X116162274Y-81451866D01*
X116169812Y-81464449D01*
X116181131Y-81479717D01*
X116191779Y-81495444D01*
X116201148Y-81506719D01*
X116620769Y-82072753D01*
X116624270Y-82078350D01*
X116640789Y-82099759D01*
X116656908Y-82121502D01*
X116661345Y-82126399D01*
X117092995Y-82685822D01*
X117097398Y-82692508D01*
X117113539Y-82712447D01*
X117129211Y-82732758D01*
X117134700Y-82738587D01*
X117545257Y-83245748D01*
X117986906Y-83819154D01*
X118436498Y-84439868D01*
X118882858Y-85103620D01*
X119314888Y-85806073D01*
X119721506Y-86542665D01*
X120094294Y-87313892D01*
X120260552Y-87701991D01*
X120414193Y-88096375D01*
X120636636Y-88759102D01*
X120814228Y-89429353D01*
X120944266Y-90115173D01*
X120987908Y-90450799D01*
X121018287Y-90794167D01*
X121033964Y-91138706D01*
X121034324Y-91484251D01*
X121018745Y-91830651D01*
X120986593Y-92177805D01*
X120937202Y-92525689D01*
X120869889Y-92874206D01*
X120783927Y-93223359D01*
X120675685Y-93582644D01*
X120657180Y-93639378D01*
X120652244Y-93680679D01*
X120644206Y-93721494D01*
X120644256Y-93747516D01*
X120641167Y-93773358D01*
X120644384Y-93814833D01*
X120644463Y-93856426D01*
X120649589Y-93881940D01*
X120651601Y-93907887D01*
X120662846Y-93947933D01*
X120671039Y-93988717D01*
X120681044Y-94012742D01*
X120688079Y-94037795D01*
X120706921Y-94074879D01*
X120722913Y-94113280D01*
X120737412Y-94134890D01*
X120749200Y-94158091D01*
X120774913Y-94190784D01*
X120798091Y-94225330D01*
X120816532Y-94243701D01*
X120832616Y-94264151D01*
X120864210Y-94291197D01*
X120893685Y-94320560D01*
X120915353Y-94334978D01*
X120935120Y-94351900D01*
X120971391Y-94372267D01*
X121006021Y-94395311D01*
X121061188Y-94418039D01*
X121177553Y-94469096D01*
X121273815Y-94521887D01*
X121370435Y-94586908D01*
X121465953Y-94664699D01*
X121573975Y-94773893D01*
X121659904Y-94889191D01*
X121737859Y-95025491D01*
X121808423Y-95183558D01*
X121871855Y-95361917D01*
X121928036Y-95554437D01*
X122033229Y-95993349D01*
X122130752Y-96415288D01*
X122133225Y-96429582D01*
X122138316Y-96448014D01*
X122142631Y-96466683D01*
X122147277Y-96480456D01*
X122237281Y-96806319D01*
X122237364Y-96807399D01*
X122255176Y-96871105D01*
X122263911Y-96902731D01*
X122264302Y-96903746D01*
X122264593Y-96904787D01*
X122276415Y-96935193D01*
X122300258Y-96997096D01*
X122300839Y-96998014D01*
X122393675Y-97236797D01*
X122396167Y-97248533D01*
X122418079Y-97299565D01*
X122425964Y-97319847D01*
X122431358Y-97330493D01*
X122436064Y-97341453D01*
X122446560Y-97360497D01*
X122471669Y-97410052D01*
X122479078Y-97419494D01*
X122506988Y-97470131D01*
X122510669Y-97480557D01*
X122539500Y-97529119D01*
X122550457Y-97548998D01*
X122556685Y-97558063D01*
X122562293Y-97567510D01*
X122575727Y-97585783D01*
X122607715Y-97632348D01*
X122615634Y-97640065D01*
X122645007Y-97680020D01*
X122651560Y-97692620D01*
X122678522Y-97726241D01*
X122683267Y-97733131D01*
X122689338Y-97740321D01*
X122695320Y-97748457D01*
X122702494Y-97756440D01*
X122709990Y-97765994D01*
X122712529Y-97768647D01*
X122714824Y-97771509D01*
X122721077Y-97777904D01*
X122975415Y-98079088D01*
X123191864Y-98362357D01*
X123363889Y-98618528D01*
X123493157Y-98846850D01*
X123582608Y-99046562D01*
X123636938Y-99217877D01*
X123662438Y-99363658D01*
X123665327Y-99488831D01*
X123650210Y-99595258D01*
X123619531Y-99690070D01*
X123570693Y-99784933D01*
X123499505Y-99884597D01*
X123403091Y-99989452D01*
X123281106Y-100097700D01*
X123135368Y-100207155D01*
X122972660Y-100313727D01*
X122571780Y-100542124D01*
X122115805Y-100776229D01*
X121133382Y-101278032D01*
X121117018Y-101285467D01*
X121103441Y-101293325D01*
X121089472Y-101300460D01*
X121074347Y-101310164D01*
X120597568Y-101586108D01*
X120576242Y-101597681D01*
X120568435Y-101602969D01*
X120560294Y-101607681D01*
X120540639Y-101621797D01*
X120076603Y-101936121D01*
X120056264Y-101949087D01*
X120048760Y-101954980D01*
X120040865Y-101960328D01*
X120022329Y-101975738D01*
X119812714Y-102140355D01*
X119797023Y-102151650D01*
X119786252Y-102161137D01*
X119774984Y-102169986D01*
X119761046Y-102183337D01*
X119562369Y-102358328D01*
X119545588Y-102372100D01*
X119537142Y-102380547D01*
X119528179Y-102388441D01*
X119513373Y-102404318D01*
X119322044Y-102595661D01*
X119304608Y-102612142D01*
X119298269Y-102619438D01*
X119291439Y-102626268D01*
X119276224Y-102644809D01*
X119086629Y-102863011D01*
X118712593Y-103282445D01*
X118335583Y-103639651D01*
X117948692Y-103946506D01*
X117556289Y-104202511D01*
X117162790Y-104407414D01*
X116772552Y-104561307D01*
X116389704Y-104664698D01*
X116007240Y-104720048D01*
X115839088Y-104727842D01*
X115664454Y-104723752D01*
X115493763Y-104707523D01*
X115327357Y-104679349D01*
X115165481Y-104639370D01*
X115008360Y-104587675D01*
X114856145Y-104524268D01*
X114708973Y-104449064D01*
X114566971Y-104361876D01*
X114430292Y-104262414D01*
X114299100Y-104150268D01*
X114173681Y-104024974D01*
X114054384Y-103885987D01*
X113941670Y-103732731D01*
X113836128Y-103564648D01*
X113738330Y-103380999D01*
X113659177Y-103197982D01*
X113611985Y-103038385D01*
X113611126Y-103030829D01*
X113592887Y-102973799D01*
X113585473Y-102948725D01*
X113582625Y-102941711D01*
X113570024Y-102902309D01*
X113557305Y-102879349D01*
X113547431Y-102855030D01*
X113524688Y-102820471D01*
X113504638Y-102784276D01*
X113487684Y-102764238D01*
X113473256Y-102742314D01*
X113444204Y-102712851D01*
X113417481Y-102681268D01*
X113396946Y-102664925D01*
X113378516Y-102646234D01*
X113344278Y-102623007D01*
X113311904Y-102597242D01*
X113288570Y-102585217D01*
X113266853Y-102570484D01*
X113228741Y-102554383D01*
X113191962Y-102535428D01*
X113166738Y-102528188D01*
X113142557Y-102517972D01*
X113102032Y-102509615D01*
X113062266Y-102498201D01*
X113036108Y-102496021D01*
X113010404Y-102490720D01*
X112969030Y-102490429D01*
X112961492Y-102489801D01*
X112935382Y-102490193D01*
X112875475Y-102489772D01*
X112868001Y-102491204D01*
X112372494Y-102498641D01*
X111854914Y-102469178D01*
X111343773Y-102413319D01*
X110868455Y-102346804D01*
X110867043Y-102346469D01*
X110834943Y-102342115D01*
X110803232Y-102337677D01*
X110801798Y-102337618D01*
X109878272Y-102212339D01*
X109856567Y-102208641D01*
X109844953Y-102207820D01*
X109833419Y-102206255D01*
X109811422Y-102205448D01*
X109377063Y-102174730D01*
X109345895Y-102172327D01*
X109343735Y-102172373D01*
X109341559Y-102172219D01*
X109310083Y-102173087D01*
X108902161Y-102181749D01*
X108881555Y-102181403D01*
X108868556Y-102182463D01*
X108855513Y-102182740D01*
X108835047Y-102185196D01*
X108288079Y-102229800D01*
X108272180Y-102230270D01*
X108254562Y-102232533D01*
X108236866Y-102233976D01*
X108221222Y-102236815D01*
X107729057Y-102300031D01*
X107712693Y-102301301D01*
X107695702Y-102304316D01*
X107678595Y-102306513D01*
X107662607Y-102310188D01*
X106784254Y-102466034D01*
X106781350Y-102466284D01*
X106751058Y-102471924D01*
X106720854Y-102477283D01*
X106718060Y-102478068D01*
X105971433Y-102617078D01*
X105651894Y-102658749D01*
X105342694Y-102675376D01*
X105289490Y-102676022D01*
X105242457Y-102685973D01*
X105194937Y-102693248D01*
X105176583Y-102699911D01*
X105157481Y-102703953D01*
X105113296Y-102722887D01*
X105068103Y-102739294D01*
X105051401Y-102749410D01*
X105033456Y-102757100D01*
X104993815Y-102784289D01*
X104952689Y-102809199D01*
X104938281Y-102822380D01*
X104922182Y-102833422D01*
X104888605Y-102867825D01*
X104853132Y-102900277D01*
X104841572Y-102916015D01*
X104827936Y-102929987D01*
X104801719Y-102970275D01*
X104773255Y-103009027D01*
X104750725Y-103057240D01*
X104628216Y-103293293D01*
X104497917Y-103483270D01*
X104348071Y-103652794D01*
X104178899Y-103802911D01*
X103990455Y-103933965D01*
X103782904Y-104045641D01*
X103556695Y-104137123D01*
X103316587Y-104206151D01*
X102939314Y-104270366D01*
X102536124Y-104292474D01*
X102105823Y-104271550D01*
X101652491Y-104206342D01*
X101180521Y-104096087D01*
X100694381Y-103940434D01*
X100198472Y-103739338D01*
X99687914Y-103488458D01*
X99430420Y-103360116D01*
X99410924Y-103349569D01*
X99400331Y-103345119D01*
X99390049Y-103339994D01*
X99369341Y-103332100D01*
X99127113Y-103230339D01*
X99109192Y-103221943D01*
X99096141Y-103217327D01*
X99083358Y-103211957D01*
X99064425Y-103206110D01*
X98821074Y-103120043D01*
X98804954Y-103113467D01*
X98789393Y-103108838D01*
X98774071Y-103103419D01*
X98757152Y-103099247D01*
X98507773Y-103025063D01*
X98487438Y-103018216D01*
X98475513Y-103015467D01*
X98463813Y-103011986D01*
X98442794Y-103007923D01*
X97903481Y-102883575D01*
X97883129Y-102878089D01*
X97870723Y-102876022D01*
X97858471Y-102873197D01*
X97837568Y-102870498D01*
X97299870Y-102780907D01*
X97285728Y-102777730D01*
X97266735Y-102775386D01*
X97247824Y-102772235D01*
X97233337Y-102771264D01*
X96138867Y-102636189D01*
X95628676Y-102568855D01*
X95168170Y-102486995D01*
X94973616Y-102440329D01*
X94793202Y-102385500D01*
X94634619Y-102323820D01*
X94499995Y-102256243D01*
X94389698Y-102184064D01*
X94301512Y-102107719D01*
X94230856Y-102024918D01*
X94172184Y-101928273D01*
X94125011Y-101812538D01*
X94091315Y-101673256D01*
X94073972Y-101503046D01*
X94077339Y-101296908D01*
X94105685Y-101052785D01*
X94162266Y-100770307D01*
X94249242Y-100449737D01*
X94371829Y-100079608D01*
X94381696Y-100050668D01*
X94382382Y-100047746D01*
X94383326Y-100044894D01*
X94390051Y-100015054D01*
X94411676Y-99922871D01*
X94414788Y-99915587D01*
X94427057Y-99857304D01*
X94432957Y-99832152D01*
X94433997Y-99824334D01*
X94435618Y-99816633D01*
X94438431Y-99791004D01*
X94446291Y-99731912D01*
X94445783Y-99724003D01*
X94451356Y-99673223D01*
X94453759Y-99664882D01*
X94458705Y-99606254D01*
X94461438Y-99581351D01*
X94461534Y-99572723D01*
X94462260Y-99564117D01*
X94461909Y-99539048D01*
X94462563Y-99480234D01*
X94460965Y-99471704D01*
X94456540Y-99155997D01*
X94456247Y-99124176D01*
X94456071Y-99122544D01*
X94456048Y-99120895D01*
X94452475Y-99089179D01*
X94409990Y-98695050D01*
X94409397Y-98682292D01*
X94406383Y-98661596D01*
X94404145Y-98640830D01*
X94401541Y-98628343D01*
X94340643Y-98210114D01*
X94282242Y-97772909D01*
X94266185Y-97578141D01*
X94261779Y-97393203D01*
X94271014Y-97223879D01*
X94294638Y-97071168D01*
X94333019Y-96933988D01*
X94391415Y-96799497D01*
X94480909Y-96647884D01*
X94576795Y-96524322D01*
X94681518Y-96419129D01*
X94796662Y-96327269D01*
X94923567Y-96245500D01*
X95055091Y-96175792D01*
X95381490Y-96039549D01*
X95699646Y-95925781D01*
X95709243Y-95923080D01*
X95731293Y-95914464D01*
X95753610Y-95906484D01*
X95762633Y-95902219D01*
X96013307Y-95804271D01*
X96016662Y-95803640D01*
X96076069Y-95779748D01*
X96104303Y-95768716D01*
X96107332Y-95767175D01*
X96110482Y-95765908D01*
X96137342Y-95751906D01*
X96194430Y-95722859D01*
X96197113Y-95720746D01*
X96391168Y-95619584D01*
X96403389Y-95615513D01*
X96450877Y-95588457D01*
X96469399Y-95578801D01*
X96480132Y-95571789D01*
X96491252Y-95565453D01*
X96508275Y-95553401D01*
X96554055Y-95523491D01*
X96563260Y-95514474D01*
X96603415Y-95486046D01*
X96609141Y-95483364D01*
X96658403Y-95447116D01*
X96680775Y-95431278D01*
X96685528Y-95427158D01*
X96690590Y-95423433D01*
X96710958Y-95405112D01*
X96757184Y-95365039D01*
X96761062Y-95360045D01*
X96802122Y-95323112D01*
X96817183Y-95313056D01*
X96852163Y-95278101D01*
X96863823Y-95267613D01*
X96875980Y-95254301D01*
X96888713Y-95241577D01*
X96898653Y-95229473D01*
X96932015Y-95192942D01*
X96941385Y-95177442D01*
X97148458Y-94925305D01*
X97162268Y-94909719D01*
X97169816Y-94899298D01*
X97177966Y-94889375D01*
X97189521Y-94872095D01*
X97427969Y-94542909D01*
X97675109Y-94204823D01*
X97928625Y-93898970D01*
X98032363Y-93794939D01*
X98035089Y-93793074D01*
X98079939Y-93747228D01*
X98101425Y-93725682D01*
X98103508Y-93723137D01*
X98129448Y-93696621D01*
X98146128Y-93671055D01*
X98165467Y-93647423D01*
X98182910Y-93614678D01*
X98203178Y-93583613D01*
X98214552Y-93555278D01*
X98228906Y-93528333D01*
X98239623Y-93492823D01*
X98253445Y-93458392D01*
X98259073Y-93428381D01*
X98267894Y-93399155D01*
X98271478Y-93362236D01*
X98278316Y-93325771D01*
X98277981Y-93295235D01*
X98280930Y-93264854D01*
X98277243Y-93227951D01*
X98277207Y-93224654D01*
X98273884Y-93194333D01*
X98267516Y-93130589D01*
X98266554Y-93127433D01*
X98222839Y-92728494D01*
X98206550Y-92283290D01*
X98220517Y-91829994D01*
X98263434Y-91369648D01*
X98333925Y-90903446D01*
X98430505Y-90432754D01*
X98551603Y-89958939D01*
X98695444Y-89483793D01*
X98871095Y-88979332D01*
X99068191Y-88476607D01*
X99284703Y-87976867D01*
X99518398Y-87481786D01*
X99767050Y-86992906D01*
X100026476Y-86515311D01*
X100580169Y-85578883D01*
X101154384Y-84696020D01*
X101732799Y-83874597D01*
X102296645Y-83126290D01*
X102791521Y-82507150D01*
X102792755Y-82506100D01*
X102833501Y-82454629D01*
X102853633Y-82429441D01*
X102854518Y-82428079D01*
X102855520Y-82426813D01*
X102872866Y-82399837D01*
X102908723Y-82344642D01*
X102909325Y-82343134D01*
X103272005Y-81779083D01*
X103285239Y-81759793D01*
X103290173Y-81750829D01*
X103295715Y-81742209D01*
X103306394Y-81721355D01*
X103630709Y-81132077D01*
X103643643Y-81109805D01*
X103646920Y-81102621D01*
X103650723Y-81095711D01*
X103660861Y-81072059D01*
X103924219Y-80494715D01*
X103935857Y-80470465D01*
X103938143Y-80464189D01*
X103940925Y-80458090D01*
X103949663Y-80432561D01*
X104157732Y-79861313D01*
X104167333Y-79836548D01*
X104169222Y-79829766D01*
X104171636Y-79823139D01*
X104178249Y-79797360D01*
X104337160Y-79226890D01*
X104344380Y-79203392D01*
X104346179Y-79194513D01*
X104348611Y-79185783D01*
X104352857Y-79161558D01*
X104469363Y-78586579D01*
X104474320Y-78565995D01*
X104476037Y-78553643D01*
X104478515Y-78541414D01*
X104480667Y-78520336D01*
X104562047Y-77934903D01*
X104565187Y-77918314D01*
X104566675Y-77901613D01*
X104568985Y-77884996D01*
X104569660Y-77868116D01*
X104625059Y-77246365D01*
X104628034Y-77215668D01*
X104628030Y-77213025D01*
X104628266Y-77210375D01*
X104627977Y-77179367D01*
X104627222Y-76697257D01*
X104628021Y-76681038D01*
X104627169Y-76663650D01*
X104627142Y-76646224D01*
X104625524Y-76630055D01*
X104598603Y-76080442D01*
X104598742Y-76076863D01*
X104596957Y-76046827D01*
X104595486Y-76016804D01*
X104594962Y-76013265D01*
X104513372Y-74640708D01*
X104489370Y-73882149D01*
X104495821Y-73105118D01*
X104546557Y-72321060D01*
X104591356Y-71943765D01*
X104652295Y-71567789D01*
X104730037Y-71200870D01*
X104825793Y-70845140D01*
X104940665Y-70502618D01*
X105075686Y-70175087D01*
X105231904Y-69863993D01*
X105410462Y-69570480D01*
X105612807Y-69295260D01*
X105840820Y-69038779D01*
X106096960Y-68801352D01*
X106384273Y-68583435D01*
X106706250Y-68385885D01*
X107066631Y-68210109D01*
X107469103Y-68058114D01*
X107917024Y-67932425D01*
X108413402Y-67835882D01*
X108965250Y-67770961D01*
X109316880Y-67749212D01*
X109653290Y-67742417D01*
X110144695Y-67759982D01*
M02*
